<svg width="663" height="493" viewBox="0 0 663 493" fill="none" xmlns="http://www.w3.org/2000/svg">
<g clip-path="url(#clip0_2002_262)">
<path d="M626.883 492.093C650.515 410.066 660.657 289.07 626.935 210.677C604.198 157.822 569.113 141.759 530.761 126.502C498.178 113.538 480.609 73.8923 454.635 45.9568C417.78 6.31754 369.353 0.09528 325.176 -2.13246e-05C271.614 -0.116842 209.774 7.42734 165.306 56.363C140.042 84.1664 119.157 124.891 120.41 173.455C121.509 216.07 135.216 253.111 106.4 281.92C82.4463 305.865 60.8234 325.525 51.3854 368.918C42.5016 409.768 46.3326 462.494 69.5571 491.776L626.883 492.093Z" fill="#EBF3FA"/>
<path d="M74.0617 422.471C74.0617 422.471 85.0737 409.574 74.7415 401.382C74.7415 401.382 67.193 396.795 61.0408 397.167C61.0408 397.167 69.7592 411.846 66.9388 413.307C64.1184 414.767 58.398 396.248 58.398 396.248C58.398 396.248 41.2216 394.575 35.6972 397.244C35.6972 397.244 50.3809 409.307 47.288 410.023C44.1951 410.743 28.3355 398.901 28.3355 398.901C28.3355 398.901 12.3502 401.631 13.2016 411.422C14.0529 421.21 19.562 424.235 21.9842 423.974C24.4035 423.713 38.5666 418.287 38.8759 420.279C39.1852 422.271 30.6597 428.779 24.6913 429.084C24.6913 429.084 35.9606 441.562 43.451 437.959C50.9413 434.359 51.5814 428.65 56.2483 426.51C60.9183 424.371 64.9024 424.374 62.9762 426.56C61.0469 428.742 52.598 430.867 49.9277 435.607C47.2574 440.347 44.8627 443.545 52.6103 442.376C60.361 441.205 72.9562 435.515 73.5074 428.994L74.0617 422.477V422.471Z" fill="#C8DBF4"/>
<path d="M21.0564 411.686C21.0564 411.686 64.4736 410.008 74.0617 422.471C74.0617 422.471 76.1808 428.847 82.7066 434.651L83.7233 437.433C83.7233 437.433 76.1992 429.471 73.5074 428.988C73.5074 428.988 77.7181 413.546 21.0564 411.683V411.686Z" fill="#C8DBF4"/>
<path d="M82.7066 434.651C82.7066 434.651 92.0252 441.571 92.6744 453.932L90.984 454.083C90.984 454.083 88.0074 441.3 82.6269 436.302C77.2465 431.303 82.7066 434.651 82.7066 434.651V434.651Z" fill="#C8DBF4"/>
<path d="M112.561 406.251C112.561 406.251 95.0446 396.404 103.218 383.041C103.218 383.041 109.756 374.836 116.762 372.724C116.762 372.724 113.026 392.654 116.762 393.121C120.498 393.592 119.332 370.612 119.332 370.612C119.332 370.612 137.782 361.702 145.021 362.406C145.021 362.406 133.577 381.866 137.314 381.399C141.05 380.929 153.896 361.235 153.896 361.235C153.896 361.235 172.815 357.718 175.849 368.973C178.884 380.228 173.981 385.854 171.179 386.558C168.377 387.262 150.393 387.028 150.861 389.371C151.33 391.716 163.472 395.467 170.245 393.358C170.245 393.358 162.77 411.88 152.962 410.942C143.153 410.005 140.116 403.909 134.043 403.438C127.97 402.968 123.533 404.61 126.568 406.251C129.603 407.893 139.88 406.789 144.786 410.976C149.691 415.163 153.66 417.743 144.553 419.618C135.446 421.493 119.096 420.322 115.825 413.288L112.555 406.254L112.561 406.251Z" fill="#C8DBF4"/>
<path d="M167.214 372.49C167.214 372.49 118.168 388.433 112.561 406.251C112.561 406.251 112.794 414.223 107.891 423.369V426.885C107.891 426.885 113.029 414.927 115.831 413.285C115.831 413.285 104.853 397.809 167.214 372.49Z" fill="#C8DBF4"/>
<path d="M107.891 423.369C107.891 423.369 100.327 434.9 104.639 448.934L106.583 448.408C106.583 448.408 104.694 432.948 108.65 425.173C112.607 417.398 107.888 423.365 107.888 423.365L107.891 423.369Z" fill="#C8DBF4"/>
<path d="M84.694 392.672C84.694 392.672 107.784 379.693 97.0075 362.074C97.0075 362.074 88.3872 351.256 79.1513 348.477C79.1513 348.477 84.0785 374.746 79.1513 375.364C74.224 375.982 75.7643 345.695 75.7643 345.695C75.7643 345.695 51.4436 333.951 41.8984 334.877C41.8984 334.877 56.9833 360.528 52.0591 359.91C47.1349 359.292 30.2004 333.33 30.2004 333.33C30.2004 333.33 5.26409 328.694 1.26166 343.531C-2.74076 358.367 3.72375 365.785 7.41995 366.71C11.1131 367.639 34.8214 367.328 34.2028 370.418C33.5873 373.507 17.5776 378.454 8.65099 375.672C8.65099 375.672 18.5024 400.087 31.4345 398.852C44.3635 397.616 48.366 389.58 56.3708 388.962C64.3757 388.344 70.2246 390.508 66.2222 392.672C62.2198 394.837 48.6722 393.382 42.2077 398.898C35.7432 404.416 30.5097 407.816 42.517 410.288C54.5242 412.759 76.0736 411.216 80.3854 401.944L84.694 392.672V392.672Z" fill="#D4E4F8"/>
<path d="M12.6534 348.167C12.6534 348.167 77.3047 369.182 84.694 392.672C84.694 392.672 84.3847 403.18 90.8523 415.234V419.87C90.8523 419.87 84.0785 404.108 80.3853 401.944C80.3853 401.944 94.8547 381.547 12.6534 348.167V348.167Z" fill="#D4E4F8"/>
<path d="M90.8523 415.234C90.8523 415.234 100.823 430.433 95.1395 448.937L92.5733 448.245C92.5733 448.245 95.0629 427.866 89.8478 417.617C84.6328 407.367 90.8523 415.234 90.8523 415.234Z" fill="#D4E4F8"/>
<path d="M85.4718 489.056C60.4927 489.056 40.2417 468.726 40.2417 443.649H130.702C130.702 468.726 110.451 489.056 85.4718 489.056Z" fill="#D4E4F8"/>
<path d="M39.62 491.368H131.327C131.327 488.275 128.828 485.766 125.747 485.766H45.1995C42.1189 485.766 39.62 488.275 39.62 491.368Z" fill="#D4E4F8"/>
<path d="M39.2127 445.045H132.187V443.652H39.2127V445.045Z" fill="#9FC1F4"/>
<path d="M231.28 344.819C230.371 323.951 228.414 305.797 226.071 293.138C222.335 272.958 218.973 261.347 218.933 261.224C218.44 259.45 211.332 252.269 195.525 252.49C179.72 252.711 181.218 262.128 181.218 262.128C181.218 262.448 181.261 262.743 181.331 262.964C181.484 263.45 195.993 312.594 195.365 376.047C195.356 376.938 195.249 378.478 195.316 379.502C195.316 379.508 231.945 380.384 231.954 379.502C233.231 373.956 232.609 358.591 231.28 344.816V344.819Z" fill="#B7D3F3"/>
<path d="M235.883 375.739C235.87 376.622 235.371 377.332 234.762 377.332H234.747C234.137 377.319 233.653 376.609 233.644 375.739H202.253C202.24 376.622 201.741 377.332 201.132 377.332H201.116C200.498 377.319 200.005 376.588 200.011 375.693C200.195 357.531 199.083 340.57 197.408 325.598C193.234 288.268 185.52 263.314 185.41 262.97C185.339 262.749 185.297 262.451 185.297 262.134C185.297 262.134 183.796 252.718 199.604 252.496C215.411 252.275 222.522 259.456 223.015 261.23C223.046 261.322 224.947 267.898 227.48 279.716C228.319 283.632 229.222 288.12 230.153 293.141C232.496 305.8 234.453 323.954 235.362 344.822C236.691 358.597 237.157 370.2 235.88 375.742L235.883 375.739Z" fill="#D2E3FC"/>
<path d="M197.699 377.332H320.77C320.77 377.332 317.903 366.498 246.628 368.112C196.189 369.253 197.699 377.332 197.699 377.332Z" fill="#C5DCF8"/>
<path d="M187.679 490.498C201.949 423.015 198.281 381.608 198.262 381.085C198.226 380.046 200.277 379.103 201.38 379.069C202.498 379.05 207.422 378.761 207.991 379.65C208.739 380.815 211.611 431.835 190.346 490.494H187.682L187.679 490.498Z" fill="#B7D3F3"/>
<path d="M302.589 490.498C288.319 423.015 291.987 381.608 292.006 381.085C292.042 380.046 289.991 379.103 288.888 379.069C287.77 379.05 282.846 378.761 282.277 379.65C281.529 380.815 278.657 431.835 299.922 490.494H302.586L302.589 490.498Z" fill="#B7D3F3"/>
<path d="M325.36 490.498C311.09 423.015 314.758 381.608 314.777 381.085C314.814 380.046 312.762 379.103 311.659 379.069C310.542 379.05 305.617 378.761 305.048 379.65C304.301 380.815 301.428 431.835 322.693 490.494H325.357L325.36 490.498Z" fill="#B7D3F3"/>
<path d="M210.607 490.498C224.877 423.015 221.208 381.608 221.19 381.085C221.153 380.046 223.205 379.103 224.307 379.069C225.425 379.05 230.349 378.761 230.919 379.65C231.666 380.815 234.538 431.835 213.274 490.494H210.61L210.607 490.498Z" fill="#B7D3F3"/>
<path d="M320.929 374.531H197.681C196.338 374.531 195.249 375.624 195.249 376.972V378.349C195.249 379.698 196.338 380.79 197.681 380.79H320.929C322.272 380.79 323.36 379.698 323.36 378.349V376.972C323.36 375.624 322.272 374.531 320.929 374.531Z" fill="#B7D3F3"/>
<path d="M226.733 158.686C226.374 157.844 222.207 148.891 208.056 153.776C208.056 153.776 215.237 151.96 217.579 154.536C217.579 154.536 211.473 152.587 208.123 155.255C204.773 157.924 205.091 165.483 205.909 167.693C206.727 169.904 211.55 176.197 214.199 175.871C215.203 175.748 216.232 175.281 217.129 174.749C216.869 176.003 216.664 177.359 216.535 178.831C215.341 192.46 225.37 201.476 229.614 198.424C232.337 196.465 235.169 201.32 235.169 201.32L255.46 166.126C255.46 166.126 236.109 147.843 226.733 158.683V158.686Z" fill="#2C3A64"/>
<path d="M264.797 241.574C245.578 250.197 231.13 219.762 232.386 219.448C234.306 217.266 236.287 209.491 234.881 198.304L235.877 198.371L252.591 199.613C252.591 199.613 252.851 204.818 253.427 209.672C253.809 212.863 254.33 215.907 255.01 217.235C255.209 217.628 258.832 218.154 258.841 218.16C259.123 218.468 269.926 239.274 264.797 241.571V241.574Z" fill="#D17B34"/>
<path d="M387.476 490.79H353.797C353.797 490.79 352.988 485.637 354.749 481.727C356.433 477.976 357.511 476.946 355.68 472.612C357.82 474.825 364.071 476.424 368.94 475.766C369.537 476.737 372.792 481.933 374.783 483.372C376.984 484.961 386.799 484.392 387.476 490.793V490.79Z" fill="#233862"/>
<path d="M328.171 490.498H294.492C294.492 490.498 293.684 485.345 295.445 481.435C297.129 477.684 300.415 475.176 301.379 470.847C303.52 473.06 304.766 476.129 309.635 475.471C310.232 476.442 313.488 481.638 315.478 483.076C317.68 484.663 327.494 484.097 328.171 490.498Z" fill="#233862"/>
<path d="M365.259 287.235L365.243 293.977C365.243 293.977 362.987 294.168 359.394 294.463C358.317 294.543 357.689 294.555 357.689 294.555C354.807 294.764 351.341 294.918 347.562 295.102L347.51 295.118C341.008 295.308 333.696 295.406 327.403 295.01C326.836 294.97 326.279 294.927 325.734 294.878C321.985 294.543 318.681 294.017 316.231 293.258C315.947 293.178 315.714 293.082 315.414 292.956C284.662 275.129 266.953 245.226 266.791 244.43C263.045 230.183 275.34 228.062 308.49 265.036C318.133 275.793 323.881 275.387 327.442 276.734C328.386 277.093 329.396 277.456 330.447 277.825C336.299 279.848 343.599 281.889 350.042 283.531C353.202 284.355 356.176 285.074 358.641 285.664C362.625 286.633 365.253 287.235 365.253 287.235H365.259Z" fill="#D17B34"/>
<path d="M211.764 331.713C211.764 331.713 204.206 355.357 221.07 366.575C243.664 381.602 306.31 368.795 313.46 376.471C315.27 378.414 309.794 379.398 306.705 407.186C302.261 447.151 298.663 469.504 298.663 469.504C298.663 469.504 299.435 474.072 304.181 476.433C307.293 477.979 311.24 477.023 311.24 477.023C311.24 477.023 357.251 375.604 352.67 361.536C344.732 337.17 300.788 339.559 249.85 325.159C218.746 316.367 211.764 331.719 211.764 331.719V331.713Z" fill="#93312C"/>
<path d="M235.607 331.2C257.974 329.125 319.015 328.067 332.214 337.173C348.459 348.379 370.541 476.519 370.541 476.519C370.541 476.519 368.845 477.875 365.152 478.238C361.716 478.576 354.256 476.368 354.256 476.368C354.256 476.368 317.962 418.656 315.778 404.216C313.595 389.776 314.719 376.935 308.579 376.505C302.439 376.071 218.085 385.832 210.882 362.655C205.257 344.551 212 327.037 212 327.037C212 327.037 214.973 333.118 235.61 331.203L235.607 331.2Z" fill="#B5453C"/>
<path d="M287.657 272.208C291.586 296.166 290.033 327.114 290.033 327.114C267.186 362.52 203.591 351.871 203.591 351.871C202.188 338.449 207.56 308.598 210.818 282.037C211.617 275.525 212.291 269.22 212.707 263.398C213.072 258.322 213.666 253.812 214.428 249.803C219.849 221.416 233.794 218.298 233.794 218.298C240.314 231.01 260.889 234.432 260.889 234.432C261.144 227.278 258.838 218.166 258.838 218.166C261.444 218.48 270.089 219.885 272.603 220.712C280.611 223.34 302.861 253.425 302.861 253.425C302.861 253.425 298.314 265.863 287.657 272.211V272.208Z" fill="#ABDDDA"/>
<path d="M252.591 199.616C252.591 199.616 252.848 204.818 253.427 209.675C244.264 210.536 238.418 202.767 235.877 198.374L252.591 199.616Z" fill="#B56321"/>
<path d="M256.201 203.843C256.201 203.843 234.639 206.853 232.98 193.342C231.32 179.834 227.419 171.124 241.116 168.631C254.814 166.138 258.127 170.961 259.772 175.336C261.419 179.711 261.768 202.712 256.201 203.843Z" fill="#D17B34"/>
<path d="M258.216 167.903C254.382 164.247 251.966 165.449 250.701 166.845C238.097 161.776 231.663 172.348 231.663 172.348C231.4 182.219 225.11 188.629 225.11 188.629C225.11 188.629 229.345 190.587 238.14 187.129C240.825 186.071 243.061 183.79 244.874 181.131C241.952 187.765 237.494 192.831 237.494 192.831C247.725 186.468 250.236 170.792 250.475 169.138C251.938 170.165 254.854 172.431 255.953 174.863C257.451 178.17 258.795 185.195 260.822 184.7C260.822 184.7 263.967 173.381 258.216 167.899V167.903Z" fill="#2C3A64"/>
<path d="M365.259 287.235C365.259 287.235 367.758 286.989 369.616 286.294C371.472 285.603 372.795 284.521 375.321 284.588C377.848 284.656 381.908 282.977 381.789 283.706C381.67 284.435 378.13 286.9 377.961 287.321C377.793 287.742 381.771 292.194 383.917 292.975C386.067 293.756 391.546 295.56 390.811 296.387C390.079 297.217 381.755 298.791 379.6 298.585C377.444 298.379 373.098 294.813 370.869 294.146C368.64 293.479 365.243 293.974 365.243 293.974L365.259 287.232V287.235Z" fill="#D17B34"/>
<path d="M380.178 291.201C380.178 291.201 387.509 290.811 389.185 292.753L383.501 293.614L380.178 291.201V291.201Z" fill="#D17B34"/>
<path d="M381.379 298.063L391.769 298.444C391.769 298.444 390.832 297.014 389.056 296.473C387.277 295.929 381.379 298.063 381.379 298.063V298.063Z" fill="#D17B34"/>
<path d="M260.412 327.468C260.041 327.262 216.22 332.067 210.815 282.034C211.614 275.522 212.288 269.217 212.704 263.395C213.069 258.319 213.663 253.809 214.425 249.8C218.369 249.188 223.104 253.449 225.226 259.773C229.593 272.792 260.298 326.924 260.412 327.468V327.468Z" fill="#91CECF"/>
<path d="M287.776 329.426L285.351 335.71C285.351 335.71 283.177 335.073 279.72 334.056C278.684 333.742 278.097 333.527 278.097 333.527C275.334 332.682 272.042 331.575 268.45 330.385L268.398 330.379C262.261 328.212 255.405 325.666 249.672 323.025C249.158 322.783 248.656 322.543 248.163 322.303C244.785 320.637 241.888 318.955 239.876 317.363C239.637 317.184 239.453 317.012 239.221 316.785C233.776 311.878 228.074 298.524 224.029 284.416C223.465 282.47 222.951 280.524 222.436 278.633C220.614 271.603 219.285 264.723 218.666 258.835C218.265 255.322 218.085 252.137 218.247 249.548C218.293 248.635 218.327 247.768 218.461 246.966C220.063 232.32 230.542 231.874 231.73 233.682C233.228 235.932 234.691 239.502 236.134 243.79C238.333 250.603 240.485 259.358 242.442 268.037C243.532 272.799 244.57 277.554 245.642 281.954C246.233 284.619 246.843 287.131 247.418 289.439C248.545 293.848 249.599 297.429 250.634 299.732C251.295 301.232 253.408 303.443 256.25 305.985C257 306.661 257.815 307.362 258.663 308.085C263.397 312.084 269.482 316.622 274.909 320.477C277.561 322.386 280.078 324.129 282.169 325.571C285.541 327.91 287.776 329.423 287.776 329.423V329.426Z" fill="#D17B34"/>
<path d="M287.204 329.635C287.204 329.635 298.13 326.53 300.733 327.256C303.336 327.981 312.253 333.908 311.001 335.519C309.749 337.13 301.891 334.554 298.274 335.043C294.657 335.531 291.862 337.321 289.259 336.933C286.656 336.546 283.933 335.519 283.933 335.519L287.201 329.635H287.204Z" fill="#D17B34"/>
<path d="M287.204 329.635C287.204 329.635 292.551 326.877 294.073 325.306C294.266 325.11 294.59 325.15 294.737 325.383C295.144 326.029 295.527 327.274 293.65 328.513C290.952 330.296 287.204 329.635 287.204 329.635V329.635Z" fill="#D17B34"/>
<path d="M230.417 228.991C230.417 228.991 220.228 233.959 216.67 240.759C213.115 247.559 212.677 269.275 218.183 297.503C218.183 297.503 234.786 296.406 245.639 281.957C245.639 281.957 241.609 224.908 230.413 228.988L230.417 228.991Z" fill="#ABDDDA"/>
<path d="M234.597 213.832C234.597 213.832 230.882 216.153 230.873 219.596C230.873 219.596 235.261 231.638 260.889 234.432C260.889 234.432 237.301 222.787 234.597 213.835V213.832Z" fill="#91CECF"/>
<path d="M254.609 216.697C254.609 216.697 261.073 228.622 260.89 234.429C260.89 234.429 261.327 221.228 260.412 218.163C259.496 215.098 254.045 213.832 254.045 213.832L254.609 216.697V216.697Z" fill="#91CECF"/>
<path d="M249.856 196.647C250.076 196.647 252.125 198.485 254.835 197.969C257.545 197.455 257.518 195.322 257.518 195.322C257.518 195.322 255.668 195.026 254.042 195.322C252.416 195.617 249.853 196.644 249.853 196.644L249.856 196.647Z" fill="white"/>
<path d="M385.957 373.88H591.627C594.506 373.88 596.842 376.225 596.842 379.115V386.041C596.842 388.931 594.506 391.277 591.627 391.277H385.957C383.078 391.277 380.742 388.931 380.742 386.041V379.115C380.742 376.225 383.078 373.88 385.957 373.88Z" fill="#B0D4FF"/>
<path d="M581.754 490.424H579.546L562.443 425.422V425.41L558.554 410.629L558.548 410.623L553.504 391.452L563.576 391.28L567.009 410.002L569.578 424.023C569.591 424.094 569.609 424.159 569.621 424.226L581.754 490.43V490.424Z" fill="#D2E3FC"/>
<path d="M567.012 409.999C565.153 412.713 562.59 417.816 562.443 425.41L558.554 410.629L558.548 410.623L553.504 391.452L563.576 391.28L567.009 410.002L567.012 409.999Z" fill="#B0D4FF"/>
<path d="M391.812 490.424H394.02L411.123 425.422V425.41L415.012 410.629L415.018 410.623L420.062 391.452L409.99 391.28L406.557 410.002L403.988 424.023C403.975 424.094 403.957 424.159 403.945 424.226L391.812 490.43V490.424Z" fill="#D2E3FC"/>
<path d="M406.554 409.999C408.413 412.713 410.976 417.816 411.123 425.41L415.012 410.629L415.018 410.623L420.062 391.452L409.99 391.28L406.557 410.002L406.554 409.999Z" fill="#B0D4FF"/>
<path d="M395.885 299.609C395.885 299.609 394.482 298.385 392.764 298.745C391.046 299.105 389.745 299.873 387.543 299.48C385.338 299.083 381.563 300.012 381.765 299.388C381.967 298.764 385.393 297.079 385.596 296.732C385.798 296.384 382.904 291.957 381.128 290.986C379.352 290.014 374.792 287.702 375.542 287.075C376.292 286.448 383.792 286.178 385.651 286.648C387.513 287.115 390.844 290.82 392.709 291.702C394.574 292.584 397.836 294.896 397.836 294.896L395.885 299.609V299.609Z" fill="#FFB27D"/>
<path d="M384.165 293.036C384.165 293.036 377.692 292.4 376.485 290.475H381.575L384.162 293.036H384.165Z" fill="#FFB27D"/>
<path d="M384.022 286.869L374.972 285.148C374.972 285.148 375.603 286.525 377.088 287.238C378.574 287.951 384.022 286.872 384.022 286.872V286.869Z" fill="#FFB27D"/>
<path d="M491.104 246.548C491.104 246.548 485.561 244.021 468.256 259.727C450.951 275.433 439.097 291.856 429.852 292.569C420.607 293.282 396.736 293.328 396.736 293.328L394.078 298.933C394.078 298.933 393.631 301.097 408.281 305.776C420.809 309.775 436.656 311.036 437.835 310.891C449.689 309.462 478.098 290.408 482.422 284.696C486.746 278.984 491.104 246.548 491.104 246.548V246.548Z" fill="#B0D0FF"/>
<path d="M487.745 193.861C487.745 193.861 487.423 182.542 502.297 180.319C517.17 178.097 521.277 181.589 523.806 185.395C526.336 189.204 531.076 204.75 530.601 210.939C530.127 217.127 513.165 224.776 513.44 228.388C513.716 231.997 487.745 193.861 487.745 193.861V193.861Z" fill="#163560"/>
<path d="M426.076 483.734C426.373 487.512 421.13 488.361 415.064 488.585C409.001 488.81 410.813 490.079 402.49 491.481C394.167 492.883 390.866 490.556 390.281 489.421C389.757 488.416 393.64 486.904 397.777 485.191C398.298 484.979 398.819 484.758 399.342 484.537C404 482.554 407.01 479.215 409.365 474.475C410.957 471.274 412.311 459.039 412.311 459.039L426.774 457.028C426.774 457.028 424.22 466.537 423.06 471.028C422.38 473.669 424.269 477.644 425.087 479.91C425.528 481.143 425.972 482.403 426.076 483.734V483.734Z" fill="#FFB27D"/>
<path d="M415.064 488.585C409.001 488.81 410.813 490.079 402.49 491.481C394.167 492.883 390.866 490.556 390.281 489.422C389.757 488.416 393.64 486.904 397.777 485.191L397.842 485.262C397.842 485.262 403.657 487.328 410.418 485.579C415.931 484.152 421.287 480.927 425.087 479.91C425.528 481.143 425.972 482.403 426.076 483.734C426.373 487.512 421.13 488.361 415.064 488.585V488.585Z" fill="#B24940"/>
<path d="M508.596 342.086C508.596 342.086 433.484 346.042 420.613 356.719C407.742 367.396 410.1 470.306 410.1 470.306C411.307 471.699 413.487 472.209 416.5 472.636C419.621 473.082 423.85 473.042 423.85 473.042C423.85 473.042 438.567 421.545 439.354 409.602C440.141 397.659 443.666 377.501 448.807 376.557C453.949 375.613 514.126 385.291 521.684 366.769C529.242 348.246 518.986 332.193 518.986 332.193L508.596 342.089V342.086Z" fill="#163560"/>
<path d="M543.88 360.799C540.652 362.969 532.307 364.168 522.621 364.515C505.289 365.149 483.66 363.074 479.4 359.037C478.294 357.995 477.755 356.267 477.602 354.078C477.134 347.401 480.309 336.414 482.444 327.323C483.828 321.418 484.771 316.314 483.999 313.704C481.648 305.764 474.341 289.587 473.71 284.272C473.079 278.956 479.4 250.467 488.137 246.941C496.879 243.409 530.605 246.941 530.605 246.941C543.782 249.625 544.336 277.828 539.96 301.829C539.847 302.446 539.733 303.061 539.614 303.67C534.873 328.046 552.889 354.736 543.88 360.795V360.799Z" fill="#B0D0FF"/>
<path d="M493.949 249.397C494.185 250.944 498.404 253.452 507.42 251.067C516.059 248.78 517.097 245.954 517.094 244.091C517.094 241.884 513.339 238.908 513.388 225.326L512.353 225.532L494.938 228.994C494.938 228.994 495.333 234.497 495.345 239.68C495.357 244.033 493.557 246.821 493.952 249.397H493.949Z" fill="#FFB27D"/>
<path d="M494.932 228.994C494.932 228.994 495.327 234.497 495.339 239.68C505.086 239.403 510.237 230.479 512.347 225.532L494.932 228.994Z" fill="#ED975D"/>
<path d="M491.68 233.903C491.68 233.903 514.739 234.285 514.754 219.866C514.769 205.448 517.758 195.786 503.035 194.931C488.314 194.077 485.448 199.576 484.275 204.388C483.105 209.199 485.681 233.43 491.68 233.903Z" fill="#FFB27D"/>
<path d="M492.531 194.578C492.531 194.578 498.845 211.495 508.535 213.995C518.224 216.497 522.425 213.89 522.425 213.89C522.425 213.89 518.135 205.187 516.591 194.842C516.591 194.842 497.293 186.526 492.531 194.578V194.578Z" fill="#163560"/>
<path d="M494.096 195.952C494.096 195.952 489.38 199.73 488.232 203.401C487.083 207.071 486.566 214.631 484.37 214.376C484.37 214.376 479.614 202.878 484.958 196.373C490.626 189.477 494.096 195.955 494.096 195.955V195.952Z" fill="#163560"/>
<path d="M496.806 225.16C496.806 225.16 496.377 226.992 491.836 226.71C491.836 226.71 488.023 226.473 488.143 224.459C488.143 224.459 491.839 223.027 496.806 225.16V225.16Z" fill="white"/>
<path d="M471.113 487.86C470.982 491.647 465.678 491.893 459.627 491.429C453.575 490.962 455.235 492.431 446.808 492.877C438.377 493.323 435.364 490.639 434.908 489.443C434.503 488.382 438.53 487.322 442.833 486.089C443.375 485.935 443.917 485.776 444.462 485.616C449.313 484.174 452.415 480.368 456.485 476.989C460.337 473.789 453 457.028 453 457.028L463.926 452.346C463.926 452.346 465.378 464.127 467.481 474.472C468.026 477.146 470.005 481.601 470.565 483.946C470.865 485.222 471.162 486.526 471.116 487.86H471.113Z" fill="#FFB27D"/>
<path d="M543.88 360.799C540.652 362.969 532.307 364.168 522.621 364.515C506.633 360.866 488.434 356.615 477.602 354.078C477.134 347.401 480.309 336.414 482.444 327.323C495.07 331.194 513.86 318.008 520.174 312.797C526.81 307.322 526.602 289.086 526.602 289.086L539.957 301.832C539.844 302.45 539.73 303.064 539.611 303.673C534.87 328.049 552.886 354.739 543.877 360.799H543.88Z" fill="#98BAF4"/>
<path d="M459.627 491.426C453.576 490.959 455.235 492.428 446.808 492.874C438.377 493.32 435.364 490.636 434.908 489.44C434.503 488.379 438.53 487.319 442.833 486.086L442.888 486.163C442.888 486.163 448.431 488.877 455.349 487.906C460.986 487.116 466.673 484.518 470.562 483.943C470.862 485.219 471.159 486.523 471.113 487.857C470.982 491.644 465.678 491.89 459.627 491.426V491.426Z" fill="#C65447"/>
<path d="M524.501 347.376C505.552 345.907 448.661 347.567 437.376 355.127C423.488 364.429 456.972 471.025 456.972 471.025H467.717C467.717 471.025 473.967 409.129 470.087 396.773C466.505 385.359 464.165 381.267 469.377 380.852C474.589 380.437 538.818 391.762 545.157 372.785C550.108 357.961 544.563 343.74 544.563 343.74C544.563 343.74 541.981 348.729 524.498 347.373L524.501 347.376Z" fill="#1C468A"/>
<path d="M530.605 246.941C530.605 246.941 543.8 248.066 544.829 258.537C545.61 266.487 551.349 322.884 547.214 327.791C535.581 341.594 496.797 344.517 491.086 346.614L489.515 340.087C489.515 340.087 530.92 319.146 530.289 314.384C529.658 309.622 517.948 245.057 530.605 246.941Z" fill="#B0D0FF"/>
<path d="M516.625 186.013C516.625 186.013 515.679 179.972 524.024 178.413C532.368 176.855 532.525 194.648 533.419 198.937C534.313 203.229 532.084 205.796 528.902 206.057C525.72 206.318 516.625 186.01 516.625 186.01V186.013Z" fill="#163560"/>
<path d="M489.065 339.799C489.065 339.799 477.272 336.448 474.463 337.232C471.655 338.015 462.031 344.413 463.384 346.15C464.738 347.887 473.214 345.111 477.115 345.637C481.017 346.162 484.033 348.096 486.841 347.678C489.649 347.26 492.586 346.153 492.586 346.153L489.061 339.802L489.065 339.799Z" fill="#FFB27D"/>
<path d="M489.064 339.798C489.064 339.798 483.295 336.823 481.654 335.129C481.445 334.914 481.096 334.96 480.937 335.212C480.496 335.91 480.086 337.253 482.11 338.59C485.022 340.515 489.064 339.798 489.064 339.798Z" fill="#FFB27D"/>
<path d="M661.754 493H19.32C18.6341 493 18.0737 492.437 18.0737 491.749C18.0737 491.06 18.6341 490.498 19.32 490.498H661.754C662.44 490.498 663 491.06 663 491.749C663 492.437 662.44 493 661.754 493Z" fill="#2E3552"/>
<path d="M329.947 136.936C357.026 136.936 378.978 120.971 378.978 101.278C378.978 81.5842 357.026 65.6195 329.947 65.6195C302.869 65.6195 280.917 81.5842 280.917 101.278C280.917 120.971 302.869 136.936 329.947 136.936Z" fill="#FFDDC2"/>
<path d="M296.55 122.167L284.647 140.287L308.848 129.078L296.55 122.167Z" fill="#FFDDC2"/>
<path d="M413.306 196.149C435.778 196.149 453.995 182.901 453.995 166.559C453.995 150.217 435.778 136.969 413.306 136.969C390.834 136.969 372.617 150.217 372.617 166.559C372.617 182.901 390.834 196.149 413.306 196.149Z" fill="#D1E4FF"/>
<path d="M441.023 183.895L450.902 198.931L430.816 189.628L441.023 183.895Z" fill="#D1E4FF"/>
</g>
<defs>
<clipPath id="clip0_2002_262">
<rect width="663" height="493" fill="white"/>
</clipPath>
</defs>
</svg>
