<svg width="483" height="360" viewBox="0 0 483 360" fill="none" xmlns="http://www.w3.org/2000/svg">
<g clip-path="url(#clip0_2002_1235)">
<path d="M483 316.368H0V316.61H483V316.368Z" fill="#EBEBEB"/>
<path d="M434.603 331.914H402.609V332.155H434.603V331.914Z" fill="#EBEBEB"/>
<path d="M319.958 334.542H311.564V334.783H319.958V334.542Z" fill="#EBEBEB"/>
<path d="M401.643 322.948H355.594V323.189H401.643V322.948Z" fill="#EBEBEB"/>
<path d="M73.5512 324.571H50.6764V324.813H73.5512V324.571Z" fill="#EBEBEB"/>
<path d="M107.12 324.571H82.1487V324.813H107.12V324.571Z" fill="#EBEBEB"/>
<path d="M189.442 328.648H127V328.89H189.442V328.648Z" fill="#EBEBEB"/>
<path d="M228.952 273.278H42.4171C39.3742 273.278 36.9012 270.804 36.9012 267.761V5.51676C36.9012 2.47336 39.3742 0 42.4171 0H228.952C231.995 0 234.468 2.47336 234.468 5.51676V267.761C234.468 270.804 231.995 273.278 228.952 273.278V273.278ZM42.4171 0.241539C39.5094 0.241539 37.1427 2.60863 37.1427 5.51676V267.761C37.1427 270.669 39.5094 273.036 42.4171 273.036H228.952C231.859 273.036 234.226 270.669 234.226 267.761V5.51676C234.226 2.60863 231.859 0.241539 228.952 0.241539H42.4171Z" fill="#EBEBEB"/>
<path d="M437.897 273.278H251.363C248.32 273.278 245.847 270.804 245.847 267.761V5.51676C245.847 2.47336 248.32 0 251.363 0H437.897C440.94 0 443.413 2.47336 443.413 5.51676V267.761C443.413 270.804 440.94 273.278 437.897 273.278V273.278ZM251.363 0.241539C248.455 0.241539 246.088 2.60863 246.088 5.51676V267.761C246.088 270.669 248.455 273.036 251.363 273.036H437.897C440.805 273.036 443.172 270.669 443.172 267.761V5.51676C443.172 2.60863 440.805 0.241539 437.897 0.241539H251.363V0.241539Z" fill="#EBEBEB"/>
<path d="M426.402 25.1684H273.803V316.368H426.402V25.1684Z" fill="#EBEBEB"/>
<path d="M415.052 34.6657H285.154V316.368H415.052V34.6657Z" fill="#F5F5F5"/>
<path d="M368.374 58.0274H331.85V68.1238H368.374V58.0274Z" fill="white"/>
<path d="M384.825 158.315H404.638C406.348 158.315 407.729 159.696 407.729 161.406C407.729 163.116 406.348 164.498 404.638 164.498H384.825C383.116 164.498 381.734 163.116 381.734 161.406C381.734 159.696 383.116 158.315 384.825 158.315Z" fill="white"/>
<path d="M169.475 56.1531H67.9871V137.958H169.475V56.1531Z" fill="#EBEBEB"/>
<path d="M164.027 132.509V61.6022L73.4353 61.6022V132.509H164.027Z" fill="#FAFAFA"/>
<path d="M153.459 97.9877V94.5965H83.9937V97.9877H153.459Z" fill="#E0E0E0"/>
<path d="M153.449 105.698V102.306H83.984V105.698H153.449Z" fill="#E0E0E0"/>
<path d="M153.459 113.417V110.026H83.9937V113.417H153.459Z" fill="#E0E0E0"/>
<path d="M136.042 121.137V117.746H101.411V121.137H136.042Z" fill="#E0E0E0"/>
<path d="M83.9936 61.6022C83.9936 67.4378 79.2699 72.1623 73.4352 72.1623C71.4453 72.1623 69.5809 71.6116 67.9966 70.6454V56.1531H82.4963C83.4526 57.7472 84.0033 59.6023 84.0033 61.5925L83.9936 61.6022Z" fill="#EBEBEB"/>
<path d="M169.475 56.1531V70.6454C167.881 71.6019 166.026 72.1623 164.036 72.1623C158.202 72.1623 153.468 67.4378 153.468 61.6022C153.468 59.6119 154.019 57.7472 154.985 56.1627H169.485L169.475 56.1531Z" fill="#EBEBEB"/>
<path d="M83.9937 132.518C83.9937 134.508 83.4527 136.373 82.4867 137.958H67.9871V123.456C69.581 122.499 71.4357 121.939 73.4256 121.939C79.2603 121.939 83.984 126.673 83.984 132.508L83.9937 132.518Z" fill="#EBEBEB"/>
<path d="M169.475 123.456V137.958H154.975C154.019 136.363 153.459 134.508 153.459 132.518C153.459 126.683 158.192 121.948 164.027 121.948C166.017 121.948 167.881 122.499 169.465 123.465L169.475 123.456Z" fill="#EBEBEB"/>
<path d="M127.607 80.3156C128.403 75.412 125.074 70.7916 120.171 69.9957C115.268 69.1997 110.648 72.5296 109.853 77.4332C109.057 82.3367 112.386 86.9571 117.289 87.7531C122.192 88.5491 126.811 85.2192 127.607 80.3156Z" fill="#E0E0E0"/>
<path d="M251.488 200.188H50.6764V207.415H251.488V200.188Z" fill="#EBEBEB"/>
<path d="M249.75 207.415H184.506V316.368H249.75V207.415Z" fill="#F5F5F5"/>
<path d="M118.403 207.415H53.159V316.368H118.403V207.415Z" fill="#F5F5F5"/>
<path d="M55.3905 207.415H53.159V316.368H55.3905V207.415Z" fill="#EBEBEB"/>
<path d="M186.737 207.415H184.506V316.368H186.737V207.415Z" fill="#EBEBEB"/>
<path d="M87.423 182.768H75.4253L76.3913 200.188H86.457L87.423 182.768Z" fill="#F0F0F0"/>
<path d="M191.587 192.633H128.903V200.188H191.587V192.633Z" fill="#F0F0F0"/>
<path d="M191.596 193.521H162.694V199.309H191.596V193.521Z" fill="#FAFAFA"/>
<path d="M241.5 360C344.942 360 428.798 355.103 428.798 349.063C428.798 343.023 344.942 338.126 241.5 338.126C138.058 338.126 54.2023 343.023 54.2023 349.063C54.2023 355.103 138.058 360 241.5 360Z" fill="#F5F5F5"/>
<path d="M329.126 281.413C346.027 281.413 359.729 267.709 359.729 250.805C359.729 233.901 346.027 220.197 329.126 220.197C312.224 220.197 298.523 233.901 298.523 250.805C298.523 267.709 312.224 281.413 329.126 281.413Z" fill="white"/>
<path d="M329.126 281.79C312.047 281.79 298.146 267.887 298.146 250.805C298.146 233.723 312.047 219.82 329.126 219.82C346.205 219.82 360.105 233.714 360.105 250.805C360.105 267.896 346.205 281.79 329.126 281.79ZM329.126 220.583C312.462 220.583 298.9 234.148 298.9 250.815C298.9 267.481 312.462 281.046 329.126 281.046C345.789 281.046 359.352 267.481 359.352 250.815C359.352 234.148 345.789 220.583 329.126 220.583Z" fill="#407BFF"/>
<path d="M334.052 233.453H324.199V268.157H334.052V233.453Z" fill="#407BFF"/>
<path d="M346.475 255.732V245.877H311.776V255.732H346.475Z" fill="#407BFF"/>
<path d="M121.822 19.4391L121.156 18.7338C125.677 14.4827 131.289 11.7774 137.394 10.9079L137.529 11.8644C131.627 12.705 126.189 15.3232 121.822 19.4391V19.4391Z" fill="#407BFF"/>
<path d="M114.674 29.9992L113.775 29.6514C114.732 27.1973 116.017 24.8785 117.591 22.753L118.364 23.3327C116.838 25.3906 115.601 27.6321 114.674 30.0088V29.9992Z" fill="#407BFF"/>
<path d="M141.625 67.0127C156.265 67.0127 168.132 55.1431 168.132 40.5013C168.132 25.8595 156.265 13.9899 141.625 13.9899C126.986 13.9899 115.118 25.8595 115.118 40.5013C115.118 55.1431 126.986 67.0127 141.625 67.0127Z" fill="#407BFF"/>
<path d="M157.429 28.5596C153.121 24.0863 146.001 24.038 141.625 28.4147C137.249 24.038 130.14 24.0959 125.822 28.5596C121.59 32.9459 121.919 40.0182 126.227 44.3273L138.756 56.8583C140.34 58.4428 142.91 58.4428 144.485 56.8583L157.014 44.3273C161.322 40.0182 161.65 32.9459 157.419 28.5596H157.429Z" fill="white"/>
<path d="M141.625 52.0856C141.625 52.0856 141.606 52.0856 141.587 52.0856C141.191 52.0759 140.833 51.815 140.708 51.4286L135.114 35.0715L132.777 41.9119C132.641 42.308 132.274 42.5689 131.859 42.5689H122.498C121.967 42.5689 121.532 42.1341 121.532 41.6027C121.532 41.0714 121.967 40.6366 122.498 40.6366H131.173L134.206 31.7769C134.342 31.3808 134.709 31.1199 135.124 31.1199C135.539 31.1199 135.907 31.3808 136.042 31.7769L141.732 48.4142L147.257 35.4C147.402 35.0619 147.73 34.83 148.097 34.8107C148.465 34.7817 148.812 34.9846 148.996 35.3034L151.971 40.6269H160.771C161.303 40.6269 161.737 41.0617 161.737 41.5931C161.737 42.1245 161.303 42.5592 160.771 42.5592H151.411C151.063 42.5592 150.735 42.366 150.57 42.0665L148.281 37.97L142.543 51.4865C142.388 51.844 142.041 52.0759 141.654 52.0759L141.625 52.0856Z" fill="#407BFF"/>
<path d="M288.699 315.209H187.877C180.835 315.209 175.464 309.451 175.938 302.407L192.244 60.9646C192.717 53.9213 198.87 48.163 205.913 48.163H306.734C313.776 48.163 319.147 53.9213 318.674 60.9646L302.368 302.407C301.894 309.451 295.741 315.209 288.699 315.209Z" fill="#263238"/>
<path d="M311.004 146.479H308.463C306.493 146.479 304.995 144.866 305.13 142.904L308.251 96.7317C308.386 94.7607 310.105 93.1569 312.066 93.1569H314.607C316.578 93.1569 318.075 94.7704 317.94 96.7317L314.819 142.904C314.684 144.875 312.965 146.479 311.004 146.479Z" fill="#263238"/>
<path d="M190.766 115.678H188.225C186.622 115.678 185.395 114.364 185.501 112.751L186.631 96.0747C186.737 94.4709 188.148 93.1473 189.751 93.1473H192.292C193.896 93.1473 195.122 94.4613 195.016 96.0747L193.886 112.751C193.78 114.354 192.369 115.678 190.766 115.678Z" fill="#407BFF"/>
<path d="M188.756 145.455H186.216C184.612 145.455 183.385 144.141 183.492 142.528L184.622 125.852C184.728 124.248 186.139 122.924 187.742 122.924H190.283C191.886 122.924 193.113 124.238 193.007 125.852L191.877 142.528C191.77 144.131 190.36 145.455 188.756 145.455Z" fill="#407BFF"/>
<path d="M286.564 315.209H185.742C178.7 315.209 173.329 309.451 173.803 302.407L190.109 60.9646C190.582 53.9213 196.736 48.163 203.778 48.163H304.599C311.641 48.163 317.012 53.9213 316.539 60.9646L300.233 302.407C299.759 309.451 293.606 315.209 286.564 315.209Z" fill="#407BFF"/>
<path opacity="0.3" d="M174.865 299.741L190.785 64.0466H315.457L299.537 299.741H174.865Z" fill="white"/>
<path opacity="0.1" d="M224.083 299.741L268.577 64.0466H296.504L252.01 299.741H224.083Z" fill="white"/>
<path opacity="0.1" d="M202.995 299.741L247.48 64.0466H261.631L217.137 299.741H202.995Z" fill="white"/>
<path d="M241.635 54.0662H265.949C266.819 54.0662 267.476 54.7811 267.418 55.641C267.36 56.5105 266.597 57.2158 265.737 57.2158H241.423C240.553 57.2158 239.896 56.5009 239.954 55.641C240.012 54.7715 240.776 54.0662 241.635 54.0662V54.0662Z" fill="white"/>
<path d="M236.573 338.435L228.053 339.257L224.981 319.586L233.502 318.774L236.573 338.435Z" fill="#FFB573"/>
<path d="M227.078 335.092L235.994 332.31C236.332 332.204 236.66 332.358 236.786 332.677L239.703 339.769C240.003 340.503 239.558 341.43 238.786 341.653C235.559 342.6 232.497 342.851 228.604 344.522C224.054 346.474 222.141 349.044 217.253 349.044C213.737 349.044 212.955 345.826 214.433 345.382C221.175 343.334 220.306 341.653 225.223 336.377C225.754 335.807 226.372 335.315 227.078 335.102V335.092Z" fill="#263238"/>
<path opacity="0.2" d="M224.981 319.595L226.566 329.73L235.095 328.909L233.511 318.774L224.981 319.595Z" fill="black"/>
<path d="M231.144 71.1479C219.968 69.8339 208.849 70.7131 197.692 72.8773C193.905 73.6116 190.969 76.7323 190.534 80.5679C189.326 91.2536 187.945 115.205 193.335 150.933L239.008 147.088C239.104 140.605 234.487 111.07 238.303 80.4133C238.872 75.7951 235.704 71.6793 231.154 71.1479H231.144Z" fill="white"/>
<path d="M204.551 80.307L206.193 83.5823C206.357 83.9108 206.685 84.1233 207.052 84.1427L208.82 84.2296C209.139 84.249 209.448 84.1523 209.699 83.9591L212.742 81.6886L208.975 78.9544L204.551 80.2974V80.307Z" fill="#263238"/>
<path d="M208.869 83.3021C207.555 82.8094 206.811 83.1379 206.811 83.1379C205.372 88.2102 203.797 102.77 203.633 109.205C207.999 121.919 209.419 123.214 209.419 123.214L211.641 107.901C211.641 107.901 209.158 92.2488 208.869 83.3021V83.3021Z" fill="#263238"/>
<path d="M221.475 49.1195C220.432 55.4189 219.543 66.9355 224.054 71.003C220.75 74.4811 216.403 78.5004 208.965 78.9641C201.527 79.4182 202.676 74.2686 204.56 71.515C211.506 69.66 211.168 64.4814 209.806 59.6506L221.465 49.1292L221.475 49.1195Z" fill="#FFB573"/>
<path d="M225.957 70.4522C225.377 70.1914 224.74 70.0175 224.315 69.9209C224.035 69.8532 223.745 69.9692 223.6 70.2204C222.876 71.4377 220.692 76.8772 208.965 78.9737C210.887 80.1138 213.457 83.6499 214.568 85.3504C218.084 83.5243 227.232 78.0656 226.353 71.0029C226.315 70.7711 226.17 70.5585 225.957 70.4619V70.4522Z" fill="#F5F5F5"/>
<path d="M204.637 71.7952C204.734 71.3121 204.319 70.8967 203.845 70.9836C203.362 71.0802 202.879 71.2348 202.647 71.3121C202.551 71.3411 202.483 71.3894 202.396 71.457C201.498 72.2879 196.6 79.3506 201.189 85.0799C202.213 83.5244 205.488 79.9979 208.975 78.9641C205.681 77.4666 204.048 74.7033 204.637 71.8049V71.7952Z" fill="#F5F5F5"/>
<path opacity="0.2" d="M216.722 53.4189L209.825 59.6409C210.153 60.781 210.414 61.9501 210.53 63.0805C213.187 62.6264 216.77 59.6023 216.973 56.8004C217.07 55.3995 216.973 54.0662 216.732 53.4189H216.722Z" fill="black"/>
<path d="M207.506 30.0862C201.556 32.4146 201.17 37.3034 201.759 42.6559C202.348 48.0084 208.115 44.4626 209.4 41.1294C210.694 37.7961 215.746 26.8689 207.506 30.0862Z" fill="#263238"/>
<path d="M226.488 40.7429C224.837 49.1581 224.296 54.1531 219.475 58.0274C212.23 63.8534 202.396 58.8197 201.527 50.1339C200.744 42.3177 203.575 29.8736 212.24 27.4196C220.77 25.0042 228.14 32.318 226.488 40.7332V40.7429Z" fill="#FFB573"/>
<path d="M226.141 47.7089C219.06 48.0857 220.557 44.0568 221.852 41.7477C223.136 39.4386 220.509 35.6319 222.228 33.6416C219.166 34.859 215.959 33.8542 211.873 31.0137C208.704 28.8012 204.734 37.6512 200.87 33.2165C197.219 29.0331 200.609 22.724 209.381 21.6999C218.142 20.6855 219.746 26.8979 225.503 26.3471C231.26 25.7964 229.261 30.5306 228.131 31.4968C232.961 31.8156 235.588 36.4338 226.141 47.7089Z" fill="#263238"/>
<path d="M227.049 32.0861C227.049 32.0861 230.671 30.3374 230.729 25.9124C232.603 29.2649 232.4 33.0716 227.049 32.0861Z" fill="#263238"/>
<path d="M208.656 49.7281C211.264 50.1436 213.003 48.7523 213.08 48.6847C213.167 48.6171 213.187 48.4818 213.109 48.3948C213.032 48.3079 212.916 48.2982 212.819 48.3659C212.8 48.3852 210.781 49.9987 207.903 49.1291C207.796 49.1001 207.68 49.1581 207.642 49.2644C207.603 49.3707 207.661 49.4866 207.767 49.5156C208.067 49.6025 208.357 49.6702 208.646 49.7185L208.656 49.7281Z" fill="#263238"/>
<path d="M228.198 50.2692C226.778 52.1145 224.663 53.1483 222.798 53.3802C219.978 53.7377 219.05 51.1194 220.229 48.675C221.291 46.4722 224.044 43.6317 226.672 44.4046C229.27 45.1582 229.811 48.163 228.198 50.2692Z" fill="#FFB573"/>
<path d="M225.406 233.24C225.745 208.014 228.961 147.938 228.961 147.938L193.355 150.943C193.355 150.943 200.435 212.864 204.715 238.602C209.158 265.365 222.789 328.03 222.789 328.03L237.24 326.803C237.24 326.803 231.985 252.756 225.406 233.259V233.24Z" fill="#263238"/>
<path d="M221.919 328.426L239.104 326.967L238.428 321.421L220.528 322.619L221.919 328.426Z" fill="#407BFF"/>
<path d="M213.795 41.2453C213.699 41.9313 213.264 42.453 212.819 42.4047C212.375 42.3564 212.085 41.7573 212.182 41.0617C212.279 40.3661 212.713 39.854 213.158 39.9023C213.602 39.9506 213.892 40.5496 213.795 41.2453Z" fill="#263238"/>
<path d="M205.913 40.5883C205.816 41.2743 205.381 41.796 204.937 41.7477C204.493 41.6994 204.203 41.1004 204.299 40.4047C204.396 39.7188 204.831 39.197 205.275 39.2454C205.719 39.2937 206.009 39.8927 205.913 40.5883Z" fill="#263238"/>
<path d="M208.134 41.4385C208.134 41.4385 205.971 44.7718 203.971 46.308C204.995 47.3804 207.12 47.0906 207.12 47.0906L208.134 41.4482V41.4385Z" fill="#ED893E"/>
<path opacity="0.4" d="M200.909 40.8009C200.764 41.9023 201.894 42.8202 203.411 43.0134C204.927 43.2066 206.357 42.3564 206.502 41.255" fill="#407BFF"/>
<path opacity="0.4" d="M210.057 41.825C209.854 42.9168 210.916 43.9023 212.423 44.1921C213.93 44.4819 215.408 43.7187 215.611 42.6269" fill="#407BFF"/>
<path d="M213.022 44.453C212.848 44.453 212.675 44.4433 212.501 44.424C211.718 44.3274 211.003 44.0085 210.501 43.5254C209.97 43.0327 209.728 42.424 209.806 41.8153C209.738 41.767 209.197 41.5448 208.25 41.4289C207.304 41.3033 206.714 41.3806 206.618 41.4675C206.483 42.6366 205.014 43.4578 203.372 43.2549C202.59 43.1583 201.875 42.8395 201.372 42.3564C200.841 41.8637 200.6 41.255 200.677 40.6463L201.141 40.7043C201.083 41.1584 201.276 41.6318 201.691 42.0182C202.126 42.424 202.744 42.7042 203.43 42.7912C204.811 42.9747 206.048 42.3274 206.173 41.3516C206.241 40.8202 207.362 40.8492 208.299 40.9651C209.226 41.0811 210.327 41.3419 210.26 41.8733C210.202 42.3274 210.395 42.8008 210.81 43.1873C211.245 43.5931 211.863 43.8733 212.549 43.9602C213.235 44.0472 213.901 43.9409 214.423 43.651C214.925 43.3805 215.234 42.9747 215.292 42.5206L215.321 42.2888L227.252 43.825L227.194 44.2887L215.717 42.8105C215.582 43.3226 215.215 43.7573 214.655 44.0568C214.182 44.3177 213.612 44.453 213.013 44.453H213.022Z" fill="#263238"/>
<path d="M216.828 38.2116C216.896 38.2116 216.964 38.1922 217.031 38.1536C217.224 38.0377 217.292 37.7865 217.186 37.5932C216.085 35.6512 214.22 35.5546 214.143 35.5546C213.921 35.5546 213.728 35.7189 213.718 35.9411C213.708 36.1633 213.872 36.3565 214.095 36.3662C214.153 36.3662 215.611 36.4628 216.481 38.0087C216.558 38.1439 216.693 38.2116 216.838 38.2116H216.828Z" fill="#263238"/>
<path d="M203.362 37.1198C203.488 37.1294 203.623 37.0811 203.72 36.9652C204.869 35.5643 206.318 35.6705 206.386 35.6802C206.608 35.6995 206.811 35.5353 206.83 35.3131C206.859 35.0908 206.705 34.888 206.483 34.8686C206.405 34.8686 204.55 34.6947 203.101 36.4531C202.957 36.627 202.976 36.8879 203.15 37.0232C203.217 37.0715 203.285 37.1005 203.362 37.1101V37.1198Z" fill="#263238"/>
<path d="M255.072 229.173C247.682 191.183 246.031 161.474 239.008 147.088L204.512 150.933C204.512 150.933 225.059 207.54 235.095 231.704C245.519 256.824 266.094 299.741 266.094 299.741H283.328C283.328 299.741 267.244 246.477 255.072 229.173Z" fill="#263238"/>
<path d="M145.731 85.3601L142.031 83.0027C140.775 82.2007 139.114 82.394 138.109 83.4567L135.578 86.1233C134.429 87.3407 134.544 89.244 135.829 90.3454L137.636 91.8913C139.201 93.2246 141.036 94.2197 143.016 94.8091L148.474 96.4226L152.058 92.5773C153.121 88.5291 145.74 85.3697 145.74 85.3697L145.731 85.3601Z" fill="#FFB573"/>
<path d="M200.918 83.563C199.566 86.8672 198.243 89.9396 196.803 93.0796C195.364 96.2003 193.896 99.3114 192.292 102.393C190.688 105.485 188.959 108.538 187.008 111.611C186.023 113.147 184.97 114.673 183.762 116.2C182.535 117.726 181.202 119.272 179.319 120.808C178.362 121.572 177.251 122.345 175.754 123.011C175.358 123.175 174.972 123.33 174.527 123.456L173.851 123.639C173.6 123.707 173.165 123.784 172.817 123.823C171.388 123.987 170.238 123.803 169.301 123.562C167.437 123.06 166.307 122.364 165.263 121.726C164.239 121.079 163.399 120.422 162.607 119.765C159.525 117.137 157.207 114.48 154.927 111.765C152.676 109.06 150.551 106.345 148.513 103.582C146.455 100.809 144.504 98.0843 142.504 95.1762L153.188 88.2778C156.531 93.6593 160.356 99.0602 164.355 103.881C166.365 106.258 168.499 108.577 170.509 110.248C171.001 110.654 171.484 111.012 171.871 111.243C172.228 111.485 172.586 111.582 172.344 111.495C172.209 111.456 171.89 111.379 171.291 111.437C171.156 111.437 170.924 111.495 170.876 111.514C170.847 111.514 170.827 111.514 170.798 111.533C170.75 111.553 170.75 111.533 170.741 111.553C170.76 111.533 171.04 111.369 171.368 111.079C172.054 110.499 172.924 109.524 173.745 108.432C174.576 107.33 175.387 106.103 176.169 104.818C177.754 102.239 179.174 99.4273 180.536 96.5675C181.888 93.6883 183.192 90.7512 184.38 87.7561C185.559 84.7804 186.737 81.6886 187.713 78.7515L200.928 83.5823L200.918 83.563Z" fill="#407BFF"/>
<g opacity="0.6">
<path opacity="0.6" d="M200.918 83.563C199.566 86.8672 198.243 89.9396 196.803 93.0796C195.364 96.2003 193.896 99.3114 192.292 102.393C190.688 105.485 188.959 108.538 187.008 111.611C186.023 113.147 184.97 114.673 183.762 116.2C182.535 117.726 181.202 119.272 179.319 120.808C178.362 121.572 177.251 122.345 175.754 123.011C175.358 123.175 174.972 123.33 174.527 123.456L173.851 123.639C173.6 123.707 173.165 123.784 172.817 123.823C171.388 123.987 170.238 123.803 169.301 123.562C167.437 123.06 166.307 122.364 165.263 121.726C164.239 121.079 163.399 120.422 162.607 119.765C159.525 117.137 157.207 114.48 154.927 111.765C152.676 109.06 150.551 106.345 148.513 103.582C146.455 100.809 144.504 98.0843 142.504 95.1762L153.188 88.2778C156.531 93.6593 160.356 99.0602 164.355 103.881C166.365 106.258 168.499 108.577 170.509 110.248C171.001 110.654 171.484 111.012 171.871 111.243C172.228 111.485 172.586 111.582 172.344 111.495C172.209 111.456 171.89 111.379 171.291 111.437C171.156 111.437 170.924 111.495 170.876 111.514C170.847 111.514 170.827 111.514 170.798 111.533C170.75 111.553 170.75 111.533 170.741 111.553C170.76 111.533 171.04 111.369 171.368 111.079C172.054 110.499 172.924 109.524 173.745 108.432C174.576 107.33 175.387 106.103 176.169 104.818C177.754 102.239 179.174 99.4273 180.536 96.5675C181.888 93.6883 183.192 90.7512 184.38 87.7561C185.559 84.7804 186.737 81.6886 187.713 78.7515L200.928 83.5823L200.918 83.563Z" fill="white"/>
</g>
<path d="M226.218 68.7324C222.595 75.4472 209.699 101.263 208.134 117.166C202.425 102.712 203.671 70.6164 203.671 70.6164C200.86 70.6937 195.712 71.9401 191.809 73.4666C189.288 74.4521 187.549 76.8675 187.346 79.5631C186.757 87.3986 185.936 106.065 188.911 129.291C192.92 160.498 196.668 209.019 196.668 209.019C196.668 209.019 228.594 207.685 253.227 202.487C250.223 178.633 239.945 138.653 239.848 127.948C239.732 114.171 240.051 87.2343 240.486 75.9883C240.611 72.6647 238.37 69.8145 235.153 69.1575C230.729 68.2493 226.208 68.7228 226.208 68.7228L226.218 68.7324Z" fill="#407BFF"/>
<path opacity="0.7" d="M226.218 68.7325C222.595 75.4473 209.699 101.263 208.134 117.166C202.425 102.712 203.671 70.6165 203.671 70.6165C200.86 70.6938 195.712 71.9401 191.809 73.4667C189.288 74.4521 187.549 76.8675 187.346 79.5631C186.757 87.3987 185.936 106.065 188.911 129.291C192.92 160.498 196.668 209.019 196.668 209.019C196.668 209.019 228.594 207.685 253.227 202.487C250.223 178.633 239.945 138.653 239.848 127.948C239.732 114.171 240.051 87.2247 240.486 75.9787C240.611 72.771 238.544 69.9015 235.453 69.2156C230.942 68.2204 226.208 68.7228 226.208 68.7228L226.218 68.7325Z" fill="white"/>
<path d="M218.693 203.85C213.148 173.251 208.753 128.364 208.395 122.953L208.898 122.915C209.255 128.315 213.65 173.184 219.195 203.753L218.702 203.84L218.693 203.85Z" fill="white"/>
<path d="M215.93 149.416H186.496C185.337 149.416 184.197 148.469 183.946 147.32L174.093 101.553C173.841 100.393 174.585 99.4563 175.744 99.4563H205.178C206.338 99.4563 207.477 100.403 207.729 101.553L217.582 147.32C217.833 148.479 217.089 149.416 215.93 149.416Z" fill="white"/>
<path d="M215.012 149.841H185.086C183.907 149.841 182.748 148.885 182.487 147.706L172.47 101.176C172.218 99.9973 172.972 99.0408 174.141 99.0408H204.068C205.246 99.0408 206.405 99.9973 206.666 101.176L216.683 147.706C216.935 148.885 216.181 149.841 215.012 149.841Z" fill="#407BFF"/>
<path d="M218.442 123.543L210.994 123.262C210.095 123.233 209.207 123.388 208.376 123.717L204.531 125.262C202.957 125.9 202.242 127.668 202.947 129.185L204.493 132.518C205.111 133.842 206.618 134.557 208.067 134.199L212.327 133.146C212.327 133.146 220.325 132.509 220.615 128.325L218.442 123.543V123.543Z" fill="#FFB573"/>
<path d="M239.008 72.8676C240.853 75.7275 242.543 78.4134 244.205 81.2539C245.866 84.0654 247.499 86.9059 249.035 89.8527C250.561 92.7995 252.029 95.8139 253.353 99.0698C254 100.712 254.609 102.403 255.111 104.277C255.594 106.171 256.058 108.171 255.961 110.915V111.166L255.942 111.292C255.942 111.292 255.942 111.379 255.922 111.485C255.884 111.833 255.835 112.181 255.758 112.528C255.681 112.838 255.604 113.147 255.507 113.446C255.41 113.746 255.304 113.978 255.198 114.248C254.763 115.234 254.251 116.007 253.788 116.586C252.831 117.804 251.952 118.548 251.112 119.253C249.431 120.605 247.856 121.562 246.301 122.451C243.19 124.19 240.148 125.552 237.095 126.837C234.062 128.132 231.019 129.311 227.966 130.422C224.904 131.562 221.909 132.605 218.731 133.668L215.051 121.494C217.91 120.702 220.905 119.726 223.784 118.741C226.672 117.726 229.541 116.654 232.323 115.504C235.086 114.335 237.8 113.069 240.186 111.698C241.365 111.021 242.485 110.297 243.248 109.659C243.616 109.359 243.915 109.031 243.915 108.992C243.944 108.963 243.847 109.05 243.731 109.311C243.693 109.388 243.673 109.446 243.635 109.562C243.596 109.678 243.558 109.794 243.538 109.91C243.5 110.055 243.471 110.21 243.461 110.364C243.461 110.422 243.461 110.422 243.461 110.403V110.335C243.461 109.91 243.287 108.789 242.93 107.64C242.582 106.471 242.099 105.205 241.548 103.92C240.437 101.34 239.056 98.7123 237.549 96.123C236.042 93.5337 234.448 90.9444 232.748 88.4131C231.058 85.9011 229.27 83.3215 227.493 81.0027L238.959 72.858L239.008 72.8676Z" fill="#407BFF"/>
<g opacity="0.7">
<path opacity="0.7" d="M239.008 72.8676C240.853 75.7275 242.543 78.4134 244.205 81.2539C245.866 84.0654 247.499 86.9059 249.035 89.8527C250.561 92.7995 252.029 95.8139 253.353 99.0698C254 100.712 254.609 102.403 255.111 104.277C255.594 106.171 256.058 108.171 255.961 110.915V111.166L255.942 111.292C255.942 111.292 255.942 111.379 255.922 111.485C255.884 111.833 255.835 112.181 255.758 112.528C255.681 112.838 255.604 113.147 255.507 113.446C255.41 113.746 255.304 113.978 255.198 114.248C254.763 115.234 254.251 116.007 253.788 116.586C252.831 117.804 251.952 118.548 251.112 119.253C249.431 120.605 247.856 121.562 246.301 122.451C243.19 124.19 240.148 125.552 237.095 126.837C234.062 128.132 231.019 129.311 227.966 130.422C224.904 131.562 221.909 132.605 218.731 133.668L215.051 121.494C217.91 120.702 220.905 119.726 223.784 118.741C226.672 117.726 229.541 116.654 232.323 115.504C235.086 114.335 237.8 113.069 240.186 111.698C241.365 111.021 242.485 110.297 243.248 109.659C243.616 109.359 243.915 109.031 243.915 108.992C243.944 108.963 243.847 109.05 243.731 109.311C243.693 109.388 243.673 109.446 243.635 109.562C243.596 109.678 243.558 109.794 243.538 109.91C243.5 110.055 243.471 110.21 243.461 110.364C243.461 110.422 243.461 110.422 243.461 110.403V110.335C243.461 109.91 243.287 108.789 242.93 107.64C242.582 106.471 242.099 105.205 241.548 103.92C240.437 101.34 239.056 98.7123 237.549 96.123C236.042 93.5337 234.448 90.9444 232.748 88.4131C231.058 85.9011 229.27 83.3215 227.493 81.0027L238.959 72.858L239.008 72.8676Z" fill="white"/>
</g>
<path d="M229.232 106.393C229.106 106.393 228.981 106.335 228.903 106.219C228.787 106.045 228.845 105.804 229.019 105.688L230.526 104.731C233.415 102.896 234.854 99.5336 234.197 96.1713L231.164 80.7998C230.575 77.8337 228.169 76.6936 226.276 76.6066C224.383 76.5294 221.89 77.4665 221.059 80.3747L216.761 95.4371C215.824 98.7316 216.973 102.2 219.697 104.268L221.117 105.35C221.282 105.475 221.32 105.717 221.195 105.891C221.069 106.055 220.828 106.094 220.654 105.968L219.234 104.886C216.249 102.616 214.993 98.8283 216.017 95.2245L220.316 80.1621C221.098 77.4182 223.455 75.7371 226.305 75.8434C229.155 75.9593 231.357 77.853 231.908 80.6548L234.941 96.0264C235.665 99.6978 234.091 103.369 230.932 105.379L229.425 106.335C229.357 106.374 229.29 106.393 229.222 106.393H229.232Z" fill="#263238"/>
<path d="M231.55 81.109H231.531L220.683 80.6549C220.47 80.6549 220.306 80.4713 220.316 80.2587C220.316 80.0462 220.509 79.9109 220.712 79.8916L231.56 80.3457C231.772 80.3457 231.937 80.5293 231.927 80.7418C231.927 80.9447 231.753 81.109 231.541 81.109H231.55Z" fill="#263238"/>
<path d="M226.276 76.6163C226.073 76.6163 225.899 76.4521 225.889 76.2395C225.841 74.3458 225.281 70.9546 223.474 70.2107C223.281 70.1334 223.185 69.9015 223.262 69.7083C223.339 69.5151 223.561 69.4184 223.764 69.4957C226.44 70.5972 226.643 75.6405 226.653 76.2105C226.653 76.4231 226.488 76.597 226.276 76.6067V76.6163Z" fill="#263238"/>
<path d="M193.094 89.7464C193.094 89.7464 193.045 89.7464 193.017 89.7464C192.814 89.7078 192.678 89.5049 192.717 89.2923C193.992 82.9447 199.267 72.9159 203.913 69.9885C204.097 69.8725 204.328 69.9305 204.444 70.1044C204.56 70.288 204.502 70.5199 204.328 70.6358C199.836 73.4666 194.717 83.2442 193.48 89.4469C193.442 89.6305 193.287 89.7561 193.103 89.7561L193.094 89.7464Z" fill="#263238"/>
<path d="M196.262 90.7415C195.663 92.2777 194.35 93.2052 193.335 92.7995C192.321 92.4033 191.993 90.8285 192.591 89.2923C193.19 87.7561 194.504 86.8286 195.518 87.2344C196.533 87.6305 196.861 89.2053 196.262 90.7415Z" fill="white"/>
<path d="M221.765 105.698C221.736 106.422 221.32 106.992 220.847 106.973C220.374 106.954 220.006 106.355 220.035 105.63C220.064 104.905 220.48 104.335 220.953 104.355C221.427 104.374 221.794 104.973 221.765 105.698Z" fill="white"/>
<path d="M230.092 106.045C230.063 106.77 229.647 107.34 229.174 107.321C228.7 107.301 228.333 106.702 228.362 105.978C228.391 105.253 228.807 104.683 229.28 104.703C229.753 104.722 230.121 105.321 230.092 106.045Z" fill="white"/>
<path d="M393.906 92.6545L392.94 92.5869C393.23 88.3262 391.819 84.2973 388.97 81.2539C386.13 78.2201 382.227 76.539 377.977 76.539V75.5729C382.497 75.5729 386.651 77.3506 389.675 80.5872C392.708 83.8335 394.205 88.1136 393.906 92.6449V92.6545Z" fill="#407BFF"/>
<path d="M392.658 97.0253L392.126 105.007L393.09 105.072L393.622 97.0895L392.658 97.0253Z" fill="#407BFF"/>
<path d="M377.976 78.9641H311.361C303.962 78.9641 297.489 85.0219 296.987 92.4323L296.378 101.408C295.876 108.818 301.527 114.876 308.927 114.876H375.542L388.467 122.857L390.525 92.4323C391.027 85.0219 385.376 78.9641 377.976 78.9641V78.9641Z" fill="#407BFF"/>
<path d="M374.596 91.814H312.858V94.0555H374.596V91.814Z" fill="white"/>
<path d="M374.055 99.7751H328.218V102.017H374.055V99.7751Z" fill="white"/>
<path d="M277.706 126.982H345.828C353.401 126.982 359.178 133.175 358.666 140.75L358.048 149.928C357.536 157.503 350.919 163.696 343.355 163.696H275.233L260.917 171.86L263.022 140.75C263.534 133.175 270.152 126.982 277.715 126.982H277.706Z" fill="white"/>
<path opacity="0.15" d="M277.706 126.982H345.828C353.401 126.982 359.178 133.175 358.666 140.75L358.048 149.928C357.536 157.503 350.919 163.696 343.355 163.696H275.233L260.917 171.86L263.022 140.75C263.534 133.175 270.152 126.982 277.715 126.982H277.706Z" fill="#407BFF"/>
<path opacity="0.5" d="M342.37 140.122H279.232V142.421H342.37V140.122Z" fill="#407BFF"/>
<path opacity="0.5" d="M303.633 148.257H278.681V150.556H303.633V148.257Z" fill="#407BFF"/>
<path opacity="0.5" d="M325.687 148.257H309.748V150.556H325.687V148.257Z" fill="#407BFF"/>
</g>
<defs>
<clipPath id="clip0_2002_1235">
<rect width="483" height="360" fill="white"/>
</clipPath>
</defs>
</svg>
