<svg width="459" height="474" viewBox="0 0 459 474" fill="none" xmlns="http://www.w3.org/2000/svg">
<g clip-path="url(#clip0_2002_366)">
<path d="M437.539 385.023H64.3789C52.5731 385.023 42.9175 391.778 42.9175 400.031C42.9175 405.747 47.5489 410.739 54.315 413.271H21.4614C9.65554 413.271 0 420.026 0 428.279C0 436.532 9.65554 443.287 21.4614 443.287H32.9105C29.7109 445.907 27.7726 449.302 27.7726 452.997V458.997C27.7726 467.251 37.4281 474.005 49.234 474.005H416.837C428.643 474.005 438.298 467.251 438.298 458.997V452.997C438.298 444.744 428.643 437.99 416.837 437.99L391.84 438.326C393.742 438.326 396.833 437.276 398.911 435.163C402.55 431.462 402.71 425.824 400.932 421.163C399.78 418.14 397.934 415.742 393.36 414.837L437.544 415.039C449.344 415.039 459.005 408.284 459.005 400.031C459.005 391.778 449.35 385.023 437.544 385.023H437.539Z" fill="#EBF3FA"/>
<path d="M284.875 83.1938L244.066 165.814L273.798 194.295L279.757 178.067L271.746 144.041L284.875 83.1938Z" fill="#F2D263"/>
<path d="M375.264 438.563L375.553 446.832L359.116 455.587L350.463 447.561L358.537 439.049L374.979 430.295L375.264 438.563Z" fill="#0D1928"/>
<path d="M350.964 233.669L382.484 239.349L363.649 323.137L376.049 435.876L359.571 439.638L316.353 303.571L316.229 262.904L319.45 238.837L350.964 233.669Z" fill="#3B455A"/>
<path d="M279.23 194.062L278.16 299.576L298.521 435.587L314.002 435.561L323.585 310.021L344.57 184.46L279.23 194.062Z" fill="#3B455A"/>
<path d="M313.914 433.742L313.924 442.01L297.192 450.3L288.808 442.052L297.166 433.768L313.914 433.742Z" fill="#0D1928"/>
<path d="M392.626 223.54C393.267 228.186 392.238 259.39 393.794 259.959C353.042 253.618 310.859 256.682 271.451 268.853C268.954 269.623 265.837 270.289 264.044 268.388C263.17 267.462 262.876 266.145 262.622 264.894C257.841 241.359 255.401 217.354 255.334 193.344C255.272 171.7 262.628 152.377 267.481 131.401C269.89 120.987 271.963 110.429 275.71 100.388C278.641 92.522 284.146 80.8941 291.91 76.6822C294.535 75.2558 297.569 74.801 300.526 74.3721C309.505 73.0646 318.483 71.7623 327.461 70.4548C330.733 69.9793 334.14 69.5142 337.293 70.5168C342.012 72.0207 345.098 76.4393 347.827 80.5736C360.057 99.1266 368.864 119.633 374.959 141.132C378.143 152.357 381.187 163.618 383.859 174.972C386.842 187.638 389.359 200.419 391.08 213.313C391.272 214.744 391.964 218.739 392.631 223.545L392.626 223.54Z" fill="#587BC9"/>
<path d="M320.711 128.879C321.047 134.739 322.453 140.486 323.853 146.181C332.367 180.868 346.591 221.623 355.099 256.305C330.883 258.873 306.14 265.251 276.904 270.817C276.248 257.525 275.431 231.359 274.775 218.072C274.356 209.55 273.932 201.003 274.532 192.522C275.498 178.848 279.101 165.659 282.678 152.599C289.289 128.465 295.895 104.331 302.506 80.1964C302.857 78.9044 303.235 77.5711 304.046 76.5788C305.018 75.3902 306.475 74.8579 307.871 74.4083C314.627 72.2326 322.298 70.1705 329.384 70.5271C331.958 77.5401 327.012 90.832 325.414 97.8191C323.094 107.99 320.096 118.165 320.711 128.873V128.879Z" fill="#D7E8F4"/>
<path d="M292.69 24.9612C290.927 29.4729 290.488 34.4341 290.979 39.2506C291.108 40.5323 291.238 42.0155 290.323 42.9147C289.341 43.8811 290.566 45.5039 289.573 44.553C288.576 43.6021 285.18 40.2791 284.854 38.9406C284.089 35.8036 283.619 32.5943 283.464 29.3643C283.324 26.5581 283.464 23.5866 284.968 21.2093C285.857 19.8036 287.159 18.7132 288.446 17.6537C290.312 16.1189 292.235 14.5633 294.52 13.7778C298.459 12.4289 301.157 13.5142 297.999 16.8631C295.735 19.261 293.905 21.8656 292.7 24.9561L292.69 24.9612Z" fill="#CACACA"/>
<path d="M325.838 75.5917C320.344 76.9302 314.849 78.2687 309.355 79.6072C307.799 74.9199 306.584 70.1034 305.726 65.2248C300.754 65.106 294.814 64.3773 292.406 59.5349C291.646 58.0103 291.372 56.2739 291.114 54.5737C290.028 47.5401 288.943 40.5065 287.857 33.4729C287.48 31.0388 287.108 28.5323 287.609 26.1499C288.488 21.969 291.863 19.0594 295.29 17.0388C304.036 11.876 314.906 10.4341 324.288 14.5685C326.784 15.6693 329.214 17.199 330.899 19.5142C333.499 23.0853 333.943 27.8966 334.284 32.4031C334.6 36.5633 334.915 40.7287 335.225 44.8889C335.587 49.6744 335.675 55.2351 332.362 58.2791C330.604 59.8966 328.113 60.5116 326.681 62.4755C324.158 65.9432 326.304 71.137 325.838 75.5866V75.5917Z" fill="#EACDB0"/>
<path d="M290.452 58.8579C291.966 63.1111 294.701 66.9871 298.629 68.9251C303.085 71.1214 308.186 70.5736 313.004 69.9845C315.64 69.6589 318.276 69.3385 320.907 69.0129C327.575 68.1964 334.057 66.3618 336.45 58.8682C337.551 55.4109 337.505 51.5866 336.734 47.9845C336.522 46.9974 336.243 45.9845 335.649 45.1938C335.049 44.4031 334.057 43.8708 333.152 44.1395C332 44.4755 331.478 45.8501 330.862 46.9457C329.524 49.3385 326.779 50.9664 324.246 50.1654C323.497 49.9276 322.814 49.5039 322.137 49.0698C321.858 48.8941 321.584 48.7183 321.3 48.5478C318.509 46.9044 315.314 46.4289 312.198 46.4806C309.494 46.522 305.447 46.1189 303.814 48.6667C302.862 50.1499 301.911 51.6279 300.955 53.1111C300.562 53.7209 300.159 54.3411 299.601 54.7804C299.027 55.23 298.319 55.4522 297.611 55.5711C295.833 55.8656 293.708 55.3385 292.835 53.6176C292.457 52.8682 292.364 52 292.215 51.168C292.059 50.3359 291.801 49.4677 291.196 48.9096C288.881 46.7959 288.87 50.7028 288.984 52.0207C289.186 54.3514 289.661 56.6667 290.442 58.863L290.452 58.8579ZM308.729 57.4108C311.04 58.5168 313.247 58.2119 315.48 57.1628C316.627 56.6253 317.428 58.5633 316.286 59.0956C313.593 60.3566 310.792 60.677 308.016 59.3488C306.858 58.7959 307.566 56.8527 308.729 57.4108V57.4108Z" fill="#CACACA"/>
<path d="M282.383 14.0103C281.67 12.3721 281.07 10.6822 280.595 8.96124C282.306 9.29199 284.094 9.18346 285.753 8.65116C285.609 7.63824 285.464 6.62532 285.319 5.6124C285.205 4.77003 296.51 2.50646 297.425 2.29457C305.99 0.310077 313.815 -1.52972 322.334 1.96899C329.612 4.95607 334.775 10.2584 336.936 17.8295C339.004 25.0594 338.001 35.0491 334.636 41.7985C334.372 39.8295 334.822 35.0336 334.083 33.2351C333.525 31.4057 332.615 29.7003 331.478 28.1654C329.208 25.1008 326.04 22.708 322.561 21.1835C317.015 18.7442 310.859 17.9328 304.842 17.9742C299.327 18.0155 292.638 18.2894 287.511 20.5065C285.045 21.5711 284.714 22.2791 282.781 19.9173C282.44 19.4987 279.483 14.4858 279.695 14.4548C280.595 14.3101 281.494 14.1654 282.388 14.0155L282.383 14.0103Z" fill="#CACACA"/>
<path d="M337.872 86.7494C294.789 100.171 270.67 81.7468 267.393 79.0026C267.393 79.0026 267.305 78.708 267.197 78.8372C267.068 78.7287 267.037 79.0336 267.037 79.0336C264.297 82.3152 243.818 104.708 199.04 99.1111C199.04 99.1111 199.334 178.734 227.815 208.692C258.234 240.687 282.244 249.044 282.352 248.946C282.476 249.023 304.847 236.739 328.919 199.69C351.435 165.028 337.872 86.7545 337.872 86.7545V86.7494Z" fill="#3B455A"/>
<path d="M332.165 95.447C293.052 107.463 271.198 91.0956 268.231 88.6563C268.231 88.6563 268.153 88.3928 268.055 88.5116C267.941 88.4134 267.91 88.6873 267.91 88.6873C265.419 91.6124 246.806 111.581 206.183 106.667C206.183 106.667 206.328 177.561 232.121 204.191C259.671 232.636 281.592 241.922 281.691 241.835C281.804 241.907 301.973 229.049 323.869 196.026C344.353 165.132 332.165 95.4522 332.165 95.4522V95.447Z" fill="#3B455A"/>
<g opacity="0.06">
<path opacity="0.06" d="M268.515 95.6227C268.515 95.6227 268.546 95.3385 268.67 95.4367C268.768 95.3127 268.856 95.5917 268.856 95.5917C271.901 98.0982 293.972 114.62 333.447 103.401C332.615 96.2481 331.834 91.7933 331.834 91.7933C292.721 103.809 270.867 87.4419 267.9 85.0026C267.9 85.0026 267.822 84.739 267.724 84.8579C267.61 84.7597 267.579 85.0336 267.579 85.0336C265.088 87.9586 246.475 107.928 205.852 103.013C205.852 103.013 205.863 107.535 206.292 114.718C247.147 118.801 265.956 98.6253 268.515 95.6227V95.6227Z" fill="black"/>
</g>
<path opacity="0.34" d="M322.091 116.047C292.551 125.245 272.366 112.217 270.123 110.336C270.123 110.336 270.061 110.134 269.988 110.222C269.9 110.145 269.88 110.357 269.88 110.357C268.003 112.605 250.625 128.941 219.927 125.106C219.927 125.106 223.463 178.708 242.986 199.245C263.842 221.183 280.3 226.91 280.378 226.842C280.46 226.899 295.802 218.475 312.301 193.075C327.741 169.313 322.091 116.047 322.091 116.047V116.047Z" fill="white"/>
<path d="M344.839 162.987C347.444 163.447 349.445 165.747 350.23 168.274C351.016 170.801 350.784 173.53 350.355 176.14C349.832 179.292 349.026 182.393 347.951 185.401C347.331 187.127 346.597 188.868 345.341 190.202C344.079 191.535 342.193 192.408 340.399 192.015C339.169 191.747 338.14 190.935 337.158 190.15C336.46 189.592 335.732 188.987 335.458 188.134C335.23 187.421 335.359 186.651 335.494 185.912C336.404 180.853 336.579 161.53 344.844 162.987H344.839Z" fill="#587BC9"/>
<path d="M348.742 170.108C348.664 169.778 348.566 169.447 348.437 169.121C348.039 168.114 347.238 166.687 346.323 166.057C346.323 166.057 343.123 164.47 343.764 165.581L345.087 167.886L337.515 165.876L331.741 168.537L330.154 176.848L334.145 184.625C338.89 185.018 343.909 186.537 346.7 181.499C347.527 180.005 347.91 178.31 348.282 176.641C348.762 174.491 349.233 172.212 348.747 170.103L348.742 170.108Z" fill="#EACDB0"/>
<path d="M252.403 228.512C250.817 230.631 247.865 231.375 245.25 230.93C242.639 230.486 240.308 229.054 238.173 227.488C235.599 225.602 233.191 223.483 230.994 221.163C229.733 219.829 228.513 218.393 227.887 216.667C227.262 214.941 227.339 212.858 228.502 211.437C229.298 210.46 230.487 209.912 231.635 209.39C232.446 209.023 233.32 208.646 234.199 208.786C234.938 208.904 235.568 209.37 236.168 209.819C240.272 212.915 257.433 221.798 252.403 228.512V228.512Z" fill="#587BC9"/>
<path d="M244.288 228.775C244.619 228.858 244.96 228.915 245.307 228.946C246.387 229.044 248.02 228.977 248.997 228.444C248.997 228.444 251.856 226.305 250.579 226.372L247.927 226.512L253.143 220.667L253.375 214.31L246.676 209.142L237.931 209.189C235.434 213.245 231.811 217.039 235.051 221.798C236.013 223.209 237.352 224.315 238.67 225.401C240.37 226.796 242.195 228.248 244.293 228.77L244.288 228.775Z" fill="#EACDB0"/>
<path d="M100.355 433.643V449.736L111.085 460.465H119.412C122.984 460.465 125.305 456.708 123.708 453.514L121.816 449.731L116.451 439.003L111.085 428.274L100.355 433.638V433.643Z" fill="#0D1928"/>
<path d="M154.013 428.279V444.372L164.744 455.101L173.639 452.134C176.948 451.034 177.94 446.837 175.474 444.372L170.109 433.643L164.744 422.915L154.013 428.279Z" fill="#0D1928"/>
<path d="M77.8853 241.473L83.8295 353.959L96.4055 439.008H121.103L127.279 352.584L145.8 241.473H77.8853Z" fill="#305399"/>
<path d="M177.134 234.512L176.668 358.76L173.169 432.393L148.493 433.437L139.628 358.76L103.12 232.842L177.134 234.512Z" fill="#305399"/>
<path d="M116.523 91.1679C121.831 91.6847 127.135 92.2015 132.443 92.7132C133.26 88.0362 133.741 83.2816 133.88 78.5116C138.506 77.7106 143.944 76.1912 145.531 71.2506C146.032 69.6951 146.053 68 146.068 66.3462C146.131 59.4987 146.187 52.6512 146.249 45.8036C146.27 43.4367 146.28 40.9922 145.49 38.7959C144.104 34.9354 140.564 32.6305 137.09 31.1783C128.231 27.4729 117.898 27.6021 109.705 32.8372C107.524 34.2326 105.467 36.0258 104.211 38.4599C102.272 42.2171 102.505 46.863 102.799 51.2041C103.068 55.2093 103.342 59.2196 103.611 63.2248C103.921 67.8346 104.593 73.1421 108.092 75.5814C109.953 76.8785 112.357 77.1163 113.959 78.7959C116.781 81.7519 115.484 86.9974 116.523 91.1679V91.1679Z" fill="#EACDB0"/>
<path d="M122.333 43.7106C119.071 48.1499 115.412 52.1344 110.661 54.9509C107.741 56.6822 104.691 57.4419 104.572 61.4729C104.459 65.3075 106.991 69.4987 110.124 71.4367C110.661 71.7674 111.251 72.0723 111.607 72.5995C112.315 73.6382 111.799 75.1886 110.785 75.9173C109.772 76.646 108.439 76.7287 107.203 76.5943C103.456 76.186 100.05 74.0413 97.4238 71.2765C91.893 65.4574 89.567 56.8837 90.4819 48.8217C91.3813 40.8786 95.1856 33.0646 100.778 27.5245C105.937 22.4134 111.039 17.1059 118.74 16.7287C123.082 16.5168 130.701 19.0181 130.918 24.491C131.146 30.2429 125.424 39.199 122.333 43.7054V43.7106Z" fill="#BFBEBE"/>
<path d="M135.338 42.0568C138.372 44.3462 141.923 46.4858 143.189 49.9897C143.742 51.5245 143.794 53.1783 143.789 54.8062C143.789 57.7106 143.634 60.6201 143.339 63.509C143.034 66.5219 142.445 69.9431 140.378 72.3566C139.54 73.3333 133.56 77.4832 138.687 78.217C140.186 78.4289 141.577 77.4987 142.735 76.5581C151.889 69.1163 157.507 57.447 156.246 45.9897C155.486 39.0904 152.064 32.4806 146.885 27.6589C142.156 23.2506 133.027 17.9845 126.437 21.8915C117.655 27.0956 130.779 38.6305 135.333 42.062L135.338 42.0568Z" fill="#BFBEBE"/>
<path d="M80.4439 23.3178C79.8857 18.8579 81.3381 14.2532 83.6693 10.9509C85.9953 7.65375 89.107 5.50904 92.2911 3.90698C97.9458 1.05943 104.743 -0.0775189 109.705 4.50129C113.199 7.7261 115.184 13.6176 114.667 19.2248C114.595 20 114.476 20.7855 114.181 21.4677C113.711 22.5633 112.858 23.2558 112.031 23.8708C105.291 28.8734 82.6614 41.0491 80.4439 23.3127V23.3178Z" fill="#CACACA"/>
<path d="M140.31 87.1473H97.093L53.8756 290.858C53.8756 290.858 140.315 303.204 195.881 290.858L165.013 99.4935L140.315 87.1473H140.31Z" fill="#7DB5DB"/>
<path d="M97.093 87.1473L56.5945 189.054L86.812 219.804L102.458 212.253L84.7444 185.912L97.093 87.1473Z" fill="#7DB5DB"/>
<path d="M184.489 110.496C170.704 109.375 153.362 116.729 149.221 128.496C145.081 116.729 123.935 109.488 110.15 110.61C73.776 113.571 61.4636 154.129 76.8825 181.406C85.1838 196.083 97.1136 208.92 110.124 220.444C121.02 230.093 149.134 250.563 149.216 250.496C149.304 250.563 177.413 230.098 188.309 220.444C201.324 208.92 213.254 196.083 221.55 181.406C236.974 154.129 220.857 113.463 184.479 110.496H184.489Z" fill="#EAC5B0"/>
<g style="mix-blend-mode:multiply" opacity="0.12">
<path d="M214.484 184.853C205.418 195.804 194.92 206.083 183.522 214.91C172.502 223.447 159.59 230.879 145.376 233.364C138.548 234.558 131.864 234.393 125.538 232.941C137.142 241.891 149.749 251.049 149.806 251.003C149.893 251.07 178.002 230.605 188.898 220.951C201.913 209.426 213.843 196.589 222.139 181.912C224.827 177.163 226.554 172.005 227.386 166.713C223.613 173.07 219.235 179.116 214.479 184.858L214.484 184.853Z" fill="black"/>
</g>
<path d="M213.879 173.323C204.353 173.566 194.827 173.809 185.306 174.047C181.858 161.545 178.41 149.044 174.963 136.537C174.466 134.729 171.779 134.868 171.21 136.537C163.834 158.3 156.463 180.062 149.087 201.824C148.658 203.085 148.234 204.346 147.805 205.607C142.791 191.282 137.778 176.956 132.764 162.63C131.957 160.331 131.156 158.036 130.35 155.736C129.864 154.351 127.579 153.804 126.794 155.297C123.149 162.258 119.505 169.22 115.856 176.176H83.876C81.3743 176.176 81.3691 179.835 83.876 179.835H117.06C117.707 179.835 118.446 179.494 118.74 178.93C121.862 172.966 124.99 167.003 128.112 161.034C133.255 175.731 138.403 190.429 143.546 205.127C144.352 207.426 145.154 209.721 145.96 212.021C146.565 213.747 149.118 213.773 149.713 212.021C157.089 190.258 164.459 168.496 171.836 146.734C172.187 145.695 172.538 144.651 172.895 143.612C175.909 154.543 178.922 165.468 181.936 176.398C182.148 177.158 182.969 177.762 183.812 177.742C193.834 177.488 203.857 177.235 213.879 176.977C216.376 176.915 216.386 173.251 213.879 173.318V173.323Z" fill="white"/>
<path d="M195.111 212.553C196.734 213.483 197.51 215.488 197.427 217.359C197.344 219.23 196.538 220.987 195.623 222.62C194.522 224.589 193.24 226.46 191.803 228.202C190.976 229.204 190.072 230.181 188.914 230.77C187.756 231.354 186.288 231.483 185.192 230.791C184.437 230.315 183.952 229.53 183.486 228.77C183.156 228.233 182.82 227.654 182.84 227.023C182.861 226.496 183.13 226.01 183.393 225.556C185.213 222.413 189.958 209.602 195.106 212.553H195.111Z" fill="#7DB5DB"/>
<path d="M196 218.222C196.031 217.984 196.042 217.742 196.031 217.494C196.005 216.729 195.814 215.587 195.359 214.946C195.359 214.946 193.612 213.127 193.772 214.016L194.103 215.866L189.549 212.713L185.073 213.101L182.029 218.248L182.814 224.377C185.874 225.778 188.852 227.99 191.912 225.307C192.821 224.512 193.478 223.478 194.129 222.46C194.961 221.147 195.825 219.742 196.005 218.227L196 218.222Z" fill="#EACDB0"/>
<path d="M98.4524 214.858C96.9224 216.093 94.6533 216.088 92.8545 215.292C91.0557 214.496 89.6342 213.034 88.3834 211.514C86.874 209.68 85.5249 207.711 84.3671 205.638C83.7003 204.444 83.0852 203.183 82.9508 201.824C82.8164 200.465 83.2558 198.982 84.3516 198.171C85.1063 197.612 86.0625 197.432 86.9826 197.266C87.6339 197.147 88.3317 197.039 88.9416 197.297C89.4533 197.519 89.8203 197.969 90.1718 198.403C92.5598 201.385 103.311 210.935 98.4524 214.853V214.858Z" fill="#7DB5DB"/>
<path d="M92.5547 213.566C92.7769 213.685 93.0095 213.788 93.2576 213.876C94.0175 214.145 95.2115 214.393 96.0127 214.191C96.0127 214.191 98.4679 213.173 97.5323 212.987L95.594 212.605L100.427 209.344L101.761 204.806L97.8786 199.855L91.5674 198.284C89.0243 200.749 85.7213 202.822 87.1841 206.848C87.6183 208.041 88.3782 209.085 89.1328 210.109C90.1046 211.426 91.1487 212.806 92.5702 213.566H92.5547Z" fill="#EACDB0"/>
</g>
<defs>
<clipPath id="clip0_2002_366">
<rect width="459" height="474" fill="white"/>
</clipPath>
</defs>
</svg>
