<svg width="591" height="483" viewBox="0 0 591 483" fill="none" xmlns="http://www.w3.org/2000/svg">
<g clip-path="url(#clip0_2002_662)">
<g style="mix-blend-mode:color-burn" opacity="0.1">
<path d="M574.487 393.603C589.282 400.745 589.282 412.345 574.487 419.487C559.693 426.628 535.695 426.628 520.9 419.487C506.106 412.345 506.106 400.745 520.9 393.603C535.695 386.462 559.693 386.462 574.487 393.603Z" fill="#3F72DF"/>
</g>
<path d="M83.1414 373.513C73.7282 377.516 64.1923 380.024 55.4452 378.572C48.9944 377.501 43.3324 374.231 38.6872 370.345C18.7388 353.671 16.4425 325.735 28.8883 304.559C32.4643 298.473 37.0745 292.841 40.668 286.756C49.4151 271.959 52.4652 252.719 56.9176 236.573C63.1931 213.769 67.9085 191.038 77.2516 168.88C87.5413 144.492 102.914 119.005 124.213 97.169C148.894 71.8722 179.202 53.6145 206.144 30.7374C213.331 24.6369 220.361 18.1257 228.021 13.037C246.129 1.02653 264.657 -1.04121 279.873 0.395943C295.088 1.84776 308.708 6.20321 325.414 4.78072C332.811 4.15013 340.682 2.39036 348.026 1.89175C381.578 -0.381292 398.563 24.7395 398.371 56.1515C398.178 87.5636 439.705 126.631 440.774 164.656C441.983 207.39 429.012 218.799 417.618 232.247C406.206 245.723 357.79 241.031 342.961 248.876C328.131 256.722 283.151 279.731 268.303 286.55C238.907 300.042 209.054 312.844 179.605 326.277C159.183 335.589 138.797 344.99 118.708 354.786C108.699 359.669 96.0255 368.013 83.1239 373.527L83.1414 373.513Z" fill="#FFDB80"/>
<path d="M350.27 203.504C349.639 203.679 348.921 203.503 348.552 203.005C348.097 202.433 348.289 201.656 348.991 201.274C353.128 199.016 357.615 197.198 361.962 195.438C364.662 194.338 367.449 193.209 370.096 192.006C401.789 177.459 417.846 149.361 425.751 128.361C425.997 127.701 426.838 127.349 427.627 127.54C428.416 127.745 428.854 128.449 428.609 129.109C420.545 150.549 404.103 179.248 371.551 194.191C368.834 195.438 366.012 196.582 363.277 197.696C359.017 199.427 354.618 201.201 350.638 203.386C350.533 203.445 350.41 203.489 350.305 203.518L350.27 203.504Z" fill="#FFC73B"/>
<path d="M449.696 103.343C449.819 101.803 449.802 100.234 449.135 98.7968C447.383 94.9546 441.317 93.4735 436.69 94.8373C432.062 96.2011 428.714 99.6327 426.347 103.24C422.263 109.429 425.769 132.482 425.769 132.482C425.769 132.482 449.013 112.67 449.696 103.358V103.343Z" fill="#FFC73B"/>
<path d="M456.024 141.281C457.234 140.548 458.426 139.712 459.162 138.612C461.143 135.679 459.092 131.705 455.639 129.974C452.186 128.244 447.856 128.273 443.912 128.904C437.11 129.974 421.562 143.862 421.562 143.862C421.562 143.862 448.645 145.783 456.024 141.281V141.281Z" fill="#FFC73B"/>
<path d="M447.242 173.441C449.013 173.074 450.783 172.605 452.203 171.652C456.007 169.129 455.884 163.909 452.974 160.653C450.065 157.397 445.209 155.784 440.441 154.978C432.255 153.585 407.293 163.19 407.293 163.19C407.293 163.19 436.532 175.655 447.242 173.455V173.441Z" fill="#FFC73B"/>
<path d="M421.509 204.266C423.438 204.237 425.418 204.09 427.171 203.386C431.834 201.509 433.149 196.068 431.028 192.109C428.907 188.164 424.314 185.539 419.599 183.765C411.483 180.714 382.91 185.832 382.91 185.832C382.91 185.832 409.8 204.471 421.527 204.266H421.509Z" fill="#FFC73B"/>
<path d="M387.678 221.629C389.396 222.055 391.184 222.392 392.937 222.186C397.669 221.644 400.667 217.171 400.141 213.197C399.615 209.223 396.46 205.835 392.919 203.166C386.819 198.576 359.982 196.303 359.982 196.303C359.982 196.303 377.3 219.034 387.678 221.629V221.629Z" fill="#FFC73B"/>
<path d="M415.532 121.205C414.69 120.09 413.726 119.005 412.394 118.286C408.853 116.365 403.752 117.905 401.351 120.809C398.949 123.712 398.721 127.51 399.247 131.015C400.141 137.043 416.513 151.561 416.513 151.561C416.513 151.561 420.668 127.965 415.514 121.219L415.532 121.205Z" fill="#FFC73B"/>
<path d="M373.251 161.372C372.41 160.257 371.446 159.172 370.113 158.453C366.573 156.532 361.472 158.072 359.07 160.976C356.668 163.879 356.441 167.677 356.966 171.182C357.86 177.21 374.233 191.728 374.233 191.728C374.233 191.728 378.387 168.132 373.234 161.386L373.251 161.372Z" fill="#FFC73B"/>
<path d="M396.583 144.14C395.724 142.953 394.76 141.779 393.392 140.987C389.729 138.876 384.312 140.386 381.7 143.378C379.088 146.384 378.703 150.358 379.141 154.054C379.877 160.418 396.618 176.066 396.618 176.066C396.618 176.066 401.771 151.355 396.583 144.14Z" fill="#FFC73B"/>
<path d="M271.424 104.824C271.792 105.293 271.757 105.909 271.283 106.349C270.74 106.862 269.793 106.906 269.18 106.437C265.499 103.665 262.256 100.498 259.1 97.4476C257.137 95.5412 255.121 93.5761 253.035 91.743C228.091 69.8484 191.525 64.0705 165.231 63.0733C164.407 63.0439 163.776 62.4574 163.811 61.7681C163.846 61.0789 164.547 60.5509 165.371 60.5803C192.209 61.6068 229.581 67.5314 255.209 90.0272C257.348 91.9043 259.398 93.8987 261.379 95.8198C264.464 98.8261 267.655 101.92 271.196 104.589C271.283 104.663 271.371 104.736 271.441 104.824H271.424Z" fill="white"/>
<path d="M130.19 50.1096C128.385 50.4175 126.561 50.8282 125.071 51.7227C121.092 54.1277 120.935 59.4071 123.687 62.8093C126.456 66.2115 131.277 68.0153 136.045 69.0272C144.249 70.743 169.964 62.0027 169.964 62.0027C169.964 62.0027 141.111 48.2912 130.173 50.1243L130.19 50.1096Z" fill="white"/>
<path d="M172.401 35.2688C171.226 34.4769 169.964 33.729 168.509 33.4064C164.618 32.5558 160.551 35.2248 159.429 38.4657C158.307 41.692 159.464 45.1969 161.199 48.2325C164.179 53.4532 184.215 62.472 184.215 62.472C184.215 62.472 179.482 40.0935 172.401 35.2688Z" fill="white"/>
<path d="M211.824 34.125C210.947 32.7905 209.948 31.4706 208.493 30.5614C204.602 28.1271 198.607 29.5642 195.592 32.7612C192.577 35.9434 191.963 40.2989 192.244 44.361C192.735 51.3415 210.229 69.0565 210.229 69.0565C210.229 69.0565 217.135 42.2199 211.841 34.125H211.824Z" fill="white"/>
<path d="M254.034 47.03C253.491 45.4755 252.825 43.9064 251.563 42.6892C248.197 39.4043 241.571 39.7269 237.557 42.4546C233.543 45.1822 231.685 49.567 230.861 53.8345C229.423 61.1815 242.658 82.9734 242.658 82.9734C242.658 82.9734 257.295 56.4595 254.052 47.0153L254.034 47.03Z" fill="white"/>
<path d="M282.765 69.9218C282.818 68.426 282.765 66.9008 282.064 65.5224C280.223 61.8415 274.281 60.5656 269.828 62.0028C265.376 63.4399 262.273 66.8715 260.1 70.4204C256.348 76.5356 260.608 98.8115 260.608 98.8115C260.608 98.8115 282.432 78.97 282.765 69.9218V69.9218Z" fill="white"/>
<path d="M159.604 73.1627C158.535 74.1305 157.518 75.1864 157.027 76.4476C155.713 79.8058 158.798 83.5307 162.777 84.7185C166.756 85.9064 171.191 85.1292 175.118 83.8093C181.849 81.5363 194.417 64.5691 194.417 64.5691C194.417 64.5691 166.108 67.2674 159.604 73.1627V73.1627Z" fill="white"/>
<path d="M216.855 97.0516C215.786 98.0195 214.769 99.0754 214.278 100.337C212.963 103.695 216.049 107.42 220.028 108.608C224.007 109.795 228.442 109.018 232.368 107.698C239.1 105.425 251.668 88.4581 251.668 88.4581C251.668 88.4581 223.358 91.1564 216.855 97.0516Z" fill="white"/>
<path d="M190.964 82.6068C189.807 83.604 188.703 84.6892 188.142 85.9944C186.652 89.4993 189.772 93.4881 193.909 94.8373C198.046 96.1864 202.744 95.4679 206.916 94.1627C214.068 91.9336 227.863 74.3945 227.863 74.3945C227.863 74.3945 197.993 76.5649 190.982 82.6068H190.964Z" fill="white"/>
<path d="M113.748 319.194C114.361 319.253 114.957 318.96 115.185 318.461C115.465 317.874 115.097 317.2 114.396 316.98C110.137 315.616 105.667 314.707 101.337 313.827C98.6548 313.284 95.8677 312.712 93.1857 312.052C61.2123 304.075 40.1771 281.344 28.1871 263.688C27.8015 263.131 26.9601 262.94 26.3115 263.263C25.6454 263.571 25.4175 264.274 25.8031 264.832C38.0561 282.869 59.5645 306.084 92.4144 314.267C95.149 314.956 97.9712 315.528 100.688 316.071C104.93 316.936 109.313 317.83 113.415 319.15C113.52 319.18 113.642 319.209 113.748 319.223V319.194Z" fill="#FFC73B"/>
<path d="M0.753782 245.005C0.29802 243.641 -0.0700951 242.219 0.192844 240.811C0.894016 237.057 6.01257 234.74 10.5001 235.209C14.9876 235.678 18.809 238.244 21.7889 241.104C26.925 246.017 29.1162 267.383 29.1162 267.383C29.1162 267.383 3.54094 253.291 0.753782 244.99V245.005Z" fill="#FFC73B"/>
<path d="M4.89068 279.717C3.62857 279.247 2.34894 278.69 1.43741 277.825C-1.03422 275.508 -0.105165 271.592 2.61188 269.466C5.31139 267.339 9.23795 266.665 12.9542 266.592C19.3348 266.445 36.6012 276.446 36.6012 276.446C36.6012 276.446 12.6211 282.576 4.90821 279.731L4.89068 279.717Z" fill="#FFC73B"/>
<path d="M36.4083 253.393C36.9693 252.132 37.6529 250.871 38.7748 249.918C41.8074 247.366 47.294 247.982 50.4318 250.446C53.5695 252.909 54.779 256.663 55.1647 260.242C55.8133 266.416 43.2097 283.837 43.2097 283.837C43.2097 283.837 33.0077 261.048 36.4083 253.393V253.393Z" fill="#FFC73B"/>
<path d="M19.2647 307.858C17.5819 307.814 15.864 307.682 14.374 307.052C10.3423 305.395 9.25549 300.658 11.1136 297.256C12.9892 293.839 16.9859 291.595 21.1053 290.085C28.1696 287.489 52.921 292.094 52.921 292.094C52.921 292.094 29.4492 308.107 19.2647 307.844V307.858Z" fill="#FFC73B"/>
<path d="M56.4268 270.184C56.9702 268.85 57.6363 267.53 58.7757 266.503C61.8609 263.776 67.5754 264.289 70.9235 266.782C74.2716 269.275 75.6564 273.147 76.1648 276.872C77.0412 283.28 64.5078 301.714 64.5078 301.714C64.5078 301.714 53.1313 278.235 56.4093 270.17L56.4268 270.184Z" fill="#FFC73B"/>
<path d="M81.108 276.681C81.7216 275.185 82.4753 273.675 83.7725 272.531C87.2433 269.451 93.7116 270.023 97.4804 272.853C101.249 275.669 102.827 280.039 103.405 284.248C104.404 291.478 90.2583 312.272 90.2583 312.272C90.2583 312.272 77.4269 285.788 81.1256 276.696L81.108 276.681Z" fill="#FFC73B"/>
<path d="M44.6296 329.284C42.8766 329.562 41.0536 329.753 39.3182 329.401C34.6729 328.462 32.2188 323.77 33.218 319.854C34.2172 315.953 37.7581 312.83 41.597 310.469C48.2055 306.406 75.1831 306.362 75.1831 306.362C75.1831 306.362 55.2698 327.553 44.6296 329.284Z" fill="#FFC73B"/>
<path d="M81.1256 347.145C79.6531 348.142 78.0404 349.066 76.1998 349.448C71.2741 350.489 66.1906 347.072 64.8233 342.995C63.456 338.904 64.946 334.519 67.1722 330.706C70.9936 324.136 96.3585 312.962 96.3585 312.962C96.3585 312.962 90.1181 341.147 81.1256 347.16V347.145Z" fill="#FFC73B"/>
<g style="mix-blend-mode:color-burn" opacity="0.1">
<path d="M87.0329 377.663C85.9637 378.176 85.4378 378.851 85.4378 379.54C85.4378 380.214 85.9636 380.904 87.0154 381.417L294.247 482.237C295.298 482.751 296.701 483.015 298.103 483.015C299.505 483.015 300.908 482.751 301.977 482.237L582.411 346.779C583.498 346.251 584.023 345.576 584.023 344.902C584.023 344.227 583.48 343.552 582.428 343.039L375.197 242.219C374.145 241.705 372.743 241.441 371.34 241.441C369.938 241.441 368.536 241.691 367.449 242.219L87.0329 377.663Z" fill="#3F72DF"/>
</g>
<path d="M96.3936 370.213C95.3243 370.726 94.7984 371.401 94.7984 372.09C94.7984 372.765 95.3243 373.454 96.376 373.967L296.122 471.078C297.174 471.591 298.576 471.855 299.996 471.855C301.416 471.855 302.801 471.591 303.87 471.078L584.304 335.619C585.391 335.091 585.917 334.416 585.917 333.742C585.917 333.067 585.373 332.392 584.321 331.879L384.575 234.769C383.523 234.256 382.121 233.992 380.719 233.992C379.316 233.992 377.914 234.241 376.827 234.769L96.3936 370.213Z" fill="#CDC4FD"/>
<path d="M379.912 29.9748C379.684 29.8869 379.351 29.8282 379.071 29.8282C378.51 29.7842 377.896 29.9162 377.283 30.2535L96.8844 159.245C95.6048 159.861 94.4829 161.635 93.7992 163.366C93.2909 164.583 93.0104 165.756 93.0104 166.607L93.6765 367.823C93.6765 368.204 93.7291 368.527 93.8518 368.805C93.9044 369.084 94.0797 369.318 94.2375 369.509C94.4128 369.7 94.5705 369.832 94.7984 369.934L86.507 365.902C85.8409 365.579 85.3852 364.875 85.3852 363.79L84.7717 162.618C84.7717 161.767 85.0521 160.55 85.5605 159.333C86.2266 157.603 87.3485 155.858 88.6456 155.212L369.044 26.2207C370.113 25.7074 371.113 25.6634 371.849 26.03L379.912 29.9602V29.9748Z" fill="#CDC4FD"/>
<path d="M381.876 228.61C381.876 230.677 380.14 233.2 378.002 234.241L98.0063 369.45L97.5505 369.685C96.4812 370.198 95.4821 370.242 94.7984 369.92C94.5705 369.773 94.4128 369.685 94.2375 369.494C94.0622 369.304 93.9044 369.069 93.8518 368.79C93.7467 368.512 93.6765 368.175 93.6765 367.808L93.0104 166.592C93.0104 165.742 93.2909 164.583 93.7992 163.351C94.4653 161.621 95.5872 159.832 96.8844 159.23L377.283 30.2535C377.896 29.9308 378.51 29.7842 379.071 29.8282C379.351 29.8282 379.632 29.8722 379.912 29.9748C380.701 30.2975 381.21 31.06 381.21 32.0866L381.876 228.61Z" fill="#DAD3FD"/>
<path d="M100.723 171.285C100.723 171.285 100.916 164.744 100.986 164.671L373.514 39.5363L374.145 215.705L101.354 347.453L100.723 171.285V171.285Z" fill="#291E40"/>
<path d="M585.917 333.742V341.705C585.917 342.409 585.408 343.068 584.286 343.582L303.888 479.041C302.819 479.554 301.364 479.832 299.961 479.788C298.506 479.788 297.209 479.554 296.157 479.041L96.376 381.93C95.3593 381.417 94.7984 380.757 94.7984 380.097V372.075C94.7984 372.779 95.3068 373.439 96.376 373.953L296.105 471.063C297.174 471.576 298.576 471.811 299.979 471.811C301.381 471.811 302.783 471.576 303.853 471.063L584.321 335.604C585.391 335.091 585.952 334.387 585.952 333.727L585.917 333.742Z" fill="#DAD3FD"/>
<path d="M134.73 373.982L384.382 253.408L501.233 310.791L251.58 431.365L134.73 373.982Z" fill="#BDB3F5"/>
<path d="M435.813 354.786V356.105L389.238 378.425L344.065 400.1L342.68 399.425L389.238 377.105L435.813 354.786Z" fill="white"/>
<path d="M478.357 376.841L474.658 378.616L433.149 398.516L386.573 420.836L364.644 410.116L344.065 400.1L389.238 378.425L435.813 356.105L457.777 366.796L478.357 376.841Z" fill="#DAD3FD"/>
<path d="M479.707 376.196L478.357 376.841L457.777 366.796L435.813 356.105V354.786L457.777 365.476L479.707 376.196Z" fill="#886CC3"/>
<path d="M390.447 261.547L390.43 262.72L377.651 268.938L377.669 267.765L390.447 261.547Z" fill="white"/>
<path d="M377.669 267.765L377.651 268.938L368.606 264.568V263.395L377.669 267.765Z" fill="#886CC3"/>
<path d="M390.447 261.547L377.669 267.765L368.606 263.395L381.402 257.177L390.447 261.547Z" fill="#CDC4FD"/>
<path d="M373.128 269.964V271.138L360.332 277.355L360.35 276.182L373.128 269.964Z" fill="white"/>
<path d="M360.35 276.182L360.332 277.355L351.287 272.985L351.304 271.812L360.35 276.182Z" fill="#886CC3"/>
<path d="M373.128 269.964L360.35 276.182L351.305 271.812L364.083 265.594L373.128 269.964Z" fill="#CDC4FD"/>
<path d="M409.852 270.918L409.835 272.091L379.737 286.726L379.755 285.553L409.852 270.918Z" fill="white"/>
<path d="M379.755 285.553L379.737 286.726L364.329 279.291L364.346 278.103L379.755 285.553Z" fill="#886CC3"/>
<path d="M409.852 270.918L379.755 285.553L364.346 278.103L394.444 263.483L409.852 270.918Z" fill="#CDC4FD"/>
<path d="M414.603 291.302V292.475L395.198 283.104V281.931L414.603 291.302Z" fill="#886CC3"/>
<path d="M406.382 291.404L393.585 297.622L378.212 290.202L390.991 283.984L406.382 291.404Z" fill="#CDC4FD"/>
<path d="M406.382 291.404L406.364 292.592L393.585 298.81V297.622L406.382 291.404Z" fill="white"/>
<path d="M393.585 297.622V298.81L378.194 291.375L378.212 290.202L393.585 297.622Z" fill="#886CC3"/>
<path d="M448.645 289.659V290.832L431.326 299.265L431.343 298.077L448.645 289.659Z" fill="white"/>
<path d="M431.343 298.077L431.326 299.265L427.557 301.098V299.91L431.343 298.077Z" fill="white"/>
<path d="M418.547 304.295V305.468L403.156 298.047L403.174 296.86L418.547 304.295Z" fill="#886CC3"/>
<path d="M427.557 299.91V301.098L418.547 305.468V304.295L427.557 299.91Z" fill="white"/>
<path d="M448.645 289.659L431.343 298.077L427.557 299.91L418.547 304.295L403.174 296.86L414.603 291.302L395.198 281.931L413.867 272.853L448.645 289.659Z" fill="#CDC4FD"/>
<path d="M468.05 299.03V300.203L432.377 317.552L432.395 316.364L468.05 299.03Z" fill="white"/>
<path d="M432.395 316.364L432.377 317.552L417.004 310.117V308.943L432.395 316.364Z" fill="#886CC3"/>
<path d="M468.05 299.03L432.395 316.364L417.004 308.943L452.676 291.595L468.05 299.03Z" fill="#CDC4FD"/>
<path d="M355.81 278.382V279.555L342.996 285.788L343.013 284.615L355.81 278.382Z" fill="white"/>
<path d="M343.013 284.615L342.996 285.788L333.95 281.418V280.244L343.013 284.615Z" fill="#886CC3"/>
<path d="M355.81 278.382L343.013 284.615L333.95 280.244L346.764 274.012L355.81 278.382Z" fill="#CDC4FD"/>
<path d="M338.473 286.814V287.987L325.677 294.205L325.694 293.032L338.473 286.814Z" fill="white"/>
<path d="M325.694 293.032L325.677 294.205L316.632 289.835L316.649 288.662L325.694 293.032Z" fill="#886CC3"/>
<path d="M338.473 286.814L325.694 293.032L316.649 288.662L329.428 282.444L338.473 286.814Z" fill="#CDC4FD"/>
<path d="M321.154 295.232V296.405L308.358 302.623L308.375 301.45L321.154 295.232Z" fill="white"/>
<path d="M308.375 301.45L308.358 302.623L299.313 298.253L299.33 297.08L308.375 301.45Z" fill="#886CC3"/>
<path d="M321.154 295.232L308.375 301.45L299.33 297.08L312.109 290.862L321.154 295.232Z" fill="#CDC4FD"/>
<path d="M303.835 303.649V304.837L291.021 311.055L291.039 309.882L303.835 303.649Z" fill="white"/>
<path d="M291.039 309.882L291.021 311.055L281.976 306.685V305.512L291.039 309.882Z" fill="#886CC3"/>
<path d="M303.835 303.649L291.039 309.882L281.976 305.512L294.79 299.279L303.835 303.649Z" fill="#CDC4FD"/>
<path d="M286.499 312.082V313.255L273.702 319.473L273.72 318.3L286.499 312.082Z" fill="white"/>
<path d="M273.72 318.3L273.702 319.473L264.657 315.103L264.675 313.93L273.72 318.3Z" fill="#886CC3"/>
<path d="M286.499 312.082L273.72 318.3L264.675 313.93L277.454 307.712L286.499 312.082Z" fill="#CDC4FD"/>
<path d="M269.18 320.499V321.673L256.383 327.89L256.401 326.717L269.18 320.499Z" fill="white"/>
<path d="M256.401 326.717L256.383 327.89L247.338 323.52L247.356 322.347L256.401 326.717Z" fill="#886CC3"/>
<path d="M269.18 320.499L256.401 326.717L247.356 322.347L260.135 316.129L269.18 320.499Z" fill="#CDC4FD"/>
<path d="M251.861 328.917V330.105L239.047 336.323L239.064 335.149L251.861 328.917Z" fill="white"/>
<path d="M239.064 335.149L239.047 336.323L230.002 331.953L230.019 330.779L239.064 335.149Z" fill="#886CC3"/>
<path d="M251.861 328.917L239.064 335.149L230.019 330.779L242.816 324.547L251.861 328.917Z" fill="#CDC4FD"/>
<path d="M234.524 337.349V338.522L221.728 344.74L221.746 343.567L234.524 337.349Z" fill="white"/>
<path d="M221.746 343.567L221.728 344.74L212.683 340.37L212.7 339.197L221.746 343.567Z" fill="#886CC3"/>
<path d="M234.524 337.349L221.746 343.567L212.7 339.197L225.479 332.979L234.524 337.349Z" fill="#CDC4FD"/>
<path d="M217.205 345.767V346.955L204.409 353.158L204.427 351.985L217.205 345.767Z" fill="white"/>
<path d="M204.427 351.985L204.409 353.158L195.364 348.788L195.381 347.615L204.427 351.985Z" fill="#886CC3"/>
<path d="M217.205 345.767L204.427 351.985L195.381 347.615L208.16 341.397L217.205 345.767Z" fill="#CDC4FD"/>
<path d="M199.887 354.184V355.372L187.073 361.59L187.09 360.417L199.887 354.184Z" fill="white"/>
<path d="M187.09 360.417L187.073 361.59L178.027 357.22L178.045 356.047L187.09 360.417Z" fill="#886CC3"/>
<path d="M199.887 354.184L187.09 360.417L178.045 356.047L190.841 349.814L199.887 354.184Z" fill="#CDC4FD"/>
<path d="M182.585 362.602L182.568 363.79L169.754 370.008L169.771 368.835L182.585 362.602Z" fill="white"/>
<path d="M169.771 368.834L169.754 370.008L160.709 365.638L160.726 364.464L169.771 368.834Z" fill="#886CC3"/>
<path d="M182.585 362.602L169.771 368.834L160.726 364.464L173.522 358.232L182.585 362.602Z" fill="#CDC4FD"/>
<path d="M165.231 371.034V372.222L152.452 378.425V377.252L165.231 371.034Z" fill="white"/>
<path d="M152.452 377.252V378.425L143.39 374.055L143.407 372.882L152.452 377.252Z" fill="#886CC3"/>
<path d="M165.231 371.034L152.452 377.252L143.407 372.882L156.186 366.664L165.231 371.034Z" fill="#CDC4FD"/>
<path d="M375.214 287.753V288.941L362.401 295.159V293.985L375.214 287.753Z" fill="white"/>
<path d="M362.401 293.985V295.159L346.992 287.723V286.536L362.401 293.985Z" fill="#886CC3"/>
<path d="M375.214 287.753L362.401 293.985L346.992 286.536L359.806 280.318L375.214 287.753Z" fill="#CDC4FD"/>
<path d="M357.878 296.185L357.86 297.358L345.082 303.576L345.099 302.403L357.878 296.185Z" fill="white"/>
<path d="M345.099 302.403L345.082 303.576L329.673 296.141L329.691 294.953L345.099 302.403Z" fill="#886CC3"/>
<path d="M357.878 296.185L345.099 302.403L329.691 294.953L342.47 288.75L357.878 296.185Z" fill="#CDC4FD"/>
<path d="M340.559 304.603V305.776L327.763 311.994L327.78 310.821L340.559 304.603Z" fill="white"/>
<path d="M327.78 310.821L327.763 311.994L312.354 304.559L312.372 303.371L327.78 310.821Z" fill="#886CC3"/>
<path d="M340.559 304.603L327.78 310.821L312.372 303.371L325.151 297.168L340.559 304.603Z" fill="#CDC4FD"/>
<path d="M323.24 313.02V314.208L310.426 320.426V319.253L323.24 313.02Z" fill="white"/>
<path d="M310.426 319.253V320.426L295.018 312.991V311.803L310.426 319.253Z" fill="#886CC3"/>
<path d="M323.24 313.02L310.426 319.253L295.018 311.803L307.832 305.585L323.24 313.02Z" fill="#CDC4FD"/>
<path d="M305.904 321.453L305.886 322.626L293.107 328.844L293.125 327.67L305.904 321.453Z" fill="white"/>
<path d="M293.125 327.67L293.107 328.844L277.699 321.409L277.717 320.221L293.125 327.67Z" fill="#886CC3"/>
<path d="M305.904 321.453L293.125 327.67L277.717 320.221L290.495 314.018L305.904 321.453Z" fill="#CDC4FD"/>
<path d="M286.919 330.677V331.865L274.106 338.082V336.909L286.919 330.677Z" fill="white"/>
<path d="M274.106 336.909V338.082L258.697 330.647V329.474L274.106 336.909Z" fill="#886CC3"/>
<path d="M286.919 330.677L274.106 336.909L258.697 329.474L271.511 323.242L286.919 330.677Z" fill="#CDC4FD"/>
<path d="M269.583 339.109L269.565 340.297L256.787 346.5V345.327L269.583 339.109Z" fill="white"/>
<path d="M256.787 345.327V346.5L241.378 339.065V337.892L256.787 345.327Z" fill="#886CC3"/>
<path d="M269.583 339.109L256.787 345.327L241.378 337.892L254.175 331.674L269.583 339.109Z" fill="#CDC4FD"/>
<path d="M252.264 347.527L252.246 348.714L239.468 354.932L239.485 353.744L252.264 347.527Z" fill="white"/>
<path d="M239.485 353.744L239.468 354.932L224.059 347.483L224.077 346.309L239.485 353.744Z" fill="#886CC3"/>
<path d="M252.264 347.527L239.485 353.744L224.077 346.309L236.856 340.091L252.264 347.527Z" fill="#CDC4FD"/>
<path d="M234.945 355.944V357.132L222.131 363.35V362.177L234.945 355.944Z" fill="white"/>
<path d="M222.131 362.177V363.35L206.723 355.915V354.742L222.131 362.177Z" fill="#886CC3"/>
<path d="M234.945 355.944L222.131 362.177L206.723 354.742L219.537 348.509L234.945 355.944Z" fill="#CDC4FD"/>
<path d="M217.609 364.376L217.591 365.564L204.812 371.782L204.83 370.594L217.609 364.376Z" fill="white"/>
<path d="M204.83 370.594L204.812 371.782L189.404 364.332L189.422 363.159L204.83 370.594Z" fill="#886CC3"/>
<path d="M217.609 364.376L204.83 370.594L189.422 363.159L202.2 356.941L217.609 364.376Z" fill="#CDC4FD"/>
<path d="M200.29 372.794V373.982L187.493 380.2L187.511 379.012L200.29 372.794Z" fill="white"/>
<path d="M187.511 379.012L187.493 380.2L172.085 372.75L172.103 371.577L187.511 379.012Z" fill="#886CC3"/>
<path d="M200.29 372.794L187.511 379.012L172.103 371.577L184.881 365.359L200.29 372.794Z" fill="#CDC4FD"/>
<path d="M184.636 380.405V381.593L171.84 387.796L171.857 386.623L184.636 380.405Z" fill="white"/>
<path d="M171.857 386.623L171.84 387.796L156.431 380.361L156.449 379.188L171.857 386.623Z" fill="#886CC3"/>
<path d="M184.636 380.405L171.857 386.623L156.449 379.188L169.228 372.97L184.636 380.405Z" fill="#CDC4FD"/>
<path d="M389.063 299.822L389.045 301.01L376.231 307.242L376.249 306.054L389.063 299.822Z" fill="white"/>
<path d="M376.249 306.054L376.231 307.242L360.858 299.807V298.619L376.249 306.054Z" fill="#886CC3"/>
<path d="M389.063 299.822L376.249 306.054L360.858 298.619L373.672 292.402L389.063 299.822Z" fill="#CDC4FD"/>
<path d="M371.726 308.254L371.709 309.442L358.93 315.66V314.472L371.726 308.254Z" fill="white"/>
<path d="M358.93 314.472V315.66L343.539 308.225L343.557 307.052L358.93 314.472Z" fill="#886CC3"/>
<path d="M371.726 308.254L358.93 314.472L343.557 307.052L356.335 300.834L371.726 308.254Z" fill="#CDC4FD"/>
<path d="M354.407 316.672L354.39 317.86L341.611 324.078V322.89L354.407 316.672Z" fill="white"/>
<path d="M341.611 322.89V324.078L326.22 316.642L326.238 315.469L341.611 322.89Z" fill="#886CC3"/>
<path d="M354.407 316.672L341.611 322.89L326.238 315.469L339.016 309.251L354.407 316.672Z" fill="#CDC4FD"/>
<path d="M337.088 325.104L337.071 326.277L324.274 332.51V331.322L337.088 325.104Z" fill="white"/>
<path d="M324.274 331.322V332.51L308.884 325.075V323.902L324.274 331.322Z" fill="#886CC3"/>
<path d="M337.088 325.104L324.274 331.322L308.884 323.902L321.698 317.669L337.088 325.104Z" fill="#CDC4FD"/>
<path d="M318.087 334.343L318.069 335.516L305.29 341.734V340.546L318.087 334.343Z" fill="white"/>
<path d="M305.29 340.546V341.734L289.899 334.299L289.917 333.126L305.29 340.546Z" fill="#886CC3"/>
<path d="M318.087 334.343L305.29 340.546L289.917 333.126L302.696 326.908L318.087 334.343Z" fill="#CDC4FD"/>
<path d="M300.768 342.76L300.75 343.934L287.936 350.166L287.954 348.978L300.768 342.76Z" fill="white"/>
<path d="M287.954 348.978L287.936 350.166L272.563 342.731V341.558L287.954 348.978Z" fill="#886CC3"/>
<path d="M300.768 342.76L287.954 348.978L272.563 341.558L285.377 335.325L300.768 342.76Z" fill="#CDC4FD"/>
<path d="M283.414 351.193V352.366L270.635 358.584V357.396L283.414 351.193Z" fill="white"/>
<path d="M270.635 357.396V358.584L255.244 351.149L255.262 349.976L270.635 357.396Z" fill="#886CC3"/>
<path d="M283.414 351.193L270.635 357.396L255.262 349.976L268.04 343.758L283.414 351.193Z" fill="#CDC4FD"/>
<path d="M266.112 359.61L266.095 360.784L253.316 367.001V365.828L266.112 359.61Z" fill="white"/>
<path d="M253.316 365.828V367.001L237.925 359.566L237.943 358.393L253.316 365.828Z" fill="#886CC3"/>
<path d="M266.112 359.61L253.316 365.828L237.943 358.393L250.721 352.175L266.112 359.61Z" fill="#CDC4FD"/>
<path d="M248.793 368.028L248.776 369.201L235.979 375.434V374.246L248.793 368.028Z" fill="white"/>
<path d="M235.979 374.246V375.434L220.589 367.999V366.825L235.979 374.246Z" fill="#886CC3"/>
<path d="M248.793 368.028L235.979 374.246L220.589 366.825L233.402 360.593L248.793 368.028Z" fill="#CDC4FD"/>
<path d="M231.457 376.46L231.439 377.633L218.66 383.851V382.663L231.457 376.46Z" fill="white"/>
<path d="M218.66 382.663V383.851L203.27 376.416L203.287 375.243L218.66 382.663Z" fill="#886CC3"/>
<path d="M231.457 376.46L218.66 382.663L203.287 375.243L216.066 369.025L231.457 376.46Z" fill="#CDC4FD"/>
<path d="M214.962 384.467V385.64L191.245 397.167L191.262 395.994L214.962 384.467Z" fill="white"/>
<path d="M191.262 395.994L191.245 397.167L175.871 389.747V388.559L191.262 395.994Z" fill="#886CC3"/>
<path d="M214.962 384.467L191.262 395.994L175.871 388.559L199.589 377.032L214.962 384.467Z" fill="#CDC4FD"/>
<path d="M414.024 306.494L414.007 307.682L401.21 313.9V312.727L414.024 306.494Z" fill="white"/>
<path d="M401.21 312.727V313.9L385.82 306.48V305.292L401.21 312.727Z" fill="#886CC3"/>
<path d="M414.024 306.494L401.21 312.727L385.82 305.292L398.634 299.074L414.024 306.494Z" fill="#CDC4FD"/>
<path d="M396.688 314.927L396.67 316.1L383.891 322.318V321.145L396.688 314.927Z" fill="white"/>
<path d="M383.891 321.145V322.318L368.501 314.897L368.518 313.71L383.891 321.145Z" fill="#886CC3"/>
<path d="M396.688 314.927L383.891 321.145L368.518 313.71L381.297 307.492L396.688 314.927Z" fill="#CDC4FD"/>
<path d="M379.369 323.344L379.351 324.532L366.573 330.735V329.562L379.369 323.344Z" fill="white"/>
<path d="M366.573 329.562V330.735L351.182 323.315L351.199 322.127L366.573 329.562Z" fill="#886CC3"/>
<path d="M379.369 323.344L366.573 329.562L351.199 322.127L363.978 315.909L379.369 323.344Z" fill="#CDC4FD"/>
<path d="M362.05 331.762L362.032 332.95L349.236 339.168V337.994L362.05 331.762Z" fill="white"/>
<path d="M349.236 337.994V339.168L333.845 331.747V330.559L349.236 337.994Z" fill="#886CC3"/>
<path d="M362.05 331.762L349.236 337.994L333.845 330.559L346.659 324.342L362.05 331.762Z" fill="#CDC4FD"/>
<path d="M344.713 340.194L344.696 341.367L331.917 347.585V346.412L344.713 340.194Z" fill="white"/>
<path d="M331.917 346.412V347.585L316.526 340.165L316.544 338.977L331.917 346.412Z" fill="#886CC3"/>
<path d="M344.713 340.194L331.917 346.412L316.544 338.977L329.323 332.759L344.713 340.194Z" fill="#CDC4FD"/>
<path d="M325.729 349.418L325.712 350.606L312.898 356.824L312.915 355.651L325.729 349.418Z" fill="white"/>
<path d="M312.915 355.651L312.898 356.824L297.525 349.404V348.216L312.915 355.651Z" fill="#886CC3"/>
<path d="M325.729 349.418L312.915 355.651L297.525 348.216L310.339 341.998L325.729 349.418Z" fill="#CDC4FD"/>
<path d="M308.375 357.851V359.038L295.596 365.256V364.068L308.375 357.851Z" fill="white"/>
<path d="M295.596 364.068V365.256L280.206 357.821L280.223 356.633L295.596 364.068Z" fill="#886CC3"/>
<path d="M308.375 357.851L295.596 364.068L280.223 356.633L293.002 350.43L308.375 357.851Z" fill="#CDC4FD"/>
<path d="M291.074 366.268L291.056 367.456L278.277 373.674V372.486L291.074 366.268Z" fill="white"/>
<path d="M278.277 372.486V373.674L262.887 366.239L262.904 365.066L278.277 372.486Z" fill="#886CC3"/>
<path d="M291.074 366.268L278.277 372.486L262.904 365.066L275.683 358.848L291.074 366.268Z" fill="#CDC4FD"/>
<path d="M273.755 374.686L273.737 375.874L260.941 382.106V380.918L273.755 374.686Z" fill="white"/>
<path d="M260.941 380.918V382.106L245.55 374.671V373.483L260.941 380.918Z" fill="#886CC3"/>
<path d="M273.755 374.686L260.941 380.918L245.55 373.483L258.364 367.265L273.755 374.686Z" fill="#CDC4FD"/>
<path d="M256.418 383.118L256.401 384.306L243.622 390.524V389.336L256.418 383.118Z" fill="white"/>
<path d="M243.622 389.336V390.524L228.231 383.089L228.249 381.915L243.622 389.336Z" fill="#886CC3"/>
<path d="M256.418 383.118L243.622 389.336L228.249 381.916L241.028 375.698L256.418 383.118Z" fill="#CDC4FD"/>
<path d="M239.1 391.536L239.082 392.723L210.649 406.538V405.365L239.1 391.536Z" fill="white"/>
<path d="M210.649 405.365V406.538L195.259 399.117L195.276 397.93L210.649 405.365Z" fill="#886CC3"/>
<path d="M239.1 391.536L210.649 405.365L195.276 397.929L223.709 384.115L239.1 391.536Z" fill="#CDC4FD"/>
<path d="M427.855 318.578V319.751L415.041 325.984L415.059 324.796L427.855 318.578Z" fill="white"/>
<path d="M415.059 324.796L415.041 325.984L399.668 318.549V317.376L415.059 324.796Z" fill="#886CC3"/>
<path d="M427.855 318.578L415.059 324.796L399.668 317.376L412.482 311.143L427.855 318.578Z" fill="#CDC4FD"/>
<path d="M410.518 326.996V328.184L397.722 334.402L397.74 333.214L410.518 326.996Z" fill="white"/>
<path d="M397.74 333.214L397.722 334.402L382.349 326.966V325.793L397.74 333.214Z" fill="#886CC3"/>
<path d="M410.518 326.996L397.74 333.214L382.349 325.793L395.145 319.575L410.518 326.996Z" fill="#CDC4FD"/>
<path d="M393.2 335.428V336.601L380.403 342.819L380.421 341.631L393.2 335.428Z" fill="white"/>
<path d="M380.421 341.631L380.403 342.819L365.03 335.384V334.211L380.421 341.631Z" fill="#886CC3"/>
<path d="M393.2 335.428L380.421 341.631L365.03 334.211L377.826 327.993L393.2 335.428Z" fill="#CDC4FD"/>
<path d="M375.881 343.846V345.019L363.067 351.251L363.084 350.064L375.881 343.846Z" fill="white"/>
<path d="M363.084 350.064L363.067 351.251L347.693 343.816V342.643L363.084 350.064Z" fill="#886CC3"/>
<path d="M375.881 343.846L363.084 350.064L347.693 342.643L360.507 336.411L375.881 343.846Z" fill="#CDC4FD"/>
<path d="M356.879 353.085V354.258L344.082 360.476L344.1 359.302L356.879 353.085Z" fill="white"/>
<path d="M344.1 359.302L344.082 360.476L328.709 353.041V351.867L344.1 359.302Z" fill="#886CC3"/>
<path d="M356.879 353.085L344.1 359.302L328.709 351.867L341.506 345.649L356.879 353.085Z" fill="#CDC4FD"/>
<path d="M339.56 361.502V362.675L326.746 368.908L326.764 367.72L339.56 361.502Z" fill="white"/>
<path d="M326.764 367.72L326.746 368.908L311.373 361.473V360.3L326.764 367.72Z" fill="#886CC3"/>
<path d="M339.56 361.502L326.764 367.72L311.373 360.3L324.187 354.067L339.56 361.502Z" fill="#CDC4FD"/>
<path d="M322.223 369.934V371.108L309.427 377.325L309.445 376.138L322.223 369.934Z" fill="white"/>
<path d="M309.445 376.138L309.427 377.325L294.054 369.89V368.717L309.445 376.138Z" fill="#886CC3"/>
<path d="M322.223 369.934L309.445 376.138L294.054 368.717L306.85 362.499L322.223 369.934Z" fill="#CDC4FD"/>
<path d="M304.904 378.352V379.525L292.108 385.743L292.126 384.57L304.904 378.352Z" fill="white"/>
<path d="M292.126 384.57L292.108 385.743L276.735 378.308V377.135L292.126 384.57Z" fill="#886CC3"/>
<path d="M304.904 378.352L292.126 384.57L276.735 377.135L289.531 370.917L304.904 378.352Z" fill="#CDC4FD"/>
<path d="M487.455 308.401V309.574L468.277 318.901V317.728L487.455 308.401Z" fill="white"/>
<path d="M468.277 317.728V318.901L452.887 311.48V310.293L468.277 317.728Z" fill="#886CC3"/>
<path d="M487.455 308.401L468.277 317.728L452.887 310.293L472.081 300.966L487.455 308.401Z" fill="#CDC4FD"/>
<path d="M464.579 319.517V320.705L451.782 326.923L451.8 325.735L464.579 319.517Z" fill="white"/>
<path d="M451.8 325.735L451.782 326.923L436.409 319.487V318.314L451.8 325.735Z" fill="#886CC3"/>
<path d="M464.579 319.517L451.8 325.735L436.409 318.314L449.206 312.096L464.579 319.517Z" fill="#CDC4FD"/>
<path d="M447.26 327.949V329.122L434.446 335.355V334.167L447.26 327.949Z" fill="white"/>
<path d="M434.446 334.167V335.355L419.055 327.92L419.073 326.747L434.446 334.167Z" fill="#886CC3"/>
<path d="M447.26 327.949L434.446 334.167L419.073 326.747L431.887 320.514L447.26 327.949Z" fill="#CDC4FD"/>
<path d="M429.923 336.367L429.906 337.554L417.127 343.772L417.145 342.585L429.923 336.367Z" fill="white"/>
<path d="M417.145 342.585L417.127 343.772L401.754 336.337V335.164L417.145 342.585Z" fill="#886CC3"/>
<path d="M429.923 336.367L417.145 342.585L401.754 335.164L414.533 328.946L429.923 336.367Z" fill="#CDC4FD"/>
<path d="M411.781 345.195L411.763 346.383L317.07 392.416L317.087 391.228L411.781 345.195Z" fill="white"/>
<path d="M317.087 391.228L317.07 392.416L301.697 384.98V383.807L317.087 391.228Z" fill="#886CC3"/>
<path d="M411.781 345.195L317.087 391.228L301.697 383.807L396.39 337.76L411.781 345.195Z" fill="#CDC4FD"/>
<path d="M287.586 386.77V387.943L274.772 394.175L274.789 392.987L287.586 386.77Z" fill="white"/>
<path d="M274.789 392.987L274.772 394.175L259.398 386.74V385.567L274.789 392.987Z" fill="#886CC3"/>
<path d="M287.586 386.77L274.789 392.987L259.398 385.567L272.212 379.335L287.586 386.77Z" fill="#CDC4FD"/>
<path d="M312.547 393.427V394.615L299.733 400.848L299.751 399.66L312.547 393.427Z" fill="white"/>
<path d="M299.751 399.66L299.733 400.848L284.36 393.413V392.225L299.751 399.66Z" fill="#886CC3"/>
<path d="M312.547 393.427L299.751 399.66L284.36 392.225L297.174 386.007L312.547 393.427Z" fill="#CDC4FD"/>
<path d="M270.249 395.202V396.375L257.453 402.593L257.47 401.42L270.249 395.202Z" fill="white"/>
<path d="M257.47 401.42L257.453 402.593L242.08 395.158V393.985L257.47 401.42Z" fill="#886CC3"/>
<path d="M270.249 395.202L257.47 401.42L242.08 393.985L254.876 387.767L270.249 395.202Z" fill="#CDC4FD"/>
<path d="M295.211 401.86V403.047L282.414 409.265L282.432 408.078L295.211 401.86Z" fill="white"/>
<path d="M282.432 408.078L282.414 409.265L267.041 401.83V400.657L282.432 408.078Z" fill="#886CC3"/>
<path d="M295.211 401.86L282.432 408.078L267.041 400.657L279.838 394.439L295.211 401.86Z" fill="#CDC4FD"/>
<path d="M253.772 403.209L253.754 404.397L230.054 415.923V414.735L253.772 403.209Z" fill="white"/>
<path d="M230.054 414.735V415.923L214.664 408.488L214.681 407.3L230.054 414.735Z" fill="#886CC3"/>
<path d="M253.772 403.209L230.054 414.735L214.681 407.3L238.381 395.774L253.772 403.209Z" fill="#CDC4FD"/>
<path d="M277.892 410.277V411.465L265.095 417.683L265.113 416.495L277.892 410.277Z" fill="white"/>
<path d="M265.113 416.495L265.095 417.683L249.722 410.248V409.075L265.113 416.495Z" fill="#886CC3"/>
<path d="M277.892 410.277L265.113 416.495L249.722 409.075L262.519 402.857L277.892 410.277Z" fill="#CDC4FD"/>
<path d="M262.238 417.888V419.076L249.459 425.294V424.106L262.238 417.888Z" fill="white"/>
<path d="M249.459 424.106V425.294L234.069 417.859L234.086 416.671L249.459 424.106Z" fill="#886CC3"/>
<path d="M262.238 417.888L249.459 424.106L234.086 416.671L246.865 410.468L262.238 417.888Z" fill="#CDC4FD"/>
<path d="M299.979 471.855C301.714 471.869 303.414 471.415 304.834 470.579L309.287 468.394L318.209 464.024L336.054 455.298L371.814 437.95L443.351 403.238L515.046 368.761L550.893 351.53L568.861 342.966L577.836 338.684L582.323 336.543C583.673 335.795 585.794 335.34 585.917 333.727C585.811 335.34 583.69 335.824 582.358 336.572L577.906 338.757L568.983 343.127L551.138 351.853L515.379 369.201L443.842 403.898L372.147 438.375L336.299 455.606L318.332 464.17L309.357 468.453L304.869 470.594C303.432 471.4 301.714 471.855 299.996 471.825L299.979 471.855Z" fill="white"/>
<path d="M356.23 249.375L146.072 350.885C143.425 352.161 139.13 352.161 136.483 350.885L356.23 244.756C358.877 246.031 358.877 248.114 356.23 249.39V249.375Z" fill="#886CC3"/>
<path d="M299.979 471.825V479.788C298.524 479.788 297.227 479.554 296.175 479.041L96.3936 381.93C95.3769 381.417 94.8159 380.757 94.8159 380.097V372.075C94.8159 372.779 95.3243 373.439 96.3936 373.952L296.122 471.063C297.192 471.576 298.594 471.811 299.996 471.811L299.979 471.825Z" fill="#886CC3"/>
<path d="M94.8159 369.92L86.5246 365.887C85.8585 365.564 85.4027 364.86 85.4027 363.775L84.7892 162.603C84.7892 161.753 85.0697 160.536 85.578 159.318L93.8168 163.117V163.351C93.3084 164.568 93.028 165.742 93.028 166.592L93.6941 367.808C93.6941 368.189 93.7467 368.512 93.8694 368.79C93.9219 369.069 94.0972 369.304 94.255 369.494C94.4303 369.685 94.5881 369.773 94.8159 369.92V369.92Z" fill="#886CC3"/>
<path d="M96.376 373.953C129.945 389.732 163.163 406.024 196.573 422.038C229.739 438.39 263.097 454.477 296.105 471.063C262.536 455.284 229.318 438.991 195.907 422.977C162.742 406.626 129.384 390.538 96.376 373.953V373.953Z" fill="#BDB3F5"/>
<path d="M93.6765 166.797C94.2375 200.336 94.0972 233.874 94.3251 267.398C94.0972 300.936 94.2375 334.475 93.6765 367.999C93.1156 334.46 93.2558 300.922 93.0279 267.398C93.2558 233.86 93.1156 200.321 93.6765 166.797V166.797Z" fill="#BDB3F5"/>
<path d="M138.902 227.656C138.902 231.22 137.167 235.282 134.362 238.963C131.557 242.644 127.701 245.929 123.424 247.996C119.164 250.05 115.308 250.46 112.521 249.463C109.733 248.466 108.015 246.075 108.015 242.512C108.015 238.948 109.751 234.901 112.556 231.22C115.36 227.539 119.217 224.254 123.476 222.201C127.753 220.148 131.61 219.737 134.397 220.72C137.184 221.717 138.902 224.108 138.902 227.656Z" fill="#FFE3D5"/>
<path d="M134.397 220.72L123.459 235.091L123.494 222.201C127.771 220.148 131.627 219.737 134.415 220.72H134.397Z" fill="#886CC3"/>
<path d="M468.277 261.547C468.277 265.096 466.56 269.158 463.772 272.824C460.985 276.49 457.146 279.79 452.887 281.858C448.645 283.911 444.788 284.321 442.019 283.339C439.231 282.356 437.514 279.951 437.514 276.402C437.514 272.853 439.231 268.806 442.019 265.125C444.806 261.459 448.645 258.159 452.887 256.106C457.146 254.053 460.985 253.628 463.772 254.61C466.56 255.593 468.277 257.983 468.277 261.532V261.547Z" fill="#FFE3D5"/>
<path d="M468.277 261.547L452.887 268.982V256.121C457.146 254.068 460.985 253.642 463.772 254.625C466.56 255.608 468.277 257.998 468.277 261.547V261.547Z" fill="#886CC3"/>
<path d="M323.486 215.206L158.395 294.939C155.73 296.214 153.592 295.466 153.592 293.237V97.8142C153.592 95.5852 155.748 92.7549 158.395 91.4644L323.486 11.7318C326.15 10.4413 328.289 11.2039 328.289 13.4329V208.856C328.289 211.085 326.132 213.915 323.486 215.206Z" fill="#CDC4FD"/>
<path d="M158.85 115.412C158.868 114.957 159.727 113.491 161.042 112.875L323.258 34.5209L323.047 208.856C323.03 209.296 322.136 210.777 320.874 211.393L158.605 289.762L158.85 115.397V115.412Z" fill="#FFF4F0"/>
<path d="M321.716 25.7034C323.485 23.7358 323.84 21.4618 322.509 20.6245C321.179 19.7871 318.666 20.7033 316.897 22.671C315.128 24.6386 314.772 26.9125 316.103 27.7499C317.434 28.5873 319.947 27.6711 321.716 25.7034Z" fill="#886CC3"/>
<path d="M313.108 27.2178C313.108 29.0656 311.32 31.4266 309.112 32.4972C306.903 33.5677 305.115 32.9371 305.115 31.0747C305.115 29.2122 306.903 26.8659 309.112 25.7953C311.32 24.7248 313.108 25.3554 313.108 27.2178Z" fill="#886CC3"/>
<path d="M302.924 32.2039C302.924 34.0517 301.136 36.4127 298.927 37.4832C296.718 38.5538 294.93 37.9232 294.93 36.0608C294.93 34.1983 296.718 31.852 298.927 30.7814C301.136 29.7109 302.924 30.3415 302.924 32.2039Z" fill="#886CC3"/>
<path d="M207.845 217.948C207.845 217.948 248.197 195.599 274.403 185.803C274.403 185.803 269.863 123.272 268.461 123.566C267.059 123.844 212.613 152.294 212.613 152.294L207.845 217.963V217.948Z" fill="#1D162E"/>
<path d="M213.542 167.604C213.542 167.604 208.914 164.128 207.985 168.455C207.056 172.781 210.965 190.672 215.733 185.07C220.501 179.468 213.542 167.604 213.542 167.604Z" fill="#FEC9C9"/>
<path d="M268.706 140.958C268.706 140.958 273.334 133.01 274.263 136.441C275.192 139.873 271.283 161.533 266.515 160.536C261.747 159.538 268.706 140.958 268.706 140.958Z" fill="#FEC9C9"/>
<path d="M258.522 188.325L223.358 205.307C223.358 205.307 214.821 213.285 204.058 222.832C183.444 241.104 170.367 264.934 170.367 284.087L240.94 250.006L311.513 215.925C311.513 196.772 298.454 185.583 277.822 187.211C267.059 188.061 258.522 188.325 258.522 188.325Z" fill="#C43B71"/>
<path d="M258.54 188.311C258.54 188.311 253.649 208.592 240.94 214.737C228.231 220.867 223.341 205.307 223.341 205.307L226.759 176.74L255.121 163.043L258.54 188.311Z" fill="#FCBEBE"/>
<path d="M270.109 141.574C270.109 155.051 255.121 184.131 240.94 190.98C226.759 197.828 211.771 183.222 211.771 169.745C211.771 147.836 224.831 134.77 240.94 126.983C257.05 119.196 270.109 119.65 270.109 141.559V141.574Z" fill="#FEC9C9"/>
<path d="M273.562 135.429C273.562 135.429 275.49 101.378 240.817 118.125C206.144 134.872 208.073 167.061 208.073 167.061C208.073 167.061 201.92 216.936 203.988 219.825C206.074 222.714 211.561 227.495 217.907 226.865C217.907 226.865 213.367 189.895 216.75 163.645C217.03 161.723 217.328 159.626 217.714 157.573C217.889 156.62 218.082 155.784 218.275 154.978C219.905 148.422 224.69 147.939 224.69 147.939C224.69 147.939 230.703 147.689 240.8 142.645C250.914 137.922 256.927 132.365 256.927 132.365C256.927 132.365 261.712 128.229 263.343 133.215C264.114 135.576 264.587 138.729 265.025 141.266C268.163 164.422 263.728 204.735 263.728 204.735C270.074 199.236 275.56 189.147 277.646 184.249C279.732 179.351 273.562 135.429 273.562 135.429V135.429Z" fill="#291E40"/>
<path d="M221.623 143.95C221.623 143.95 218.783 151.048 217.766 159.582C217.766 159.582 240.519 153.892 263.886 137.307C263.886 137.307 263.851 125.839 259.714 124.754C255.56 123.668 229.967 133.904 221.64 143.95H221.623Z" fill="#291E40"/>
<path d="M214.401 187.255C209.563 190.261 204.988 189.733 204.181 186.067L202.393 177.899C201.587 174.233 204.865 168.836 209.703 165.83C211.088 164.964 212.402 165.126 212.63 166.167L216.487 183.794C216.715 184.835 215.786 186.39 214.401 187.24V187.255Z" fill="#886CC3"/>
<path d="M267.497 161.196C272.335 159.524 276.91 154.582 277.717 150.153L279.505 140.269C280.311 135.84 277.033 133.596 272.195 135.254C270.81 135.723 269.495 137.145 269.267 138.406L265.411 159.758C265.183 161.02 266.112 161.665 267.497 161.196V161.196Z" fill="#886CC3"/>
<path d="M275.736 135.899L272.055 137.351C273.474 125.457 270.933 118.154 264.499 115.647C255.314 112.068 241.063 119.606 241.063 119.606C241.063 119.606 226.514 126.015 217.363 138.436C210.947 147.147 208.406 156.899 209.826 167.428L206.144 169.525C204.619 158.101 207.494 147.352 214.716 137.556C225.076 123.507 241.063 116.512 241.063 116.512C241.063 116.512 256.822 108.182 267.181 112.215C274.404 115.031 277.278 123.008 275.753 135.899H275.736Z" fill="#886CC3"/>
<path d="M229.09 200.571C216.382 203.562 211.894 186.932 211.719 186.228L213.542 185.055C213.577 185.216 217.994 201.582 229.616 198.84L229.09 200.571Z" fill="#886CC3"/>
<path d="M240.064 194.705C240.064 196.435 237.417 199.104 234.139 200.688C230.861 202.272 228.214 202.154 228.214 200.424C228.214 198.693 230.861 196.024 234.139 194.441C237.417 192.857 240.064 192.974 240.064 194.705Z" fill="#3B2B5A"/>
<path d="M517.868 410.659C517.99 409.265 519.06 406.875 519.06 406.875L526.527 406.244L533.153 405.687C533.153 405.687 540.463 412.932 542.269 414.281C544.074 415.601 552.839 422.126 551.962 423.886C551.489 424.795 547.545 424.927 543.548 424.751C539.85 424.59 536.098 424.165 534.994 423.886C533.521 423.505 527.246 418.915 522.723 415.41L520.62 415.586L517.78 413.445L517.885 410.659H517.868Z" fill="#291E40"/>
<path d="M575.592 408.195C573.856 408.224 569.386 405.966 567.896 405.496C565.022 404.543 557.116 400.32 554.136 397.343L552.365 397.431C552.365 397.431 549.052 395.935 548.649 395.158C548.246 394.381 549.946 388.148 549.946 388.148L550.858 388.221L553.961 386.828L556.502 386.33L563.234 385.039C563.497 392.415 569.211 394.395 573.646 397.02C574.084 397.299 574.54 397.548 574.943 397.827C575.522 398.223 576.012 398.633 576.416 399.044C577.835 400.466 578.361 402.373 578.028 404.191C577.713 405.966 577.029 408.151 575.609 408.18L575.592 408.195Z" fill="#291E40"/>
<path d="M566.967 385.098C566.967 387.737 566.95 389.351 566.95 389.351C566.95 390.524 566.021 391.682 564.18 392.577C561.516 393.867 557.642 394.234 554.311 393.662C552.997 393.442 551.805 393.09 550.753 392.577C548.895 391.682 547.983 390.524 547.983 389.351C547.983 389.351 547.685 354.243 545.932 351.897C544.162 349.565 521.619 342.907 521.619 342.907C522.285 343.64 532.435 355.094 533.714 358.716C535.047 362.441 535.713 407.33 535.713 407.33C535.713 408.517 534.784 409.676 532.925 410.571C530.857 411.568 528.087 412.008 525.388 411.905C523.249 411.817 521.163 411.377 519.516 410.571C517.605 409.647 516.711 408.444 516.763 407.242C516.869 405.159 515.554 369.128 514.362 368.38C513.117 367.603 484.247 349.932 479.268 343.45C474.308 336.953 484.071 325.383 484.071 325.383L491.977 327.304L492.503 327.201L519.13 321.643C519.13 321.643 561.007 338.537 564.198 344.608C566.704 349.433 566.967 374.906 566.967 385.112V385.098Z" fill="#3B2B5A"/>
<path d="M533.153 371.254V369.377L496.815 351.809V353.686L533.153 371.254Z" fill="#6E4CB5"/>
<path d="M582.674 345.459V347.336L533.153 371.254V369.377L582.674 345.459Z" fill="#DAD3FD"/>
<path d="M533.153 369.377L557.922 357.411L582.674 345.459L546.335 327.89L496.815 351.809L533.153 369.377Z" fill="#C8BEFD"/>
<path d="M547.966 325.779L540.2 332.671L536.204 336.029C536.204 336.029 519.147 313.724 517.657 312.463C516.15 311.216 516.623 304.148 517.657 286.448C518.218 276.461 519.235 272.179 519.989 270.346C520.532 268.996 520.971 268.967 521.023 268.967C525.248 269.172 528.666 272.912 530.664 278.749C532.645 284.585 530.804 304.764 530.804 304.764L547.966 325.779Z" fill="#F05491"/>
<path d="M535.467 333.859C535.467 336.235 537.308 337.378 539.832 336.851C540.463 336.763 541.147 336.543 541.883 336.191C544.986 334.739 547.51 331.791 548.193 329.108C548.299 328.668 548.404 328.316 548.404 327.964C548.456 327.832 548.456 327.7 548.456 327.568C548.456 324.62 545.617 323.52 542.093 325.236C541.304 325.588 540.673 326.028 540.042 326.468C538.938 327.304 537.939 328.272 537.203 329.371C536.414 330.427 535.888 331.615 535.625 332.715C535.52 333.111 535.467 333.463 535.467 333.859V333.859Z" fill="#C43B71"/>
<path d="M526.352 295.203C526.352 295.203 520.62 303.517 520.129 306.846C519.638 310.175 519.147 321.629 519.147 321.629C518.551 317.346 513.415 327.377 495.763 332.451C492.205 333.478 487.735 332.407 482.827 331.615C482.827 331.615 474.5 322.596 473.081 308.503C472.888 306.685 472.818 304.779 472.905 302.784C472.905 302.227 472.958 301.655 473.01 301.083C473.361 296.83 474.413 292.27 476.446 287.459C476.586 287.137 476.727 286.8 476.867 286.462C476.867 286.462 499.182 271.489 521.058 268.982C521.058 268.982 521.759 269.363 522.723 270.36C525.23 273 529.437 279.922 526.37 295.203H526.352Z" fill="#C43B71"/>
<path d="M521.602 334.519L514.853 343.112L512.188 346.529C512.188 346.529 472.625 336.807 471.117 335.545C469.627 334.299 467.138 324.312 468.172 306.626C469.189 288.941 476.849 286.448 476.849 286.448C477.726 286.492 478.55 286.682 479.321 287.034C482.283 288.31 484.475 291.61 486.035 296.229C488.033 302.051 484.054 325.368 484.054 325.368L521.602 334.519V334.519Z" fill="#F05491"/>
<path d="M537.203 329.371C538.097 330.251 538.57 331.395 538.623 332.583C538.675 334.343 539.148 335.751 539.779 336.763C540.568 338.082 541.41 338.83 541.936 339.358C542.987 340.414 546.458 340.766 546.458 340.766C546.458 340.766 545.617 339.358 545.091 337.818C544.512 336.191 544.249 334.475 545.669 334.343C548.404 334.167 554.451 343.054 554.451 343.054L556.187 342.042L558.185 340.854L556.187 333.199C555.924 332.231 555.135 331.439 554.083 330.999C552.453 330.427 550.034 329.547 548.299 329.108C548.036 329.02 547.825 328.976 547.668 328.932C545.985 328.58 543.671 326.688 542.093 325.236C541.305 325.588 540.673 326.028 540.042 326.468C538.938 327.304 537.939 328.272 537.203 329.371Z" fill="#FEC9C9"/>
<path d="M541.48 341.03L533.153 369.377L582.674 345.459L591 317.112L541.48 341.03Z" fill="#DAD3FD"/>
<path d="M540.13 340.385L541.48 341.03L591 317.112L589.65 316.466L540.13 340.385Z" fill="#BDB3F5"/>
<path d="M533.153 369.377L531.821 368.717L540.13 340.385L541.48 341.03L533.153 369.377Z" fill="#6E4CB5"/>
<path d="M508.56 288.897C503.441 287.474 498.691 282.034 496.324 278.954C495.325 277.649 494.764 276.769 494.764 276.769L495.746 272.941L498.463 270.991C498.463 270.991 499.778 271.167 501.583 271.592C505.387 272.487 511.382 274.481 512.206 278.221C513.415 283.749 508.56 288.897 508.56 288.897V288.897Z" fill="#FEC9C9"/>
<path d="M512.311 282.488C506.561 283.177 497.253 276.989 497.253 276.989L496.657 273.22C496.657 273.22 496.061 273.601 493.572 271.167C492.818 267.765 491.574 261.547 489.646 255.857C493.046 248.51 503.546 248.26 509.804 249.756C517.64 251.633 518.727 258.115 519.253 261.547C519.779 264.964 516.728 281.946 512.311 282.503V282.488Z" fill="#FEC9C9"/>
<path d="M520.41 260.051C520.217 261.048 520.094 262.06 520.006 263.072C519.901 264.377 520.252 266.152 519.13 266.415C519.165 266.122 519.165 265.8 519.2 265.492C519.288 264.67 519.691 259.259 517.395 260.036C516.763 260.374 516.22 260.55 515.607 260.652C515.361 260.696 515.116 260.726 514.818 260.726C507 261.048 506.456 259.802 504.125 259.831C503.564 259.831 503.038 260.139 502.635 260.638C501.443 261.957 500.847 264.538 500.97 265.668C501.145 267.222 501.11 269.246 500.917 269.407C500.566 269.612 500.076 269.803 499.567 269.466C499.445 269.378 499.304 269.246 499.182 269.084C498.463 268.146 499.252 263.615 496.5 264.245C494.554 264.846 493.414 266.547 495.273 271.079C495.921 272.355 496.114 274.481 496.114 274.481L494.782 274.452C494.782 274.452 494.256 271.226 491.276 268.278C489.137 266.166 487.753 263.556 487.227 260.814C486.841 258.716 486.806 256.634 487.454 255.549C488.033 254.537 489.435 252.704 491.101 251.487C493.432 249.742 497.867 247.498 503.862 247.879C503.862 247.879 513.731 247.557 518.043 251.193C519.2 252.161 519.954 253.041 520.427 253.862C520.848 254.552 521.058 255.212 521.146 255.798C521.426 257.514 520.655 258.878 520.392 260.066L520.41 260.051Z" fill="#291E40"/>
<path d="M510.698 343.802C510.698 346.749 513.591 347.805 517.114 346.133C520.637 344.462 523.425 340.854 523.635 337.906C523.688 337.774 523.688 337.642 523.688 337.51C523.688 334.519 520.795 333.463 517.219 335.223C516.536 335.531 515.905 335.971 515.274 336.411C513.012 338.082 511.329 340.458 510.856 342.658C510.751 343.054 510.698 343.406 510.698 343.802V343.802Z" fill="#C43B71"/>
<path d="M510.856 342.658C512.697 343.714 515.221 345.121 517.009 346.089C518.324 346.793 519.218 347.233 519.375 347.233C520.217 347.233 523.267 347.453 525.581 347.585C527.369 347.717 529.052 348.377 530.261 349.477C530.629 349.785 531.155 350.049 531.681 350.137C532.575 350.269 533.522 350.093 534.205 349.653C534.678 349.345 535.099 348.949 535.362 348.465L535.993 347.145C536.624 345.825 536.256 344.286 535.099 343.23L528.789 337.818C528.263 337.378 527.474 337.202 526.738 337.334C526.738 337.334 524.003 337.862 523.635 337.906C520.585 338.434 518.113 337.378 515.274 336.411C513.012 338.082 511.329 340.458 510.856 342.658V342.658Z" fill="#FEC9C9"/>
<path d="M162.97 290.788C162.935 289.909 162.286 289.073 160.971 288.442C158.307 287.152 153.977 287.152 151.313 288.442C148.648 289.733 148.648 291.815 151.313 293.105C152.119 293.501 153.101 293.721 154.135 293.883L154.626 314.824C141.514 295.906 146.983 319.81 146.983 319.81L158.798 328.653C158.798 328.653 164.81 330.75 166.949 329.342C169.088 327.934 162.987 290.774 162.987 290.774L162.97 290.788Z" fill="#4E7D9B"/>
<path d="M150.279 290.818C150.506 291.404 151.067 291.947 151.996 292.372C152.224 292.49 152.47 292.563 152.733 292.651C155.204 293.589 158.64 293.472 160.866 292.372C161.462 292.094 161.936 291.756 162.269 291.36C163.005 290.51 162.83 289.454 161.813 288.633C161.532 288.442 161.252 288.237 160.884 288.046C158.43 286.873 154.468 286.873 152.014 288.046C150.489 288.779 149.875 289.835 150.296 290.803L150.279 290.818Z" fill="#35586B"/>
<g style="mix-blend-mode:color-burn" opacity="0.1">
<path d="M169.473 425.03C184.268 432.172 184.268 443.772 169.473 450.913C154.678 458.055 130.681 458.055 115.886 450.913C101.091 443.772 101.091 432.172 115.886 425.03C130.681 417.888 154.678 417.888 169.473 425.03Z" fill="#3F72DF"/>
</g>
<path d="M115.851 437.759C115.851 437.759 114.975 440.736 115.097 442.936L119.182 444.871L121.022 444.006C121.022 444.006 128.84 449.77 135.046 451.221C139.13 452.175 144.056 451.456 146.948 450.855C148.333 450.561 148.876 449.154 147.93 448.244C144.704 445.194 136.378 440.56 134.187 439.24C131.312 437.51 130.716 435.706 130.716 435.706L115.851 437.759V437.759Z" fill="#291E40"/>
<path d="M141.374 425.441C141.374 425.441 140.147 428.359 140.147 430.676L144.459 432.216L146.299 431.527C146.299 431.527 149.753 433.726 151.611 435.193C153.451 436.645 164.267 440.956 166.616 440.193C167.948 439.768 168.158 435.383 167.247 433.932C166.318 432.48 157.203 428.344 155.239 425.015L141.391 425.441H141.374Z" fill="#291E40"/>
<path d="M114.011 358.569C113.52 351.354 116.289 343.523 116.289 343.523L132.469 344.74C132.469 344.506 132.469 344.359 132.469 344.359L148.964 344.227L154.731 344.183C154.731 344.183 158.991 370.448 158.377 379.54C157.746 388.632 155.87 424.297 155.87 424.297C155.87 425.279 155.099 426.262 153.539 427.01C152.54 427.494 151.365 427.816 150.086 427.992C147.404 428.359 144.389 428.036 142.268 427.01C140.708 426.262 139.936 425.279 139.936 424.297L140.199 389.923C140.199 389.923 139.621 387.855 138.797 384.819C138.341 387.899 137.868 390.494 137.447 391.961C135.677 398.003 131.347 436.469 131.347 436.469C131.347 437.451 130.576 438.434 129.016 439.182C128.718 439.343 128.367 439.475 128.016 439.592C124.896 440.663 120.549 440.531 117.744 439.182C116.184 438.419 115.413 437.436 115.413 436.425C115.097 426.438 116.482 412.286 117.604 402.696C118.428 395.759 118.27 388.793 117.166 381.886C115.851 373.645 114.326 363.174 114.011 358.569V358.569Z" fill="#3B2B5A"/>
<path d="M110.224 296.332L110.995 358.144C110.995 358.144 119.918 362.602 140.9 361.531C157.378 360.681 157.992 353.495 157.501 350.46C157.273 349.037 157.062 347.615 156.975 346.163C156.519 338.141 155.327 316.291 155.993 313.959C156.747 311.334 159.148 304.984 153.399 291.595C152.82 290.246 152.154 288.838 151.418 287.357C151.418 287.357 150.226 287.108 148.228 286.858C143.828 286.301 135.624 285.656 127.964 287.357C126.509 287.679 125.124 288.061 123.844 288.501C115.203 291.404 110.224 296.332 110.224 296.332V296.332Z" fill="#35586B"/>
<path d="M125.212 288.061C125.212 288.061 128.525 290.891 133.959 295.159C135.764 296.596 137.658 297.813 139.446 298.502L140.813 290.906L142.338 283.661L141.058 283.324L127.105 283.999L125.212 288.061V288.061Z" fill="#FEC9C9"/>
<path d="M99.9345 326.189C99.9695 333.683 111.872 360.49 111.872 360.49L120.514 356.707L124.879 354.8C124.879 354.8 108.226 328.932 115.921 313.211C123.634 297.505 114.186 294.103 114.186 294.103C100.022 296.522 99.8644 318.725 99.917 326.219L99.9345 326.189Z" fill="#4E7D9B"/>
<path d="M124.756 357C124.598 357.308 124.44 357.543 124.265 357.748C124.16 357.895 124.055 358.027 123.915 358.159C121.986 360.138 118.901 361.575 116.061 361.81C115.711 361.839 115.395 361.854 115.08 361.839C114.747 361.839 114.449 361.81 114.151 361.751C113.765 361.707 113.45 361.605 113.152 361.487C111.591 360.725 111.188 359.537 111.977 358.1C112.135 357.792 112.345 357.499 112.608 357.205C112.836 356.941 113.081 356.677 113.362 356.443C113.695 356.135 114.098 355.841 114.501 355.578C114.869 355.328 115.273 355.079 115.693 354.859C116.728 354.302 117.902 353.876 119.094 353.612C119.339 353.554 119.602 353.51 119.848 353.466C120.111 353.422 120.374 353.392 120.637 353.363C120.847 353.363 121.057 353.334 121.25 353.363C124.318 353.304 125.878 354.859 124.756 357.015V357Z" fill="#35586B"/>
<path d="M127.21 364.67C126.649 364.435 125.475 363.379 124.563 362.397C124.423 362.25 124.142 362.367 124.213 362.543L126.842 369.084C127.035 369.67 126.877 370.286 126.404 370.741C125.475 371.635 123.757 373.029 121.583 373.425C120.794 373.571 119.988 373.337 119.427 372.853C118.445 371.987 116.833 370.521 116.342 369.7C115.606 368.497 113.134 363.189 112.924 361.81C112.906 361.678 112.889 361.517 112.871 361.326C112.783 360.358 112.696 358.657 112.626 357.176C112.854 356.912 113.099 356.648 113.379 356.413C113.713 356.105 114.116 355.812 114.519 355.548C114.887 355.299 115.29 355.05 115.711 354.83C116.745 354.272 117.92 353.847 119.112 353.583L124.055 356.472C124.318 356.619 124.546 356.795 124.756 356.985C125.264 357.425 125.65 357.968 125.86 358.554L127.946 364.142C128.087 364.508 127.631 364.831 127.21 364.67V364.67Z" fill="#FEC9C9"/>
<path d="M145.861 283.5L148.421 288.941C148.789 289.718 149.402 290.378 150.279 290.803C150.699 291.038 152.733 292.636 152.733 292.636C155.204 293.575 158.64 293.457 160.866 292.358C161.462 292.079 161.936 291.742 162.269 291.346C162.128 290.568 161.988 289.601 161.813 288.618C161.48 286.99 161.164 285.392 161.077 284.893C161.024 284.776 161.024 284.659 160.989 284.541C160.34 282.796 157.781 278.279 156.992 277.238C156.431 276.461 154.661 275.097 153.644 274.291C153.048 273.821 152.207 273.675 151.418 273.865C149.332 274.364 147.702 275.889 146.86 276.813C146.44 277.282 146.299 277.942 146.58 278.485L149.735 284.864C149.823 285.025 149.542 285.172 149.402 285.025C148.421 284.131 147.123 283.119 146.562 282.928C146.142 282.767 145.686 283.119 145.861 283.515V283.5Z" fill="#FEC9C9"/>
<path d="M154.082 278.411C153.942 278.235 153.767 278.074 153.557 277.971L147.509 275.053L141.461 272.135C141.251 272.032 141.076 272.017 140.936 272.061L140.006 272.457L140.708 273.235V279.555C140.708 279.731 140.795 279.922 140.936 280.098C141.076 280.274 141.251 280.435 141.461 280.538L147.509 283.456L152.084 285.656L153.136 286.844L154.082 286.448C154.223 286.404 154.31 286.286 154.31 286.11V278.954C154.31 278.778 154.223 278.587 154.082 278.411Z" fill="#3B2B5A"/>
<path d="M152.628 286.785L149.595 285.333L146.562 283.881L143.53 282.429L140.497 280.978C140.392 280.934 140.304 280.86 140.199 280.787C140.112 280.714 140.024 280.626 139.954 280.538C139.884 280.45 139.831 280.362 139.796 280.259C139.744 279.98 139.744 278.191 139.744 278.191V272.824C140.497 272.56 143.512 274.012 143.512 274.012L146.545 275.464L149.577 276.916L152.61 278.367C152.715 278.411 152.82 278.485 152.908 278.558C152.996 278.631 153.083 278.719 153.153 278.807C153.224 278.895 153.276 278.998 153.311 279.086C153.364 279.365 153.364 281.154 153.364 281.154V286.521C153.329 287.064 152.715 286.829 152.61 286.785H152.628Z" fill="#886CC3"/>
<path d="M140.9 273.367V280.494C140.9 280.684 141.076 280.919 141.304 281.036L151.734 286.066C151.961 286.169 152.137 286.11 152.137 285.92V278.793C152.137 278.602 151.961 278.367 151.734 278.25L141.304 273.22C141.076 273.117 140.9 273.176 140.9 273.367Z" fill="#291E40"/>
<path d="M140.55 277.047V276.461C140.129 276.256 140.129 276.842 140.129 276.842C140.48 277.15 140.55 277.121 140.55 277.047V277.047Z" fill="url(#paint0_linear_2002_662)"/>
<path d="M152.592 283.617C152.4 283.529 152.242 283.324 152.242 283.163V282.107C152.435 281.887 152.575 281.931 152.768 282.019C152.961 282.107 153.118 282.312 153.118 282.473V283.529C152.838 283.705 152.715 283.676 152.592 283.617ZM152.4 282.019C152.365 282.107 152.365 283.163 152.365 283.163C152.365 283.295 152.505 283.471 152.663 283.544C152.89 283.647 152.978 283.632 152.996 283.617C153.031 283.529 153.031 282.473 153.031 282.473C153.031 282.341 152.89 282.166 152.733 282.092C152.592 282.019 152.505 282.004 152.452 282.004C152.435 282.004 152.4 282.004 152.4 282.004V282.019Z" fill="#3B2B5A"/>
<path d="M140.304 280.01C140.462 280.083 140.585 280.039 140.585 279.907C140.585 279.775 140.462 279.614 140.304 279.541C140.147 279.467 140.024 279.511 140.024 279.643C140.024 279.775 140.147 279.936 140.304 280.01Z" fill="url(#paint1_linear_2002_662)"/>
<path d="M126.772 281.403C126.965 281.711 127.087 283.867 127.122 283.984C127.438 284.497 129.541 284.38 129.541 284.38C130.576 287.049 131.68 287.533 131.68 287.533C134.257 289.014 137.973 289.337 140.865 289.351C141.865 289.351 142.759 289.322 143.46 289.278C144.511 289.219 145.16 289.131 145.16 289.131C147.737 287.21 148.859 281.902 149.367 277.311C149.595 275.185 150.945 273.293 151.067 271.123C151.173 269.407 150.559 267.574 148.999 266.46C147.509 265.404 145.423 265.169 143.46 265.081C138.814 264.89 134.117 265.33 129.647 266.401C127.789 266.841 125.843 267.442 124.668 268.733C123.739 269.744 123.424 271.079 123.494 272.355C123.669 275.537 125.755 278.382 126.789 281.388L126.772 281.403Z" fill="#FEC9C9"/>
<path d="M149.209 266.899C149.209 266.899 150.261 273.073 149.472 276.637C149.472 276.637 153.574 272.839 151.295 264.377C149.034 255.93 130.102 256.341 125.212 259.362C120.321 262.383 117.867 266.489 119.252 271.812C120.637 277.135 127.28 281.931 126.807 284.688C126.807 284.688 128.77 283.104 126.824 278.118C124.879 273.132 130.225 273.909 130.33 275.757C130.418 277.605 130.225 279.672 130.225 279.672L132.136 280.508C132.136 280.508 133.486 276.388 132.048 273.015C130.611 269.642 131.189 268.733 132.837 269.114C134.485 269.495 146.282 272.824 149.192 266.885L149.209 266.899Z" fill="#3B2B5A"/>
<path d="M61.8784 312.008C61.7031 312.199 61.5979 312.419 61.5979 312.61V319.927C61.1948 319.957 60.7565 320.059 60.2832 320.294C58.6355 321.086 57.3033 322.846 57.3033 324.224C57.3033 325.603 58.6355 326.072 60.2832 325.28C61.931 324.488 63.2632 322.728 63.2632 321.35V312.698C63.2632 312.522 63.3684 312.287 63.5437 312.096L71.4669 303.605V310.806C71.0462 310.821 70.5905 310.938 70.0821 311.173C68.4344 311.964 67.1021 313.724 67.1021 315.103C67.1021 316.481 68.4344 316.95 70.0821 316.159C71.7299 315.367 73.0621 313.607 73.0621 312.228V301.054C73.0621 300.599 72.4486 300.629 72.0103 301.112L61.8784 312.023V312.008Z" fill="#FFF4F0"/>
<path d="M66.0328 326.702C57.4785 330.838 50.5019 328.374 50.5019 321.218C50.5019 314.061 57.4785 304.867 66.0328 300.731C74.5871 296.596 81.5638 299.059 81.5638 306.216C81.5638 313.372 74.6047 322.567 66.0328 326.702ZM66.0328 301.831C58.1972 305.615 51.8166 314.032 51.8166 320.587C51.8166 327.142 58.1972 329.401 66.0328 325.603C73.8684 321.819 80.2491 313.402 80.2491 306.846C80.2491 300.291 73.8684 298.033 66.0328 301.816V301.831Z" fill="#FFF4F0"/>
<g style="mix-blend-mode:color-burn" opacity="0.1">
<path d="M341.067 347.659C328.166 353.891 328.166 363.98 341.067 370.213C353.969 376.446 374.864 376.446 387.765 370.213C400.667 363.98 400.667 353.891 387.765 347.659C374.864 341.426 353.969 341.426 341.067 347.659Z" fill="#3F72DF"/>
</g>
<path d="M327.903 361.414C327.815 361.209 327.78 361.062 327.798 360.96C327.798 359.596 329.796 358.525 333.933 358.804C335.774 358.936 337.404 358.994 338.631 359.024C341.26 358.672 343.82 358.203 345.257 357.572C345.923 357.279 347.29 355.959 348.254 355.944C352.479 355.842 359.859 358.247 359.859 358.247C359.859 358.247 361.805 364.802 361.296 365.902C360.858 366.855 360.858 367.559 358.299 368.453C357.931 368.6 357.527 368.703 357.142 368.747C356.143 368.879 353.951 368.967 351.269 368.981L350.253 367.617C350.253 367.617 348.605 368.541 346.414 368.952C340.945 368.835 334.056 366.957 332.916 366.151C331.041 364.846 328.604 362.837 327.903 361.399V361.414Z" fill="#291E40"/>
<path d="M392.674 349.066L384.821 345.136C384.821 345.136 384.663 345.019 384.4 344.843C382.962 343.831 378.247 340.575 377.108 340.077C373.97 337.965 370.131 338.082 369.027 338.273C368.203 338.552 367.835 339.534 367.835 340.839C367.835 342.115 372.848 347.233 374.811 348.377C375.548 348.788 376.126 349.052 376.617 349.242C377.616 349.653 378.159 350.591 377.932 351.501C378.405 352.337 378.685 352.689 378.948 352.938C380.386 354.243 381.613 355.02 382.875 355.519C384.189 356.047 385.574 356.281 387.222 356.516C389.799 356.897 391.447 355.358 392.025 354.727C392.165 354.566 392.253 354.375 392.27 354.17L392.674 349.052V349.066Z" fill="#291E40"/>
<path d="M338.561 239.036L338.298 239.946L319.261 230.765L317.192 229.768L315.299 228.83V227.935L317.455 228.962L318.455 229.446L338.561 239.036Z" fill="#886CC3"/>
<path d="M349.832 233.464L338.298 239.051L315.282 227.95L326.939 222.362L349.832 233.464Z" fill="#291E40"/>
<path d="M341.751 226.659C341.751 226.659 335.195 223.917 333.723 225.662C332.233 227.422 333.723 229.856 333.723 229.856C333.723 229.856 335.633 230.487 335.984 229.46L336.334 228.434L341.663 232.818L349.709 224.958L341.751 226.659V226.659Z" fill="#FEC9C9"/>
<path d="M341.751 226.659C341.751 226.659 335.195 223.917 333.723 225.662C332.233 227.422 333.723 229.856 333.723 229.856C333.723 229.856 335.633 230.487 335.984 229.46L336.334 228.434L341.663 232.818L349.709 224.958L341.751 226.659V226.659Z" fill="#FEC9C9"/>
<path d="M328.937 234.608C328.849 236.499 327.43 238.684 327.324 239.858C327.184 241.031 326.308 243.436 326.308 243.436L325.659 243.553L322.504 244.14L321.855 243.714C321.855 243.714 319.787 242.483 318.893 240.884C317.999 239.256 315.93 235.282 316.018 234.27C316.053 233.596 316.649 231.411 317.192 229.768L323.24 232.686C323.38 232.848 324.678 231.924 324.432 230.868C324.169 229.783 323.065 227.7 323.275 227.158C323.293 227.07 323.363 226.982 323.468 226.909C323.836 226.527 324.835 226.454 325.887 228.082C327.184 230.017 328.99 232.76 328.92 234.637L328.937 234.608Z" fill="#FEC9C9"/>
<path d="M401.841 243.7C401.053 244.404 398.721 244.917 396.407 245.181C394.058 245.43 391.727 245.401 391.026 244.976C390.167 244.433 390.36 229.079 390.64 217.464C390.798 210.308 391.026 204.574 391.026 204.574C391.026 204.574 399.282 207.903 400.72 219.459C402.139 231 403.437 242.307 401.841 243.7V243.7Z" fill="#4E7D9B"/>
<path d="M395.145 273.029C395.145 273.029 393.357 293.868 393.498 301.435C393.62 309.017 394.164 313.592 394.427 315.249C394.69 316.921 393.568 347.571 393.568 347.571C393.568 348.568 392.779 349.58 391.184 350.357C388.765 351.515 385.206 351.794 382.244 351.193C381.315 351.002 380.438 350.738 379.667 350.357C378.072 349.58 377.283 348.582 377.283 347.571C377.23 347.571 377.634 317.698 377.23 312.903C376.95 309.53 374.496 297.74 373.093 291.126L361.296 316.921V361.091C361.296 362.103 360.507 363.101 358.912 363.878C356.633 364.992 353.303 365.3 350.446 364.816C349.324 364.626 348.29 364.318 347.413 363.878C345.818 363.115 345.029 362.118 345.029 361.091L343.294 316.422C343.294 316.422 343.662 283.984 350.428 265.037L358.895 263.996L392.218 259.904C392.218 259.904 396.039 268.425 395.163 273.029H395.145Z" fill="#3B2B5A"/>
<path d="M395.461 266.767C395.461 266.767 395.198 266.943 394.672 267.266C394.181 267.559 393.427 267.97 392.411 268.439C388.677 270.199 381.35 272.721 370.184 272.809C366.66 272.839 363.61 272.721 361.068 272.501C359.613 272.369 358.316 272.208 357.142 272.003C352.83 271.299 350.358 270.228 349.096 269.099C348.377 268.469 348.044 267.809 347.991 267.207C347.834 264.846 352.409 251.179 351.164 245.152C350.673 242.805 348.85 239.315 347.325 235.399C346.887 234.256 346.466 233.082 346.116 231.895C344.994 228.096 344.468 224.078 345.87 220.368C346.414 218.931 347.308 217.435 348.57 216.13C348.728 216.013 349.096 215.749 349.394 215.529C349.99 215.118 350.866 214.561 352.093 213.886C352.689 213.549 353.355 213.182 354.109 212.801C355.249 212.214 356.528 211.628 358.018 210.997C358.509 210.792 359.017 210.587 359.543 210.396C359.859 210.264 360.157 210.147 360.507 210.015C361.068 209.809 361.629 209.604 362.26 209.413C362.471 209.325 362.716 209.252 362.961 209.164C363.224 209.076 363.47 209.003 363.75 208.915C364.644 208.622 365.556 208.358 366.52 208.079C366.66 208.035 366.783 207.991 366.923 207.962C369.886 207.126 373.164 206.392 376.827 205.821C378.072 205.615 379.386 205.439 380.701 205.278C383.909 204.911 387.345 204.647 391.008 204.574C391.061 204.647 391.324 204.955 391.674 205.454C392.989 207.434 395.952 212.61 395.286 219.415C394.935 222.729 394.427 225.838 393.988 228.932C393.235 234.065 392.586 239.168 392.919 245.137C393.235 250.915 394.111 257.602 394.725 261.972C395.163 264.846 395.478 266.767 395.478 266.767H395.461Z" fill="#35586B"/>
<path d="M380.754 203.313C380.719 204.207 380.701 205.278 380.684 206.246C380.684 207.478 380.649 207.199 380.649 206.935C380.613 207.375 380.403 208.358 378.896 209.061C375.881 210.455 372.007 210.763 368.816 210.704C368.15 210.704 367.519 210.631 366.923 210.513C364.662 210.103 363.119 209.179 362.961 209.149C363.014 208.885 363.154 207.287 363.33 204.105C363.365 203.709 363.067 203.342 362.611 203.225C361.226 202.858 358.544 202.008 356.914 199.192C355.757 197.183 355.091 186.991 355.073 186.874C355.073 186.712 355.284 186.756 355.739 186.932C356.318 187.167 357.229 187.665 358.386 188.34C358.579 188.457 358.772 188.575 359 188.707C366.187 192.989 380.754 202.99 380.754 203.328V203.313Z" fill="#FEC9C9"/>
<path d="M386.696 190.496C386.24 192.065 384.382 195.57 384.032 197.154C383.734 198.532 380.754 203.313 380.754 203.313C378.002 204.721 373.409 205.205 371.078 205.087C370.534 205.058 370.131 204.999 369.886 204.911C369.745 204.867 369.5 204.779 369.184 204.647C366.695 203.694 364.872 201.832 364.224 199.603L364.083 199.089C363.855 198.312 363.82 197.52 363.873 196.728C363.908 196.318 363.926 195.848 363.908 195.335C363.75 192.608 362.26 192.212 361.121 192.036C359.964 191.816 359.771 194.793 359.771 194.793L358.211 194.382L357.983 190.144C357.983 189.704 357.79 189.293 357.457 188.956C356.23 187.783 351.936 187.035 351.936 182.503C351.936 180.45 354.565 173.25 367.624 173.147C369.36 173.147 371.288 173.235 373.409 173.514C387.573 175.274 387.818 186.551 386.679 190.496H386.696Z" fill="#3B2B5A"/>
<path d="M355.81 228.8C355.81 237.936 350.463 242.717 350.463 242.717C350.463 242.717 342.82 269.568 335.984 269.275C335.335 269.202 334.915 269.07 334.459 268.85C328.026 265.653 321.82 245.958 321.943 244.741C321.943 244.492 321.855 244.374 321.855 244.228C321.855 243.01 322.802 241.544 324.117 240.62C324.38 240.4 324.678 240.239 324.976 240.078C325.536 239.814 326.045 239.696 326.518 239.696C327.132 239.696 327.622 239.916 327.885 240.356C327.885 240.356 333.915 250.929 334.809 252.513C334.827 249.859 339.542 221.321 348.605 216.145C348.605 216.145 349.92 216.863 351.515 218.374C353.583 220.427 355.827 223.756 355.827 228.815L355.81 228.8Z" fill="#4E7D9B"/>
<path d="M194.891 124.607C196.065 123.404 195.522 122.129 194.119 122.803L177.484 130.839L88.891 173.631C87.4361 174.335 86.2616 175.89 86.2616 177.107V208.695C86.2616 209.912 87.4361 210.323 88.891 209.633L174.855 168.117C176.31 167.413 177.484 165.859 177.484 164.642V143.671C177.484 142.923 177.94 142.014 178.676 141.237L194.891 124.607V124.607Z" fill="#FFE3D5"/>
<path d="M105.859 174.438C105.579 174.438 105.369 174.629 105.369 174.848V190.892C105.369 191.126 105.596 191.302 105.859 191.302C106.122 191.302 106.35 191.112 106.35 190.892V174.848C106.35 174.614 106.122 174.438 105.859 174.438V174.438Z" fill="#886CC3"/>
<path d="M109.646 174.775C109.365 174.775 109.155 174.966 109.155 175.186V186.874C109.155 187.108 109.383 187.284 109.646 187.284C109.909 187.284 110.137 187.094 110.137 186.874V175.186C110.137 174.951 109.909 174.775 109.646 174.775Z" fill="#886CC3"/>
<path d="M102.073 178.441C101.793 178.441 101.582 178.632 101.582 178.852V190.54C101.582 190.774 101.81 190.95 102.073 190.95C102.336 190.95 102.564 190.76 102.564 190.54V178.852C102.564 178.617 102.336 178.441 102.073 178.441Z" fill="#886CC3"/>
<path d="M113.432 168.763C113.152 168.763 112.941 168.953 112.941 169.173V189.249C112.941 189.484 113.169 189.66 113.432 189.66C113.695 189.66 113.923 189.469 113.923 189.249V169.173C113.923 168.939 113.695 168.763 113.432 168.763V168.763Z" fill="#886CC3"/>
<path d="M117.236 173.382C116.955 173.382 116.745 173.573 116.745 173.793V180.978C116.745 181.213 116.973 181.389 117.236 181.389C117.499 181.389 117.727 181.198 117.727 180.978V173.793C117.727 173.558 117.499 173.382 117.236 173.382Z" fill="#886CC3"/>
<path d="M98.2867 182.533C98.0062 182.533 97.7959 182.723 97.7959 182.943V190.129C97.7959 190.364 98.0238 190.54 98.2867 190.54C98.5497 190.54 98.7775 190.349 98.7775 190.129V182.943C98.7775 182.709 98.5497 182.533 98.2867 182.533Z" fill="#886CC3"/>
<path d="M121.022 173.206C120.742 173.206 120.531 173.397 120.531 173.617V177.459C120.531 177.693 120.759 177.869 121.022 177.869C121.285 177.869 121.513 177.679 121.513 177.459V173.617C121.513 173.382 121.285 173.206 121.022 173.206Z" fill="#886CC3"/>
<path d="M161.41 153.702C161.129 153.702 160.919 153.892 160.919 154.112V157.955C160.919 158.189 161.147 158.365 161.41 158.365C161.673 158.365 161.901 158.175 161.901 157.955V154.112C161.901 153.878 161.673 153.702 161.41 153.702Z" fill="#886CC3"/>
<path d="M163.899 153.467C163.618 153.467 163.408 153.658 163.408 153.878V155.799C163.408 156.034 163.636 156.21 163.899 156.21C164.162 156.21 164.39 156.019 164.39 155.799V153.878C164.39 153.643 164.162 153.467 163.899 153.467Z" fill="#886CC3"/>
<path d="M94.4829 186.023C94.2024 186.023 93.992 186.214 93.992 186.434V190.276C93.992 190.511 94.2199 190.686 94.4829 190.686C94.7458 190.686 94.9737 190.496 94.9737 190.276V186.434C94.9737 186.199 94.7458 186.023 94.4829 186.023Z" fill="#886CC3"/>
<path d="M124.809 167.237C124.528 167.237 124.318 167.428 124.318 167.648V179.791C124.318 180.025 124.546 180.201 124.809 180.201C125.071 180.201 125.299 180.011 125.299 179.791V167.648C125.299 167.413 125.071 167.237 124.809 167.237Z" fill="#886CC3"/>
<path d="M128.595 162.647C128.314 162.647 128.104 162.838 128.104 163.058V180.7C128.104 180.934 128.332 181.11 128.595 181.11C128.858 181.11 129.086 180.92 129.086 180.7V163.058C129.086 162.823 128.858 162.647 128.595 162.647Z" fill="#886CC3"/>
<path d="M132.381 162.809C132.101 162.809 131.89 162.999 131.89 163.219V176.887C131.89 177.122 132.118 177.298 132.381 177.298C132.644 177.298 132.872 177.107 132.872 176.887V163.219C132.872 162.985 132.644 162.809 132.381 162.809V162.809Z" fill="#886CC3"/>
<path d="M136.185 162.222C135.905 162.222 135.694 162.413 135.694 162.633V173.822C135.694 174.057 135.922 174.233 136.185 174.233C136.448 174.233 136.676 174.042 136.676 173.822V162.633C136.676 162.398 136.448 162.222 136.185 162.222Z" fill="#886CC3"/>
<path d="M139.971 161.65C139.691 161.65 139.481 161.841 139.481 162.061V170.728C139.481 170.962 139.708 171.138 139.971 171.138C140.234 171.138 140.462 170.948 140.462 170.728V162.061C140.462 161.826 140.234 161.65 139.971 161.65Z" fill="#886CC3"/>
<path d="M143.758 159.744C143.477 159.744 143.267 159.934 143.267 160.154V168.983C143.267 169.217 143.495 169.393 143.758 169.393C144.021 169.393 144.249 169.203 144.249 168.983V160.154C144.249 159.92 144.021 159.744 143.758 159.744Z" fill="#886CC3"/>
<path d="M147.544 156.649C147.264 156.649 147.053 156.84 147.053 157.06V168.396C147.053 168.631 147.281 168.807 147.544 168.807C147.807 168.807 148.035 168.616 148.035 168.396V157.06C148.035 156.825 147.807 156.649 147.544 156.649Z" fill="#886CC3"/>
<path d="M151.33 153.658C151.05 153.658 150.84 153.849 150.84 154.069V167.736C150.84 167.971 151.067 168.147 151.33 168.147C151.593 168.147 151.821 167.956 151.821 167.736V154.069C151.821 153.834 151.593 153.658 151.33 153.658Z" fill="#886CC3"/>
<path d="M155.134 153.511C154.854 153.511 154.643 153.702 154.643 153.922V164.231C154.643 164.466 154.871 164.642 155.134 164.642C155.397 164.642 155.625 164.451 155.625 164.231V153.922C155.625 153.687 155.397 153.511 155.134 153.511Z" fill="#886CC3"/>
<path d="M158.921 151.238C158.64 151.238 158.43 151.429 158.43 151.649V162.838C158.43 163.073 158.658 163.249 158.921 163.249C159.183 163.249 159.411 163.058 159.411 162.838V151.649C159.411 151.414 159.183 151.238 158.921 151.238Z" fill="#886CC3"/>
<path d="M168.088 152.397C167.843 152.455 91.4678 189.337 91.4678 189.337C91.24 189.455 91.1523 189.704 91.2925 189.895C91.4328 190.1 91.7308 190.159 91.9586 190.041L168.334 153.159C168.562 153.042 168.649 152.793 168.509 152.587C168.421 152.455 168.246 152.382 168.088 152.382V152.397Z" fill="#886CC3"/>
</g>
<defs>
<linearGradient id="paint0_linear_2002_662" x1="-1437.75" y1="-2788.33" x2="-1438.08" y2="-2789.25" gradientUnits="userSpaceOnUse">
<stop stop-color="#3F4EC6"/>
<stop offset="1" stop-color="#060882"/>
</linearGradient>
<linearGradient id="paint1_linear_2002_662" x1="98.7172" y1="1603.92" x2="98.8967" y2="1603.92" gradientUnits="userSpaceOnUse">
<stop stop-color="#3F4EC6"/>
<stop offset="1" stop-color="#060882"/>
</linearGradient>
<clipPath id="clip0_2002_662">
<rect width="591" height="483" fill="white"/>
</clipPath>
</defs>
</svg>
