<svg width="595" height="524" viewBox="0 0 595 524" fill="none" xmlns="http://www.w3.org/2000/svg">
<g clip-path="url(#clip0_2002_421)">
<path d="M91.7449 524L87.6351 456.884L80.9023 524H22.2654C21.1171 474.201 18.9896 442.59 31.0168 394.049C38.0276 397.121 41.811 391.57 49.0515 393.275C67.3884 397.604 85.2297 397.532 103.687 396.165C114.312 395.379 136.336 394.436 146.78 391.038C147.88 433.025 153.658 467.308 153.658 524.012H91.7328L91.7449 524Z" fill="#0C0C0C"/>
<g style="mix-blend-mode:multiply">
<path d="M103.011 521.521C101.778 517.566 101.741 513.648 101.379 509.609C101.173 507.36 100.931 505.111 100.69 502.861C100.206 498.375 99.6985 493.888 99.493 489.378C99.1667 482.606 99.5172 475.737 101.572 469.243C102.878 465.107 104.993 461.032 108.522 458.517C112.052 456.001 117.238 455.457 120.634 458.154C121.952 459.194 122.907 460.621 123.777 462.06C128.153 469.267 130.848 477.369 132.541 485.593C133.387 489.741 133.991 493.937 134.426 498.145C134.886 502.607 135.321 507.118 135.635 511.617C135.707 512.645 136.263 523.988 136.203 523.988H153.682C153.682 467.284 147.904 433.013 146.804 391.014C136.36 394.412 114.337 395.367 103.712 396.141C85.2538 397.495 67.4125 397.568 49.0757 393.251C41.8352 391.546 38.0518 397.096 31.041 394.025C19.0138 442.566 21.1412 474.177 22.2895 523.976H38.5232C38.5232 523.976 37.5078 518.449 37.4111 517.216C37.3144 516.031 37.2298 514.858 37.1573 513.673C37.0001 511.314 36.8914 508.944 36.8067 506.586C36.6496 501.858 36.6375 497.129 36.7705 492.389C36.9397 486.621 37.3144 480.852 37.9067 475.12C38.7649 466.885 40.1308 458.48 44.2769 451.321C46.3559 447.73 49.4746 444.295 53.5843 443.679C53.9711 443.618 54.37 443.582 54.7689 443.582C58.3106 443.533 62.5412 445.65 64.5115 448.649C65.3214 449.882 66.0104 451.128 66.9049 452.325C68.1378 453.97 68.9718 455.88 69.4916 457.864C70.3257 461.044 70.3861 464.357 70.3982 467.647C70.3982 470.077 70.3982 472.496 70.3498 474.927C70.1806 486.234 69.5037 497.553 68.4279 508.799C68.2103 511.133 67.9807 513.467 67.8235 515.813C67.7389 516.986 67.6664 518.147 67.618 519.32C67.5939 520.021 67.7873 523.976 67.9444 523.976H80.9144L87.6472 456.86L91.757 523.976H103.965C103.615 523.178 103.289 522.355 103.011 521.497V521.521Z" fill="black"/>
</g>
<path d="M349.138 301.308C357.128 306.266 371.863 306.266 371.863 306.266L367.052 269.818C366.931 270.399 361.77 268.718 361.468 268.585C359.352 267.653 352.559 254.134 346.975 242.887C343.675 236.26 329.871 212.086 329.75 210.599L314.628 209.305C314.955 214.94 320.527 237.566 324.359 248.849C328.71 261.68 334.633 292.299 349.162 301.308H349.138Z" fill="#FCAD97"/>
<path d="M335.177 221.204C332.506 216.307 330.33 212.244 329.846 210.962C329.834 210.925 329.798 210.877 329.798 210.853C329.762 210.744 329.75 210.659 329.738 210.611L314.616 209.317C314.64 209.68 314.689 210.127 314.737 210.575C315.208 214.324 316.828 221.737 318.786 229.452C319.318 229.077 319.862 228.702 320.382 228.303C322.787 226.489 325.374 224.554 328.251 223.345C329.677 222.752 332.735 221.688 335.177 221.204V221.204Z" fill="#E77E68"/>
<path d="M357.092 265.017C358.264 274.147 356.487 294.427 352.184 302.856C353.514 303.412 354.94 303.884 356.391 304.271H356.439C357.116 304.464 357.793 304.634 358.47 304.779C358.591 304.803 358.7 304.827 358.82 304.851C359.401 304.972 359.981 305.093 360.549 305.19C360.694 305.214 360.851 305.238 360.996 305.275C361.54 305.371 362.072 305.456 362.592 305.529C362.737 305.553 362.894 305.577 363.039 305.589C363.571 305.662 364.091 305.734 364.598 305.783C364.719 305.795 364.828 305.807 364.949 305.819C366.194 305.952 367.342 306.061 368.321 306.121C367.004 299.095 364.852 276.82 363.426 269.213C363.232 269.153 363.075 269.105 362.894 269.056C362.797 269.032 362.713 268.996 362.628 268.972C362.483 268.923 362.35 268.887 362.229 268.851C362.12 268.814 362.036 268.79 361.939 268.754C361.866 268.73 361.782 268.706 361.721 268.681C361.588 268.633 361.48 268.597 361.443 268.585C360.646 268.234 359.062 267.013 357.08 265.017H357.092Z" fill="#E77E68"/>
<path d="M433.751 123.421C434.175 130.87 438.586 137.884 442.745 143.858C444.364 146.192 446.165 148.538 448.112 150.835C447.991 144.245 453.333 144.063 456.766 147.776C459.571 150.811 461.553 153.774 462.496 155.261C464.877 152.843 466.013 149.808 467.029 145.285C467.863 141.56 468.673 138.876 470.969 135.683C475.442 129.467 481.401 124.872 485.897 118.692C486.2 116.238 486.345 113.662 486.284 110.977C486.284 110.977 482.029 96.2962 474.1 90.5158C474.1 90.5158 459.704 83.9372 442.878 97.0944C440.013 99.3316 432.784 106.648 433.739 123.421H433.751Z" fill="#0C0C0C"/>
<path d="M479.261 171.49C481.413 171.901 483.54 171.986 485.656 171.841C485.281 168.927 484.894 167.028 484.894 167.028C484.894 167.028 478.995 163.594 473.653 154.415C473.653 154.415 463.983 156.289 458.422 150.461L448.099 150.811C456.271 160.461 467.149 169.168 479.261 171.502V171.49Z" fill="#0C0C0C"/>
<path d="M461.154 178.395C463.946 177.851 472.383 176.69 474.668 174.634C475.188 174.163 475.671 173.667 476.155 173.159C476.288 173.014 476.711 172.627 477.013 172.325C477.823 171.756 478.621 171.164 479.394 170.523C480.095 169.942 480.724 169.338 481.328 168.648C481.812 168.092 482.247 167.475 482.694 166.883C483.468 177.742 486.574 199.231 499.097 205.883C499.097 205.883 470.534 232.669 449.635 203.162C449.635 203.162 457.032 202.642 461.154 178.395V178.395Z" fill="#FCAD97"/>
<path d="M484.241 199.328C480.929 196.825 478.089 193.681 474.535 191.504C471.283 189.509 461.903 188.42 458.616 188.033C459.631 185.325 460.513 182.18 461.166 178.395C463.958 177.851 472.396 176.69 474.68 174.634C475.2 174.163 475.683 173.667 476.167 173.159C476.3 173.014 476.723 172.627 477.025 172.325C477.835 171.756 478.633 171.164 479.406 170.523C480.107 169.942 480.736 169.338 481.34 168.648C481.824 168.092 482.259 167.475 482.706 166.883C483.48 177.742 486.586 199.231 499.109 205.883C499.109 205.883 498.638 206.318 497.792 207.019C493.186 204.649 488.387 202.46 484.253 199.328H484.241Z" fill="#E77E68"/>
<path d="M446.419 105.451C446.419 105.451 427.671 127.653 437.015 158.43C446.359 189.206 469.313 188.868 485.124 179.859C500.934 170.849 502.808 157.063 502.808 157.063C502.808 157.063 518.449 168.963 523.212 134.45C527.974 99.9241 488.532 83.9372 475.611 87.7949C462.689 91.6525 451.871 95.4014 446.419 105.451V105.451Z" fill="#FCAD97"/>
<path d="M480.712 122.925C481.884 122.985 482.972 123.082 484.024 123.191C485.015 123.094 485.994 122.973 486.985 122.913C502.941 121.897 513.626 125.827 519.32 112.247C525.339 91.8581 512.152 89.6451 500.584 78.8582C492.654 71.4573 468.685 69.5224 455.848 75.4238C443.446 81.1196 439.155 96.3567 440.001 98.9809C440.001 98.9809 441.125 103.576 443.53 107.349C448.861 115.693 464.684 122.078 480.7 122.937L480.712 122.925Z" fill="#0C0C0C"/>
<path d="M496.003 152.782C497.018 157.305 502.409 150.11 502.59 147.474C503.533 145.986 505.515 143.023 508.32 139.988C512.285 135.683 518.86 136.59 516.479 146.676C514.098 156.761 501.406 157.45 501.406 157.45C500.826 160.582 499.822 163.352 498.577 165.782C508.066 160.111 519.452 155.757 525.919 147.183C526.778 146.047 527.479 144.789 528.035 143.471C528.784 141.657 529.256 139.734 529.521 137.787C529.787 135.792 529.848 133.772 529.775 131.765C529.703 129.77 529.159 125.573 527.66 119.587C526.608 115.379 525.738 108.172 525.726 107.265C525.69 104.205 525.931 101.121 525.424 98.086C524.819 94.4944 523.067 91.1446 520.577 88.4963C518.691 86.4889 516.382 84.8805 513.832 83.8526C513.203 83.5986 512.538 83.3447 511.874 83.1996C510.81 82.9577 509.77 82.5707 508.695 82.2684C506.821 81.7484 504.899 81.3856 502.965 81.2163C500.016 80.9503 497.018 81.1075 494.129 81.7605C493.21 81.9661 491.772 82.1596 490.974 82.74C483.045 88.5205 478.79 103.201 478.79 103.201C478.729 105.886 478.874 108.462 479.177 110.917C483.673 117.084 489.632 121.679 494.105 127.907C496.401 131.1 495.156 149.058 495.99 152.795L496.003 152.782Z" fill="#0C0C0C"/>
<path d="M473.544 130.471C477.496 130.761 485.595 132.696 483.444 136.022C482.332 137.751 478.621 135.078 477.243 134.74C475.115 134.232 472.105 135.296 470.244 133.893C468.382 132.478 470.159 130.87 471.767 130.495C472.105 130.41 472.734 130.41 473.544 130.471Z" fill="#0C0C0C"/>
<path d="M447.725 128.331C449.091 128.355 450.456 128.669 451.798 128.887C452.995 129.08 453.962 129.189 455.026 129.89C456.67 130.991 456.162 132.902 454.216 133.059C452.306 133.204 450.638 132.019 448.728 131.886C447.435 131.801 444.268 132.623 443.422 131.414C442.104 129.528 445.174 128.572 446.588 128.391C446.963 128.343 447.35 128.331 447.737 128.331H447.725Z" fill="#0C0C0C"/>
<path d="M451.013 139.674C451.013 141.584 449.707 143.132 448.099 143.132C446.492 143.132 445.186 141.584 445.186 139.674C445.186 137.763 446.492 136.215 448.099 136.215C449.707 136.215 451.013 137.763 451.013 139.674Z" fill="#0C0C0C"/>
<path d="M474.946 144.015C474.946 145.926 473.641 147.474 472.033 147.474C470.425 147.474 469.12 145.926 469.12 144.015C469.12 142.104 470.425 140.556 472.033 140.556C473.641 140.556 474.946 142.104 474.946 144.015Z" fill="#0C0C0C"/>
<path d="M456.742 140.556C456.742 140.556 449.804 152.081 450.191 157.656C450.396 160.631 458.011 158.962 459.873 158.478C459.873 158.478 452.838 159.47 452.62 157.172C452.318 154.052 456.682 141.415 456.73 140.544L456.742 140.556Z" fill="#E77E68"/>
<path d="M462.181 165.311C459.534 165.432 457.25 166.266 455.038 167.282C457.117 169.797 460.719 171.95 465.711 169.688C467.27 168.987 468.358 168.056 469.12 167.052C467.004 165.94 464.744 165.19 462.181 165.311V165.311Z" fill="#D85835"/>
<path d="M492.993 201.287C492.993 201.287 486.997 212.159 472.565 211.107C460.006 210.188 455.014 203.706 453.478 200.259C453.478 200.259 452.475 200.501 450.783 200.912C449.804 202.279 448.692 203.537 447.519 204.746L420.262 369.355C422.51 369.512 427.188 369.633 429.521 369.73C445.235 370.371 464.188 372.584 479.829 373.854C488.955 374.591 497.767 374.156 506.555 373.08C506.555 373.08 494.673 201.553 493.005 201.287H492.993Z" fill="#6C6FA2"/>
<path d="M488.714 225.413C489.076 224.856 499.484 205.931 500.257 204.891C500.729 204.25 501.43 203.452 501.696 202.63C497.586 202.001 494.202 201.481 492.993 201.287C492.993 201.287 486.997 212.159 472.565 211.107C460.006 210.188 455.014 203.706 453.478 200.259C453.478 200.259 450.058 201.191 445.247 202.472C447.326 206.124 451.605 219.669 452.765 222.329C452.959 222.764 453.116 223.2 453.285 223.647C455.292 222.281 459.534 218.991 461.444 217.794C464.611 215.799 466.666 213.937 470.582 214.009C474.124 214.07 478.524 216.319 481.377 218.435C483.987 220.382 486.453 223.043 488.714 225.437V225.413Z" fill="white"/>
<path d="M455.654 203.645C454.615 202.412 453.901 201.215 453.466 200.259C453.466 200.259 450.046 201.191 445.235 202.472C447.314 206.124 451.593 219.669 452.753 222.329C452.947 222.764 453.104 223.2 453.273 223.647C453.829 223.272 454.578 222.728 455.388 222.136C455.412 221.217 455.727 207.019 455.642 203.658L455.654 203.645Z" fill="#7FA2A4"/>
<path d="M492.993 201.287C492.993 201.287 491.784 203.428 489.209 205.713C489.064 208.785 487.384 220.757 487.094 223.696C487.65 224.276 488.194 224.844 488.714 225.401C489.076 224.844 499.484 205.919 500.257 204.879C500.729 204.238 501.43 203.44 501.696 202.618C497.586 201.989 494.202 201.469 492.993 201.275V201.287Z" fill="#7FA2A4"/>
<path d="M464.913 524L470.425 420.122L476.662 524H536.448C535.178 474.528 534.55 409.722 532.676 351.554C525.073 355.4 514.92 358.435 507.075 360.576C487.215 365.981 464.248 365.897 444.243 364.192C432.724 363.212 418.557 361.809 407.243 357.553C406.059 410.048 404.632 473.705 403.508 524H464.901H464.913Z" fill="#0C0C0C"/>
<g style="mix-blend-mode:multiply">
<path d="M493.573 512.995C496.837 509.102 502.119 507.058 506.894 505.8C509.226 505.183 511.62 504.76 514.025 504.518C516.177 504.301 518.486 504.216 520.516 505.123C525.339 507.251 525.653 514.289 525.653 518.8C525.653 520.541 525.557 522.283 525.375 524.024H536.448C535.178 474.552 534.55 409.746 532.676 351.579C525.073 355.424 514.92 358.459 507.075 360.6C487.215 366.006 464.248 365.921 444.243 364.216C432.724 363.236 418.557 361.833 407.243 357.577C406.059 410.072 404.632 473.73 403.508 524.024H413.057C413.13 521.509 413.819 518.994 415.028 516.853C417.046 513.274 420.745 511.182 424.553 509.924C428.433 508.63 433.34 507.675 437.426 508.376C441.246 509.029 443.905 511.822 446.298 514.64C448.583 517.337 450.082 520.578 450.662 524.036H464.901L470.413 420.158L476.65 524.036H489.693C489.862 520.034 491.083 515.995 493.561 513.02L493.573 512.995Z" fill="black"/>
</g>
<path d="M533.063 268.137C535.517 251.812 526.475 206.681 524.505 206.233C522.74 205.822 501.78 202.654 494.77 201.565C494.153 206.124 493.416 210.684 492.993 215.279C492.836 216.936 492.751 218.592 492.691 220.249C499.677 231.762 495.652 243.601 492.05 256.576C490.201 263.252 488.823 269.758 486.187 276.252C485.172 355.025 484.157 486.185 484.35 497.008C504.645 496.513 528.107 494.868 545.743 491.059C545.743 491.059 530.609 284.451 533.063 268.125V268.137Z" fill="#BACDC9"/>
<path d="M498.456 202.134C497.308 206.378 495.604 210.478 494.891 214.916C493.984 220.551 493.114 226.114 491.736 231.677C490.14 238.122 488.387 244.544 486.55 250.941C486.332 264.666 486.115 281.705 485.897 300.401C485.934 300.329 485.97 300.244 485.994 300.171C493.089 283.229 501.019 248.244 508.513 203.67C505.528 203.21 500.85 202.497 498.456 202.122V202.134Z" fill="#7FA2A4"/>
<path d="M492.195 199.764C492.195 199.764 490.297 209.764 488.641 224.772C486.381 245.245 486.272 269.842 486.006 291.561C491.591 278.199 498.867 246.624 506.204 203.331C505.6 203.234 495.156 200.985 492.195 199.776V199.764Z" fill="#BACDC9"/>
<path d="M453.104 279.021C451.424 273.325 451.158 267.629 451.242 261.365C451.339 253.408 449.84 245.499 448.885 237.602C447.447 225.594 447.761 213.707 448.015 201.735C438.611 204.25 417.494 209.692 413.263 210.442C413.263 210.442 411.571 276.989 410.592 297.85C409.613 318.71 398.673 494.263 398.673 494.263C398.673 494.263 420.878 496.21 447.374 496.936C447.157 484.48 451.98 359.028 453.116 279.033L453.104 279.021Z" fill="#BACDC9"/>
<path d="M449.514 263.977C447.495 255.234 449.103 246.551 448.813 237.687C448.595 230.746 450.565 223.272 448.74 216.609C447.386 211.651 446.298 207.007 446.02 202.267C442.491 203.21 438.103 204.371 433.739 205.508C443.047 260.567 452.85 297.584 452.838 298.333C452.548 320.548 452.826 301.707 453.237 276.046C451.786 272.067 450.457 268.065 449.514 263.977Z" fill="#7FA2A4"/>
<path d="M452.91 292.976C453.49 250.3 453.877 201.166 453.466 200.259C453.466 200.259 445.428 202.436 436.689 204.734C438.731 211.433 452.463 291.658 452.91 292.976Z" fill="#BACDC9"/>
<path d="M414.254 427.401C414.955 399.08 416.744 370.831 416.805 342.497C416.889 303.594 413.819 276.663 412.199 264.4C412.054 264.183 411.921 263.977 411.776 263.76C411.353 277.545 410.93 290.533 410.58 297.837C409.6 318.637 398.734 493.09 398.661 494.227C398.661 494.227 398.794 494.251 399.024 494.288C400.438 494.421 406.059 494.941 414.496 495.497C414.762 495.497 415.016 495.497 415.294 495.497C415.983 469.92 414.049 435.443 414.242 427.401H414.254Z" fill="#7FA2A4"/>
<path d="M543.785 463.874C543.749 463.305 543.7 462.725 543.664 462.132C543.458 459.206 543.241 456.098 543.011 452.845C542.83 450.245 542.637 447.536 542.443 444.755C542.346 443.364 542.25 441.949 542.153 440.522C541.754 434.79 541.343 428.756 540.92 422.504C540.449 415.466 539.953 408.174 539.458 400.737C539.349 399.08 539.24 397.423 539.131 395.766C539.022 394.097 538.914 392.429 538.805 390.76C538.418 384.907 538.043 379.005 537.669 373.14C537.403 368.944 537.137 364.76 536.883 360.612C536.835 359.778 536.786 358.955 536.726 358.121C536.569 355.642 536.424 353.175 536.278 350.72C536.23 349.91 536.182 349.087 536.133 348.277C535.795 342.594 535.469 337.031 535.166 331.649C535.082 330.114 534.997 328.59 534.913 327.078C534.707 323.305 534.502 319.641 534.32 316.098C534.284 315.384 534.248 314.683 534.212 313.982C534.066 311.188 533.933 308.479 533.813 305.855C533.752 304.549 533.692 303.267 533.631 302.01C533.462 298.237 532.471 240.045 532.35 236.768C532.024 238.618 531.685 240.469 531.371 242.331C530.537 247.204 529.123 267.291 529.268 311.575C529.28 316.025 535.65 485.206 534.973 493.066C538.672 492.474 542.274 491.821 545.743 491.071C545.743 491.071 545.586 488.943 545.308 485.097C545.26 484.504 545.223 483.876 545.175 483.198C544.885 479.171 544.498 473.73 544.039 467.224C543.966 466.135 543.882 465.023 543.797 463.874H543.785Z" fill="#7FA2A4"/>
<path d="M511.861 142.225C511.861 142.225 509.831 143.543 508.525 145.478C507.208 147.425 506.628 149.989 508.997 150.763C510.169 151.15 511.583 149.771 511.076 147.389C510.87 146.434 509.927 144.68 511.874 142.225H511.861Z" fill="#E77E68"/>
<path d="M474.366 156.616C474.366 159.808 476.953 162.396 480.144 162.396C483.335 162.396 485.922 159.808 485.922 156.616C485.922 153.423 483.335 150.835 480.144 150.835C476.953 150.835 474.366 153.423 474.366 156.616Z" fill="#FC9F93"/>
<path d="M436.52 152.311C436.52 155.503 439.106 158.091 442.297 158.091C445.488 158.091 448.075 155.503 448.075 152.311C448.075 149.118 445.488 146.53 442.297 146.53C439.106 146.53 436.52 149.118 436.52 152.311V152.311Z" fill="#FC9F93"/>
<path d="M420.274 209.982C413.952 208.676 400.643 213.102 391.554 228.629C383.31 242.718 376.021 253.069 371.851 260.64C368.938 265.924 364.804 268.742 362.846 267.726C357.551 264.957 339.613 224.59 339.009 223.514C332.167 226.852 323.404 229.887 316.369 232.85C323.198 259.055 328.348 280.327 339.009 294.959C342.393 299.603 349.9 306.556 355.375 308.987C358.615 310.426 362.181 311.382 365.771 311.382C393.258 311.382 417.107 266.505 418.098 263.227C425.073 240.287 425.701 211.107 420.274 209.982V209.982Z" fill="#BACDC9"/>
<path d="M318.98 211.457C316.949 210.502 304.559 201.94 303.979 201.747C303.447 201.578 300.449 199.014 299.519 198.409C298.576 197.805 295.095 194.382 293.765 194.116C292.435 193.85 288.495 196.22 287.709 196.668C286.923 197.115 283.031 197.853 282.028 198.01C281.037 198.167 279.635 199.183 278.728 199.715C278.027 200.126 276.057 201.541 274.642 202.642C275.126 203.428 275.73 204.153 276.298 204.734C276.685 205.121 277.108 205.411 277.568 205.653C280.565 204.903 283.14 204.419 283.466 204.383C284.167 204.298 286.512 204.335 288.845 204.431C291.178 204.528 303.217 213.937 305.454 214.07C306.118 214.106 323.138 235.402 326.305 234.652C327.912 234.277 333.34 230.044 336.398 230.443C336.398 230.443 320.188 212.038 318.968 211.457H318.98Z" fill="#FCAD97"/>
<path d="M303.87 210.369C303.217 209.208 303.326 207.781 302.746 206.657C302.105 205.399 300.74 203.996 299.748 203.004C298.66 201.916 297.367 201.311 295.953 200.743C293.354 199.703 290.405 199.328 287.842 200.646C286.96 201.094 286.126 201.686 285.183 201.952C282.342 202.763 279.381 202.992 276.552 203.899C276.298 203.984 276.045 204.081 275.791 204.165C275.96 204.359 276.141 204.552 276.31 204.722C277.096 205.52 278.087 205.919 279.103 206.257C282.306 205.858 285.001 205.689 285.316 205.653C286.017 205.568 289.51 206.257 291.831 206.342C294.164 206.439 302.154 213.961 304.378 214.094C304.62 214.106 305.067 214.045 305.635 213.949C305.671 213.949 304.052 210.671 303.87 210.357V210.369Z" fill="#E77E68"/>
<path d="M306.131 213.949C303.133 215.859 298.141 210.623 296.859 209.414C295.566 208.204 293.934 208.519 293.136 208.059C292.327 207.6 288.241 206.004 287.709 203.404C287.177 200.804 290.054 200.453 291.698 200.84C293.342 201.239 295.711 201.457 297.706 202.763C299.688 204.069 302.504 205.411 303.314 205.52C304.112 205.617 308.185 207.733 308.077 210.551C307.968 213.368 306.856 213.501 306.155 213.949H306.131Z" fill="#FCAD97"/>
<path d="M288.567 204.444C288.773 204.661 289.377 204.806 289.679 204.867C290.102 204.964 290.586 205.036 291.009 204.976C291.891 204.843 292.701 203.948 292.508 203.004C292.351 202.182 291.468 201.578 290.743 201.263C289.836 200.876 288.954 200.804 288.277 201.565C287.951 201.928 287.431 203.924 288.579 204.431L288.567 204.444Z" fill="#F1C7BF"/>
<path d="M295.59 196.922C295.058 197.091 294.478 197.248 293.922 197.212C293.221 197.164 292.592 197.272 291.891 197.357C290.731 197.502 289.45 197.514 288.289 197.321C287.915 197.26 287.165 197.236 286.754 196.982C287.177 196.873 287.516 196.765 287.709 196.656C287.806 196.607 287.939 196.523 288.12 196.414C289.196 196.704 290.32 196.716 291.432 196.474C292.87 196.16 294.261 196.245 295.602 196.898L295.59 196.922Z" fill="#E77E68"/>
<path d="M293.535 205.423C294.72 205.604 298.008 205.81 297.415 203.742C297.149 202.799 296.037 202.303 295.179 202.049C294.43 201.831 293.076 201.711 293.451 202.871C293.608 203.331 294.043 203.887 293.801 204.383C293.705 204.589 292.87 205.326 293.547 205.423H293.535Z" fill="#EF9983"/>
<path d="M413.928 268.452C407.546 274.087 402.384 280.75 396.328 286.664C386.477 296.277 375.211 303.848 360.658 297.825C332.421 286.144 330.572 255.379 319.548 231.544C318.46 231.979 317.396 232.415 316.381 232.838C323.21 259.043 328.36 280.315 339.021 294.947C342.405 299.591 349.912 306.544 355.388 308.975C358.627 310.414 362.193 311.37 365.795 311.37C389.994 311.37 411.353 276.614 416.805 266.045C415.85 266.843 414.871 267.629 413.94 268.452H413.928Z" fill="#7FA2A4"/>
<path d="M559.16 297.91C559.124 298.321 559.076 298.72 559.027 299.119C564.878 297.16 572.203 295.637 578.114 295.758C582.127 295.842 586.672 295.552 590.274 297.112C589.814 293.351 588.799 288.623 587.663 285.708C585.753 285.164 582.622 286.337 580.7 286.664C577.932 287.147 574.294 288.103 571.526 288.574C566.848 289.385 563.004 291.912 558.483 293.303C558.483 293.303 559.366 295.491 559.148 297.898L559.16 297.91Z" fill="#E77E68"/>
<path d="M325.398 194.648C325.398 194.648 329.532 193.838 330.874 194.213C332.216 194.588 335.733 195.12 336.543 195.277C337.353 195.434 339.311 195.954 339.686 197.043C340.073 198.131 340.133 200.211 340.375 200.755C340.616 201.287 342.26 203.077 342.14 203.742C342.019 204.407 341.04 206.076 337.147 203.561C334.742 202.001 334.5 201.372 333.727 200.441C333.376 200.03 332.469 200.09 331.95 199.812C330.257 198.893 326.8 197.164 325.41 194.66L325.398 194.648Z" fill="#FCAD97"/>
<path d="M340.508 204.226C338.695 204.25 337.401 202.896 336.41 201.892C335.213 200.683 335.564 199.752 334.258 198.603C332.53 197.067 331.019 196.91 328.626 196.704C327.949 196.644 326.643 195.797 326.039 195.592C327.671 197.587 330.463 199.002 331.925 199.8C332.445 200.09 333.352 200.018 333.702 200.429C334.476 201.348 334.718 201.989 337.123 203.549C340.677 205.846 341.801 204.649 342.055 203.911C341.596 204.093 341.088 204.214 340.496 204.214L340.508 204.226Z" fill="#E77E68"/>
<path d="M342.115 203.585C341.994 203.585 341.862 203.428 341.777 203.367C341.644 203.283 341.499 203.21 341.354 203.162C341.052 203.053 340.737 202.992 340.423 202.944C339.795 202.847 339.275 202.412 339.069 201.844C338.888 201.311 339.069 200.743 339.746 200.791C340.459 200.84 340.943 201.59 341.33 202.073C341.535 202.327 341.656 202.617 341.837 202.871C341.97 203.065 342.176 203.355 342.115 203.597V203.585Z" fill="#FCE0D1"/>
<path d="M339.734 209.039C339.178 207.298 337.945 205.834 337.026 204.734C335.491 202.884 332.397 198.554 330.149 197.091C327.9 195.628 326.353 193.947 325.048 193.923C324.673 193.923 324.201 193.983 323.706 194.056C322.485 194.987 321.276 195.87 319.814 196.535C317.034 197.817 316.236 198.627 315.087 201.348C314.411 202.956 313.589 204.371 312.537 205.798C311.437 207.273 310.663 208.628 309.962 210.176C310.953 212.062 312.706 214.517 313.915 215.364C315.571 216.537 318.52 219.403 321.76 220.056C324.999 220.709 325.543 218.858 325.543 218.858C325.543 218.858 327.356 219.705 328.988 218.979C330.62 218.254 331.2 216.343 331.2 216.343C331.2 216.343 331.72 217.782 333.872 215.98C336.023 214.178 334.669 212.038 334.669 212.038C334.935 212.425 336.773 213.501 338.356 212.026C339.347 211.107 340.06 210.006 339.758 209.039H339.734Z" fill="#FCAD97"/>
<path d="M335.068 213.417C335.068 213.417 334.935 211.82 333.11 209.39C331.708 207.503 326.087 201.312 325.326 201.336C324.564 201.36 324.685 202.557 326.196 203.863C327.695 205.181 330.753 208.555 331.78 209.631C332.82 210.708 334.476 212.364 335.056 213.417H335.068Z" fill="#E77E68"/>
<path d="M331.285 216.524C331.285 216.524 329.194 213.949 327.417 212.328C325.652 210.708 321.953 206.342 321.385 207.588C321.143 208.12 324.612 211.228 326.305 212.776C327.985 214.311 331.285 216.524 331.285 216.524Z" fill="#E77E68"/>
<path d="M325.712 218.943C325.712 218.943 319.221 212.836 318.387 211.808C317.553 210.78 316.538 212.195 317.94 213.235C318.98 214.009 320.841 216.029 325.725 218.931L325.712 218.943Z" fill="#E77E68"/>
<path d="M323.367 194.116C322.799 194.201 321.022 194.757 319.524 195.253C317.735 195.845 316.224 197.019 315.378 198.591C314.096 200.961 313.045 203.585 312.283 204.214C312.126 204.347 310.555 206.318 310.071 207.406C309.757 208.108 309.551 209.317 309.841 209.958C310.18 210.708 310.845 210.938 311.268 210.103C311.933 208.797 313.794 209.16 314.157 209.136C314.519 209.111 313.48 207.467 313.83 206.064C314.181 204.661 316.018 204.057 316.84 204.383C317.662 204.71 317.372 204.178 316.852 202.279C316.332 200.38 317.88 198.506 319.064 198.591C320.249 198.675 322.231 198.832 321.905 197.684C321.578 196.535 324.395 193.959 323.355 194.116H323.367Z" fill="#E77E68"/>
<path d="M143.093 178.964L123.837 177.247C117.6 183.1 107.471 180.548 107.471 180.548C101.27 189.956 94.8151 193.245 94.8151 193.245C94.8151 193.245 90.0768 211.421 93.3888 222.643C96.7008 233.878 104.848 243.335 124.043 248.801C143.25 254.267 154.177 240.589 155.761 230.189C159.665 204.54 147.493 182.713 143.093 178.952V178.964Z" fill="#0C0C0C"/>
<path d="M106.02 201.384C102.684 200.949 99.8436 199.764 96.9909 197.526C96.3382 197.006 95.7338 196.462 95.1173 195.894C94.9481 195.737 94.4283 195.301 94.0415 194.975C93.0383 194.358 92.0471 193.729 91.0922 193.04C90.2218 192.399 89.4241 191.746 88.6625 190.984C88.0461 190.355 87.4901 189.678 86.9098 189.013C86.8373 201.892 84.8308 227.481 70.5674 236.284C70.5674 236.284 105.537 266.795 127.923 230.359C127.923 230.359 112.753 229.669 106.008 201.384H106.02Z" fill="#FCAD97"/>
<path d="M87.6109 227.384C91.3218 224.179 94.4283 220.249 98.4656 217.407C102.152 214.807 105.924 213.271 109.767 212.558C108.365 209.438 107.072 205.798 106.02 201.384C102.684 200.949 99.8436 199.764 96.9909 197.526C96.3382 197.006 95.7338 196.462 95.1173 195.894C94.9481 195.737 94.4283 195.301 94.0415 194.975C93.0383 194.358 92.0471 193.729 91.0922 193.04C90.2218 192.399 89.4241 191.746 88.6625 190.984C88.0461 190.355 87.49 189.678 86.9098 189.013C86.8373 201.892 84.8308 227.481 70.5674 236.284C70.5674 236.284 71.1476 236.768 72.2113 237.518C77.4573 234.362 82.9572 231.411 87.5988 227.396L87.6109 227.384Z" fill="#E18A7C"/>
<path d="M139.769 133.168C139.769 133.168 157.381 160.776 147.831 189.001C143.939 200.513 131.09 215.859 119.522 216.416C111.967 216.778 104.34 214.19 97.9337 210.043C81.7122 199.57 80.5397 184.865 80.5397 184.865C80.5397 184.865 63.2786 196.559 60.2567 159.7C57.2348 122.84 99.9524 108.22 113.418 113.069C126.884 117.906 134.595 122.199 139.769 133.168V133.168Z" fill="#FCAD97"/>
<path d="M97.4139 106.781C97.4139 106.781 84.7341 102.198 66.1312 115.137C47.5284 128.089 47.9273 165.48 44.2769 174.683C40.6385 183.873 30.364 194.999 29.2641 214.88C28.4059 230.335 35.4529 246.213 59.3138 248.135C62.783 244.592 67.5938 242.549 70.9905 238.933C75.2211 234.41 79.7056 228.025 82.9209 220.588C86.801 211.578 88.8801 202.279 88.8801 202.279C85.7252 198.252 82.8967 192.314 82.0023 185.325C82.0023 185.325 68.5971 183.861 66.6631 173.026C64.7291 162.191 71.752 161.622 75.7046 166.423C78.4969 169.809 80.4188 173.05 81.3254 174.695C83.9967 172.276 85.3747 169.12 86.7164 164.392C87.8164 160.486 88.8318 157.704 91.4548 154.451C96.5678 148.127 103.143 143.604 108.269 137.328C108.74 134.74 109.042 132.031 109.139 129.177C109.139 129.177 105.501 113.372 97.426 106.781H97.4139Z" fill="#0C0C0C"/>
<path d="M208.233 343.718C205.598 342.267 202.987 340.755 200.424 339.171C198.055 337.72 195.481 335.991 194.284 333.379C194.006 332.762 193.897 332.085 193.631 331.492C193.244 330.658 192.761 329.86 192.314 329.061C191.419 327.441 190.488 325.833 189.594 324.2C189.219 323.511 188.857 322.822 188.506 322.132C182.027 325.784 159.883 338.24 159.883 338.24C160.245 338.18 160.475 340.006 160.596 341.662C160.596 341.783 161.261 342.412 161.285 342.448C161.66 342.86 162.046 343.247 162.433 343.633C162.893 344.081 163.34 344.601 163.86 344.988C164.077 345.157 164.307 345.254 164.5 345.472C165.092 346.113 165.528 346.983 166.035 347.697C167.075 349.196 168.139 350.672 169.226 352.135C171.402 355.061 173.65 357.927 175.995 360.709C177.023 361.942 178.075 363.152 179.138 364.349C181.193 366.658 183.308 368.932 185.653 370.939C196.472 380.215 211.303 383.335 225.53 383.891C227.61 383.976 229.942 383.915 231.441 382.476C232.372 381.581 232.819 380.299 233.218 379.066C235.66 371.556 237.787 363.95 239.6 356.259C237.4 356.646 235.164 355.896 233.073 355.11C224.527 351.929 216.223 348.12 208.233 343.73V343.718Z" fill="#FCAD97"/>
<path d="M188.518 322.132C188.18 322.326 187.805 322.531 187.358 322.785C185.762 324.152 184.07 326.014 182.825 326.22C179.791 326.728 178.075 329.219 175.041 329.714C171.668 331.613 168.308 333.5 165.612 335.023C163.69 336.402 161.78 337.66 159.895 338.24C160.124 338.204 160.306 338.954 160.439 339.933V340.066C160.523 340.574 160.572 341.118 160.608 341.662C161.333 342.545 162.191 343.404 163.086 344.262C168.211 342.763 173.989 341.662 179.066 341.578C181.133 339.727 183.296 338.034 185.738 336.849C187.696 335.906 191.165 334.092 194.429 333.185C192.616 329.4 190.38 325.881 188.506 322.144L188.518 322.132Z" fill="#E77E68"/>
<path d="M35.7914 343.126C34.8727 364.252 22.4346 407.92 21.3467 416.143C67.1104 430.425 116.065 430.872 162.083 417.425L166.458 416.143C166.047 403.506 161.756 325.385 164.174 307.996C166.857 288.695 162.808 242.016 160.656 241.484C158.517 240.952 127.282 229.682 123.088 228.956C123.088 228.956 116.537 241.799 100.799 240.565C87.0912 239.489 81.6518 231.81 79.9716 227.747C79.9716 227.747 46.7307 240.735 40.5056 241.92C40.5056 241.92 36.8793 318.456 35.8156 343.126H35.7914Z" fill="#6C6FA2"/>
<path d="M164.162 308.008C165.914 295.407 164.79 271.148 163.207 255.669C159.955 260.567 155.833 264.993 151.482 268.959C142.489 277.171 165.588 226.549 156.522 234.664C151.639 239.029 136.191 243.093 122.326 268.524C112.052 287.377 108.547 303.497 103.458 328.118C101.778 336.233 100.786 344.468 99.8798 352.691C98.8524 361.979 97.9216 371.278 96.6887 380.541C94.6338 395.984 93.7151 411.596 93.4492 427.184C116.561 427.22 139.672 423.991 162.083 417.425L166.458 416.143C166.047 403.506 161.756 325.385 164.174 307.996L164.162 308.008Z" fill="#464A83"/>
<path d="M45.0988 408.911C45.123 407.69 45.1955 406.456 45.2922 405.235C45.6186 400.603 46.3197 396.008 46.8274 391.389C47.3471 386.66 47.8548 381.932 48.3383 377.192C49.3053 367.723 50.1756 358.242 50.8042 348.749C51.4327 339.268 51.8195 329.775 51.8316 320.27C51.8316 315.517 51.747 310.777 51.5415 306.037C51.4448 303.775 51.0339 301.357 51.2031 299.107C51.2514 298.43 51.4811 297.813 51.4932 297.136C51.4932 294.754 51.1185 292.323 50.9855 289.941C50.8405 287.208 50.7679 284.463 50.7679 281.73C50.7921 273.809 41.5934 286.555 40.7352 276.409C37.5683 277.8 36.8551 292.311 35.0299 293.254C35.3441 301.731 35.6101 310.317 35.7793 318.166V318.226C35.8035 319.315 35.8277 320.391 35.8397 321.443V321.636C35.876 323.716 35.9123 325.736 35.9244 327.671C35.9244 327.755 35.9244 327.852 35.9244 327.937C35.9244 328.844 35.9364 329.739 35.9485 330.609V331.021C35.9485 331.879 35.9485 332.726 35.9485 333.536C35.9485 333.633 35.9485 333.717 35.9485 333.814C35.9485 334.6 35.9485 335.362 35.9364 336.1C35.9364 336.184 35.9364 336.269 35.9364 336.354C35.9364 337.103 35.9244 337.829 35.9123 338.542C35.9123 338.675 35.9123 338.808 35.9123 338.941C35.9002 339.619 35.8881 340.284 35.8639 340.925C35.8639 341.046 35.8639 341.155 35.8639 341.263C35.8397 341.916 35.8277 342.545 35.7914 343.162C35.7793 343.513 35.7551 343.875 35.731 344.25C34.4497 365.752 22.4225 408.077 21.3467 416.167C29.0949 418.586 36.9518 420.593 44.8571 422.214C45.0384 417.788 44.9659 413.325 45.0988 408.923V408.911Z" fill="#464A83"/>
<path d="M164.089 402.635C163.678 389.998 161.744 325.397 164.162 308.008C164.911 302.626 165.225 298.128 164.754 289.324C157.888 285.176 148.315 281.621 142.331 279.613C141.244 297.1 143.033 314.743 140.784 332.278C138.089 353.26 133.725 374.253 127.548 394.496C126.763 397.072 125.929 399.817 125.034 402.635H164.089Z" fill="#464A83"/>
<path d="M195.42 326.316L159 339.316C159 339.316 154.915 318.976 148.424 293.411C141.933 267.859 154.129 241.496 161.019 241.472C171.197 241.436 175.609 267.387 195.408 326.304L195.42 326.316Z" fill="#6C6FA2"/>
<path d="M113.285 158.647C109.091 158.43 100.303 159.385 102.116 163.182C103.059 165.154 107.314 162.832 108.813 162.662C111.121 162.408 114.143 163.932 116.295 162.699C118.446 161.465 116.79 159.518 115.146 158.914C114.796 158.781 114.131 158.696 113.285 158.647Z" fill="#0C0C0C"/>
<path d="M141.135 161.018C139.721 160.679 138.234 160.655 136.807 160.522C135.526 160.401 134.499 160.256 133.23 160.715C131.259 161.417 131.271 163.521 133.23 164.186C135.151 164.839 137.182 164.053 139.177 164.416C140.53 164.658 143.577 166.351 144.761 165.323C146.611 163.727 143.709 161.937 142.307 161.381C141.933 161.235 141.546 161.114 141.147 161.018H141.135Z" fill="#0C0C0C"/>
<path d="M123.958 174.501C123.958 174.501 127.452 181.733 127.258 184.901C127.065 188.07 120.84 188.275 118.906 187.659C118.906 187.659 124.345 186.667 124.708 184.248C125.215 180.959 123.97 175.42 123.958 174.501Z" fill="#E77E68"/>
<path d="M117.431 199.123C120.284 199.159 125.119 198.748 124.273 197.49C123.946 197.006 123.306 196.789 122.713 196.474C118.338 194.128 112.995 195.507 112.282 197.031C111.774 198.119 115.231 199.098 117.431 199.123Z" fill="#D85835"/>
<path d="M71.8124 168.6C71.8124 168.6 73.8915 170.112 75.1607 172.24C76.442 174.38 76.9013 177.138 74.3629 177.815C73.0937 178.153 71.6916 176.618 72.3564 174.127C72.6344 173.123 73.7344 171.321 71.8124 168.6V168.6Z" fill="#E77E68"/>
<path d="M106.032 184.297C105.851 187.683 102.95 190.271 99.5655 190.089C96.181 189.908 93.5943 187.006 93.7756 183.619C93.9569 180.233 96.8579 177.646 100.242 177.827C103.627 178.008 106.214 180.911 106.032 184.297Z" fill="#FC9F93"/>
<path d="M146.683 186.619C146.502 190.005 143.601 192.592 140.216 192.411C136.832 192.23 134.245 189.327 134.426 185.941C134.608 182.555 137.509 179.967 140.893 180.149C144.278 180.33 146.864 183.233 146.683 186.619Z" fill="#FC9F93"/>
<path d="M128.503 146.724C149.354 149.977 149.995 162.094 149.995 162.094C149.995 162.094 161.2 147.22 152.473 126.674C143.746 106.128 107.386 96.2237 93.5338 107.99C93.5338 107.99 94.5855 141.415 128.491 146.712L128.503 146.724Z" fill="#0C0C0C"/>
<path d="M111.822 174.151C109.574 174.03 107.761 172.663 107.241 170.91C107.084 171.273 106.975 171.66 106.951 172.071C106.83 174.368 108.946 176.352 111.689 176.497C114.433 176.654 116.754 174.913 116.887 172.615C116.911 172.204 116.839 171.805 116.73 171.43C116.029 173.111 114.071 174.272 111.822 174.151Z" fill="#0C0C0C"/>
<path d="M135.998 174.731C134.015 174.622 132.42 173.449 131.912 171.926C131.743 172.288 131.622 172.675 131.598 173.087C131.489 175.154 133.399 176.944 135.865 177.077C138.343 177.21 140.434 175.65 140.543 173.582C140.567 173.171 140.482 172.772 140.361 172.397C139.684 173.848 137.968 174.84 135.986 174.731H135.998Z" fill="#0C0C0C"/>
<path d="M135.538 456.884H138.512C140.712 464.031 141.908 465.555 142.513 467.852C143.214 470.525 144.398 472.75 144.664 474.37C144.93 475.991 149.064 481.493 149.064 482.799C149.064 483.464 148.859 484.154 148.496 484.71C148.279 485.049 147.976 485.339 147.626 485.544C147.203 485.786 146.707 485.883 146.224 485.883C145.909 485.883 145.595 485.835 145.281 485.762C145.22 485.75 145.148 485.738 145.039 485.665C144.979 485.629 144.906 485.605 144.846 485.569C144.773 485.532 144.713 485.496 144.64 485.46C144.374 485.315 144.12 485.157 143.879 484.976C143.637 484.795 143.407 484.589 143.202 484.371C143.117 484.287 143.033 484.19 142.96 484.105C142.912 484.045 142.863 483.984 142.742 483.73C142.682 483.61 142.622 483.476 142.549 483.356C142.416 483.09 142.283 482.823 142.15 482.557C142.017 482.291 141.872 482.025 141.739 481.759C141.606 481.517 141.485 481.276 141.352 481.022C141.292 480.913 141.232 480.804 141.171 480.695C140.289 479.123 139.576 477.551 138.911 475.894C138.814 475.64 138.657 475.423 138.476 475.241C138.415 475.108 138.343 474.987 138.27 474.866C138.052 474.503 137.847 474.129 137.666 473.742C137.472 473.306 137.327 472.847 137.206 472.387C137.085 471.916 136.832 471.468 136.747 470.997C136.699 470.743 135.985 470.21 135.985 470.21C135.985 470.21 135.804 470.126 135.55 470.053V456.86L135.538 456.884Z" fill="#FCAD97"/>
<path d="M149.064 482.799C149.064 482.799 149.064 482.872 149.064 482.908C144.531 479.873 144.314 476.197 144.628 474.165C144.64 474.225 144.664 474.298 144.676 474.358C144.942 475.979 149.076 481.481 149.076 482.787L149.064 482.799Z" fill="#F7DAD1"/>
<path d="M137.255 468.626C137.327 472.399 138.27 472.871 139.95 477.249C142.138 482.92 145.075 484.928 146.707 485.762C146.562 485.786 146.429 485.859 146.272 485.859C146.236 485.859 146.212 485.859 146.175 485.859C145.885 485.859 145.595 485.81 145.317 485.75C145.281 485.75 145.245 485.726 145.208 485.714C145.16 485.714 145.112 485.702 145.039 485.653C144.979 485.617 144.906 485.593 144.846 485.556C144.773 485.52 144.713 485.484 144.64 485.448C144.374 485.302 144.12 485.145 143.879 484.964C143.637 484.783 143.407 484.577 143.202 484.359C143.117 484.275 143.033 484.178 142.96 484.093C142.912 484.033 142.863 483.972 142.742 483.718C142.682 483.597 142.622 483.464 142.549 483.343C142.513 483.271 142.477 483.21 142.44 483.138C142.017 482.279 141.534 481.324 141.159 480.683C140.277 479.111 139.563 477.539 138.899 475.882C138.802 475.628 138.645 475.41 138.463 475.229C138.403 475.096 138.33 474.975 138.258 474.854C138.04 474.491 137.835 474.116 137.654 473.73C137.46 473.294 137.315 472.835 137.194 472.375C137.073 471.903 136.82 471.456 136.735 470.984C136.711 470.815 136.372 470.525 136.155 470.356C136.155 470.356 136.131 470.344 136.118 470.319C136.034 470.247 135.973 470.21 135.973 470.21C135.973 470.21 135.792 470.126 135.538 470.053V464.079C135.671 464.273 135.828 464.442 135.949 464.636C136.687 465.833 137.231 467.187 137.255 468.614V468.626Z" fill="#E77E68"/>
<path d="M278.329 152.395C278.329 152.395 252.873 115.403 253.912 101.762C254.154 98.6181 266.568 96.8888 268.78 96.9492C280.602 97.2636 286.077 106.914 289.462 123.106C292.834 139.299 290.235 161.816 278.329 152.383V152.395Z" fill="white"/>
<g style="mix-blend-mode:multiply">
<path d="M273.252 122.26C276.238 122.526 279.344 123.36 282.173 124.739C287.794 127.472 291.118 133.446 290.767 139.686C290.151 150.545 286.343 158.563 278.365 152.25C278.365 152.25 268.248 137.545 261.032 123.251C265.081 122.562 269.155 121.897 273.264 122.26H273.252Z" fill="#E0E9E9"/>
</g>
<path d="M211.158 163.968C211.158 163.968 222.787 120.579 217.238 108.087C215.957 105.209 203.688 107.736 201.621 108.534C190.585 112.791 188.651 123.711 190.875 140.097C193.112 156.483 203.084 176.835 211.158 163.968V163.968Z" fill="white"/>
<g style="mix-blend-mode:multiply">
<path d="M205.949 134.002C203.229 135.248 200.57 137.086 198.37 139.311C193.982 143.761 192.846 150.509 195.275 156.265C199.494 166.29 205.755 172.579 211.17 163.956C211.17 163.956 215.788 146.712 217.819 130.822C213.769 131.535 209.708 132.261 205.961 133.978L205.949 134.002Z" fill="#E0E9E9"/>
</g>
<path d="M209.49 209.764C222.654 195.217 225.579 164.597 225.579 164.597H255.363C255.363 164.597 258.288 195.217 271.451 209.764C278.329 217.359 264.827 240.323 240.471 240.432C216.126 240.323 202.612 217.359 209.49 209.764V209.764Z" fill="#E18A7C"/>
<path d="M300.594 303.424V221.337C302.734 217.347 291.372 209.293 292.701 208.313C292.701 208.313 326.075 210.345 333.835 231.423C340.629 249.841 350.685 297.777 356.355 328.735L300.594 303.424V303.424Z" fill="#B22B25"/>
<path d="M288.011 138.307C287.806 143.616 285.932 148.441 282.523 149.022C279.127 149.602 275.634 145.829 274.727 140.593C273.82 135.357 278.522 130.169 281.919 129.576C285.316 128.996 288.229 132.37 288.011 138.295V138.307Z" fill="#FCAD97"/>
<path d="M283.95 134.655C283.95 134.655 280.203 136.844 280.178 141.282C280.154 145.72 284.482 144.257 284.506 142.201C284.518 140.145 281.617 139.746 283.962 134.655H283.95Z" fill="#E77E68"/>
<path d="M197.415 153.919C199.385 158.865 202.769 162.771 206.166 162.179C209.563 161.598 211.593 156.87 210.699 151.621C209.792 146.385 203.64 143.072 200.243 143.652C196.847 144.233 195.227 148.393 197.427 153.907L197.415 153.919Z" fill="#FCAD97"/>
<path d="M200.014 149.106C200.014 149.106 204.28 149.916 205.791 154.088C207.29 158.261 202.733 158.333 202.02 156.398C201.319 154.463 203.918 153.121 200.014 149.106V149.106Z" fill="#E77E68"/>
<path d="M157.477 320.33C157.598 278.549 166.773 216.307 175.282 212.377C184.36 208.18 208.668 197.962 217.142 197.2C217.033 197.998 216.96 198.808 216.96 199.631C216.96 210.829 227.489 219.91 240.471 219.91C253.453 219.91 263.981 210.829 263.981 199.631C263.981 198.808 263.909 197.998 263.8 197.2C272.273 197.95 292.943 206.669 303.338 209.535C312.38 212.026 323.331 278.549 323.464 320.33H157.477Z" fill="#CF3F36"/>
<path d="M263.643 101.859C253.767 91.8944 233.835 96.5381 233.835 96.5381C233.835 96.5381 213.491 98.8357 207.52 111.533C201.549 124.231 199.735 152.831 208.088 168.153C213.902 178.831 226.401 193.56 249.839 189.521C273.276 185.482 280.13 167.427 282.04 155.419C284.784 138.186 273.518 111.836 263.643 101.871V101.859Z" fill="#FCAD97"/>
<path d="M261.684 140.303C262.011 142.225 260.79 144.039 258.953 144.354C257.115 144.668 255.351 143.374 255.024 141.451C254.698 139.529 255.919 137.715 257.756 137.4C259.593 137.086 261.358 138.38 261.684 140.303Z" fill="#2F1205"/>
<path d="M229.543 145.841C229.87 147.764 228.649 149.578 226.812 149.892C224.974 150.207 223.21 148.913 222.883 146.99C222.557 145.067 223.778 143.253 225.615 142.939C227.452 142.624 229.217 143.918 229.543 145.841Z" fill="#2F1205"/>
<path d="M251.736 120.809C249.778 121.147 247.735 121.631 246.309 123.01C244.883 124.388 244.423 126.952 245.85 128.318C246.925 129.346 248.581 129.358 250.056 129.237C252.184 129.056 254.299 128.705 256.366 128.173C259.013 127.496 261.709 126.541 264.416 126.928C265.468 127.085 266.544 127.436 267.559 127.121C268.864 126.722 269.65 125.198 269.36 123.856C268.139 118.305 255.496 120.144 251.736 120.797V120.809Z" fill="white"/>
<path d="M225.748 125.283C227.706 124.944 229.797 124.715 231.598 125.537C233.399 126.359 234.693 128.621 233.798 130.386C233.134 131.704 231.574 132.285 230.136 132.66C228.069 133.204 225.966 133.567 223.838 133.772C221.118 134.026 218.254 134.014 215.836 135.296C214.893 135.792 213.999 136.481 212.935 136.529C211.569 136.59 210.324 135.417 210.155 134.063C209.454 128.427 221.989 125.924 225.736 125.283H225.748Z" fill="white"/>
<path d="M277.555 132.103C277.555 132.357 277.568 132.587 277.555 132.853C277.398 148.417 276.673 153.98 272.781 161.574C270.714 165.613 265.105 162.336 258.481 162.082C252.631 161.852 245.269 163.158 245.269 163.158C245.269 163.158 237.896 164.392 232.457 166.568C226.304 169.023 222.11 173.993 218.822 170.873C212.621 165.02 210.082 160.026 204.728 145.406C204.631 145.152 204.571 144.934 204.486 144.692L202.479 144.378C202.455 154.403 206.251 165.879 208.705 170.172C212.705 177.162 226.63 205.677 251.833 201.336C277.036 196.994 280.626 165.468 282.064 157.535C282.947 152.674 282.777 142.491 279.707 131.305L277.531 132.116L277.555 132.103Z" fill="white"/>
<g style="mix-blend-mode:multiply">
<path d="M258.227 162.13C253.066 161.925 246.732 162.916 245.318 163.158C243.904 163.412 237.606 164.597 232.807 166.52C228.105 168.394 224.551 171.72 221.674 171.805C221.82 173.207 223.548 175.481 226.824 176.497C233.23 178.48 245.451 176.315 247.639 176.654C249.585 175.602 261.829 173.558 267.208 169.543C269.952 167.487 270.823 164.767 270.496 163.4C267.752 164.283 263.292 162.336 258.239 162.142L258.227 162.13Z" fill="#E0E9E9"/>
</g>
<path d="M245.789 166.061C239.866 167.076 235.479 170.39 236.01 173.449C236.53 176.509 241.764 178.153 247.699 177.138C253.622 176.122 258.01 172.808 257.478 169.749C256.946 166.689 251.724 165.045 245.789 166.061Z" fill="#442D43"/>
<path d="M239.782 176.787C241.909 177.464 244.713 177.633 247.699 177.126C250.685 176.606 253.284 175.517 255.048 174.163C252.933 173.486 250.117 173.316 247.131 173.824C244.145 174.344 241.547 175.433 239.782 176.787Z" fill="#CD5A6B"/>
<path d="M240.471 219.91C240.471 219.91 249.681 226.695 257.176 235.643C262.253 241.702 277.507 220.733 270.496 198.591C270.496 198.591 266.834 195.398 263.087 195.882C263.087 195.882 259.376 211.034 240.471 219.898V219.91Z" fill="#B22B25"/>
<path d="M240.471 219.91C240.471 219.91 231.26 226.695 223.766 235.643C218.689 241.702 203.434 220.733 210.445 198.591C210.445 198.591 214.108 195.398 217.855 195.882C217.855 195.882 221.566 211.034 240.471 219.898V219.91Z" fill="#B22B25"/>
<path d="M240.471 219.91C240.471 219.91 255.411 226.755 258.276 234.132C261.128 241.508 277.507 220.745 270.508 198.603C270.508 198.603 266.846 195.41 263.099 195.894C263.099 195.894 259.388 211.046 240.483 219.91H240.471Z" fill="white"/>
<g style="mix-blend-mode:multiply">
<path d="M257.611 228.424C261.672 234.277 273.675 220.878 271.209 201.408C276.069 222.45 260.995 241.182 258.264 234.132C255.411 226.755 240.459 219.91 240.459 219.91C240.555 219.862 240.64 219.814 240.737 219.765C246.031 221.458 254.081 223.333 257.599 228.424H257.611Z" fill="#E0E9E9"/>
</g>
<path d="M240.471 219.91C240.471 219.91 225.53 226.755 222.666 234.132C219.813 241.508 203.434 220.745 210.433 198.603C210.433 198.603 214.096 195.41 217.843 195.894C217.843 195.894 221.554 211.046 240.459 219.91H240.471Z" fill="white"/>
<g style="mix-blend-mode:multiply">
<path d="M223.294 228.424C219.559 234.495 207.23 220.878 209.696 201.408C204.836 222.45 219.91 241.182 222.642 234.132C225.494 226.755 240.447 219.91 240.447 219.91C240.35 219.862 240.265 219.814 240.169 219.765C234.874 221.458 226.715 222.873 223.306 228.424H223.294Z" fill="#E0E9E9"/>
</g>
<path d="M267.632 161.888C262.615 164.259 260.089 160.994 253.864 159.059C249.065 157.571 246.128 160.28 245.028 161.61C243.541 160.727 239.866 159.155 235.841 162.167C230.619 166.073 229.338 169.991 223.814 169.434C218.29 168.878 220.853 175.723 230.595 175.312C239.25 174.949 244.967 173.34 246.43 169.785C248.992 172.651 254.915 172.252 263.195 169.688C272.515 166.81 272.648 159.506 267.619 161.876L267.632 161.888Z" fill="white"/>
<path d="M244.713 159.796C241.619 160.328 238.73 159.022 237.558 156.773C237.485 157.257 237.461 157.765 237.558 158.261C238.089 161.344 241.522 163.327 245.221 162.687C248.92 162.046 251.495 159.034 250.963 155.951C250.878 155.443 250.685 154.983 250.455 154.548C250.092 157.051 247.82 159.264 244.713 159.796V159.796Z" fill="#E77E68"/>
<path d="M269.578 149.034C270.085 152.008 268.091 154.838 265.117 155.346C262.144 155.854 259.315 153.859 258.808 150.884C258.3 147.909 260.294 145.079 263.268 144.571C266.241 144.063 269.07 146.059 269.578 149.034V149.034Z" fill="#FC9F93"/>
<path d="M228.722 156.072C229.229 159.047 227.235 161.876 224.261 162.384C221.288 162.892 218.459 160.897 217.951 157.922C217.444 154.947 219.438 152.117 222.412 151.609C225.385 151.102 228.214 153.097 228.722 156.072Z" fill="#FC9F93"/>
<g style="mix-blend-mode:screen" opacity="0.12">
<path d="M269.239 138.065C270.013 142.588 265.625 147.111 259.436 148.175C253.247 149.239 247.59 146.446 246.817 141.923C246.043 137.4 250.431 132.877 256.62 131.813C262.821 130.749 268.466 133.542 269.239 138.065Z" fill="#EFF5F5"/>
</g>
<g style="mix-blend-mode:screen" opacity="0.12">
<path d="M237.28 143.568C238.053 148.09 233.665 152.613 227.477 153.677C221.276 154.741 215.631 151.948 214.857 147.425C214.083 142.902 218.471 138.38 224.66 137.316C230.849 136.251 236.506 139.045 237.28 143.568Z" fill="#EFF5F5"/>
</g>
<g style="mix-blend-mode:screen" opacity="0.23">
<path d="M216.066 150.037C216.694 150.775 217.468 151.367 218.447 151.996C220.139 148.659 224.394 140 226.014 136.699C225.325 136.771 224.636 136.868 223.947 136.928C223.778 136.941 223.609 136.953 223.451 136.977C223.367 136.989 223.282 137.001 223.21 137.025C223.185 137.025 223.173 137.037 223.125 137.062C222.932 137.158 222.738 137.243 222.545 137.34L222.496 137.364C220.756 140.835 217.746 146.663 215.969 149.904C216.005 149.941 216.03 149.989 216.066 150.025V150.037Z" fill="#EFF5F5"/>
</g>
<g style="mix-blend-mode:screen" opacity="0.23">
<path d="M220.466 153.145C220.575 153.206 220.949 153.399 221.179 153.496C221.324 153.568 221.457 153.605 221.602 153.665C222.303 153.665 223.016 153.605 223.741 153.484C223.862 153.46 223.971 153.423 224.092 153.399C226.642 148.344 229.253 143.314 231.079 137.944C230.486 137.509 229.846 137.122 229.133 136.796C228.637 137.799 222.049 149.662 220.224 153.012C220.309 153.061 220.381 153.097 220.466 153.145V153.145Z" fill="#EFF5F5"/>
</g>
<g style="mix-blend-mode:screen" opacity="0.23">
<path d="M247.083 144.704C247.711 145.454 248.485 146.035 249.464 146.663C251.156 143.326 255.411 134.667 257.031 131.366C256.342 131.438 255.653 131.535 254.964 131.596C254.794 131.608 254.625 131.62 254.468 131.644C254.384 131.656 254.299 131.668 254.214 131.692C254.19 131.692 254.178 131.704 254.13 131.729C253.936 131.825 253.743 131.91 253.549 132.019L253.501 132.043C251.761 135.514 248.751 141.342 246.974 144.583C247.01 144.62 247.034 144.668 247.071 144.704H247.083Z" fill="#EFF5F5"/>
</g>
<g style="mix-blend-mode:screen" opacity="0.23">
<path d="M251.483 147.8C251.591 147.861 251.966 148.054 252.196 148.151C252.341 148.223 252.474 148.26 252.619 148.32C253.32 148.32 254.033 148.26 254.758 148.139C254.879 148.115 254.988 148.078 255.109 148.054C257.659 142.999 260.27 137.969 262.095 132.599C261.503 132.164 260.862 131.777 260.149 131.45C259.654 132.454 253.066 144.317 251.241 147.667C251.325 147.715 251.398 147.752 251.483 147.8V147.8Z" fill="#EFF5F5"/>
</g>
<path d="M256.946 150.001C254.625 150.001 252.401 149.493 250.503 148.514C247.723 147.087 245.934 144.825 245.475 142.141C244.544 136.747 249.44 131.39 256.39 130.193C259.69 129.624 262.978 130.06 265.637 131.426C268.417 132.853 270.206 135.115 270.666 137.799C271.596 143.193 266.701 148.55 259.75 149.747C258.808 149.904 257.865 149.989 256.946 149.989V150.001ZM259.194 132.406C258.409 132.406 257.611 132.478 256.801 132.611C251.192 133.579 247.191 137.666 247.88 141.729C248.207 143.628 249.536 145.261 251.615 146.337C253.815 147.462 256.547 147.824 259.339 147.341C264.96 146.373 268.961 142.286 268.26 138.222C267.934 136.324 266.604 134.691 264.525 133.615C262.966 132.817 261.128 132.406 259.206 132.406H259.194Z" fill="#0C0C0C"/>
<path d="M225.071 155.491C222.75 155.491 220.526 154.983 218.628 154.004C215.848 152.577 214.059 150.315 213.6 147.643C213.141 144.97 214.059 142.237 216.211 139.964C218.266 137.775 221.215 136.263 224.515 135.695C227.815 135.115 231.103 135.562 233.762 136.929C236.542 138.356 238.331 140.617 238.791 143.289C239.25 145.962 238.331 148.695 236.18 150.968C234.125 153.157 231.175 154.669 227.875 155.237C226.933 155.394 225.99 155.479 225.071 155.479V155.491ZM227.319 137.896C226.534 137.896 225.736 137.969 224.926 138.102C222.146 138.585 219.68 139.831 217.988 141.633C216.38 143.338 215.679 145.321 216.005 147.22C216.332 149.118 217.661 150.751 219.74 151.827C221.94 152.952 224.684 153.315 227.464 152.831C230.245 152.347 232.71 151.101 234.403 149.3C236.01 147.595 236.711 145.611 236.385 143.713C236.059 141.814 234.729 140.182 232.65 139.105C231.091 138.307 229.253 137.896 227.331 137.896H227.319Z" fill="#0C0C0C"/>
<path d="M238.331 142.564L236.035 141.705C236.083 141.572 237.255 138.488 241.256 137.799C245.245 137.098 247.385 139.625 247.482 139.734L245.596 141.294L246.539 140.508L245.608 141.294C245.56 141.234 244.242 139.758 241.667 140.194C239.105 140.641 238.355 142.467 238.331 142.54V142.564Z" fill="#0C0C0C"/>
<path d="M269.457 137.001L268.055 134.994C268.272 134.849 273.434 131.257 279.006 129.274L279.828 131.583C274.582 133.446 269.517 136.965 269.469 137.001H269.457Z" fill="#0C0C0C"/>
<path d="M213.963 146.567C213.963 146.567 207.955 144.934 202.383 144.934V142.491C208.294 142.491 214.362 144.148 214.615 144.208L213.963 146.567V146.567Z" fill="#0C0C0C"/>
<path d="M248.013 113.916C244.689 113.916 241.353 113.988 238.029 114.327C233.98 114.738 230.233 115.838 226.364 116.963C229.024 114.69 233.472 114.121 236.989 113.638C240.676 113.142 244.448 113.214 248.001 113.916H248.013Z" fill="#E77E68"/>
<path d="M249.863 116.794L243.867 117.229C242.078 117.362 240.289 117.483 238.525 117.761C234.149 118.438 230.124 119.998 226.062 121.437C231.465 118.463 237.678 116.6 244.145 116.467C246.079 116.419 248.001 116.528 249.875 116.794H249.863Z" fill="#E77E68"/>
<path d="M238.766 120.313C242.103 119.89 245.463 119.926 248.787 120.011C241.74 120.784 234.693 121.643 228.069 124.086C231.248 122.006 234.814 120.809 238.766 120.301V120.313Z" fill="#E77E68"/>
<path d="M242.562 524C242.381 516.369 242.235 510.746 242.127 508.086C241.873 501.725 241.389 463.269 240.809 445.686C240.229 463.269 239.745 501.725 239.492 508.086C239.383 510.746 239.238 516.369 239.056 524H161.164C157.042 469.558 157.211 429.348 157.695 420.508C158.819 399.781 172.188 400.071 175.258 379.538H306.336C309.418 400.071 322.775 399.781 323.899 420.508C324.383 429.348 324.552 469.558 320.43 524H242.538H242.562Z" fill="#0C0C0C"/>
<g style="mix-blend-mode:multiply">
<path d="M303.943 524C303.967 523.722 303.991 523.444 304.003 523.166C304.535 512.935 305.55 502.354 304.209 492.171C302.117 476.148 311.183 447.899 297.162 439.543C292.895 437.003 280.867 441.32 270.073 444.767C260.875 447.693 254.698 456.207 254.492 465.857C254.238 477.636 253.574 489.414 253.114 501.12C252.812 508.751 252.546 516.381 252.365 524.012H242.55C242.368 516.381 242.223 510.758 242.115 508.098C241.861 501.737 241.377 463.281 240.797 445.698C240.217 463.281 239.733 501.737 239.48 508.098C239.371 510.758 239.226 516.381 239.044 524.012H228.601C228.262 517.434 227.67 510.843 226.715 504.252C225.071 492.957 226.643 474.117 225.675 462.725C225.579 461.6 225.506 460.488 225.434 459.363C224.974 451.418 219.1 444.888 211.267 443.509C196.967 440.994 180.468 437.245 175.21 443.34C164.343 455.929 171.318 486.258 171.97 502.499C172.285 510.25 173.167 516.865 174.436 524.024H161.152C157.03 469.582 157.199 429.373 157.683 420.533C158.807 399.805 172.176 400.096 175.246 379.562H306.324C309.406 400.096 322.763 399.805 323.887 420.533C324.371 429.373 324.54 469.582 320.418 524.024H303.906L303.943 524Z" fill="black"/>
</g>
<path d="M166.217 232.282L239.649 241.811L313.081 232.282C323.428 266.976 353.248 347.83 323.682 422.879C323.682 422.879 292.58 438.696 239.649 437.922C191.782 439.724 155.616 422.879 155.616 422.879C126.05 347.83 155.87 266.976 166.217 232.282V232.282Z" fill="#CF3F36"/>
<path d="M142.888 328.433C142.888 327.888 142.936 327.332 143.033 326.764C143.516 323.608 144.616 320.524 145.293 317.404C145.982 314.175 146.55 310.934 147.058 307.681C149.101 294.85 150.491 281.488 156.764 269.879C156.655 270.084 158.976 273.023 159.218 273.398C160.016 274.643 160.765 275.925 161.454 277.231C162.844 279.831 164.041 282.54 165.068 285.309C167.135 290.872 168.525 296.652 169.541 302.493C170.737 309.314 171.765 316.037 171.825 322.918C171.861 326.57 171.922 330.21 172.079 333.85C172.381 341.118 173.058 348.386 174.533 355.509C177.168 368.194 182.595 380.626 191.963 389.563C195.07 392.525 198.587 395.065 202.346 397.133C207.592 400.035 213.926 402.78 219.946 403.252C227.452 403.844 234.79 404.57 242.344 404.292C249.464 404.026 256.559 403.203 263.546 401.825C267.039 401.136 270.508 400.301 273.929 399.346C275.646 398.862 277.35 398.342 279.042 397.798C283.104 396.48 286.597 393.795 289.873 391.086C296.726 385.403 302.226 378.159 306.01 370.105C308.584 364.627 310.373 358.786 311.268 352.8C311.485 351.3 311.655 349.801 311.763 348.289C311.86 346.911 311.643 345.254 312.054 343.924C316.151 330.694 315.474 316.364 320.321 303.291C322.751 296.749 325.628 290.4 327.828 283.918C337.075 323.281 342.841 374.289 323.694 422.891C323.694 422.891 292.592 438.708 239.661 437.934C191.782 439.736 155.628 422.891 155.628 422.891C155.289 422.734 154.891 420.98 154.745 420.593C154.431 419.759 154.129 418.924 153.827 418.09C153.222 416.421 152.654 414.752 152.11 413.071C151.047 409.818 150.092 406.529 149.221 403.216C147.505 396.649 146.151 389.986 145.16 383.274C143.141 369.633 142.561 355.811 143.117 342.037C143.238 339.002 143.54 335.967 143.226 332.931C143.069 331.408 142.875 329.944 142.912 328.457L142.888 328.433Z" fill="#B22B25"/>
<path d="M117.117 472C123.161 472.677 132.601 475.64 135.309 476.753C138.016 477.865 144.072 473.911 146.224 472.798C148.387 471.686 149.548 477.237 148.194 480.514C146.84 483.779 141.775 485.206 139.926 487.552C138.814 488.967 138.548 491.627 138.524 493.526H138.56V495.533C138.56 495.594 138.56 495.69 138.56 495.69V524.012H131.888V493.659C131.67 490.974 130.86 486.21 127.718 482.932C123.148 478.18 116.126 478.494 113.225 479.728C110.324 480.961 111 485.218 109.344 486.149C107.676 487.08 105.464 486.826 105.029 480.78C104.594 474.733 111.073 471.335 117.117 472.012V472Z" fill="#D07259"/>
<g style="mix-blend-mode:multiply">
<path d="M148.605 479.075C148.508 479.583 148.375 480.066 148.194 480.514C146.84 483.779 141.775 485.206 139.926 487.552C138.814 488.967 138.548 491.627 138.524 493.526H138.56V495.533C138.56 495.594 138.56 495.69 138.56 495.69V524.012H135.961V494.856C135.961 494.687 135.961 494.53 135.961 494.36C135.961 494.155 135.937 493.961 135.913 493.768C135.913 493.707 135.901 493.659 135.889 493.598C135.865 493.344 135.853 493.103 135.853 492.849C135.853 492.232 135.889 491.603 135.961 490.998C136.118 489.789 136.457 488.592 137.073 487.528C137.726 486.391 138.669 485.46 139.612 484.541C141.328 482.86 143.033 481.167 144.749 479.486C144.858 479.377 144.967 479.268 145.075 479.171C145.498 478.748 145.909 478.289 146.212 477.769C146.332 477.551 146.405 477.273 146.574 477.091C146.756 476.91 146.901 476.704 147.046 476.487C147.299 476.124 147.541 475.761 147.771 475.386C147.88 475.217 147.988 475.048 148.085 474.866C148.121 474.806 148.363 474.491 148.339 474.431C148.472 474.842 148.581 475.302 148.653 475.798C148.653 475.822 148.653 475.846 148.665 475.882C148.726 476.318 148.75 476.777 148.762 477.249C148.762 477.333 148.762 477.43 148.762 477.515C148.762 477.926 148.714 478.325 148.653 478.736C148.641 478.857 148.629 478.99 148.605 479.111V479.075Z" fill="#D7CDCC"/>
</g>
<g style="mix-blend-mode:multiply">
<path d="M109.538 482.557C109.248 482.836 108.861 483.017 108.462 483.017C108.281 483.017 108.111 482.969 107.93 482.969C107.725 482.969 107.555 482.86 107.422 482.715C107.29 482.557 107.217 482.352 107.157 482.158C107.012 481.663 106.927 481.155 106.915 480.635C106.891 479.849 107.024 479.063 107.302 478.337C107.435 477.986 107.592 477.599 107.821 477.285C107.87 477.224 107.918 477.188 107.966 477.128C108.148 476.934 108.281 476.68 108.45 476.463C109.03 475.737 109.755 475.132 110.565 474.673C110.722 474.588 110.88 474.504 111.037 474.431C111.822 474.056 112.656 473.814 113.503 473.681C114.325 473.548 115.171 473.524 116.005 473.584C116.428 473.609 116.839 473.657 117.25 473.73C117.419 473.754 117.564 473.778 117.733 473.754C117.806 473.754 117.878 473.742 117.951 473.742C118.434 473.766 118.942 473.851 119.425 473.923C121.154 474.189 122.858 474.576 124.539 475.036C126.231 475.495 127.911 476.027 129.591 476.559C129.966 476.68 130.353 476.777 130.727 476.922C130.812 476.946 130.885 476.983 130.957 477.031C131.066 477.091 131.15 477.188 131.247 477.261C131.574 477.491 131.997 477.624 132.371 477.757C133.193 478.047 134.051 478.252 134.922 478.361C135.272 478.41 135.623 478.434 135.973 478.458C136.481 478.482 136.989 478.47 137.496 478.41C137.617 478.397 137.738 478.373 137.859 478.373C137.992 478.373 138.113 478.397 138.246 478.373C138.693 478.289 139.14 478.095 139.563 477.962C140.458 477.684 141.34 477.406 142.235 477.116C142.682 476.971 143.129 476.837 143.589 476.886C144.048 476.934 144.519 477.237 144.604 477.696C144.725 478.264 144.229 478.772 143.782 479.135C143.178 479.631 142.537 480.091 141.884 480.514C140.639 481.324 139.31 482.025 138.149 482.969C136.856 484.021 135.804 485.351 135.079 486.85C134.873 487.286 134.547 487.818 134.064 487.733C133.894 487.709 133.737 487.588 133.616 487.479C133.024 486.947 132.625 486.222 132.287 485.52C131.936 484.807 131.453 484.093 130.993 483.44C130.8 483.162 130.582 482.896 130.365 482.642C130.123 482.364 129.869 482.086 129.603 481.832C129.458 481.699 129.313 481.517 129.132 481.433C128.987 481.36 128.854 481.3 128.721 481.203C127.367 480.236 125.88 479.462 124.345 478.857C123.257 478.434 122.145 478.083 121.009 477.793C119.123 477.321 117.141 477.007 115.231 477.37C113.321 477.732 111.46 478.833 110.614 480.586C110.36 481.118 110.191 481.699 109.864 482.183C109.78 482.316 109.671 482.449 109.55 482.557H109.538Z" fill="#D7CDCC"/>
</g>
<path d="M337.256 197.381C337.256 197.381 327.792 182.156 325.712 178.468C323.633 174.78 315.643 162.493 314.398 157.148C313.153 151.791 310.011 138.839 308.657 137.908C307.315 136.977 298.274 129.25 297.041 128.064C295.808 126.879 286.319 123.046 283.853 122.635C281.387 122.224 273.869 121.51 273.736 123.711C273.603 125.912 274.896 126.093 279.586 126.529C279.586 126.529 272.358 125.223 269.831 125.694C267.305 126.166 267.366 129.866 269.058 129.757C269.058 129.757 266.084 133.954 271.548 134.389C271.548 134.389 270.968 137.086 274.437 137.279C277.906 137.461 279.695 140.605 282.27 141.826C284.844 143.048 287.685 147.159 288.301 149.191C288.918 151.222 292.254 161.55 294.188 166.835C296.122 172.119 299.543 174.308 303.302 177.21C307.061 180.113 312.61 198.978 314.217 204.855C315.825 210.732 338.392 214.396 337.28 197.393L337.256 197.381Z" fill="#FCAD97"/>
<path d="M295.01 164.609C296.92 169.567 298.068 170.378 300.522 172.421C302.915 174.417 306.554 174.949 308.584 177.295C310.506 179.52 313.166 186.34 315.293 189.473C314.507 190.041 313.734 190.646 313.02 191.262C312.271 191.903 311.461 192.605 310.736 193.366C308.427 186.401 305.538 178.94 303.29 177.198C299.531 174.296 296.11 172.107 294.176 166.822C292.991 163.569 291.263 158.394 289.969 154.439C292.133 157.269 293.729 161.272 295.01 164.609Z" fill="#E77E68"/>
<path d="M278.015 122.187C278.232 122.889 278.414 124.037 277.35 124.158C275.827 124.34 274.147 123.88 274.05 123.07C274.667 122.405 276.226 122.224 278.027 122.187H278.015Z" fill="#FED7CC"/>
<path d="M269.819 125.694C270.339 125.598 271.101 125.585 271.923 125.61C271.971 125.682 272.019 125.755 272.044 125.851C272.14 126.746 271.802 127.557 270.726 127.69C269.517 127.835 268.623 127.871 267.97 127.424C268.2 126.625 268.78 125.888 269.819 125.682V125.694Z" fill="#FED7CC"/>
<path d="M272.334 129.443C272.382 129.516 272.43 129.588 272.454 129.685C272.672 130.386 272.454 131.475 271.379 131.596C270.17 131.741 269.034 131.704 268.381 131.257C268.381 131.233 268.381 131.221 268.381 131.196C268.611 130.398 269.046 129.757 269.046 129.757C268.985 129.757 270.194 129.25 272.334 129.443V129.443Z" fill="#FED7CC"/>
<path d="M274.848 134.329C275.065 135.03 273.832 135.792 272.019 135.731C271.886 135.731 271.79 135.756 271.681 135.768C271.391 135.066 271.536 134.389 271.536 134.389C271.524 134.389 271.512 134.389 271.5 134.389C271.62 134.329 272.757 133.917 274.727 134.099C274.775 134.171 274.824 134.244 274.848 134.341V134.329Z" fill="#FED7CC"/>
<path d="M299.712 134.437C299.712 134.437 293.475 129.963 292.169 128.838C290.864 127.714 279.562 126.529 279.562 126.529C279.562 126.529 289.389 128.379 291.045 129.346C292.701 130.302 297.935 133.651 299.7 134.45L299.712 134.437Z" fill="#E77E68"/>
<path d="M296.279 136.735C296.279 136.735 289.873 131.184 288.313 130.628C286.754 130.072 272.684 128.512 269.034 129.745C269.034 129.745 275.295 130.423 277.012 130.41C278.728 130.386 286.839 130.87 287.6 131.342C288.362 131.813 294.635 135.623 296.279 136.735V136.735Z" fill="#E77E68"/>
<path d="M294.103 141.838C294.103 141.838 288.362 137.183 287.685 136.276C287.008 135.369 278.788 132.853 276.806 132.72C274.824 132.587 271.862 133.7 271.524 134.377C271.524 134.377 276.395 133.035 278.353 133.615C280.311 134.196 285.811 135.199 287.117 136.53C288.422 137.86 292.121 141.427 294.103 141.826V141.838Z" fill="#E77E68"/>
<path d="M378.112 328.239C371.645 332.52 357.853 330.053 355.835 328.421C335.383 311.889 323.38 251.28 317.819 235.341C314.954 227.118 312.066 218.907 309.08 210.72C306.928 204.794 304.753 198.857 302.347 193.028L333.594 177.633C345.56 198.663 376.033 255.053 387.057 286.422C388.532 290.606 392.484 302.469 390.151 311.684C388.701 317.452 384.881 323.729 378.1 328.227L378.112 328.239Z" fill="#CF3F36"/>
<path d="M112.209 468.663C113.055 466.329 116.899 458.904 117.745 456.485C118.591 454.066 119.546 451.986 119.268 449.314C118.99 446.629 118.894 446.194 118.362 445.565C117.842 444.924 117.286 442.53 118.12 440.365C118.882 438.358 121.468 409.867 122.302 399.273L146.502 403.058C144.954 412.092 140.337 435.177 139.455 438.587C138.391 442.699 137.944 448.879 140.289 455.905C142.622 462.943 143.842 466.014 144.374 469.291C144.604 470.73 144.979 472.037 145.39 473.318C142.803 474.915 139.696 476.184 139.612 476.172C139.588 476.136 139.575 476.1 139.551 476.063C139.491 475.979 139.406 475.894 139.334 475.822C139.249 475.749 139.14 475.689 139.044 475.64C139.007 475.628 138.983 475.604 138.947 475.592C138.621 475.483 138.343 475.459 137.992 475.471C137.799 475.471 137.605 475.507 137.424 475.543C137.206 475.592 136.977 475.64 136.759 475.701C136.288 475.785 135.865 475.967 135.514 476.233C135.357 476.33 135.212 476.438 135.055 476.571C132.468 478.772 132.359 481.747 132.021 484.916C131.888 486.185 131.755 487.419 131.743 488.604C131.634 489.45 131.561 490.309 131.574 491.216C131.441 491.216 131.32 491.192 131.199 491.168C129.144 490.744 127.041 485.726 125.808 484.226C125.469 483.803 125.034 483.464 124.671 483.09C124.188 482.57 123.269 483.077 122.677 483.053C121.843 483.029 121.081 482.703 119.921 482.098C118.761 481.505 118.217 479.232 118.108 478.349C117.999 477.466 117.334 477.756 116.464 477.551C115.594 477.345 113.696 475.41 113.805 474.516C113.914 473.633 113.95 473.355 113.297 472.907C112.644 472.46 111.375 471.009 112.221 468.675L112.209 468.663Z" fill="#FCAD97"/>
<path d="M130.727 485.242C131.114 483.755 130.727 482.11 131.646 480.84C132.045 480.284 132.565 479.643 133.157 479.05C132.359 480.804 132.238 482.799 132.009 484.891C131.876 486.161 131.743 487.395 131.731 488.58C131.622 489.426 131.549 490.285 131.561 491.192C131.428 491.192 131.308 491.168 131.187 491.143C130.268 490.95 129.349 489.849 128.491 488.555C129.615 487.806 130.365 486.633 130.727 485.242V485.242Z" fill="#E77E68"/>
<path d="M130.304 487.31C130.631 488.241 131.138 489.305 131.586 490.188C131.561 490.527 131.549 490.853 131.549 491.192C131.416 491.192 131.295 491.18 131.175 491.155C129.7 490.853 128.189 488.156 127.004 486.113C127.887 487.116 129.108 487.564 130.304 487.31Z" fill="#E77E68"/>
<path d="M116.452 477.527C116.379 477.503 116.283 477.478 116.198 477.43C116.573 476.874 116.984 476.245 117.25 475.447C117.685 474.153 118.084 472.677 118.326 472.448C118.531 472.254 118.628 473.04 118.434 474.89C118.289 476.257 118.205 477.575 118.168 478.736C118.144 478.579 118.12 478.446 118.108 478.325C117.999 477.442 117.334 477.732 116.464 477.527H116.452Z" fill="#E77E68"/>
<path d="M125.699 479.957C125.747 481.445 125.808 482.956 125.941 484.408C125.892 484.347 125.844 484.275 125.796 484.214C125.457 483.791 125.022 483.452 124.659 483.065C124.466 482.848 124.188 482.811 123.886 482.848C123.983 482.376 123.934 480.707 123.983 480.272C124.297 477.696 124.115 475.108 124.393 474.346C124.672 473.584 125.554 475.797 125.699 479.957Z" fill="#E77E68"/>
<path d="M113.285 472.895C113.14 472.798 112.959 472.641 112.789 472.448C113.043 472.145 114.82 469.896 115.026 469.824C115.328 469.715 114.107 472.532 113.853 473.645C113.817 473.355 113.672 473.161 113.297 472.895H113.285Z" fill="#E77E68"/>
<path d="M176.128 212.062C186.79 236.103 152.34 389.26 150.019 405.985C148.823 414.607 147.65 419.372 146.562 428.006C145.776 434.258 145.003 440.534 144.483 446.823L109.659 446.266C109.103 433.46 111 349.063 117.346 317.041C126.521 270.749 128.419 266.408 132.843 251.401C135.84 241.23 141.788 233.563 148.605 226.936C157.103 218.677 176.116 212.062 176.116 212.062H176.128Z" fill="#CF3F36"/>
<path d="M78.3881 371.665C77.7958 367.384 76.865 361.725 77.1068 356.609C76.9859 356.633 76.8529 356.646 76.7321 356.67C68.029 357.806 40.4693 347.927 38.8616 345.024C38.6803 344.71 36.432 339.425 37.0606 339.244L2.24829 336.801C2.24829 336.801 1.16041 351.059 4.23066 358.677C4.72625 359.911 6.1405 363.418 8.99317 366.525C11.3503 369.077 17.938 372.185 21.3104 373.165C29.3366 375.486 39.0429 375.789 49.6438 375.281C60.305 374.773 70.9784 373.455 78.521 372.729C78.4727 372.366 78.4243 372.004 78.376 371.653L78.3881 371.665Z" fill="#FCAD97"/>
<path d="M19.7149 338.034C16.7655 338.881 14.1425 337.357 11.181 338.204C9.97228 338.555 7.65146 337.587 5.62074 337.043C4.33946 336.958 3.36036 336.886 2.80433 336.849C2.61093 336.91 2.41753 336.97 2.28456 337.103C2.26039 337.128 2.2483 337.152 2.22412 337.176C2.07907 339.341 1.42634 351.76 4.23067 358.689C4.52077 359.403 5.12515 360.878 6.12842 362.595C9.79096 357.661 15.9677 353.127 19.1951 351.421C24.8642 348.422 32.7695 346.463 39.4902 345.665C39.188 345.423 38.9704 345.206 38.8737 345.024C38.6924 344.71 36.4441 339.425 37.0727 339.244C35.1145 339.522 32.842 339.207 30.5212 338.784C27.4268 338.567 23.5829 338.301 19.727 338.022L19.7149 338.034Z" fill="#E77E68"/>
<path d="M0 338.554L40.3968 342.001C40.3968 342.001 46.3197 322.035 49.2449 294.016C52.1822 265.997 50.4295 241.811 44.3615 241.509C31.8146 240.88 13.9733 259.128 0 338.567V338.554Z" fill="#6C6FA2"/>
<path d="M43.2374 299.821C37.8463 316.569 35.3925 328.844 25.5411 340.743L40.3968 342.013C40.3968 342.013 46.3197 322.048 49.2449 294.028C49.668 290.038 50.78 285.454 50.7679 281.73C50.7679 276.409 49.4504 272.092 48.7976 267.533C47.8669 275.804 46.1142 290.836 43.2253 299.821H43.2374Z" fill="#464A83"/>
<path d="M121.577 378.522C123.729 374.712 116.343 371.06 115.727 370.347C115.11 369.633 112.028 367.058 111.182 366.683C110.336 366.308 109.514 364.603 109.514 364.603C109.973 364.131 111.049 364.264 112.282 364.603C112.33 363.853 112.415 363.103 112.451 362.341C112.523 360.951 112.608 359.294 112.608 359.294C110.215 358.472 106.383 356.9 104.534 356.367C102.056 355.642 96.2173 355.11 95.3833 355.255C94.5492 355.4 89.1823 356.67 87.2362 356.754C84.0209 356.9 75.4871 356.948 75.4871 356.948C70.1927 356.561 67.0137 369.283 70.4828 371.919C73.2509 374.023 87.3208 372.173 88.2153 372.947C89.1098 373.721 90.2581 377.216 91.1405 378.655C92.035 380.094 96.7733 384.351 97.692 384.967C98.6106 385.584 100.557 386.346 101.572 386.576C102.6 386.805 107.725 387.023 110.033 386.636C112.342 386.249 112.125 385.378 112.125 385.378C112.125 385.378 115.001 385.572 117.334 385.257C119.655 384.955 120.102 383.262 120.102 383.262C120.102 383.262 123.777 383.903 124.067 381.618C124.357 379.332 121.565 378.522 121.565 378.522H121.577Z" fill="#FCAD97"/>
<path d="M112.391 363.176C109.55 361.495 107.048 360.37 107.048 360.37C107.048 360.37 110.275 362.837 109.683 362.958C109.091 363.079 104.534 359.959 104.896 360.673C105.259 361.386 109.526 364.603 109.526 364.603C109.985 364.131 111.061 364.264 112.294 364.603C112.33 364.131 112.366 363.659 112.403 363.188L112.391 363.176Z" fill="#E77E68"/>
<path d="M98.0063 365.437C98.0063 365.437 99.8798 367.517 101.608 369.234C103.349 370.952 105.73 372.378 107.58 373.431C109.417 374.483 118.326 380.287 120.102 380.324C121.879 380.36 122.327 378.824 122.327 378.824L121.589 378.51C121.589 378.51 120.163 379.574 119.317 379.344C118.471 379.114 110.928 373.854 109.224 372.959C107.519 372.076 106.54 371.629 105.21 370.504C103.881 369.379 99.0942 365.437 98.0304 365.413L98.0063 365.437Z" fill="#E77E68"/>
<path d="M113.031 381.158C111.593 380.856 106.335 379.284 105.682 379.054C105.029 378.812 98.2359 373.745 96.7733 373.672C96.7733 373.672 104.123 379.199 105.537 379.61C106.951 380.021 118.483 383.141 119.957 383.649C120.078 383.431 120.127 383.274 120.127 383.274C120.127 383.274 120.199 383.286 120.332 383.298C120.308 383.298 114.47 381.472 113.043 381.158H113.031Z" fill="#E77E68"/>
<path d="M102.455 383.347C101.258 382.791 96.4228 378.268 94.5976 378.099C94.5976 378.099 100.871 383.456 102.068 383.976C103.083 384.423 109.647 385.27 112.1 385.644C112.161 385.487 112.137 385.378 112.137 385.378C112.137 385.378 112.342 385.391 112.669 385.403C112.644 385.403 103.639 383.915 102.442 383.347H102.455Z" fill="#E77E68"/>
<path d="M90.3065 366.804C90.246 366.695 90.1735 366.586 90.1131 366.477C89.5933 366.876 90.2339 368.122 90.3185 368.593C90.4152 369.101 90.6207 369.682 90.9954 370.045C91.7811 370.831 93.3404 370.855 94.4404 370.891C95.0931 370.903 95.7338 371.012 96.3623 371.121C96.4349 370.444 94.102 369.585 93.5338 369.416C92.4943 369.101 91.5877 369.222 91.0438 368.17C90.802 367.711 90.5724 367.251 90.3065 366.816V366.804Z" fill="#E77E68"/>
<path d="M94.0536 362.728C93.691 363.43 94.7063 364.808 95.0932 365.292C95.6854 366.042 96.4349 366.32 97.414 366.32C97.7041 366.32 98.4656 366.392 98.6953 366.187C99.1062 365.824 98.4535 365.062 98.1997 364.772C97.5711 364.022 97.0151 363.055 96.0481 362.632C95.6371 362.45 94.3921 362.208 94.0899 362.692C94.0899 362.704 94.0657 362.728 94.0657 362.74L94.0536 362.728Z" fill="#E77E68"/>
<path d="M93.4855 376.635C92.9053 376.164 90.7054 375.305 91.4064 374.156C92.035 373.14 93.4492 375.365 93.7152 375.813C93.7998 375.946 94.0778 376.357 94.0053 376.502C93.8965 376.732 93.5339 376.623 93.4855 376.635V376.635Z" fill="#E77E68"/>
<path d="M109.477 367.336C109.151 367.408 108.68 368.098 108.51 368.327C107.93 369.125 107.531 370.081 107.41 371.036C108.244 370.722 108.837 369.839 109.199 369.077C109.332 368.799 110.227 367.336 109.538 367.324C109.514 367.324 109.502 367.324 109.477 367.324V367.336Z" fill="#E77E68"/>
<path d="M106.347 374.035C106.25 374.156 106.165 374.277 106.117 374.35C105.742 374.858 105.368 375.462 105.138 376.043C105.005 376.369 104.558 377.325 104.751 377.663C105.078 378.268 105.924 376.78 106.105 376.514C106.468 375.994 107.036 375.305 107.144 374.7C107.193 374.41 107.217 373.685 106.806 373.709C106.661 373.709 106.504 373.866 106.371 374.035H106.347Z" fill="#E77E68"/>
<path d="M103.385 380.638C103.083 381.206 102.902 381.787 102.72 382.416C102.479 383.226 102.998 382.972 103.422 382.488C103.893 381.944 104.328 381.182 104.57 380.517C104.667 380.263 104.824 379.61 104.364 379.55C104.062 379.513 103.76 380.033 103.627 380.239C103.542 380.372 103.47 380.505 103.397 380.638H103.385Z" fill="#E77E68"/>
<path d="M99.2392 382.924C98.9612 383.262 98.8524 383.746 98.7073 384.121C98.6832 384.193 98.3084 385.306 98.381 385.27C99.1788 384.967 99.9403 383.988 100.17 383.214C100.303 382.742 100.194 382.319 99.6139 382.609C99.4689 382.682 99.348 382.791 99.2392 382.924V382.924Z" fill="#E77E68"/>
<path d="M118.616 375.91C117.902 376.115 117.081 377.143 117.431 377.844C117.673 378.352 118.797 378.897 119.341 379.03C120.09 379.211 120.779 378.582 121.106 377.965C121.347 377.494 121.456 376.962 121.299 376.587C121.202 376.369 119.861 375.535 118.604 375.898L118.616 375.91Z" fill="#FCE0D1"/>
<path d="M122.629 380.07C121.879 379.864 121.142 380.009 120.55 380.517C119.982 381.013 119.703 381.763 120.272 382.319C121.311 383.359 123.148 382.887 123.584 381.521C123.825 380.759 123.402 380.082 122.617 380.057L122.629 380.07Z" fill="#FCE0D1"/>
<path d="M116.621 382.73C116.259 383.008 115.715 383.951 115.92 384.399C116.162 384.919 117.165 384.979 117.697 384.931C118.253 384.883 119.015 384.641 119.353 384.169C119.885 383.395 119.256 383.323 118.628 383.129C117.963 382.924 117.286 382.851 116.621 382.742V382.73Z" fill="#FCE0D1"/>
<path d="M108.909 385.318C108.668 385.487 108.498 386.056 108.655 386.31C108.776 386.503 109.272 386.588 109.514 386.588C110.178 386.588 111.061 386.189 111.46 385.669C111.291 385.209 109.211 384.979 108.909 385.318Z" fill="#FCE0D1"/>
<path d="M467.391 210.369L461.444 217.782L467.899 225.522L457.419 302.324L466.896 320.427L480.663 304.041L474.837 225.957L481.377 218.411L476.517 211.143L467.391 210.369Z" fill="#0C0C0C"/>
<path d="M443.999 296.73L372.481 341.648L433.466 438.834L504.984 393.916L443.999 296.73Z" fill="#0C0C0C"/>
<g style="mix-blend-mode:multiply">
<path d="M445.682 346.487C434.851 365.34 425.024 384.737 415.1 404.062L432.434 431.694L501.478 388.329L459.812 321.939C459.063 323.317 458.313 324.696 457.564 326.075C453.793 332.992 449.598 339.655 445.682 346.487V346.487Z" fill="black"/>
</g>
<path d="M520.504 330.501C520.504 330.501 504.947 336.861 501.406 337.865C499.278 338.458 492.969 339.099 492.014 339.256C491.059 339.413 484.942 342.013 482.537 343.609C481.111 344.553 478.524 346.62 476.396 348.265C476.578 348.519 479.334 353.078 479.636 353.526C479.89 353.501 480.107 353.526 480.301 353.598C480.301 353.598 480.059 355.606 479.285 356.271C478.512 356.948 476.167 360.612 475.78 361.543C475.381 362.474 468.781 368.739 472.577 371.786C472.577 371.786 469.857 373.588 471.054 375.777C472.25 377.953 475.986 376.018 475.986 376.018C475.986 376.018 477.122 377.554 479.757 377.034C482.392 376.514 485.438 375.305 485.438 375.305C485.438 375.305 485.535 376.248 488.182 375.813C490.829 375.378 496.305 373.346 497.32 372.753C498.335 372.161 500.149 370.71 500.91 369.766C501.672 368.823 505.177 362.886 505.588 361.132C505.999 359.379 505.89 355.485 506.567 354.396C507.208 353.368 528.301 346.282 543.676 333.754C549.539 327.018 555.461 316.352 520.516 330.525L520.504 330.501Z" fill="#FCAD97"/>
<path d="M479.974 351.978C479.708 352.207 479.418 352.437 479.128 352.667C479.285 352.957 479.455 353.247 479.648 353.525C479.902 353.501 480.119 353.525 480.313 353.598C480.313 353.598 483.697 348.87 483.818 348.023C483.867 347.648 482.404 349.91 479.987 351.978H479.974Z" fill="#E77E68"/>
<path d="M493.089 350.357C493.089 350.357 491.857 353.09 490.648 355.424C489.427 357.758 487.384 360.032 485.801 361.725C484.205 363.418 476.795 372.391 474.886 373.056C472.976 373.721 471.912 372.354 471.912 372.354L472.601 371.786C472.601 371.786 474.559 372.342 475.393 371.822C476.215 371.29 482.368 363.357 483.879 361.87C485.39 360.382 486.284 359.584 487.287 358C488.291 356.404 491.965 350.768 493.114 350.369L493.089 350.357Z" fill="#E77E68"/>
<path d="M482.851 371.387C484.29 370.577 489.391 367.142 490.007 366.683C490.624 366.211 496.027 358.738 497.586 358.145C497.586 358.145 491.748 366.272 490.37 367.178C488.992 368.085 477.702 375.293 476.312 376.333C476.094 376.151 475.986 376.018 475.986 376.018C475.986 376.018 475.901 376.055 475.78 376.115C475.804 376.091 481.425 372.209 482.863 371.399L482.851 371.387Z" fill="#E77E68"/>
<path d="M495.156 369.827C496.232 368.847 499.738 362.607 501.647 361.797C501.647 361.797 496.909 369.367 495.809 370.323C494.878 371.121 488.109 374.301 485.583 375.547C485.45 375.414 485.438 375.293 485.438 375.293C485.438 375.293 485.22 375.378 484.87 375.511C484.894 375.511 494.081 370.818 495.156 369.839V369.827Z" fill="#E77E68"/>
<path d="M501.962 348.991C501.986 348.858 502.022 348.725 502.046 348.592C502.76 348.809 502.542 350.285 502.639 350.781C502.735 351.325 502.723 351.978 502.469 352.474C501.926 353.538 500.245 354.118 499.061 354.529C498.36 354.783 497.707 355.098 497.066 355.436C496.728 354.783 498.928 353.102 499.484 352.727C500.487 352.038 501.515 351.845 501.696 350.599C501.78 350.055 501.865 349.523 501.962 348.979V348.991Z" fill="#E77E68"/>
<path d="M496.329 346.246C496.982 346.826 496.414 348.555 496.196 349.184C495.845 350.152 495.132 350.684 494.081 351.034C493.766 351.131 492.969 351.47 492.642 351.349C492.062 351.131 492.473 350.14 492.63 349.753C493.029 348.773 493.259 347.612 494.141 346.85C494.516 346.524 495.773 345.834 496.293 346.209C496.305 346.221 496.329 346.234 496.341 346.246H496.329Z" fill="#E77E68"/>
<path d="M502.288 359.947C502.735 359.27 504.79 357.625 503.582 356.73C502.518 355.932 501.841 358.665 501.72 359.197C501.684 359.366 501.539 359.862 501.672 359.995C501.877 360.189 502.228 359.947 502.288 359.947V359.947Z" fill="#E77E68"/>
<path d="M481.401 356.319C481.788 356.283 482.561 356.803 482.827 356.96C483.77 357.552 484.568 358.363 485.063 359.27C484.036 359.245 483.057 358.58 482.38 357.952C482.126 357.722 480.603 356.573 481.34 356.319C481.364 356.319 481.389 356.319 481.413 356.307L481.401 356.319Z" fill="#E77E68"/>
<path d="M487.348 361.894C487.493 361.979 487.626 362.075 487.723 362.124C488.327 362.499 488.968 362.97 489.439 363.466C489.705 363.756 490.551 364.542 490.479 364.953C490.358 365.667 488.871 364.482 488.581 364.288C487.989 363.901 487.118 363.418 486.756 362.837C486.586 362.571 486.284 361.846 486.756 361.725C486.925 361.676 487.154 361.773 487.36 361.894H487.348Z" fill="#E77E68"/>
<path d="M493.102 367.457C493.646 367.916 494.069 368.436 494.504 369.005C495.072 369.73 494.419 369.658 493.778 369.319C493.053 368.944 492.292 368.339 491.784 367.747C491.591 367.517 491.155 366.925 491.639 366.707C491.953 366.562 492.473 366.973 492.703 367.142C492.848 367.239 492.981 367.348 493.114 367.457H493.102Z" fill="#E77E68"/>
<path d="M498.468 368.267C498.891 368.509 499.206 368.944 499.508 369.271C499.568 369.331 500.402 370.311 500.306 370.311C499.327 370.286 498.118 369.585 497.586 368.884C497.26 368.46 497.211 368.001 497.949 368.085C498.142 368.11 498.311 368.17 498.468 368.267V368.267Z" fill="#E77E68"/>
<path d="M474.789 368.134C475.635 368.085 476.916 368.823 476.82 369.645C476.747 370.238 475.744 371.181 475.2 371.508C474.462 371.955 473.471 371.568 472.879 371.072C472.432 370.698 472.117 370.202 472.13 369.766C472.142 369.512 473.29 368.206 474.777 368.122L474.789 368.134Z" fill="#F1C7BF"/>
<path d="M472.045 373.697C472.77 373.225 473.628 373.104 474.462 373.406C475.26 373.697 475.853 374.35 475.454 375.112C474.728 376.514 472.553 376.708 471.561 375.498C471.005 374.821 471.211 373.987 472.045 373.697V373.697Z" fill="#F1C7BF"/>
<path d="M479.563 374.229C480.059 374.374 481.014 375.136 480.966 375.644C480.893 376.248 479.841 376.659 479.249 376.804C478.633 376.962 477.702 376.986 477.17 376.623C476.288 376.031 476.953 375.74 477.557 375.329C478.198 374.894 478.911 374.579 479.576 374.229H479.563Z" fill="#F1C7BF"/>
<path d="M488.919 374.084C489.246 374.168 489.644 374.676 489.572 374.978C489.512 375.208 489.016 375.474 488.75 375.559C488.037 375.801 486.913 375.716 486.284 375.329C486.284 374.809 488.46 373.842 488.907 374.084H488.919Z" fill="#F1C7BF"/>
<path d="M594.649 299.119C589.476 280.061 584.822 275.079 572.795 253.311C544.425 201.989 529.667 206.209 524.856 206.221C518.546 206.245 516.141 223.103 522.088 244.725C525.871 258.499 534.574 274.486 543.326 285.563C546.952 290.158 551.908 298.624 547.218 302.312C532.737 313.703 503.255 335.483 502.191 335.967L513.119 353.876C518.594 351.482 573.073 332.568 585.463 321.153C590.383 316.618 593.537 312.397 594.504 308.286C595.326 304.791 594.94 300.196 594.637 299.107L594.649 299.119Z" fill="#BACDC9"/>
<path d="M545.235 310.426C546.057 310.063 547.085 309.773 547.81 310.269C548.124 310.475 548.318 310.801 548.511 311.116C550.131 313.8 551.763 316.485 553.382 319.157C552.403 316.001 551.412 312.845 550.433 309.701C550.155 308.794 549.877 307.778 550.385 306.956C550.735 306.387 551.4 306.037 552.077 305.819C555.413 304.791 558.906 306.532 562.291 307.403C565.627 308.25 569.205 308.237 572.529 307.355C568.117 306.29 563.693 305.214 559.281 304.15C557.746 303.775 556.042 303.279 555.316 301.985C555.038 301.477 554.966 300.8 555.377 300.377C555.619 300.123 555.981 300.002 556.32 299.893C560.417 298.527 564.116 296.169 566.969 293.133C564.37 294.318 561.59 295.177 558.737 295.661C556.743 295.999 554.398 296.072 552.996 294.705C552.27 293.992 551.944 293.012 551.642 292.081C550.917 289.88 550.143 287.692 549.176 285.575C548.281 283.628 547.23 281.754 545.912 280.025C545.272 279.19 544.583 278.271 543.749 277.582C542.081 276.215 540.473 274.74 538.805 273.349C536.339 271.281 533.837 269.274 531.371 267.218C534.985 273.942 539.131 280.315 543.289 285.587C546.916 290.183 551.871 298.648 547.181 302.336C532.701 313.728 503.219 335.507 502.155 335.991L505.576 341.59C510.012 338.688 538.986 313.171 545.199 310.45L545.235 310.426Z" fill="#7FA2A4"/>
<path d="M359.812 0C324.637 0 296.11 22.638 296.11 50.5486C296.11 62.8108 301.622 74.0573 310.772 82.8126L286.597 115.137L332.941 96.3809C341.1 99.4041 350.202 101.097 359.799 101.097C394.974 101.097 423.501 78.4591 423.501 50.5486C423.501 22.638 394.987 0 359.812 0Z" fill="white"/>
<path d="M382.5 50.3551C376.009 49.5932 378.414 41.2975 378.414 41.2975L366.979 40.0398L366.411 53.076C363.909 51.2742 361.758 51.2379 360.114 51.3709C356.693 51.6611 355.315 54.4788 354.904 56.3169C354.868 56.4983 354.783 57.0425 354.723 57.5867C354.674 58.1188 354.65 58.675 354.662 58.8564C354.711 60.7429 355.533 63.7662 358.832 64.7094C360.416 65.1569 362.543 65.5318 365.336 64.2499L363.402 77.1531L374.861 78.1084C374.861 78.1084 374.075 69.5103 380.602 70.0061C387.13 70.502 385.969 77.2982 383.95 79.0154L395.688 80.0312L396.981 67.9262C396.981 67.9262 389.293 67.7931 389.511 61.2992V61.275C389.535 61.1662 389.559 61.0815 389.583 60.9727C389.583 60.8639 389.571 60.7792 389.571 60.6704V60.6462C390.599 54.2369 398.165 55.5672 398.165 55.5672L399.217 43.4379L387.492 42.1923C389.148 44.2602 388.979 51.1532 382.488 50.3914L382.5 50.3551Z" fill="#CF3F36"/>
<path d="M331.986 60.7187L341.801 68.4582L350.71 57.1755C348.038 56.8611 346.672 55.8574 345.572 54.6239C343.276 52.0602 343.916 49.7262 344.92 48.0211C345.016 47.8518 345.306 47.3439 345.681 46.9207C347.869 44.4658 350.927 43.6193 353.236 45.2518C354.59 46.1951 355.883 47.1867 356.669 49.7504L365.348 37.3914L358.832 31.9254C358.832 31.9254 369.312 25.625 361.286 19.3003C353.26 12.9757 349.042 21.9366 349.585 24.4278L339.891 16.4464L330.62 27.8259C330.62 27.8259 325.241 17.1357 317.481 25.1292C311.618 31.1756 319.487 38.3347 323.283 37.1496L314.519 46.8723L324.31 54.5392C324.31 54.5392 329.012 45.929 334.609 50.2462C340.206 54.5634 334.899 60.3197 331.974 60.7429L331.986 60.7187Z" fill="#6C6FA2"/>
</g>
<defs>
<clipPath id="clip0_2002_421">
<rect width="595" height="524" fill="white"/>
</clipPath>
</defs>
</svg>
