<svg width="482" height="436" viewBox="0 0 482 436" fill="none" xmlns="http://www.w3.org/2000/svg">
<g clip-path="url(#clip0_2002_1489)">
<path d="M455.69 84.18C454.11 81.49 452.44 78.86 450.7 76.28C427.52 41.93 387.63 18.44 348.39 7.82001C331.2 3.16001 313.46 0.730007 295.68 0.120007C179.06 -3.82999 132.61 88.08 94.07 111.8C55.53 135.52 -3.76999 176.03 0.190013 261.02C4.15001 346.01 65.41 426.06 184.01 431C302.6 435.94 310.51 382.58 376.72 362.81C420.54 349.73 451.67 305.55 466.92 264.72C487.7 209.08 486.72 136.8 455.7 84.17L455.69 84.18Z" fill="#B87D57"/>
<path opacity="0.7" d="M455.69 84.18C454.11 81.49 452.44 78.86 450.7 76.28C427.52 41.93 387.63 18.44 348.39 7.82001C331.2 3.16001 313.46 0.730007 295.68 0.120007C179.06 -3.82999 132.61 88.08 94.07 111.8C55.53 135.52 -3.76999 176.03 0.190013 261.02C4.15001 346.01 65.41 426.06 184.01 431C302.6 435.94 310.51 382.58 376.72 362.81C420.54 349.73 451.67 305.55 466.92 264.72C487.7 209.08 486.72 136.8 455.7 84.17L455.69 84.18Z" fill="white"/>
<path d="M481.17 77.83H363.2L367.99 69.63H481.17" stroke="#263238" stroke-linecap="round" stroke-linejoin="round"/>
<path d="M481.17 86.02H363.2L367.99 77.83H481.17" stroke="#263238" stroke-linecap="round" stroke-linejoin="round"/>
<path d="M481.17 94.21H363.2L367.99 86.02H481.17" stroke="#263238" stroke-linecap="round" stroke-linejoin="round"/>
<path d="M481.17 102.41H363.2L367.99 94.21H481.17" stroke="#263238" stroke-linecap="round" stroke-linejoin="round"/>
<path d="M481.17 110.6H363.2L367.99 102.41H481.17" stroke="#263238" stroke-linecap="round" stroke-linejoin="round"/>
<path d="M481.17 118.79H363.2L367.99 110.6H481.17" stroke="#263238" stroke-linecap="round" stroke-linejoin="round"/>
<path d="M481.17 126.99H363.2L367.99 118.79H481.17" stroke="#263238" stroke-linecap="round" stroke-linejoin="round"/>
<path d="M481.17 135.18H363.2L367.99 126.99H481.17" stroke="#263238" stroke-linecap="round" stroke-linejoin="round"/>
<path d="M481.17 143.37H363.2L367.99 135.18H481.17" stroke="#263238" stroke-linecap="round" stroke-linejoin="round"/>
<path d="M481.17 151.57H363.2L367.99 143.37H481.17" stroke="#263238" stroke-linecap="round" stroke-linejoin="round"/>
<path d="M481.17 159.76H363.2L367.99 151.57H481.17" stroke="#263238" stroke-linecap="round" stroke-linejoin="round"/>
<path d="M481.17 167.95H363.2L367.99 159.76H481.17" stroke="#263238" stroke-linecap="round" stroke-linejoin="round"/>
<path d="M481.17 176.15H363.2L367.99 167.95H481.17" stroke="#263238" stroke-linecap="round" stroke-linejoin="round"/>
<path d="M481.17 184.34H363.2L367.99 176.15H481.17" stroke="#263238" stroke-linecap="round" stroke-linejoin="round"/>
<path d="M481.17 192.53H363.2L367.99 184.34H481.17" stroke="#263238" stroke-linecap="round" stroke-linejoin="round"/>
<path d="M481.17 200.73H363.2L367.99 192.53H481.17" stroke="#263238" stroke-linecap="round" stroke-linejoin="round"/>
<path d="M481.17 208.92H363.2L367.99 200.73H481.17" stroke="#263238" stroke-linecap="round" stroke-linejoin="round"/>
<path d="M481.17 217.11H363.2L367.99 208.92H481.17" stroke="#263238" stroke-linecap="round" stroke-linejoin="round"/>
<path d="M481.17 225.31H363.2L367.99 217.11H481.17" stroke="#263238" stroke-linecap="round" stroke-linejoin="round"/>
<path d="M481.17 233.5H363.2L367.99 225.31H481.17" stroke="#263238" stroke-linecap="round" stroke-linejoin="round"/>
<path d="M481.17 241.69H363.2L367.99 233.5H481.17" stroke="#263238" stroke-linecap="round" stroke-linejoin="round"/>
<path d="M481.17 249.89H363.2L367.99 241.69H481.17" stroke="#263238" stroke-linecap="round" stroke-linejoin="round"/>
<path d="M481.17 258.08H363.2L367.99 249.89H481.17" stroke="#263238" stroke-linecap="round" stroke-linejoin="round"/>
<path d="M481.17 266.27H363.2L367.99 258.08H481.17" stroke="#263238" stroke-linecap="round" stroke-linejoin="round"/>
<path d="M481.17 274.47H363.2L367.99 266.27H481.17" stroke="#263238" stroke-linecap="round" stroke-linejoin="round"/>
<path d="M481.17 282.66H363.2L367.99 274.47H481.17" stroke="#263238" stroke-linecap="round" stroke-linejoin="round"/>
<path d="M481.17 290.85H363.2L367.99 282.66H481.17" stroke="#263238" stroke-linecap="round" stroke-linejoin="round"/>
<path d="M481.17 299.05H363.2L367.99 290.85H481.17" stroke="#263238" stroke-linecap="round" stroke-linejoin="round"/>
<path d="M481.17 55.48H356.03V69.63H481.17" stroke="#263238" stroke-linecap="round" stroke-linejoin="round"/>
<path d="M69.7 192.89C69.7 192.89 69.7 192.81 69.66 192.79C69.62 192.77 69.58 192.79 69.56 192.83C67.32 198 65.74 203.44 64.43 208.92C63.16 214.41 62.24 219.99 61.6 225.6L61.2 229.81C61.14 230.51 61.06 231.22 61.01 231.92L60.89 234.03C60.83 235.44 60.74 236.85 60.7 238.26L60.74 242.5L60.79 244.62C60.82 245.33 60.87 246.03 60.92 246.73C61.03 248.14 61.11 249.55 61.24 250.95C61.51 253.76 61.93 256.55 62.37 259.33C62.37 259.37 62.41 259.39 62.44 259.39C62.48 259.39 62.51 259.36 62.51 259.32C62.51 257.9 62.44 256.5 62.41 255.09C62.37 253.69 62.25 252.29 62.27 250.88C62.27 249.48 62.24 248.08 62.22 246.68L62.18 244.58L62.22 242.48L62.24 238.28L62.35 234.08L62.39 231.98C62.42 231.28 62.47 230.58 62.51 229.88L62.77 225.69C63.26 220.11 64.03 214.55 65.14 209.06C66.25 203.57 67.63 198.1 69.68 192.88L69.7 192.89Z" fill="#263238"/>
<path d="M70.3 214.84C70.3 214.84 70.3 214.76 70.25 214.75C70.21 214.74 70.17 214.75 70.16 214.8C68.95 218.29 67.99 221.85 67.17 225.46C66.39 229.07 65.78 232.73 65.41 236.42C65.04 240.09 64.63 243.77 64.58 247.46C64.52 251.15 64.58 254.85 64.97 258.54C64.97 258.57 65 258.6 65.04 258.61C65.08 258.61 65.12 258.58 65.12 258.54C65.55 254.86 65.81 251.19 66.06 247.53C66.32 243.87 66.36 240.19 66.59 236.52C66.81 232.86 67.27 229.22 67.9 225.61C68.52 221.99 69.29 218.39 70.3 214.85V214.84Z" fill="#263238"/>
<path d="M82.47 222.56C82.47 222.56 82.4 222.52 82.37 222.54C79.32 224.47 76.61 226.9 74.23 229.63C73.06 231.02 71.98 232.47 71.05 234.05L70.4 235.28L69.89 236.56C69.71 236.98 69.58 237.42 69.44 237.86C69.31 238.3 69.16 238.73 69.04 239.17C68.13 242.7 67.52 246.29 67.36 249.9C67.21 253.51 67.28 257.13 67.76 260.71C67.76 260.74 67.79 260.77 67.83 260.77C67.87 260.77 67.91 260.74 67.91 260.7L68.84 250C69.21 246.46 69.44 242.9 70.2 239.45C70.3 239.02 70.42 238.6 70.53 238.17C70.64 237.74 70.75 237.32 70.91 236.91L71.34 235.67L71.9 234.5C72.72 232.95 73.73 231.48 74.82 230.07C76.99 227.27 79.55 224.71 82.46 222.63C82.46 222.63 82.5 222.56 82.48 222.53L82.47 222.56Z" fill="#263238"/>
<path d="M76.58 236.31C74.92 237.38 73.81 239.06 72.88 240.76C71.99 242.49 71.29 244.33 70.81 246.21C70.66 246.68 70.55 247.15 70.45 247.62L70.11 249.04C69.94 250 69.8 250.96 69.75 251.93C69.74 252.9 69.71 253.87 69.78 254.84C69.86 255.81 69.97 256.77 70.16 257.73C70.16 257.76 70.19 257.78 70.22 257.79C70.26 257.79 70.3 257.77 70.31 257.73C70.54 256.78 70.7 255.83 70.82 254.89C70.97 253.95 71.12 253.01 71.23 252.08C71.37 251.15 71.49 250.22 71.56 249.28C71.69 248.35 71.76 247.4 71.96 246.49C72.29 244.64 72.82 242.82 73.55 241.09C74.27 239.37 75.21 237.66 76.66 236.45H76.67C76.67 236.45 76.7 236.38 76.68 236.34C76.66 236.31 76.61 236.3 76.58 236.32V236.31Z" fill="#263238"/>
<path d="M59.51 247.03C59.11 242.28 58.33 237.58 57.59 232.88C56.85 228.18 56.03 223.49 55.17 218.81C54.28 214.14 53.35 209.47 52.34 204.83C52.34 204.79 52.29 204.77 52.25 204.77C52.21 204.77 52.18 204.82 52.19 204.86C53 209.54 53.74 214.24 54.43 218.94C55.14 223.64 55.81 228.34 56.41 233.05C56.99 237.76 57.44 242.49 58.03 247.19L59.77 261.33C59.77 261.33 59.8 261.39 59.84 261.4C59.88 261.4 59.92 261.37 59.92 261.33C59.97 260.14 59.98 258.95 60.01 257.75C60.02 256.56 59.96 255.37 59.94 254.17C59.9 251.78 59.69 249.41 59.51 247.03V247.03Z" fill="#263238"/>
<path d="M56.66 246.96C56.41 245.08 56.06 243.21 55.7 241.34L55.03 238.57C54.81 237.65 54.6 236.72 54.33 235.81C53.38 232.13 52.17 228.51 50.7 225.01L50.13 223.7L49.5 222.42C49.1 221.56 48.61 220.74 48.15 219.91C47.16 218.29 46.13 216.68 44.72 215.36C44.69 215.33 44.65 215.33 44.62 215.36C44.59 215.39 44.59 215.44 44.62 215.46C45.92 216.81 46.86 218.47 47.76 220.12C48.17 220.96 48.61 221.79 48.96 222.67L49.52 223.96L50.01 225.28C51.33 228.8 52.38 232.41 53.18 236.09C53.61 237.92 53.9 239.78 54.25 241.62L54.69 244.4C54.85 245.33 55.05 246.24 55.18 247.18C55.48 249.04 55.82 250.89 56.14 252.75C56.43 254.61 56.77 256.47 57.16 258.34C57.16 258.37 57.2 258.4 57.23 258.4C57.27 258.4 57.3 258.37 57.3 258.33C57.3 256.43 57.26 254.53 57.17 252.64C57.06 250.75 56.84 248.86 56.64 246.97L56.66 246.96Z" fill="#263238"/>
<path d="M52.73 247.2C51.85 244.71 50.83 242.27 49.72 239.88C48.58 237.5 47.35 235.17 45.94 232.94C45.92 232.91 45.87 232.9 45.84 232.92C45.8 232.94 45.79 232.99 45.81 233.02C47.05 235.33 48.09 237.74 49.04 240.17C50 242.6 50.87 245.06 51.6 247.57C52.34 250.07 52.87 252.62 53.54 255.14C54.24 257.65 54.81 260.19 55.58 262.73C55.58 262.76 55.62 262.78 55.65 262.79C55.69 262.79 55.73 262.76 55.73 262.72C55.77 260.07 55.51 257.41 54.99 254.82C54.52 252.21 53.61 249.71 52.73 247.21V247.2Z" fill="#263238"/>
<path d="M52.57 255.5C52.12 253.94 51.35 252.49 50.48 251.11C49.62 249.73 48.63 248.43 47.44 247.33C46.83 246.8 46.2 246.29 45.5 245.87C44.82 245.44 44.09 245.08 43.3 244.88C43.27 244.88 43.23 244.88 43.21 244.92C43.19 244.96 43.21 245 43.25 245.02C44.67 245.66 45.88 246.71 46.89 247.85C47.92 249 48.74 250.32 49.43 251.69C50.15 253.05 50.52 254.56 51.15 255.97C51.43 256.69 51.7 257.42 52.02 258.14C52.29 258.87 52.59 259.61 52.97 260.33C52.97 260.33 53.01 260.37 53.03 260.37C53.07 260.37 53.11 260.34 53.11 260.3C53.14 259.49 53.1 258.68 53.02 257.87C52.9 257.07 52.73 256.28 52.54 255.49L52.57 255.5Z" fill="#263238"/>
<path d="M52.86 211.62C52.86 211.62 45.08 209.82 43.28 201.44C41.48 193.06 47.27 196.65 42.08 183.48C36.89 170.31 38.09 167.31 39.88 163.52C41.68 159.73 42.67 160.93 44.27 165.92C45.87 170.91 51.66 178.69 53.85 193.26C56.05 207.83 52.85 211.62 52.85 211.62H52.86Z" fill="#B87D57"/>
<path d="M68.23 197.45C68.23 197.45 63.04 195.65 62.84 185.87C62.64 176.09 66.63 178.09 67.23 165.91C67.83 153.73 68.63 145.15 70.82 144.95C73.02 144.75 78.8 150.94 80.8 164.51C82.8 178.08 78.21 187.06 74.21 191.06C70.22 195.05 68.22 197.45 68.22 197.45H68.23Z" fill="#B87D57"/>
<path d="M50.07 223.4C50.07 223.4 48.87 216.21 46.48 212.82C44.08 209.43 38.9 206.43 35.5 199.85C32.11 193.26 28.31 190.07 28.51 199.45C28.71 208.83 32.9 213.62 38.09 216.81C43.28 220 50.07 223.4 50.07 223.4V223.4Z" fill="#B87D57"/>
<path d="M47.87 235.77C47.87 235.77 43.08 226.59 36.09 219.8C29.1 213.01 23.52 209.62 25.51 213.01C27.51 216.4 29.9 216.2 33.29 222.19C36.68 228.18 35.69 232.57 40.48 235.96C45.27 239.35 47.86 235.76 47.86 235.76L47.87 235.77Z" fill="#B87D57"/>
<path d="M47.27 247.55C47.07 246.95 46.87 242.56 40.08 238.97C33.29 235.38 26.91 236.77 27.71 238.57C28.51 240.37 32.7 243.36 36.89 245.16C41.08 246.96 47.27 247.56 47.27 247.56V247.55Z" fill="#B87D57"/>
<path d="M67.83 223.8C67.83 223.8 64.84 220.01 66.43 212.02C68.03 204.04 71.62 206.03 75.61 201.84C79.6 197.65 78.8 197.05 82.8 192.66C86.79 188.27 90.38 185.87 91.98 187.67C93.58 189.47 91.18 195.06 88.79 198.25C86.39 201.44 82.6 203.04 80.81 207.03C79.01 211.02 79.81 217.41 75.22 220.4C70.63 223.39 67.84 223.79 67.84 223.79L67.83 223.8Z" fill="#B87D57"/>
<path d="M77.81 225.99C77.81 225.99 85 217.81 90.18 211.82C95.37 205.83 97.37 201.24 97.57 205.23C97.77 209.22 99.37 212.42 95.17 217.6C90.98 222.79 77.81 225.98 77.81 225.98V225.99Z" fill="#B87D57"/>
<path d="M74.02 239.17C74.02 239.17 73.82 235.98 85.2 228.59C96.58 221.2 101.37 219.81 100.17 222.8C98.97 225.79 93.98 228.79 88.59 234.18C83.2 239.57 74.02 239.17 74.02 239.17V239.17Z" fill="#B87D57"/>
<path d="M53.34 210.77C53.34 210.77 50.67 196.45 47.88 186.27C45.09 176.09 43.29 169.9 43.29 169.9" stroke="#263238" stroke-linecap="round" stroke-linejoin="round"/>
<path d="M67.77 197.6C67.77 197.6 72.62 182.08 74.22 172.7C75.82 163.32 74.02 156.33 73.22 152.14" stroke="#263238" stroke-linecap="round" stroke-linejoin="round"/>
<path d="M49.44 223.1C49.44 223.1 46.48 217.81 42.09 212.62C37.7 207.43 34.31 204.64 32.31 199.65" stroke="#263238" stroke-linecap="round" stroke-linejoin="round"/>
<path d="M67.83 223.8C67.83 223.8 69.43 214.22 73.22 209.23C77.01 204.24 84.6 196.46 87.59 191.47" stroke="#263238" stroke-linecap="round" stroke-linejoin="round"/>
<path d="M46.81 247.33C46.81 247.33 40.09 242.96 35.3 240.56" stroke="#263238" stroke-linecap="round" stroke-linejoin="round"/>
<path d="M68.88 289.66H55.01L48.07 254.93H75.82L68.88 289.66Z" fill="#263238" stroke="#263238" stroke-linecap="round" stroke-linejoin="round"/>
<path d="M105.23 290.55H18.32V433.96H105.23V290.55Z" stroke="#263238" stroke-linecap="round" stroke-linejoin="round"/>
<path d="M96.9 304.28H26.72V340.13H96.9V304.28Z" stroke="#263238" stroke-linecap="round" stroke-linejoin="round"/>
<path d="M61.8 322.69C71.0673 322.69 78.58 321.835 78.58 320.78C78.58 319.725 71.0673 318.87 61.8 318.87C52.5326 318.87 45.02 319.725 45.02 320.78C45.02 321.835 52.5326 322.69 61.8 322.69Z" fill="#263238" stroke="#263238" stroke-linecap="round" stroke-linejoin="round"/>
<path d="M96.9 347.76H26.72V383.61H96.9V347.76Z" stroke="#263238" stroke-linecap="round" stroke-linejoin="round"/>
<path d="M78.59 364.26C78.59 365.31 71.08 366.17 61.81 366.17C52.54 366.17 45.03 365.32 45.03 364.26C45.03 363.2 52.54 362.35 61.81 362.35C71.08 362.35 78.59 363.2 78.59 364.26Z" fill="#263238" stroke="#263238" stroke-linecap="round" stroke-linejoin="round"/>
<path d="M96.9 391.24H26.72V427.09H96.9V391.24Z" stroke="#263238" stroke-linecap="round" stroke-linejoin="round"/>
<path d="M61.8 409.65C71.0673 409.65 78.58 408.795 78.58 407.74C78.58 406.685 71.0673 405.83 61.8 405.83C52.5326 405.83 45.02 406.685 45.02 407.74C45.02 408.795 52.5326 409.65 61.8 409.65Z" fill="#263238" stroke="#263238" stroke-linecap="round" stroke-linejoin="round"/>
<path d="M284.71 58.87H203.09V224.4H284.71V58.87Z" fill="white" stroke="#263238" stroke-linecap="round" stroke-linejoin="round"/>
<path d="M238.36 86.32V64.33H247.94V67.42H242.84V73.26H246.78V76.38H242.84V83.27H248V86.31H238.36V86.32Z" fill="#263238"/>
<path d="M223.82 108.49V92.27H230.89V94.55H227.13V98.85H230.03V101.15H227.13V106.24H230.93V108.48H223.82V108.49Z" fill="#263238"/>
<path d="M224.64 125.9V115.65H222.78V113.82H228.95V115.65H227.12V125.9H224.64V125.9Z" fill="#263238"/>
<path d="M243.39 126.06C242.51 126.06 241.8 125.9 241.29 125.58C240.77 125.26 240.4 124.81 240.18 124.22C239.96 123.63 239.84 122.92 239.84 122.09V117.59C239.84 116.76 239.95 116.06 240.18 115.47C240.4 114.88 240.77 114.44 241.29 114.13C241.81 113.82 242.51 113.67 243.39 113.67C244.27 113.67 244.99 113.83 245.52 114.14C246.04 114.45 246.41 114.9 246.64 115.48C246.86 116.06 246.98 116.77 246.98 117.59V122.09C246.98 122.92 246.87 123.62 246.64 124.22C246.42 124.81 246.04 125.27 245.52 125.58C245 125.9 244.29 126.06 243.39 126.06ZM243.39 124.28C243.71 124.28 243.94 124.21 244.09 124.06C244.24 123.92 244.34 123.72 244.39 123.48C244.44 123.24 244.46 122.98 244.46 122.7V116.99C244.46 116.71 244.44 116.45 244.39 116.21C244.34 115.97 244.24 115.78 244.09 115.64C243.94 115.5 243.71 115.42 243.39 115.42C243.09 115.42 242.87 115.49 242.72 115.64C242.57 115.78 242.47 115.98 242.42 116.21C242.37 116.45 242.35 116.71 242.35 116.99V122.7C242.35 122.98 242.37 123.24 242.42 123.48C242.46 123.72 242.56 123.92 242.71 124.06C242.86 124.2 243.09 124.28 243.4 124.28H243.39Z" fill="#263238"/>
<path d="M219.98 142.48V130.4H222.44V140.81H225.27V142.48H219.98V142.48Z" fill="#263238"/>
<path d="M216.55 158.08V147.18H220.01C220.66 147.18 221.2 147.3 221.61 147.55C222.02 147.8 222.33 148.15 222.53 148.62C222.73 149.09 222.83 149.65 222.83 150.32C222.83 151.1 222.7 151.71 222.43 152.15C222.17 152.59 221.8 152.9 221.35 153.09C220.89 153.27 220.37 153.37 219.78 153.37H218.77V158.09H216.55V158.08ZM218.77 151.8H219.55C219.87 151.8 220.12 151.75 220.3 151.65C220.47 151.55 220.59 151.38 220.66 151.16C220.72 150.94 220.75 150.65 220.75 150.3C220.75 149.95 220.73 149.69 220.68 149.47C220.63 149.25 220.52 149.07 220.35 148.95C220.18 148.82 219.91 148.76 219.54 148.76H218.77V151.81V151.8Z" fill="#263238"/>
<path d="M216.42 173.17V164.07H220.39V165.35H218.28V167.77H219.91V169.06H218.28V171.91H220.42V173.17H216.43H216.42Z" fill="#263238"/>
<path d="M216.68 188.36V182.25H219.26V183.1H217.92V184.75H219.05V185.62H217.92V188.37H216.67L216.68 188.36Z" fill="#263238"/>
<path d="M225.67 188.36V182.25H228.33V183.11H226.91V184.73H228V185.6H226.91V187.52H228.34V188.37H225.66L225.67 188.36Z" fill="#263238"/>
<path d="M218.95 196.69V191.37H220.25C220.7 191.37 221.05 191.43 221.31 191.54C221.56 191.66 221.74 191.84 221.85 192.09C221.96 192.34 222.01 192.65 222.01 193.04V194.98C222.01 195.37 221.96 195.7 221.85 195.95C221.74 196.2 221.57 196.39 221.32 196.51C221.07 196.63 220.73 196.69 220.28 196.69H218.95ZM220.03 195.93H220.26C220.46 195.93 220.61 195.9 220.69 195.83C220.78 195.77 220.83 195.67 220.85 195.55C220.87 195.43 220.88 195.27 220.88 195.09V192.89C220.88 192.71 220.87 192.56 220.84 192.45C220.81 192.34 220.75 192.26 220.67 192.2C220.58 192.15 220.45 192.12 220.25 192.12H220.03V195.93V195.93Z" fill="#263238"/>
<path d="M222.16 209.65V205.05H223.1V209.02H224.18V209.66H222.16V209.65Z" fill="#263238"/>
<path d="M227.72 209.65V205.05H229.73V205.7H228.66V206.92H229.48V207.57H228.66V209.01H229.74V209.65H227.72Z" fill="#263238"/>
<path d="M233.88 209.65V205.05H235.82V205.69H234.81V206.93H235.66V207.58H234.81V209.65H233.87H233.88Z" fill="#263238"/>
<path d="M223.91 215.05V211.56H225.38V212.04H224.62V212.98H225.27V213.47H224.62V215.04H223.91V215.05Z" fill="#263238"/>
<path d="M228.28 215.05V211.56H229.13C229.43 211.56 229.66 211.6 229.82 211.67C229.98 211.75 230.1 211.86 230.17 212.03C230.24 212.19 230.27 212.4 230.27 212.65V213.92C230.27 214.18 230.24 214.39 230.17 214.56C230.1 214.73 229.99 214.85 229.82 214.93C229.66 215.01 229.43 215.05 229.14 215.05H228.27H228.28ZM228.99 214.56H229.14C229.27 214.56 229.37 214.54 229.42 214.5C229.48 214.46 229.51 214.4 229.53 214.31C229.54 214.23 229.55 214.13 229.55 214.01V212.57C229.55 212.45 229.55 212.35 229.52 212.28C229.5 212.21 229.46 212.15 229.41 212.12C229.35 212.09 229.26 212.07 229.14 212.07H228.99V214.56Z" fill="#263238"/>
<path d="M232.9 215.05V211.56H234.01C234.22 211.56 234.39 211.6 234.52 211.68C234.65 211.76 234.75 211.87 234.81 212.02C234.87 212.17 234.91 212.35 234.91 212.56C234.91 212.81 234.87 213 234.78 213.15C234.7 213.29 234.58 213.39 234.43 213.45C234.28 213.51 234.12 213.54 233.93 213.54H233.61V215.05H232.9ZM233.61 213.04H233.86C233.96 213.04 234.04 213.02 234.1 212.99C234.16 212.96 234.19 212.9 234.21 212.83C234.23 212.76 234.24 212.67 234.24 212.55C234.24 212.43 234.24 212.35 234.22 212.28C234.2 212.21 234.17 212.15 234.11 212.11C234.06 212.07 233.97 212.05 233.85 212.05H233.6V213.03L233.61 213.04Z" fill="#263238"/>
<path d="M238.56 215.05V211.56H239.27V214.56H240.09V215.04H238.56V215.05Z" fill="#263238"/>
<path d="M244.36 215.05V211.56H244.85L245.62 213.38V211.56H246.21V215.05H245.74L244.97 213.12V215.05H244.36Z" fill="#263238"/>
<path d="M251.67 215.09C251.41 215.09 251.21 215.04 251.06 214.94C250.91 214.84 250.8 214.71 250.74 214.53C250.68 214.36 250.65 214.15 250.65 213.93V212.68C250.65 212.44 250.68 212.23 250.74 212.06C250.8 211.89 250.91 211.75 251.06 211.66C251.21 211.57 251.41 211.52 251.67 211.52C251.93 211.52 252.12 211.56 252.26 211.64C252.4 211.72 252.5 211.84 252.56 211.99C252.62 212.14 252.65 212.32 252.65 212.52V212.81H251.96V212.48C251.96 212.4 251.96 212.32 251.95 212.25C251.95 212.18 251.92 212.12 251.88 212.08C251.84 212.04 251.77 212.01 251.68 212.01C251.59 212.01 251.52 212.03 251.47 212.08C251.43 212.13 251.4 212.19 251.39 212.26C251.38 212.33 251.37 212.41 251.37 212.5V214.08C251.37 214.18 251.37 214.26 251.39 214.34C251.41 214.41 251.44 214.47 251.48 214.51C251.52 214.55 251.59 214.57 251.67 214.57C251.76 214.57 251.83 214.55 251.87 214.5C251.91 214.46 251.93 214.4 251.94 214.32C251.94 214.25 251.96 214.17 251.96 214.08V213.74H252.65V214.03C252.65 214.23 252.62 214.41 252.56 214.57C252.5 214.73 252.4 214.85 252.26 214.94C252.12 215.03 251.92 215.08 251.67 215.08V215.09Z" fill="#263238"/>
<path d="M257.09 215.05V211.56H258.61V212.05H257.8V212.98H258.42V213.47H257.8V214.56H258.62V215.04H257.09V215.05Z" fill="#263238"/>
<path d="M264.87 215.09C264.61 215.09 264.41 215.04 264.26 214.95C264.11 214.86 264 214.73 263.94 214.56C263.88 214.39 263.84 214.18 263.84 213.95V212.65C263.84 212.41 263.87 212.21 263.94 212.04C264 211.87 264.11 211.74 264.26 211.65C264.41 211.56 264.61 211.52 264.87 211.52C265.13 211.52 265.33 211.57 265.48 211.66C265.63 211.75 265.74 211.88 265.8 212.05C265.86 212.22 265.9 212.42 265.9 212.66V213.96C265.9 214.2 265.87 214.4 265.8 214.57C265.74 214.74 265.63 214.87 265.48 214.96C265.33 215.05 265.12 215.1 264.87 215.1V215.09ZM264.87 214.58C264.96 214.58 265.03 214.56 265.07 214.52C265.11 214.48 265.14 214.42 265.16 214.35C265.17 214.28 265.18 214.2 265.18 214.12V212.47C265.18 212.39 265.18 212.32 265.16 212.25C265.15 212.18 265.12 212.13 265.07 212.08C265.03 212.04 264.96 212.02 264.87 212.02C264.78 212.02 264.72 212.04 264.68 212.08C264.64 212.12 264.61 212.18 264.59 212.25C264.58 212.32 264.57 212.39 264.57 212.47V214.12C264.57 214.2 264.57 214.28 264.59 214.35C264.61 214.42 264.63 214.48 264.67 214.52C264.71 214.56 264.78 214.58 264.87 214.58Z" fill="#263238"/>
<path d="M240.86 209.71C240.52 209.71 240.26 209.65 240.06 209.53C239.86 209.41 239.72 209.24 239.64 209.01C239.55 208.78 239.51 208.51 239.51 208.2V206.48C239.51 206.17 239.55 205.9 239.64 205.67C239.73 205.45 239.87 205.28 240.06 205.16C240.26 205.04 240.52 204.98 240.86 204.98C241.2 204.98 241.47 205.04 241.67 205.16C241.87 205.28 242.01 205.45 242.1 205.67C242.19 205.89 242.23 206.16 242.23 206.47V208.19C242.23 208.5 242.19 208.77 242.1 209C242.01 209.23 241.87 209.4 241.67 209.52C241.47 209.64 241.2 209.7 240.86 209.7V209.71ZM240.86 209.03C240.98 209.03 241.07 209 241.13 208.95C241.19 208.9 241.22 208.82 241.24 208.73C241.26 208.64 241.27 208.54 241.27 208.43V206.25C241.27 206.14 241.27 206.05 241.24 205.95C241.22 205.86 241.18 205.79 241.13 205.73C241.07 205.68 240.98 205.65 240.86 205.65C240.75 205.65 240.66 205.68 240.6 205.73C240.54 205.79 240.51 205.86 240.49 205.95C240.47 206.04 240.46 206.14 240.46 206.25V208.43C240.46 208.54 240.46 208.64 240.49 208.73C240.51 208.82 240.54 208.9 240.6 208.95C240.66 209 240.74 209.03 240.86 209.03Z" fill="#263238"/>
<path d="M245.96 209.65V205.05H247.09C247.48 205.05 247.78 205.1 248 205.2C248.22 205.3 248.37 205.46 248.46 205.67C248.55 205.88 248.6 206.16 248.6 206.49V208.17C248.6 208.51 248.55 208.79 248.46 209.01C248.37 209.23 248.22 209.39 248 209.5C247.79 209.6 247.49 209.66 247.1 209.66H245.95L245.96 209.65ZM246.9 209H247.1C247.27 209 247.4 208.97 247.47 208.92C247.54 208.87 247.59 208.78 247.61 208.68C247.63 208.57 247.64 208.44 247.64 208.28V206.38C247.64 206.22 247.63 206.09 247.6 206C247.58 205.9 247.53 205.83 247.45 205.79C247.38 205.74 247.26 205.72 247.09 205.72H246.9V209.01V209Z" fill="#263238"/>
<path d="M260.41 209.71C260.07 209.71 259.8 209.65 259.6 209.52C259.4 209.39 259.26 209.21 259.18 208.98C259.1 208.75 259.06 208.48 259.06 208.18V206.53C259.06 206.21 259.1 205.94 259.18 205.71C259.26 205.48 259.4 205.3 259.6 205.18C259.8 205.06 260.07 204.99 260.41 204.99C260.75 204.99 261 205.04 261.19 205.15C261.38 205.26 261.51 205.42 261.59 205.62C261.67 205.82 261.71 206.05 261.71 206.32V206.71H260.8V206.28C260.8 206.17 260.8 206.07 260.78 205.98C260.77 205.89 260.74 205.81 260.69 205.75C260.64 205.69 260.55 205.66 260.43 205.66C260.31 205.66 260.21 205.69 260.16 205.75C260.1 205.81 260.07 205.89 260.05 205.99C260.03 206.09 260.03 206.19 260.03 206.31V208.4C260.03 208.53 260.04 208.64 260.06 208.74C260.08 208.84 260.12 208.91 260.18 208.96C260.24 209.01 260.32 209.04 260.43 209.04C260.55 209.04 260.64 209.01 260.69 208.95C260.74 208.89 260.77 208.81 260.79 208.71C260.8 208.61 260.81 208.51 260.81 208.4V207.95H261.72V208.33C261.72 208.6 261.68 208.84 261.61 209.04C261.53 209.25 261.4 209.41 261.22 209.53C261.03 209.65 260.77 209.71 260.44 209.71H260.41Z" fill="#263238"/>
<path d="M253.35 209.65V205.05H254.81C255.09 205.05 255.31 205.1 255.49 205.21C255.66 205.31 255.79 205.46 255.88 205.66C255.97 205.86 256.01 206.1 256.01 206.38C256.01 206.71 255.95 206.97 255.84 207.15C255.73 207.34 255.58 207.47 255.38 207.55C255.19 207.63 254.97 207.67 254.72 207.67H254.29V209.66H253.35V209.65ZM254.29 207H254.62C254.76 207 254.86 206.98 254.94 206.93C255.01 206.89 255.06 206.82 255.09 206.72C255.12 206.63 255.13 206.5 255.13 206.36C255.13 206.22 255.12 206.1 255.1 206.01C255.08 205.92 255.03 205.84 254.96 205.79C254.89 205.74 254.77 205.71 254.62 205.71H254.3V207H254.29Z" fill="#263238"/>
<path d="M266.18 209.65V205.75H265.47V205.05H267.82V205.75H267.12V209.65H266.18V209.65Z" fill="#263238"/>
<path d="M226.27 196.69V191.37H228.59V192.12H227.35V193.53H228.3V194.29H227.35V195.96H228.6V196.7H226.27V196.69Z" fill="#263238"/>
<path d="M232.98 196.69V191.37H235.23V192.11H234.07V193.55H235.06V194.31H234.07V196.7H232.99L232.98 196.69Z" fill="#263238"/>
<path d="M239.99 196.69V191.37H241.68C242 191.37 242.26 191.43 242.46 191.55C242.66 191.67 242.81 191.84 242.91 192.07C243.01 192.3 243.06 192.57 243.06 192.9C243.06 193.28 243 193.58 242.87 193.79C242.74 194 242.56 194.16 242.34 194.25C242.12 194.34 241.86 194.38 241.57 194.38H241.08V196.69H240H239.99ZM241.07 193.62H241.45C241.61 193.62 241.73 193.59 241.81 193.54C241.9 193.49 241.95 193.41 241.98 193.3C242.01 193.19 242.03 193.05 242.03 192.88C242.03 192.72 242.02 192.58 241.99 192.47C241.97 192.36 241.91 192.27 241.83 192.21C241.75 192.15 241.62 192.12 241.44 192.12H241.07V193.61V193.62Z" fill="#263238"/>
<path d="M249.72 196.76C249.33 196.76 249.02 196.69 248.79 196.55C248.56 196.41 248.4 196.21 248.3 195.95C248.2 195.69 248.15 195.38 248.15 195.01V193.03C248.15 192.67 248.2 192.36 248.3 192.1C248.4 191.84 248.56 191.64 248.79 191.51C249.02 191.37 249.33 191.31 249.72 191.31C250.11 191.31 250.43 191.38 250.66 191.52C250.89 191.66 251.05 191.85 251.15 192.11C251.25 192.37 251.3 192.68 251.3 193.04V195.02C251.3 195.38 251.25 195.7 251.15 195.96C251.05 196.22 250.89 196.42 250.66 196.56C250.43 196.7 250.12 196.77 249.72 196.77V196.76ZM249.72 195.98C249.86 195.98 249.96 195.95 250.03 195.88C250.1 195.82 250.14 195.73 250.16 195.62C250.18 195.51 250.19 195.4 250.19 195.27V192.75C250.19 192.63 250.18 192.51 250.16 192.41C250.14 192.3 250.09 192.22 250.03 192.16C249.96 192.1 249.86 192.06 249.72 192.06C249.59 192.06 249.49 192.09 249.42 192.16C249.35 192.22 249.31 192.31 249.29 192.41C249.27 192.52 249.26 192.63 249.26 192.75V195.27C249.26 195.39 249.26 195.51 249.29 195.62C249.31 195.73 249.35 195.81 249.42 195.88C249.49 195.94 249.59 195.98 249.72 195.98Z" fill="#263238"/>
<path d="M255.21 196.69V192.17H254.39V191.36H257.11V192.17H256.3V196.69H255.21Z" fill="#263238"/>
<path d="M262.14 196.69V191.37H264.46V192.12H263.22V193.53H264.17V194.29H263.22V195.96H264.47V196.7H262.14V196.69Z" fill="#263238"/>
<path d="M270.32 196.76C269.93 196.76 269.61 196.69 269.38 196.54C269.15 196.39 268.99 196.18 268.9 195.92C268.81 195.66 268.76 195.35 268.76 195V193.09C268.76 192.72 268.81 192.41 268.9 192.14C268.99 191.87 269.15 191.67 269.38 191.53C269.61 191.39 269.92 191.31 270.32 191.31C270.72 191.31 271 191.37 271.22 191.5C271.44 191.63 271.59 191.81 271.68 192.04C271.77 192.27 271.81 192.54 271.81 192.85V193.3H270.76V192.8C270.76 192.68 270.76 192.56 270.74 192.45C270.73 192.34 270.69 192.26 270.63 192.19C270.57 192.12 270.47 192.09 270.32 192.09C270.17 192.09 270.07 192.13 270 192.2C269.93 192.27 269.89 192.36 269.88 192.47C269.86 192.58 269.85 192.71 269.85 192.84V195.26C269.85 195.41 269.86 195.54 269.89 195.65C269.91 195.76 269.96 195.85 270.03 195.91C270.1 195.97 270.2 196 270.32 196C270.46 196 270.56 195.97 270.62 195.9C270.68 195.83 270.72 195.74 270.73 195.63C270.75 195.52 270.75 195.4 270.75 195.27V194.75H271.8V195.19C271.8 195.5 271.76 195.78 271.67 196.01C271.58 196.25 271.43 196.44 271.22 196.58C271.01 196.72 270.7 196.79 270.31 196.79L270.32 196.76Z" fill="#263238"/>
<path d="M235.16 188.36V182.25H236.41V187.52H237.84V188.37H235.16V188.36Z" fill="#263238"/>
<path d="M244.21 188.45C243.76 188.45 243.41 188.37 243.15 188.21C242.89 188.05 242.7 187.82 242.59 187.52C242.48 187.22 242.42 186.86 242.42 186.44V184.16C242.42 183.74 242.48 183.39 242.59 183.09C242.7 182.79 242.89 182.57 243.15 182.41C243.41 182.25 243.77 182.18 244.21 182.18C244.65 182.18 245.02 182.26 245.29 182.42C245.55 182.58 245.74 182.8 245.86 183.1C245.97 183.39 246.03 183.75 246.03 184.17V186.45C246.03 186.87 245.97 187.23 245.86 187.53C245.75 187.83 245.56 188.06 245.29 188.22C245.02 188.38 244.67 188.46 244.21 188.46V188.45ZM244.21 187.55C244.37 187.55 244.49 187.51 244.56 187.44C244.64 187.37 244.69 187.27 244.71 187.15C244.73 187.03 244.75 186.89 244.75 186.75V183.86C244.75 183.72 244.74 183.59 244.71 183.47C244.68 183.35 244.63 183.25 244.56 183.18C244.48 183.11 244.37 183.07 244.21 183.07C244.06 183.07 243.95 183.11 243.87 183.18C243.79 183.25 243.74 183.35 243.72 183.47C243.69 183.59 243.68 183.72 243.68 183.86V186.75C243.68 186.89 243.69 187.02 243.71 187.15C243.73 187.27 243.78 187.37 243.86 187.44C243.94 187.51 244.05 187.55 244.21 187.55Z" fill="#263238"/>
<path d="M250.91 188.36V182.25H252.85C253.22 182.25 253.52 182.32 253.75 182.46C253.98 182.6 254.15 182.8 254.27 183.06C254.38 183.32 254.44 183.64 254.44 184.01C254.44 184.45 254.37 184.79 254.22 185.04C254.07 185.29 253.87 185.46 253.61 185.56C253.35 185.66 253.06 185.71 252.73 185.71H252.16V188.36H250.91ZM252.16 184.84H252.6C252.78 184.84 252.92 184.81 253.02 184.75C253.12 184.69 253.18 184.6 253.22 184.47C253.25 184.34 253.27 184.18 253.27 183.99C253.27 183.8 253.26 183.65 253.23 183.52C253.2 183.39 253.14 183.3 253.04 183.23C252.94 183.16 252.79 183.12 252.59 183.12H252.16V184.83V184.84Z" fill="#263238"/>
<path d="M259.76 188.36V187.59L261.31 183.09H259.83V182.24H262.55V182.92L260.95 187.51H262.56V188.36H259.75H259.76Z" fill="#263238"/>
<path d="M268.39 188.36V182.25H269.88C270.4 182.25 270.8 182.32 271.09 182.45C271.38 182.58 271.58 182.79 271.7 183.08C271.82 183.36 271.88 183.73 271.88 184.17V186.4C271.88 186.85 271.82 187.23 271.7 187.52C271.58 187.81 271.38 188.03 271.09 188.17C270.81 188.31 270.41 188.38 269.9 188.38H268.38L268.39 188.36ZM269.64 187.49H269.9C270.13 187.49 270.3 187.45 270.39 187.38C270.49 187.31 270.55 187.2 270.57 187.06C270.6 186.92 270.61 186.74 270.61 186.53V184.01C270.61 183.8 270.59 183.63 270.56 183.5C270.53 183.37 270.46 183.28 270.36 183.22C270.26 183.16 270.1 183.13 269.88 183.13H269.62V187.5L269.64 187.49Z" fill="#263238"/>
<path d="M227.85 173.17V164.07H230.08C230.85 164.07 231.45 164.17 231.88 164.37C232.31 164.57 232.62 164.88 232.8 165.3C232.98 165.72 233.07 166.26 233.07 166.92V170.24C233.07 170.91 232.98 171.47 232.8 171.9C232.62 172.33 232.32 172.65 231.9 172.86C231.48 173.07 230.89 173.17 230.13 173.17H227.86H227.85ZM229.7 171.88H230.09C230.43 171.88 230.68 171.83 230.83 171.72C230.98 171.61 231.07 171.45 231.11 171.24C231.15 171.03 231.17 170.76 231.17 170.45V166.7C231.17 166.39 231.15 166.13 231.1 165.94C231.05 165.75 230.95 165.61 230.81 165.52C230.66 165.43 230.43 165.39 230.1 165.39H229.72V171.9L229.7 171.88Z" fill="#263238"/>
<path d="M238.47 173.17V164.07H242.31V165.33H240.32V167.79H242.01V169.08H240.32V173.17H238.47Z" fill="#263238"/>
<path d="M250.29 173.3C249.62 173.3 249.08 173.17 248.69 172.92C248.3 172.67 248.02 172.31 247.86 171.86C247.7 171.41 247.62 170.88 247.62 170.28V167.01C247.62 166.38 247.7 165.84 247.86 165.39C248.02 164.94 248.29 164.59 248.69 164.34C249.08 164.09 249.62 163.97 250.29 163.97C250.96 163.97 251.45 164.08 251.82 164.3C252.19 164.52 252.45 164.82 252.61 165.22C252.76 165.62 252.84 166.08 252.84 166.6V167.36H251.04V166.51C251.04 166.3 251.03 166.1 251.01 165.92C250.99 165.74 250.93 165.59 250.82 165.47C250.72 165.35 250.54 165.3 250.3 165.3C250.06 165.3 249.87 165.36 249.76 165.48C249.65 165.6 249.58 165.76 249.55 165.95C249.52 166.14 249.51 166.35 249.51 166.58V170.72C249.51 170.97 249.53 171.2 249.57 171.39C249.61 171.58 249.69 171.73 249.81 171.83C249.93 171.93 250.09 171.98 250.31 171.98C250.55 171.98 250.72 171.92 250.82 171.81C250.92 171.69 250.98 171.54 251.01 171.34C251.04 171.15 251.05 170.94 251.05 170.72V169.83H252.85V170.58C252.85 171.11 252.77 171.58 252.63 171.99C252.48 172.4 252.22 172.72 251.85 172.96C251.48 173.2 250.97 173.31 250.3 173.31L250.29 173.3Z" fill="#263238"/>
<path d="M257.65 173.17V172.02L259.97 165.32H257.77V164.06H261.83V165.07L259.45 171.9H261.84V173.16H257.66L257.65 173.17Z" fill="#263238"/>
<path d="M267.51 173.17V164.07H270.4C270.95 164.07 271.39 164.17 271.74 164.38C272.08 164.59 272.34 164.88 272.51 165.27C272.68 165.66 272.76 166.13 272.76 166.69C272.76 167.34 272.65 167.85 272.43 168.22C272.21 168.59 271.91 168.85 271.53 169C271.15 169.15 270.71 169.23 270.22 169.23H269.38V173.17H267.53H267.51ZM269.36 167.92H270.01C270.28 167.92 270.49 167.88 270.63 167.79C270.78 167.7 270.88 167.57 270.93 167.38C270.98 167.19 271.01 166.95 271.01 166.66C271.01 166.38 270.99 166.15 270.95 165.96C270.91 165.77 270.82 165.63 270.67 165.52C270.53 165.42 270.3 165.36 270 165.36H269.36V167.91V167.92Z" fill="#263238"/>
<path d="M231.73 158.08V147.18H236.48V148.71H233.95V151.6H235.9V153.15H233.95V156.57H236.51V158.08H231.73V158.08Z" fill="#263238"/>
<path d="M245.77 158.23C244.96 158.23 244.32 158.08 243.85 157.77C243.38 157.46 243.05 157.04 242.86 156.5C242.67 155.96 242.58 155.33 242.58 154.61V150.69C242.58 149.94 242.67 149.29 242.86 148.75C243.05 148.21 243.38 147.79 243.85 147.49C244.32 147.19 244.96 147.05 245.77 147.05C246.58 147.05 247.16 147.18 247.61 147.44C248.05 147.7 248.37 148.07 248.55 148.54C248.73 149.02 248.83 149.57 248.83 150.2V151.12H246.68V150.1C246.68 149.85 246.67 149.61 246.64 149.39C246.61 149.17 246.54 148.99 246.42 148.85C246.3 148.71 246.09 148.64 245.79 148.64C245.49 148.64 245.28 148.71 245.14 148.86C245.01 149 244.92 149.19 244.88 149.42C244.84 149.65 244.83 149.9 244.83 150.18V155.13C244.83 155.44 244.85 155.7 244.9 155.93C244.95 156.16 245.04 156.33 245.18 156.45C245.32 156.57 245.52 156.63 245.78 156.63C246.07 156.63 246.27 156.56 246.39 156.42C246.51 156.28 246.59 156.09 246.62 155.86C246.65 155.63 246.67 155.38 246.67 155.12V154.06H248.82V154.96C248.82 155.6 248.73 156.16 248.55 156.65C248.37 157.14 248.06 157.52 247.62 157.81C247.18 158.09 246.56 158.23 245.76 158.23H245.77Z" fill="#263238"/>
<path d="M255.64 158.08V147.18H260.24V148.69H257.86V151.64H259.88V153.19H257.86V158.09H255.64V158.08Z" fill="#263238"/>
<path d="M266.46 158.08V147.18H269.12C270.04 147.18 270.76 147.3 271.28 147.54C271.8 147.78 272.16 148.15 272.38 148.66C272.6 149.17 272.7 149.82 272.7 150.6V154.57C272.7 155.38 272.59 156.04 272.38 156.56C272.16 157.08 271.8 157.46 271.3 157.71C270.79 157.96 270.09 158.08 269.18 158.08H266.46V158.08ZM268.68 156.53H269.15C269.56 156.53 269.86 156.46 270.03 156.33C270.2 156.2 270.31 156.01 270.36 155.75C270.4 155.49 270.43 155.18 270.43 154.8V150.31C270.43 149.93 270.4 149.63 270.34 149.4C270.28 149.17 270.17 149 269.99 148.9C269.81 148.79 269.53 148.74 269.14 148.74H268.68V156.53Z" fill="#263238"/>
<path d="M233.74 142.48V130.4H237.57C238.3 130.4 238.89 130.54 239.34 130.81C239.8 131.08 240.14 131.48 240.36 132C240.58 132.52 240.7 133.14 240.7 133.88C240.7 134.75 240.55 135.42 240.26 135.91C239.97 136.4 239.57 136.74 239.06 136.95C238.55 137.15 237.97 137.26 237.32 137.26H236.2V142.5H233.74V142.48ZM236.2 135.51H237.06C237.42 135.51 237.69 135.45 237.89 135.34C238.08 135.23 238.22 135.04 238.29 134.8C238.36 134.55 238.39 134.23 238.39 133.85C238.39 133.48 238.36 133.17 238.31 132.93C238.26 132.68 238.13 132.49 237.94 132.35C237.75 132.21 237.45 132.14 237.05 132.14H236.2V135.53V135.51Z" fill="#263238"/>
<path d="M247.08 142.48V130.4H252.34V132.1H249.54V135.31H251.7V137.03H249.54V140.82H252.37V142.49H247.08V142.48Z" fill="#263238"/>
<path d="M258.38 142.48V130.4H261.33C262.35 130.4 263.15 130.53 263.72 130.8C264.29 131.06 264.7 131.48 264.94 132.04C265.18 132.6 265.3 133.32 265.3 134.2V138.6C265.3 139.49 265.18 140.23 264.94 140.81C264.7 141.39 264.3 141.81 263.74 142.09C263.18 142.36 262.4 142.5 261.39 142.5H258.38V142.48ZM260.84 140.76H261.36C261.82 140.76 262.14 140.69 262.34 140.54C262.53 140.4 262.66 140.18 262.71 139.9C262.76 139.62 262.78 139.27 262.78 138.85V133.87C262.78 133.45 262.75 133.12 262.68 132.86C262.62 132.61 262.49 132.42 262.29 132.3C262.1 132.18 261.78 132.12 261.34 132.12H260.83V140.76H260.84Z" fill="#263238"/>
<path d="M257.15 125.9V124.38L260.22 115.49H257.3V113.82H262.68V115.16L259.52 124.23H262.7V125.9H257.15V125.9Z" fill="#263238"/>
<path d="M251.56 108.49V92.27H256.71C257.68 92.27 258.48 92.45 259.09 92.82C259.7 93.19 260.16 93.72 260.46 94.41C260.76 95.1 260.91 95.95 260.91 96.93C260.91 98.09 260.71 99 260.32 99.65C259.93 100.3 259.39 100.77 258.71 101.04C258.03 101.31 257.25 101.45 256.37 101.45H254.87V108.48H251.57L251.56 108.49ZM254.86 99.14H256.02C256.5 99.14 256.87 99.06 257.13 98.91C257.39 98.76 257.57 98.51 257.66 98.18C257.75 97.85 257.8 97.42 257.8 96.9C257.8 96.41 257.76 95.99 257.69 95.66C257.62 95.33 257.45 95.07 257.2 94.88C256.95 94.69 256.55 94.6 256 94.6H254.86V99.14Z" fill="#263238"/>
<path d="M274.42 176.34H213.38V178.9H274.42V176.34Z" fill="#263238"/>
<path d="M274.42 200.26H213.38V202.82H274.42V200.26Z" fill="#263238"/>
<path d="M472.84 289.77C477.07 273.17 475.4 259.52 468.45 258.05C460.66 256.4 449.17 270.69 442.81 289.97C436.99 307.6 437.46 323.28 443.53 327.11L414.55 434.77L463.8 433.71L480.27 300.59C480.93 295.26 477.72 290.82 472.84 289.76V289.77Z" fill="#263238" stroke="#263238" stroke-linecap="round" stroke-linejoin="round"/>
<path d="M322.13 239.51C322.13 239.51 315.09 249.27 316.28 252.8C317.69 256.97 315.48 263.31 311.77 264.78C309.23 265.79 307.25 266.64 307.52 268.77C307.79 270.9 311.24 273.29 311.24 273.29C311.24 273.29 313.35 283.9 313.89 287.63C314.42 291.35 315.48 291.88 319.47 292.41C323.46 292.94 325.32 292.68 326.38 292.68H329.3L340.73 309.16L347.64 301.19C347.64 301.19 340.73 288.43 343.92 274.61C347.11 260.79 354.29 258.66 347.11 249.09C339.93 239.52 327.7 235.53 322.12 239.52L322.13 239.51Z" fill="white" stroke="#263238" stroke-linecap="round" stroke-linejoin="round"/>
<path d="M321.26 261.52C321.26 262.88 320.79 263.99 320.21 263.99C319.63 263.99 319.16 262.89 319.16 261.52C319.16 260.15 319.63 259.05 320.21 259.05C320.79 259.05 321.26 260.15 321.26 261.52Z" fill="#263238"/>
<path d="M314.69 277.14C314.69 277.14 320.07 277.59 323.06 274.15" stroke="#263238" stroke-linecap="round" stroke-linejoin="round"/>
<path d="M319.02 254.58C319.02 254.58 321.26 251.14 324.4 254.43" stroke="#263238" stroke-linecap="round" stroke-linejoin="round"/>
<path d="M337.47 384.91C337.47 384.91 335.09 389.41 330.06 395.5C325.03 401.59 323.44 410.06 325.03 416.41C326.62 422.76 334.56 425.15 339.33 425.94C344.1 426.73 347.8 428.59 348.86 418.53C349.92 408.47 345.95 392.32 342.51 388.88C339.07 385.44 337.48 384.91 337.48 384.91H337.47Z" fill="white" stroke="#263238" stroke-linecap="round" stroke-linejoin="round"/>
<path d="M340.12 410.06C339.72 413.9 339.93 427.76 340.05 434.11H411.3C411.93 431.62 412 427.59 409.48 421.71C404.71 410.59 395.79 337.48 390.95 322.97C386.45 309.47 384.9 308.24 375.6 302.59C362.1 294.38 346.74 305.77 344.36 310C341.98 314.24 341.18 319.53 341.18 319.53C341.18 319.53 335.89 346.27 332.97 358.97C330.06 371.68 334.29 378.03 337.47 384.91C340.65 391.79 340.65 405.03 340.12 410.06Z" fill="#B87D57" stroke="#263238" stroke-linecap="round" stroke-linejoin="round"/>
<path d="M324.79 229.41C324.79 229.41 316.55 228.88 322.13 239.51C327.71 250.14 331.43 245.89 335.42 250.14C339.41 254.39 341.8 263.96 337.55 270.08C333.3 276.19 329.58 276.73 335.42 284.43C341.27 292.14 342.86 294 341 298.25C339.14 302.5 329.57 304.9 333.03 312.34C336.49 319.78 344.46 319.25 342.07 321.38C339.68 323.51 334.36 322.18 337.02 326.16C339.68 330.15 351.64 329.88 350.31 326.96C348.98 324.04 346.85 324.83 347.65 323.24C348.45 321.65 345.79 313.14 355.09 308.62C364.39 304.1 369.98 302.77 376.62 309.15C383.27 315.53 384.86 320.58 391.51 319.25C398.16 317.92 398.69 313.14 395.5 308.62C392.31 304.1 391.78 306.49 394.44 299.58C397.1 292.67 404.01 289.48 394.97 283.1C385.93 276.72 380.08 279.91 380.35 274.33C380.62 268.75 385.4 249.61 376.1 237.65C366.8 225.69 350.85 221.97 342.87 222.76C334.89 223.55 325.33 225.68 324.79 229.41V229.41Z" fill="#263238" stroke="#263238" stroke-linecap="round" stroke-linejoin="round"/>
<path d="M353.09 316.08C353.09 316.08 348.32 325.08 349.65 337.52C350.97 349.96 357.86 392.85 357.86 392.85C357.86 392.85 353.89 394.44 354.95 397.09C356.01 399.74 356.8 401.33 357.07 402.12C357.33 402.91 346.48 405.83 342.25 406.88C338.01 407.94 334.04 412.97 335.1 418.26C336.16 423.55 343.84 425.94 349.13 427.53C354.42 429.12 383.28 429.12 390.16 426.74C397.04 424.36 400.48 415.09 396.25 402.12C392.01 389.15 385.66 327.2 385.66 327.2" fill="#B87D57"/>
<path d="M353.09 316.08C353.09 316.08 348.32 325.08 349.65 337.52C350.97 349.96 357.86 392.85 357.86 392.85C357.86 392.85 353.89 394.44 354.95 397.09C356.01 399.74 356.8 401.33 357.07 402.12C357.33 402.91 346.48 405.83 342.25 406.88C338.01 407.94 334.04 412.97 335.1 418.26C336.16 423.55 343.84 425.94 349.13 427.53C354.42 429.12 383.28 429.12 390.16 426.74C397.04 424.36 400.48 415.09 396.25 402.12C392.01 389.15 385.66 327.2 385.66 327.2" stroke="#263238" stroke-linecap="round" stroke-linejoin="round"/>
<path d="M357.06 402.12C357.06 402.12 373.21 410.59 382.47 411.65" stroke="#263238" stroke-linecap="round" stroke-linejoin="round"/>
<path d="M361.03 401.06C361.03 401.06 370.56 402.65 377.71 402.12" stroke="#263238" stroke-linecap="round" stroke-linejoin="round"/>
<path d="M334.56 399.73C334.56 399.73 329.79 402.91 328.74 405.55C327.69 408.19 328.74 413.49 328.48 417.46C328.22 421.43 330.07 422.75 336.42 425.93C342.77 429.11 347.8 429.9 346.74 427.52C345.68 425.14 343.3 425.14 339.86 422.49C336.42 419.84 335.89 413.75 338.01 411.9C340.13 410.05 338.8 407.93 344.63 407.66C350.45 407.4 353.63 405.54 353.1 403.69C352.57 401.84 350.19 403.16 347.54 402.9C344.89 402.64 341.45 398.4 334.57 399.72L334.56 399.73Z" fill="white" stroke="#263238" stroke-linecap="round" stroke-linejoin="round"/>
<path d="M300.4 370.29H275.9C269.94 370.29 264.3 368 260.04 363.83L239.66 343.92C235.49 339.85 233.1 334.16 233.1 328.33V289.4C233.1 286.77 235.24 284.63 237.87 284.63C240.5 284.63 242.64 286.77 242.64 289.4V328.33C242.64 331.61 243.99 334.8 246.33 337.09L266.71 357C269.18 359.42 272.45 360.75 275.91 360.75H300.41C303.04 360.75 305.18 362.89 305.18 365.52C305.18 368.15 303.04 370.29 300.41 370.29H300.4Z" fill="#263238"/>
<path d="M284.68 271.83L256.8 275.26V252.38L284.68 255.82V271.83Z" fill="#263238"/>
<path d="M280.03 271.53L284.68 270.96V254.95L280.03 254.38V271.53Z" fill="#263238"/>
<path d="M252.86 251.55H224.55V275.98H252.86V251.55Z" fill="#263238"/>
<path d="M225.51 252.7H195.06V274.84H225.51V252.7Z" fill="#263238"/>
<path d="M217.58 244.98H189.6V256.82H217.58V244.98Z" fill="#263238"/>
<path d="M254.81 279.31C253.43 279.31 252.31 278.19 252.31 276.81V250.16C252.31 248.78 253.43 247.66 254.81 247.66C256.19 247.66 257.31 248.78 257.31 250.16V276.81C257.31 278.19 256.19 279.31 254.81 279.31Z" fill="#263238"/>
<path d="M249.24 275.46H226.84V287.25H249.24V275.46Z" fill="#263238"/>
<path d="M244.51 286.9H231.05V291.9H244.51V286.9Z" fill="#263238"/>
<path d="M311.48 383.03H293.97V349.44L299.58 347.28C301.94 346.37 304.57 346.43 306.89 347.44L311.49 349.44V383.03H311.48Z" fill="#263238"/>
<path d="M306.29 357.57C306.29 355.55 304.65 353.91 302.63 353.91C300.61 353.91 298.97 355.55 298.97 357.57C298.97 359.59 300.61 361.23 302.63 361.23C304.65 361.23 306.29 359.59 306.29 357.57Z" fill="white" stroke="#263238" stroke-linecap="round" stroke-linejoin="round"/>
<path d="M302.63 376.68C304.651 376.68 306.29 375.041 306.29 373.02C306.29 370.999 304.651 369.36 302.63 369.36C300.609 369.36 298.97 370.999 298.97 373.02C298.97 375.041 300.609 376.68 302.63 376.68Z" fill="white" stroke="#263238" stroke-linecap="round" stroke-linejoin="round"/>
<path d="M311.84 383.03H293.97V390.89H311.84V383.03Z" fill="white" stroke="#263238" stroke-linecap="round" stroke-linejoin="round"/>
<path d="M311.84 390.53H293.97V413.42H311.84V390.53Z" fill="#263238"/>
<path d="M313.27 390.53H292.54V401.97H313.27V390.53Z" fill="#263238"/>
<path d="M209.199 409.717L198.369 420.11L201.589 423.465L212.419 413.072L209.199 409.717Z" fill="white" stroke="#263238" stroke-linecap="round" stroke-linejoin="round"/>
<path d="M213.56 409.12H313.62V429.13H192.12L213.56 409.12Z" fill="#263238"/>
<path d="M294.68 396.25L265.02 378.02H247.87V383.03H263.95L295.75 409.47L294.68 396.25Z" fill="#263238"/>
<path d="M259.3 383.39H252.87V391.25H259.3V383.39Z" fill="white" stroke="#263238" stroke-linecap="round" stroke-linejoin="round"/>
<path d="M271.45 391.25H240.72V400.54H271.45V391.25Z" fill="white" stroke="#263238" stroke-linecap="round" stroke-linejoin="round"/>
<path d="M263.59 400.54H248.58V409.83H263.59V400.54Z" fill="white" stroke="#263238" stroke-linecap="round" stroke-linejoin="round"/>
<path d="M223.837 393.814L219.828 394.764L222.503 406.052L226.512 405.102L223.837 393.814Z" fill="white" stroke="#263238" stroke-linecap="round" stroke-linejoin="round"/>
<path d="M221.431 378.576L215.174 380.058L219.954 400.23L226.211 398.747L221.431 378.576Z" fill="white" stroke="#263238" stroke-linecap="round" stroke-linejoin="round"/>
<path d="M233.22 405.18H218.21V409.83H233.22V405.18Z" fill="white" stroke="#263238" stroke-linecap="round" stroke-linejoin="round"/>
<path d="M346.87 237.94H340.78V428.77H346.87V237.94Z" fill="white" stroke="#263238" stroke-linecap="round" stroke-linejoin="round"/>
<path d="M308.62 241.51H288.96V243.65H308.62V241.51Z" fill="white" stroke="#263238" stroke-linecap="round" stroke-linejoin="round"/>
<path d="M308.98 239.37H296.11V246.16H308.98V239.37Z" fill="#263238"/>
<path d="M350.07 243.3H304.33V251.16H350.07V243.3Z" fill="#263238"/>
<path d="M350.07 292.26H318.94V297.55H350.07V292.26Z" fill="#263238"/>
<path d="M284.68 330.85H271.81V355.15H284.68V330.85Z" fill="#263238"/>
<path d="M296.54 311.91H286.39V336.21H296.54V311.91Z" fill="#263238"/>
<path d="M296.2 297.54H286.72V309.85H296.2V297.54Z" fill="#263238"/>
<path d="M296.21 290.19H286.73V268.67L293.14 262.88C294.32 261.81 296.22 262.65 296.22 264.25V290.2L296.21 290.19Z" fill="#263238"/>
<path d="M296.2 291.1H286.72V297.69H296.2V291.1Z" fill="white" stroke="#263238" stroke-linecap="round" stroke-linejoin="round"/>
<path d="M297.72 307.7H285.22V315.4H297.72V307.7Z" fill="white" stroke="#263238" stroke-linecap="round" stroke-linejoin="round"/>
<path d="M270.45 311.91H260.3V336.21H270.45V311.91Z" fill="#263238"/>
<path d="M271.63 317.71H259.13V325.41H271.63V317.71Z" fill="white" stroke="#263238" stroke-linecap="round" stroke-linejoin="round"/>
<path d="M257.52 335.14H298.26L290.11 346.22H264.03L257.52 335.14Z" fill="#263238"/>
<path d="M278.96 343.8C280.981 343.8 282.62 342.161 282.62 340.14C282.62 338.119 280.981 336.48 278.96 336.48C276.939 336.48 275.3 338.119 275.3 340.14C275.3 342.161 276.939 343.8 278.96 343.8Z" fill="white" stroke="#263238" stroke-linecap="round" stroke-linejoin="round"/>
<path d="M294.32 354.44H277.17V357.66H294.32V354.44Z" fill="#263238"/>
<path d="M275.74 299.05H253.94V312.63H275.74V299.05Z" fill="#263238"/>
<path d="M271.28 294.04H258.41V299.4H271.28V294.04Z" fill="#263238"/>
<path d="M280.03 254.38L273.6 244.01H266.45V248.3H272.17L273.24 255.09L280.03 257.24V254.38Z" fill="#263238"/>
<path d="M272.17 237.58H268.95V245.08H272.17V237.58Z" fill="#263238"/>
<path d="M283.82 231.63H280.17V251.74H283.82V231.63Z" fill="#263238"/>
<path d="M228.57 241.51H205.34V239.72H202.84V245.08H205.34V243.66H228.57V241.51Z" fill="white" stroke="#263238" stroke-linecap="round" stroke-linejoin="round"/>
<path d="M280.03 239.72H228.21V245.8H280.03V239.72Z" fill="#263238"/>
<path d="M349.32 412.26C349.32 409.46 347.05 407.19 344.25 407.19C341.45 407.19 339.18 409.46 339.18 412.26C339.18 415.06 341.45 417.33 344.25 417.33C347.05 417.33 349.32 415.06 349.32 412.26Z" fill="white" stroke="#263238" stroke-linecap="round" stroke-linejoin="round"/>
<path d="M281.76 406.13H314.36C320.42 406.13 325.33 411.05 325.33 417.1V434.1H270.79V417.1C270.79 411.04 275.71 406.13 281.76 406.13V406.13Z" fill="white" stroke="#263238" stroke-linecap="round" stroke-linejoin="round"/>
<path d="M305.84 428.25H190.2V434.1H305.84V428.25Z" fill="white" stroke="#263238" stroke-linecap="round" stroke-linejoin="round"/>
<path d="M352.05 422.4H258.06V434.1H352.05V422.4Z" fill="white" stroke="#263238" stroke-linecap="round" stroke-linejoin="round"/>
<path d="M201.18 274.84L197.96 310.01L215.17 313.72L214.11 301.01C214.11 301.01 218.61 295.98 219.14 292.8C219.67 289.62 220.46 284.33 220.46 279.03C220.46 277.71 220.44 276.27 220.42 274.84H201.18V274.84Z" fill="white" stroke="#263238" stroke-linecap="round" stroke-linejoin="round"/>
<path d="M71.16 382L69.11 434.11H179.17C178.28 423.81 176.51 403.15 175.73 392.86C174.67 378.83 174.14 373.8 174.14 373.8C174.14 373.8 195.58 383.59 200.35 383.86C205.12 384.12 209.35 378.83 211.2 369.04C213.05 359.25 220.99 317.42 220.99 316.36C220.99 315.3 212.52 310.27 212.52 310.27L201.93 301L187.37 328.8C187.37 328.8 186.31 323.77 177.84 309.21C169.37 294.65 163.54 290.15 157.72 286.71C151.9 283.27 148.98 281.94 148.98 281.94L122.24 258.38C122.24 258.38 99.21 252.82 97.89 254.14C96.57 255.46 95.77 264.2 95.77 264.2C95.77 264.2 68.5 292.79 63.47 300.73C58.44 308.67 58.44 318.2 58.97 322.17C59.5 326.14 71.15 382 71.15 382H71.16Z" fill="white" stroke="#263238" stroke-linecap="round" stroke-linejoin="round"/>
<path d="M109.54 268.43C109.54 268.43 97.63 259.16 98.69 258.64C99.75 258.11 120.93 260.23 120.93 260.23L109.55 268.44L109.54 268.43Z" fill="#263238" stroke="#263238" stroke-linecap="round" stroke-linejoin="round"/>
<path d="M88.26 413.62C86.82 416.15 85.49 418.36 84.34 420.13" stroke="#263238" stroke-linecap="round" stroke-linejoin="round"/>
<path d="M112.85 365.22C112.85 365.22 100.77 390.69 91.24 408.25" stroke="#263238" stroke-linecap="round" stroke-linejoin="round"/>
<path d="M139.78 380.53L127.11 406.4" stroke="#263238" stroke-linecap="round" stroke-linejoin="round"/>
<path d="M141.31 304.71L150.84 319.01L154.02 300.48C154.02 300.48 152.17 292.54 148.46 286.71C144.75 280.89 140.25 280.09 139.46 286.18C138.67 292.27 141.31 304.71 141.31 304.71V304.71Z" fill="white" stroke="#263238" stroke-linecap="round" stroke-linejoin="round"/>
<path d="M143.16 297.03L145.55 302.85L144.49 309.21L150.84 319L152.16 305.24L150.31 302.33L151.37 295.18L143.96 289.62L143.16 297.03Z" fill="#B87D57" stroke="#263238" stroke-linecap="round" stroke-linejoin="round"/>
<path d="M145.55 292L154.02 300.47C154.02 300.47 155.61 290.94 153.23 287.5C150.85 284.06 149.79 284.06 149.79 284.06L146.35 284.59L145.56 292H145.55Z" fill="white" stroke="#263238" stroke-linecap="round" stroke-linejoin="round"/>
<path d="M184.99 215.76C184.99 215.76 189.76 236.67 188.7 239.32C187.64 241.97 185.26 243.82 185.26 243.82C185.26 243.82 190.55 257.32 189.5 259.44C188.45 261.56 181.56 261.03 181.56 261.03C181.56 261.03 178.38 273.47 177.59 276.65C176.8 279.83 174.41 280.36 171.24 280.62C168.06 280.88 159.06 277.71 159.06 277.71L146.88 286.71L145.56 292C145.56 292 143.44 291.47 134.18 279.29C124.91 267.11 120.94 259.96 120.94 259.96C120.94 259.96 122 255.2 122.53 252.81C123.06 250.43 123.06 228.19 123.06 228.19C123.06 228.19 137.88 213.89 152.18 209.13C166.48 204.36 185.01 215.75 185.01 215.75L184.99 215.76Z" fill="white" stroke="#263238" stroke-linecap="round" stroke-linejoin="round"/>
<path d="M170.7 224.23C170.7 224.23 172.02 230.58 170.96 231.64C169.9 232.7 160.9 234.55 160.64 235.61C160.38 236.67 161.7 241.7 159.58 242.23C157.46 242.76 154.29 243.02 153.23 241.7C152.17 240.38 150.58 235.08 147.41 231.91C144.24 228.74 137.62 232.17 135.5 238C133.38 243.83 133.65 246.47 132.85 250.18C132.06 253.89 129.67 257.06 127.03 258.65C124.38 260.24 122.27 260.77 121.21 255.74C120.15 250.71 119.36 241.18 114.59 231.91C109.82 222.64 124.91 201.47 129.68 198.29C134.45 195.11 150.33 195.64 165.95 198.82C181.57 202 193.75 205.44 193.22 209.67C192.69 213.91 183.95 217.61 179.45 219.73C174.95 221.85 170.71 224.23 170.71 224.23H170.7Z" fill="#263238" stroke="#263238" stroke-linecap="round" stroke-linejoin="round"/>
<path d="M153.22 241.7C154.28 243.02 157.46 242.76 159.57 242.23C161.69 241.7 160.36 236.67 160.63 235.61C160.89 234.55 169.9 232.7 170.95 231.64C171.49 231.1 171.41 229.19 171.2 227.44C170.24 227.29 169.02 226.85 167.44 225.95C161.29 222.44 154.27 221.56 147.68 222.88C141.09 224.2 137.14 219.37 130.56 229.47C124.08 239.41 125.67 243.82 119.02 244.37C120.11 248.97 120.61 253.01 121.18 255.73C122.24 260.76 124.36 260.23 127 258.64C129.65 257.05 132.03 253.87 132.82 250.17C133.61 246.46 133.35 243.82 135.47 237.99C137.59 232.16 144.21 228.72 147.38 231.9C150.56 235.08 152.15 240.37 153.2 241.69L153.22 241.7Z" fill="#525252" stroke="#263238" stroke-linecap="round" stroke-linejoin="round"/>
<path d="M175.99 242.76C179.7 238.79 185.26 240.11 185.26 240.11" stroke="#263238" stroke-linecap="round" stroke-linejoin="round"/>
<path d="M181.94 247.7C181.75 249.3 180.94 250.51 180.14 250.41C179.34 250.31 178.85 248.94 179.05 247.34C179.25 245.74 180.05 244.53 180.85 244.63C181.65 244.73 182.14 246.1 181.94 247.7Z" fill="#263238"/>
<path d="M150.58 240.64C150.58 240.64 153.49 237.2 147.4 231.9C141.31 226.6 136.28 231.11 135.22 235.34C134.16 239.58 136.28 243.81 138.4 246.99C140.52 250.17 142.9 252.02 144.49 252.81C146.08 253.6 148.73 253.07 148.73 253.07" fill="white"/>
<path d="M150.58 240.64C150.58 240.64 153.49 237.2 147.4 231.9C141.31 226.6 136.28 231.11 135.22 235.34C134.16 239.58 136.28 243.81 138.4 246.99C140.52 250.17 142.9 252.02 144.49 252.81C146.08 253.6 148.73 253.07 148.73 253.07" stroke="#263238" stroke-linecap="round" stroke-linejoin="round"/>
<path d="M159.05 277.71L149.78 270.56V284.06L159.05 277.71Z" fill="#263238" stroke="#263238" stroke-linecap="round" stroke-linejoin="round"/>
<path d="M120.93 259.97L145.55 292L141.31 304.71L109.54 268.18L120.93 259.97Z" fill="white" stroke="#263238" stroke-linecap="round" stroke-linejoin="round"/>
<path d="M165.93 316.89C165.93 316.89 164.61 304.45 162.75 298.89" stroke="#263238" stroke-linecap="round" stroke-linejoin="round"/>
<path d="M174.14 373.54L174.93 368.77" stroke="#263238" stroke-linecap="round" stroke-linejoin="round"/>
<path d="M188.7 302.59C188.7 302.59 189.49 290.15 186.58 283C183.67 275.85 181.55 271.09 179.17 266.85C176.79 262.61 180.23 255.73 181.55 253.08C182.87 250.43 184.99 246.46 187.9 247.26C190.81 248.05 189.22 249.91 188.43 250.97C187.64 252.03 185.25 256.53 185.25 257.32C185.25 258.11 188.43 264.2 188.43 264.2C188.43 264.2 190.81 258.64 191.61 256.26C192.4 253.88 194.79 248.05 196.64 246.73C198.49 245.41 205.11 249.38 203.79 250.7C202.47 252.02 199.55 252.55 199.55 252.55C199.55 252.55 197.7 258.11 197.17 260.23C196.64 262.35 196.38 263.14 197.96 264.73C199.55 266.32 205.64 251.49 206.96 249.38C208.28 247.26 209.87 246.2 211.99 246.2C214.11 246.2 219.4 248.05 218.61 250.17C217.82 252.29 217.82 251.49 215.7 251.23C213.58 250.97 211.73 252.29 211.73 252.29C211.73 252.29 209.08 259.7 209.08 261.03C209.08 262.36 208.55 266.32 208.55 266.32C208.55 266.32 213.84 260.76 215.17 258.11C216.49 255.46 218.88 249.37 220.46 249.64C222.05 249.9 222.58 252.02 222.05 254.14C221.52 256.26 219.93 260.76 219.4 262.88C218.87 265 212.52 272.94 212.52 272.94C212.52 272.94 211.99 284.85 211.46 289.62C210.93 294.39 206.17 298.36 205.64 299.68C205.11 301 202.99 310.27 202.99 310.27L188.69 302.59H188.7Z" fill="white" stroke="#263238" stroke-linecap="round" stroke-linejoin="round"/>
<path d="M78.83 294.91C78.83 294.91 98.42 292.26 103.71 295.97C109 299.68 112.71 304.71 115.89 307.88C119.07 311.05 124.63 314.5 129.66 319C134.69 323.5 137.87 325.88 138.66 328.79C139.45 331.7 140.51 336.47 140.51 336.47L147.66 329.06C147.66 329.06 169.63 316.09 177.84 308.94C186.05 301.79 187.37 299.41 188.16 298.88C188.95 298.35 185.51 294.91 200.87 306.03C216.22 317.15 218.87 322.44 217.81 324.56C216.75 326.68 193.98 354.47 174.92 368.77C155.86 383.07 149.77 392.33 144.21 392.33C138.65 392.33 123.3 386.77 115.35 380.15C107.41 373.53 95.5 362.15 80.94 350.5" fill="white"/>
<path d="M78.83 294.91C78.83 294.91 98.42 292.26 103.71 295.97C109 299.68 112.71 304.71 115.89 307.88C119.07 311.05 124.63 314.5 129.66 319C134.69 323.5 137.87 325.88 138.66 328.79C139.45 331.7 140.51 336.47 140.51 336.47L147.66 329.06C147.66 329.06 169.63 316.09 177.84 308.94C186.05 301.79 187.37 299.41 188.16 298.88C188.95 298.35 185.51 294.91 200.87 306.03C216.22 317.15 218.87 322.44 217.81 324.56C216.75 326.68 193.98 354.47 174.92 368.77C155.86 383.07 149.77 392.33 144.21 392.33C138.65 392.33 123.3 386.77 115.35 380.15C107.41 373.53 95.5 362.15 80.94 350.5" stroke="#263238" stroke-linecap="round" stroke-linejoin="round"/>
<path d="M80.3 318.31C87.49 312.97 99.04 306.5 110.6 308.95" stroke="#263238" stroke-linecap="round" stroke-linejoin="round"/>
<path d="M73.01 324.56C73.01 324.56 74.18 323.34 76.24 321.56" stroke="#263238" stroke-linecap="round" stroke-linejoin="round"/>
<path d="M140.52 336.47C140.52 336.47 128.87 347.32 128.34 353.94C127.81 360.56 136.81 346.79 138.13 344.15" stroke="#263238" stroke-linecap="round" stroke-linejoin="round"/>
<path d="M80.16 362.95C80.16 362.95 86.25 362.42 92.6 360.57" stroke="#263238" stroke-linecap="round" stroke-linejoin="round"/>
<path d="M6.84003 434.1H467.3" stroke="#263238" stroke-linecap="round" stroke-linejoin="round"/>
</g>
<defs>
<clipPath id="clip0_2002_1489">
<rect width="481.67" height="435.27" fill="white"/>
</clipPath>
</defs>
</svg>
