<svg width="173" height="397" viewBox="0 0 173 397" fill="none" xmlns="http://www.w3.org/2000/svg">
<path d="M75.8636 375.383H92.7036L120.554 390.283L72.6736 389.713L75.8636 375.383Z" fill="#101010"/>
<path d="M72.5036 396.013L72.6736 389.713L120.554 390.283L120.384 396.583L72.5036 396.013Z" fill="white"/>
<path d="M104.344 380.873L98.8236 382.383" stroke="white" stroke-width="1.52" stroke-linecap="round" stroke-linejoin="round"/>
<path d="M98.9536 378.103L93.4336 379.613" stroke="white" stroke-width="1.52" stroke-linecap="round" stroke-linejoin="round"/>
<path d="M93.9736 351.643H76.8136L75.8636 375.383H93.0336L93.9736 351.643Z" fill="#B38477"/>
<path d="M22.5336 375.383H39.3736L67.2136 390.283L19.3336 389.713L22.5336 375.383Z" fill="#101010"/>
<path d="M19.1636 396.013L19.3336 389.713L67.2136 390.283L67.0536 396.583L19.1636 396.013Z" fill="white"/>
<path d="M51.0036 380.873L45.4936 382.383" stroke="white" stroke-width="1.52" stroke-linecap="round" stroke-linejoin="round"/>
<path d="M45.6136 378.103L40.0936 379.613" stroke="white" stroke-width="1.52" stroke-linecap="round" stroke-linejoin="round"/>
<path d="M43.6036 351.643H26.4436L22.5336 375.383H39.6936L43.6036 351.643Z" fill="#B38477"/>
<path d="M99.5136 147.383L99.4336 192.063C99.6436 198.233 99.4236 215.153 99.0336 221.313L96.8936 367.053H67.4636L70.2536 210.423L47.0136 367.053L18.2336 366.383L40.2936 157.303L69.3136 149.373L99.5236 147.383H99.5136Z" fill="#71ABC7"/>
<path d="M69.3136 210.423L83.3536 208.093" stroke="#171717" stroke-width="0.7" stroke-linecap="round" stroke-linejoin="round"/>
<path d="M99.5136 185.903L36.7336 191.013L36.0536 197.403L99.4336 192.063L99.5136 185.903Z" fill="#68A1BA"/>
<path d="M114.224 128.203L152.724 86.1427H163.124L137.884 136.863L114.224 128.203Z" fill="#B38477"/>
<path d="M163.834 70.0027L167.224 54.0427C167.414 53.1527 166.874 52.2827 166.004 52.0327C165.124 51.7927 164.204 52.2827 163.924 53.1627L161.534 60.6227L163.834 70.0027Z" fill="#9B6A5B"/>
<path d="M156.464 96.5127L162.024 89.8427C162.024 89.8427 168.844 84.6926 169.774 76.5026C170.354 71.3826 171.524 68.2327 172.314 66.5927C172.724 65.7327 172.474 64.7127 171.694 64.1727C170.864 63.6027 169.744 63.7627 169.124 64.5527C167.934 66.0827 166.074 68.8127 164.874 72.2627L163.254 52.3327C163.204 51.4527 162.404 50.8127 161.534 50.9627C160.924 51.0627 160.434 51.5427 160.324 52.1527L156.294 75.1727C156.294 75.1727 152.564 87.9827 150.514 91.2427L156.474 96.5127H156.464Z" fill="#B38477"/>
<path d="M94.5736 85.3527L135.654 120.733C140.054 123.953 141.534 129.843 139.174 134.763C136.204 140.953 128.454 143.103 122.724 139.313L79.7136 106.693C73.9536 102.883 72.1736 95.2527 75.6536 89.2927C79.5436 82.6327 88.3436 80.8027 94.5636 85.3527H94.5736Z" fill="#B38477"/>
<path d="M65.8136 88.2227C65.8136 88.2227 67.3736 100.963 97.6636 122.863L118.664 100.483L95.8036 76.8927L65.8136 88.2227Z" fill="#71ABC7"/>
<path d="M119.084 100.953L117.114 98.9227L95.3536 121.213L97.6536 122.863L119.084 100.953Z" fill="white"/>
<path d="M59.8536 68.1627C59.8536 68.1627 47.1536 71.0027 38.4936 75.3727C33.0436 78.1227 32.4336 84.0627 33.1236 90.1327L39.0236 144.613L29.5436 191.603L104.944 185.433L100.804 149.363L101.924 92.0027C102.524 83.5427 97.3336 75.7727 89.3136 73.0427C80.3236 69.9827 77.3736 67.3927 72.5936 67.1127L59.8736 68.1627H59.8536Z" fill="#71ABC7"/>
<path d="M59.8536 68.1627L76.0536 85.0527L78.5436 68.6927L59.8536 68.1627Z" fill="#B38477"/>
<path d="M59.8536 68.1627L76.0536 85.0527L78.5436 68.6927L80.7236 69.6427L77.2436 89.7827L57.6536 68.6927L59.8536 68.1627Z" fill="white"/>
<path d="M101.884 93.7727L101.524 114.573" stroke="#171717" stroke-width="0.82" stroke-linecap="round" stroke-linejoin="round"/>
<path d="M47.4536 102.853L21.6836 150.553C19.4836 155.533 14.0436 158.243 8.73357 156.993C2.04357 155.423 -1.70643 148.303 0.763571 141.893L23.4236 92.9027C25.9136 86.4627 32.9936 83.0927 39.5536 85.2127C46.8936 87.5827 50.5636 95.7827 47.4436 102.843L47.4536 102.853Z" fill="#B38477"/>
<path d="M38.4936 75.3627C38.4936 75.3627 26.3836 79.6127 11.4736 113.883L37.8236 129.613L55.9736 102.233L38.4936 75.3627V75.3627Z" fill="#71ABC7"/>
<path d="M37.4536 130.123L39.0236 127.773L12.5836 111.283L11.4636 113.893L37.4536 130.123Z" fill="white"/>
<path d="M39.0236 127.773L52.0136 108.193" stroke="#171717" stroke-width="0.82" stroke-linecap="round" stroke-linejoin="round"/>
<path d="M53.5436 115.643L23.5236 165.053L61.6736 186.773L91.7936 138.413L53.5436 115.643Z" fill="#3056A9"/>
<path d="M54.1436 120.673L28.3636 163.103L61.1236 181.763L86.9936 140.223L54.1436 120.673Z" fill="white"/>
<path d="M66.7336 123.493L63.7036 128.273L74.1236 134.693L77.6436 129.993L66.7336 123.493Z" fill="#EAB258"/>
<path d="M9.79356 131.213L61.7936 159.223L57.0536 171.213L6.40356 156.173L9.79356 131.213Z" fill="#B38477"/>
<path d="M57.7636 159.333C57.7636 159.333 77.1636 152.763 77.4736 160.043C77.7836 167.323 76.7236 184.783 56.2536 170.713L57.7636 159.333Z" fill="#B38477"/>
<path d="M57.2336 160.243L59.5036 156.953C60.8136 155.053 62.6636 153.593 64.8036 152.753L68.7836 151.203C69.7336 150.833 70.8236 151.163 71.4036 152.003C72.0436 152.923 71.8936 154.173 71.0636 154.913L65.7136 159.703L57.2236 160.233L57.2336 160.243Z" fill="#B38477"/>
<path d="M88.2036 32.7726C88.9236 35.9826 92.1136 37.9926 95.3236 37.2726C98.5336 36.5526 100.544 33.3626 99.8236 30.1526C99.1036 26.9426 95.9136 24.9326 92.7036 25.6526C89.4936 26.3726 87.4836 29.5626 88.2036 32.7726Z" fill="#9B6A5B"/>
<path d="M79.0636 46.0327L78.5436 68.6927L59.8536 68.1627L65.2536 29.8627L79.0636 46.0327Z" fill="#B38477"/>
<path d="M78.7436 59.7526L66.1936 43.0426L78.9736 47.2926L78.7436 59.7526Z" fill="#1F0C03"/>
<path d="M87.3136 6.01263C93.3336 6.82263 96.2636 13.1926 96.8636 18.9126C97.5536 25.5026 97.7036 34.4026 95.6636 39.4026C92.4936 47.1326 85.3136 52.9826 75.1436 50.2326C75.1436 50.2326 64.1536 48.7826 62.4336 30.8326C60.3936 9.59263 74.5136 4.30263 87.3236 6.01263H87.3136Z" fill="#B38477"/>
<path d="M93.3536 27.3827C93.4936 28.1227 94.2036 28.6127 94.9436 28.4727C95.6836 28.3327 96.1736 27.6227 96.0336 26.8827C95.8936 26.1427 95.1836 25.6527 94.4436 25.7927C93.7036 25.9327 93.2136 26.6427 93.3536 27.3827Z" fill="#1F0C03"/>
<path d="M81.8536 27.3827C81.9936 28.1227 82.7036 28.6127 83.4436 28.4727C84.1836 28.3327 84.6736 27.6227 84.5336 26.8827C84.3936 26.1427 83.6836 25.6527 82.9436 25.7927C82.2036 25.9327 81.7136 26.6427 81.8536 27.3827Z" fill="#1F0C03"/>
<path d="M90.8336 28.8927L91.8036 32.8227C91.9036 33.2427 91.6336 33.6627 91.2136 33.7427L89.7736 34.0227" stroke="#1D0004" stroke-width="0.48" stroke-linecap="round" stroke-linejoin="round"/>
<path d="M92.1636 17.5327C92.1636 17.5327 91.6236 19.1527 93.6436 19.4827C95.1736 19.7327 96.1436 19.8727 97.0036 20.2427C97.4936 20.4527 98.0536 20.2827 98.3436 19.8427C98.5736 19.4827 98.5836 19.0227 98.3436 18.6727C97.8736 17.9527 96.8536 16.8327 95.0036 16.4927C92.6236 16.0627 92.1636 17.5427 92.1636 17.5427V17.5327Z" fill="#1F0C03"/>
<path d="M85.1036 17.6026C85.1036 17.6026 85.7236 19.2326 83.1236 19.5126C81.1536 19.7326 78.7936 20.4726 77.6836 20.8226C77.0536 21.0226 76.3336 20.8326 75.9836 20.3926C75.7036 20.0326 75.7136 19.5726 76.0236 19.2226C76.6636 18.5126 79.1136 16.7826 81.5136 16.4926C84.5936 16.1226 85.1036 17.6026 85.1036 17.6026Z" fill="#1F0C03"/>
<path d="M83.4636 36.5327C83.4636 36.5327 85.7936 39.0527 89.1336 38.0827" stroke="#1D0004" stroke-width="0.48" stroke-linecap="round" stroke-linejoin="round"/>
<path d="M91.8136 32.0426C91.8136 32.0426 71.5336 31.2526 66.1836 43.0426C66.1836 43.0426 69.4436 52.8426 83.1836 50.6326C83.1836 50.6326 93.2236 49.1126 96.4336 36.9026L91.8136 32.0426Z" fill="white"/>
<path d="M66.1936 30.1127L76.0236 37.4127" stroke="white" stroke-miterlimit="10"/>
<path d="M64.1836 37.7227L67.0436 43.7527" stroke="white" stroke-miterlimit="10"/>
<path d="M64.9936 32.2126L60.1536 17.9826C62.0936 13.5926 65.0336 14.2626 65.0336 14.2626C64.9736 13.9726 69.0136 11.9726 68.9636 11.6726C81.8336 -1.35738 94.0236 10.4826 94.0236 10.4826C94.0236 10.4826 89.2436 -1.42738 69.4536 0.142621C55.5136 1.25262 48.7636 12.1926 48.8336 21.3126C48.9436 34.8326 56.3136 37.1726 63.2336 44.2226L64.9936 32.2326V32.2126Z" fill="#1F0C03"/>
<path d="M67.1636 13.5727C67.1636 13.5727 71.4236 7.66265 78.9836 9.43265C85.1136 10.8727 95.0336 12.2627 89.7736 6.72265C89.7736 6.72265 84.9636 1.50265 74.6136 3.27265C64.2636 5.03265 67.1636 13.5827 67.1636 13.5827V13.5727Z" fill="#1F0C03"/>
<path d="M67.4536 31.6826C67.4536 31.6826 69.8236 24.3526 66.1936 8.88257L58.5336 13.3726L59.9336 28.3226L67.4536 31.6826V31.6826Z" fill="#1F0C03"/>
<path d="M54.5436 33.4826C55.3436 37.0026 58.8436 39.2226 62.3636 38.4226C65.8936 37.6226 68.1036 34.1226 67.3036 30.6026C66.5036 27.0726 63.0036 24.8626 59.4836 25.6626C55.9636 26.4626 53.7436 29.9626 54.5436 33.4826Z" fill="#B38477"/>
<path d="M58.1136 29.9225C58.1136 29.9225 62.9936 28.8925 63.8936 34.2525" stroke="#1D0004" stroke-width="0.48" stroke-linecap="round" stroke-linejoin="round"/>
</svg>
