<svg width="39" height="39" viewBox="0 0 39 39" fill="none" xmlns="http://www.w3.org/2000/svg">
<g clip-path="url(#clip0_2001_201)">
<path d="M19.4979 0C30.241 0 38.9959 8.74534 39 19.4806C39.0041 30.2588 30.2507 39.0069 19.4675 39C8.73549 38.9945 -0.00276461 30.2339 6.56133e-07 19.4848C0.00276593 8.74672 8.75623 0 19.4979 0ZM19.4938 3.03404C10.4195 3.03542 3.04871 10.3882 3.0335 19.4544C3.01829 28.5689 10.3725 35.9577 19.4703 35.966C28.5805 35.9756 35.961 28.6132 35.9651 19.5111C35.9693 10.4034 28.5998 3.03127 19.4938 3.03404V3.03404Z" fill="#4A5F88"/>
<path d="M19.4938 3.03394C28.5998 3.03255 35.9693 10.4033 35.9651 19.511C35.961 28.6131 28.5819 35.9742 19.4703 35.9659C10.3726 35.9562 3.01832 28.5688 3.03353 19.4543C3.04874 10.3881 10.4196 3.0367 19.4938 3.03394V3.03394ZM19.4717 17.243C19.704 17.4615 19.8727 17.6123 20.0344 17.7727C21.9936 19.7253 23.9445 21.6848 25.9134 23.6278C26.6033 24.3082 27.5242 24.3165 28.1311 23.6956C28.7105 23.1051 28.7063 22.1785 28.0579 21.5244C25.5912 19.0366 23.1149 16.5585 20.6276 14.0928C19.9307 13.4028 19.0998 13.3889 18.414 14.0679C15.9238 16.5322 13.4503 19.0131 10.9809 21.4968C10.5869 21.8937 10.4154 22.386 10.5827 22.9543C10.9381 24.1574 12.2709 24.4534 13.2153 23.5144C15.2906 21.4511 17.3493 19.3727 19.4717 17.243V17.243Z" fill="#1F3654"/>
<path d="M19.473 17.243C17.3507 19.3727 15.2919 21.4512 13.2166 23.5144C12.2723 24.4534 10.9394 24.1575 10.5841 22.9543C10.4168 22.386 10.5868 21.8937 10.9823 21.4968C13.4517 19.0131 15.9252 16.5322 18.4153 14.0679C19.1011 13.389 19.9321 13.4028 20.6289 14.0928C23.1177 16.5585 25.5926 19.0366 28.0592 21.5244C28.7063 22.1772 28.7104 23.1051 28.1325 23.6956C27.5255 24.3151 26.6047 24.3082 25.9147 23.6278C23.9472 21.6849 21.995 19.7253 20.0358 17.7727C19.8754 17.6123 19.7053 17.4615 19.473 17.243V17.243Z" fill="white"/>
</g>
<defs>
<clipPath id="clip0_2001_201">
<rect width="39" height="39" fill="white"/>
</clipPath>
</defs>
</svg>
