<svg width="372" height="342" viewBox="0 0 372 342" fill="none" xmlns="http://www.w3.org/2000/svg">
<g clip-path="url(#clip0_2002_1205)">
<path d="M185.841 256.217L185.851 256.226C192.697 261.86 199.644 267.361 206.636 272.899C209.631 275.27 212.633 277.648 215.641 280.047C215.641 280.047 215.642 280.048 215.643 280.048L215.736 280.123C237.422 297.397 259.11 314.672 281.719 332.691C281.72 326.585 281.729 320.484 281.737 314.386C281.761 296.978 281.785 279.596 281.638 262.204C281.618 259.925 281.784 256.746 283.939 254.391C286.212 251.907 289.471 251.604 292.03 251.647C292.03 251.647 292.031 251.647 292.031 251.647L291.954 256.147C303.233 256.32 314.532 256.287 325.837 256.254C330.36 256.241 334.884 256.227 339.408 256.227L185.841 256.217ZM185.841 256.217C181.817 252.926 177.66 251.727 172.814 251.727L172.802 251.727C126.003 251.849 79.2031 251.808 32.3939 251.768C22.4242 251.748 15.6595 249.17 11.3603 244.843C7.05691 240.512 4.5 233.701 4.5 223.679V223.306V222.932V222.559V222.186V221.812V221.439V221.065V220.692V220.319V219.945V219.572V219.198V218.825V218.452V218.078V217.705V217.332V216.958V216.585V216.211V215.838V215.465V215.091V214.718V214.345V213.971V213.598V213.224V212.851V212.478V212.104V211.731V211.357V210.984V210.611V210.237V209.864V209.491V209.117V208.744V208.37V207.997V207.624V207.25V206.877V206.504V206.13V205.757V205.383V205.01V204.637V204.263V203.89V203.516V203.143V202.77V202.396V202.023V201.65V201.276V200.903V200.529V200.156V199.783V199.409V199.036V198.663V198.289V197.916V197.542V197.169V196.796V196.422V196.049V195.675V195.302V194.929V194.555V194.182V193.809V193.435V193.062V192.688V192.315V191.942V191.568V191.195V190.822V190.448V190.075V189.701V189.328V188.955V188.581V188.208V187.834V187.461V187.088V186.714V186.341V185.968V185.594V185.221V184.847V184.474V184.101V183.727V183.354V182.981V182.607V182.234V181.86V181.487V181.114V180.74V180.367V179.993V179.62V179.247V178.873V178.5V178.127V177.753V177.38V177.006V176.633V176.26V175.886V175.513V175.14V174.766V174.393V174.019V173.646V173.273V172.899V172.526V172.152V171.779V171.406V171.032V170.659V170.286V169.912V169.539V169.165V168.792V168.419V168.045V167.672V167.299V166.925V166.552V166.178V165.805V165.432V165.058V164.685V164.311V163.938V163.565V163.191V162.818V162.445V162.071V161.698V161.324V160.951V160.578V160.204V159.831V159.458V159.084V158.711V158.337V157.964V157.591V157.217V156.844V156.47V156.097V155.724V155.35V154.977V154.604V154.23V153.857V153.483V153.11V152.737V152.363V151.99V151.617V151.243V150.87V150.496V150.123V149.75V149.376V149.003V148.629V148.256V147.883V147.509V147.136V146.763V146.389V146.016V145.642V145.269V144.896V144.522V144.149V143.776V143.402V143.029V142.655V142.282V141.909V141.535V141.162V140.788V140.415V140.042V139.668V139.295V138.922V138.548V138.175V137.801V137.428V137.055V136.681V136.308V135.935V135.561V135.188V134.814V134.441V134.068V133.694V133.321V132.947V132.574V132.201V131.827V131.454V131.081V130.707V130.334V129.96V129.587V129.214V128.84V128.467V128.094V127.72V127.347V126.973V126.6V126.227V125.853V125.48V125.106V124.733V124.36V123.986V123.613V123.24V122.866V122.493V122.119V121.746V121.373V120.999V120.626V120.253V119.879V119.506V119.132V118.759V118.386V118.012V117.639V117.265V116.892V116.519V116.145V115.772V115.399V115.025V114.652V114.278V113.905V113.532V113.158V112.785V112.412V112.038V111.665V111.291V110.918V110.545V110.171V109.798V109.424V109.051V108.678V108.304V107.931V107.558V107.184V106.811V106.437V106.064V105.691V105.317V104.944V104.571V104.197V103.824V103.45V103.077V102.704V102.33V101.957V101.583V101.21V100.837V100.463V100.09V99.7166V99.3432V98.9698V98.5964V98.223V97.8497V97.4763V97.1029V96.7295V96.3561V95.9827V95.6094V95.236V94.8626V94.4892V94.1158V93.7425V93.3691V92.9957V92.6223V92.2489V91.8756V91.5022V91.1288V90.7554V90.382V90.0087V89.6353V89.2619V88.8885V88.5151V88.1417V87.7684V87.395V87.0216V86.6482V86.2748V85.9015V85.5281V85.1547V84.7813V84.4079V84.0346V83.6612V83.2878V82.9144V82.541V82.1676V81.7943V81.4209V81.0475V80.6741V80.3007V79.9274V79.554V79.1806V78.8072V78.4338V78.0605V77.6871V77.3137V76.9403V76.5669V76.1936V75.8202V75.4468V75.0734V74.7V74.3266V73.9533V73.5799V73.2065V72.8331V72.4597V72.0864V71.713V71.3396V70.9662V70.5928V70.2195V69.8461V69.4727V69.0993V68.7259V68.3525V67.9792V67.6058V67.2324V66.859V66.4856V66.1123V65.7389V65.3655V64.9921V64.6187V64.2454V63.872V63.4986V63.1252V62.7518V62.3785V62.0051V61.6317V61.2583V60.8849V60.5115V60.1382V59.7648V59.3914V59.018V58.6446V58.2713V57.8979V57.5245V57.1511V56.7777V56.4044V56.031V55.6576V55.2842V54.9108V54.5375V54.1641V53.7907V53.4173V53.0439V52.6705V52.2972V51.9238V51.5504V51.177V50.8036V50.4303V50.0569V49.6835V49.3101V48.9367V48.5634V48.19V47.8166V47.4432V47.0698V46.6964V46.3231V45.9497V45.5763V45.2029V44.8295V44.4562V44.0828V43.7094V43.336V42.9626V42.5893V42.2159V41.8425V41.4691V41.0957V40.7224V40.349V39.9756V39.6022V39.2288V38.8554V38.4821V38.1087V37.7353V37.3619V36.9885V36.6152V36.2418V35.8684V35.495V35.1216V34.7483V34.3749V34.0015V33.6281V33.2547V32.8814V32.508C4.5 22.6708 7.10492 15.8556 11.4726 11.4843C15.8397 7.11369 22.6546 4.5 32.5111 4.5H33.1112H33.7114H34.3115H34.9116H35.5117H36.1118H36.7119H37.312H37.9122H38.5123H39.1124H39.7125H40.3126H40.9127H41.5128H42.1129H42.713H43.3131H43.9132H44.5133H45.1134H45.7135H46.3136H46.9137H47.5138H48.1139H48.714H49.3141H49.9142H50.5143H51.1144H51.7145H52.3145H52.9146H53.5147H54.1148H54.7149H55.315H55.9151H56.5152H57.1152H57.7153H58.3154H58.9155H59.5156H60.1156H60.7157H61.3158H61.9159H62.516H63.116H63.7161H64.3162H64.9163H65.5163H66.1164H66.7165H67.3165H67.9166H68.5167H69.1168H69.7168H70.3169H70.917H71.517H72.1171H72.7171H73.3172H73.9173H74.5173H75.1174H75.7175H76.3175H76.9176H77.5176H78.1177H78.7178H79.3178H79.9179H80.5179H81.118H81.718H82.3181H82.9181H83.5182H84.1182H84.7183H85.3184H85.9184H86.5185H87.1185H87.7186H88.3186H88.9186H89.5187H90.1187H90.7188H91.3188H91.9189H92.5189H93.119H93.719H94.319H94.9191H95.5191H96.1192H96.7192H97.3193H97.9193H98.5193H99.1194H99.7194H100.319H100.919H101.52H102.12H102.72H103.32H103.92H104.52H105.12H105.72H106.32H106.92H107.52H108.12H108.72H109.32H109.92H110.52H111.12H111.72H112.32H112.92H113.52H114.12H114.72H115.32H115.92H116.52H117.12H117.72H118.32H118.92H119.52H120.12H120.72H121.32H121.92H122.52H123.12H123.721H124.321H124.921H125.521H126.121H126.721H127.321H127.921H128.521H129.121H129.721H130.321H130.921H131.521H132.121H132.721H133.321H133.921H134.521H135.121H135.721H136.321H136.921H137.521H138.121H138.721H139.321H139.921H140.521H141.121H141.721H142.321H142.921H143.521H144.121H144.721H145.321H145.921H146.521H147.121H147.721H148.321H148.921H149.521H150.121H150.721H151.321H151.921H152.521H153.121H153.721H154.321H154.921H155.521H156.121H156.721H157.321H157.921H158.521H159.121H159.721H160.321H160.921H161.521H162.121H162.721H163.321H163.921H164.521H165.121H165.721H166.321H166.921H167.521H168.121H168.721H169.321H169.921H170.521H171.121H171.721H172.321H172.921H173.521H174.121H174.721H175.321H175.921H176.521H177.121H177.721H178.321H178.921H179.521H180.121H180.721H181.321H181.921H182.521H183.121H183.721H184.321H184.921H185.521H186.121H186.721H187.321H187.921H188.521H189.121H189.721H190.321H190.921H191.521H192.121H192.721H193.321H193.921H194.521H195.121H195.721H196.321H196.921H197.521H198.121H198.721H199.321H199.921H200.521H201.121H201.721H202.321H202.921H203.521H204.121H204.721H205.321H205.921H206.521H207.121H207.721H208.321H208.921H209.521H210.121H210.721H211.321H211.921H212.521H213.121H213.721H214.321H214.921H215.521H216.121H216.721H217.321H217.921H218.521H219.121H219.721H220.321H220.921H221.521H222.121H222.721H223.321H223.921H224.521H225.121H225.721H226.321H226.921H227.521H228.121H228.721H229.321H229.921H230.521H231.121H231.721H232.321H232.921H233.521H234.121H234.721H235.321H235.921H236.522H237.122H237.722H238.322H238.922H239.522H240.122H240.722H241.322H241.922H242.522H243.122H243.722H244.322H244.922H245.522H246.122H246.722H247.322H247.922H248.522H249.122H249.722H250.322H250.922H251.522H252.122H252.722H253.322H253.922H254.522H255.122H255.722H256.322H256.922H257.522H258.122H258.722H259.322H259.922H260.522H261.122H261.722H262.322H262.922H263.522H264.122H264.723H265.323H265.923H266.523H267.123H267.723H268.323H268.923H269.523H270.123H270.723H271.323H271.923H272.523H273.123H273.723H274.323H274.923H275.523H276.123H276.723H277.323H277.923H278.523H279.123H279.723H280.323H280.924H281.524H282.124H282.724H283.324H283.924H284.524H285.124H285.724H286.324H286.924H287.524H288.124H288.724H289.324H289.924H290.524H291.124H291.724H292.324H292.925H293.525H294.125H294.725H295.325H295.925H296.525H297.125H297.725H298.325H298.925H299.525H300.125H300.725H301.325H301.925H302.526H303.126H303.726H304.326H304.926H305.526H306.126H306.726H307.326H307.926H308.526H309.126H309.726H310.326H310.927H311.527H312.127H312.727H313.327H313.927H314.527H315.127H315.727H316.327H316.927H317.527H318.128H318.728H319.328H319.928H320.528H321.128H321.728H322.328H322.928H323.528H324.128H324.729H325.329H325.929H326.529H327.129H327.729H328.329H328.929H329.529H330.129H330.73H331.33H331.93H332.53H333.13H333.73H334.33H334.93H335.53H336.131H336.731H337.331H337.931H338.531H339.131H339.731C349.383 4.5 356.155 7.1117 360.523 11.4543C364.886 15.7929 367.5 22.508 367.5 32.0638V32.4383V32.8129V33.1875V33.562V33.9366V34.3112V34.6857V35.0603V35.4349V35.8094V36.184V36.5586V36.9332V37.3077V37.6823V38.0569V38.4315V38.8061V39.1806V39.5552V39.9298V40.3044V40.679V41.0536V41.4281V41.8027V42.1773V42.5519V42.9265V43.3011V43.6757V44.0503V44.4249V44.7995V45.174V45.5486V45.9232V46.2978V46.6724V47.047V47.4216V47.7962V48.1708V48.5454V48.92V49.2946V49.6692V50.0438V50.4184V50.793V51.1677V51.5423V51.9169V52.2915V52.6661V53.0407V53.4153V53.7899V54.1645V54.5391V54.9138V55.2884V55.663V56.0376V56.4122V56.7868V57.1614V57.5361V57.9107V58.2853V58.6599V59.0345V59.4092V59.7838V60.1584V60.533V60.9077V61.2823V61.6569V62.0315V62.4062V62.7808V63.1554V63.5301V63.9047V64.2793V64.6539V65.0286V65.4032V65.7778V66.1525V66.5271V66.9017V67.2764V67.651V68.0256V68.4003V68.7749V69.1496V69.5242V69.8988V70.2735V70.6481V71.0228V71.3974V71.772V72.1467V72.5213V72.896V73.2706V73.6452V74.0199V74.3945V74.7692V75.1438V75.5185V75.8931V76.2678V76.6424V77.0171V77.3917V77.7664V78.141V78.5157V78.8903V79.265V79.6396V80.0143V80.3889V80.7636V81.1382V81.5129V81.8876V82.2622V82.6369V83.0115V83.3862V83.7608V84.1355V84.5101V84.8848V85.2595V85.6341V86.0088V86.3834V86.7581V87.1328V87.5074V87.8821V88.2567V88.6314V89.0061V89.3807V89.7554V90.1301V90.5047V90.8794V91.2541V91.6287V92.0034V92.3781V92.7527V93.1274V93.5021V93.8767V94.2514V94.6261V95.0007V95.3754V95.7501V96.1247V96.4994V96.8741V97.2487V97.6234V97.9981V98.3727V98.7474V99.1221V99.4968V99.8714V100.246V100.621V100.995V101.37V101.745V102.119V102.494V102.869V103.243V103.618V103.993V104.368V104.742V105.117V105.492V105.866V106.241V106.616V106.99V107.365V107.74V108.114V108.489V108.864V109.238V109.613V109.988V110.362V110.737V111.112V111.486V111.861V112.236V112.61V112.985V113.36V113.734V114.109V114.484V114.859V115.233V115.608V115.983V116.357V116.732V117.107V117.481V117.856V118.231V118.605V118.98V119.355V119.729V120.104V120.479V120.853V121.228V121.603V121.977V122.352V122.727V123.101V123.476V123.851V124.226V124.6V124.975V125.35V125.724V126.099V126.474V126.848V127.223V127.598V127.972V128.347V128.722V129.096V129.471V129.846V130.22V130.595V130.97V131.345V131.719V132.094V132.469V132.843V133.218V133.593V133.967V134.342V134.717V135.091V135.466V135.841V136.215V136.59V136.965V137.339V137.714V138.089V138.463V138.838V139.213V139.588V139.962V140.337V140.712V141.086V141.461V141.836V142.21V142.585V142.96V143.334V143.709V144.084V144.458V144.833V145.208V145.582V145.957V146.332V146.706V147.081V147.456V147.83V148.205V148.58V148.954V149.329V149.704V150.079V150.453V150.828V151.203V151.577V151.952V152.327V152.701V153.076V153.451V153.825V154.2V154.575V154.949V155.324V155.699V156.073V156.448V156.823V157.197V157.572V157.947V158.321V158.696V159.071V159.445V159.82V160.195V160.569V160.944V161.319V161.693V162.068V162.443V162.817V163.192V163.567V163.941V164.316V164.691V165.065V165.44V165.815V166.189V166.564V166.939V167.313V167.688V168.063V168.437V168.812V169.187V169.561V169.936V170.311V170.685V171.06V171.435V171.809V172.184V172.559V172.933V173.308V173.683V174.057V174.432V174.806V175.181V175.556V175.93V176.305V176.68V177.054V177.429V177.804V178.178V178.553V178.928V179.302V179.677V180.052V180.426V180.801V181.176V181.55V181.925V182.299V182.674V183.049V183.423V183.798V184.173V184.547V184.922V185.297V185.671V186.046V186.421V186.795V187.17V187.544V187.919V188.294V188.668V189.043V189.418V189.792V190.167V190.542V190.916V191.291V191.665V192.04V192.415V192.789V193.164V193.539V193.913V194.288V194.662V195.037V195.412V195.786V196.161V196.536V196.91V197.285V197.659V198.034V198.409V198.783V199.158V199.533V199.907V200.282V200.656V201.031V201.406V201.78V202.155V202.529V202.904V203.279V203.653V204.028V204.402V204.777V205.152V205.526V205.901V206.275V206.65V207.025V207.399V207.774V208.148V208.523V208.898V209.272V209.647V210.021V210.396V210.771V211.145V211.52V211.894V212.269V212.644V213.018V213.393V213.767V214.142V214.517V214.891V215.266V215.64V216.015V216.39V216.764V217.139V217.513V217.888V218.262V218.637V219.012V219.386V219.761V220.135V220.51V220.884V221.259V221.634V222.008V222.383V222.757V223.132V223.506V223.881C367.5 233.831 364.939 240.571 360.621 244.856C356.297 249.148 349.477 251.707 339.408 251.727L185.841 256.217Z" fill="#E6EEFF" stroke="#BAC5E2" stroke-width="9"/>
</g>
<defs>
<clipPath id="clip0_2002_1205">
<rect width="372" height="342" fill="white"/>
</clipPath>
</defs>
</svg>
