<svg width="567" height="414" viewBox="0 0 567 414" fill="none" xmlns="http://www.w3.org/2000/svg">
<g clip-path="url(#clip0_2002_1201)">
<path d="M285.634 310.601L285.624 310.607C275.171 317.44 264.555 324.116 253.89 330.825C249.329 333.693 244.76 336.567 240.19 339.462C205.738 361.257 171.287 383.052 135.247 405.865V405.858V405.842V405.826V405.811V405.795V405.779V405.764V405.748V405.732V405.717V405.701V405.686V405.67V405.655V405.639V405.623V405.608V405.592V405.577V405.561V405.546V405.53V405.515V405.499V405.484V405.468V405.453V405.437V405.422V405.406V405.391V405.375V405.36V405.344V405.329V405.314V405.298V405.283V405.267V405.252V405.237V405.221V405.206V405.19V405.175V405.16V405.144V405.129V405.114V405.098V405.083V405.068V405.052V405.037V405.022V405.006V404.991V404.976V404.96V404.945V404.93V404.915V404.899V404.884V404.869V404.853V404.838V404.823V404.808V404.792V404.777V404.762V404.747V404.731V404.716V404.701V404.686V404.671V404.655V404.64V404.625V404.61V404.594V404.579V404.564V404.549V404.534V404.518V404.503V404.488V404.473V404.458V404.442V404.427V404.412V404.397V404.382V404.366V404.351V404.336V404.321C135.247 396.398 135.233 388.482 135.219 380.57C135.183 359.498 135.146 338.458 135.37 317.407L285.634 310.601ZM285.634 310.601C291.257 306.947 296.898 305.67 303.598 305.67H303.608C374.943 305.817 446.28 305.768 517.625 305.719C533.432 305.695 544.598 302.422 551.74 296.713C558.7 291.151 562.5 282.739 562.5 270.769V270.317V269.865V269.413V268.961V268.509V268.057V267.605V267.153V266.701V266.25V265.798V265.346V264.894V264.442V263.99V263.538V263.086V262.634V262.182V261.73V261.278V260.826V260.374V259.922V259.47V259.018V258.566V258.114V257.662V257.21V256.758V256.306V255.854V255.402V254.95V254.498V254.046V253.594V253.142V252.69V252.238V251.786V251.334V250.882V250.43V249.978V249.526V249.074V248.622V248.17V247.718V247.266V246.814V246.362V245.91V245.458V245.006V244.554V244.102V243.65V243.198V242.746V242.294V241.842V241.39V240.938V240.486V240.034V239.582V239.13V238.678V238.226V237.774V237.322V236.87V236.418V235.966V235.514V235.062V234.61V234.158V233.706V233.254V232.802V232.35V231.898V231.446V230.994V230.542V230.09V229.639V229.187V228.735V228.283V227.831V227.379V226.927V226.475V226.023V225.571V225.119V224.667V224.215V223.763V223.311V222.859V222.407V221.955V221.503V221.051V220.599V220.147V219.695V219.243V218.791V218.339V217.887V217.435V216.983V216.531V216.079V215.627V215.175V214.723V214.271V213.819V213.367V212.915V212.463V212.011V211.559V211.107V210.655V210.203V209.751V209.299V208.847V208.395V207.943V207.491V207.039V206.587V206.135V205.683V205.231V204.779V204.327V203.875V203.423V202.971V202.519V202.067V201.615V201.163V200.711V200.259V199.807V199.355V198.903V198.451V197.999V197.547V197.095V196.643V196.191V195.739V195.287V194.835V194.383V193.931V193.48V193.028V192.576V192.124V191.672V191.22V190.768V190.316V189.864V189.412V188.96V188.508V188.056V187.604V187.152V186.7V186.248V185.796V185.344V184.892V184.44V183.988V183.536V183.084V182.632V182.18V181.728V181.276V180.824V180.372V179.92V179.468V179.016V178.564V178.112V177.66V177.208V176.756V176.304V175.852V175.4V174.948V174.496V174.044V173.592V173.14V172.688V172.236V171.784V171.332V170.88V170.428V169.976V169.524V169.072V168.62V168.168V167.716V167.264V166.812V166.36V165.908V165.456V165.004V164.552V164.1V163.648V163.196V162.744V162.292V161.84V161.388V160.936V160.484V160.032V159.58V159.128V158.676V158.224V157.772V157.32V156.869V156.417V155.965V155.513V155.061V154.609V154.157V153.705V153.253V152.801V152.349V151.897V151.445V150.993V150.541V150.089V149.637V149.185V148.733V148.281V147.829V147.377V146.925V146.473V146.021V145.569V145.117V144.665V144.213V143.761V143.309V142.857V142.405V141.953V141.501V141.049V140.597V140.145V139.693V139.241V138.789V138.337V137.885V137.433V136.981V136.529V136.077V135.625V135.173V134.721V134.269V133.817V133.365V132.913V132.461V132.009V131.557V131.105V130.653V130.201V129.749V129.297V128.845V128.393V127.941V127.489V127.037V126.585V126.133V125.681V125.229V124.777V124.325V123.873V123.421V122.969V122.517V122.065V121.613V121.161V120.71V120.258V119.806V119.354V118.902V118.45V117.998V117.546V117.094V116.642V116.19V115.738V115.286V114.834V114.382V113.93V113.478V113.026V112.574V112.122V111.67V111.218V110.766V110.314V109.862V109.41V108.958V108.506V108.054V107.602V107.15V106.698V106.246V105.794V105.342V104.89V104.438V103.986V103.534V103.082V102.63V102.178V101.726V101.274V100.822V100.37V99.9181V99.4661V99.0141V98.5621V98.1101V97.6581V97.2062V96.7542V96.3022V95.8502V95.3982V94.9462V94.4942V94.0422V93.5903V93.1383V92.6863V92.2343V91.7823V91.3303V90.8783V90.4263V89.9744V89.5224V89.0704V88.6184V88.1664V87.7144V87.2624V86.8104V86.3585V85.9065V85.4545V85.0025V84.5505V84.0985V83.6465V83.1945V82.7426V82.2906V81.8386V81.3866V80.9346V80.4826V80.0306V79.5786V79.1267V78.6747V78.2227V77.7707V77.3187V76.8667V76.4147V75.9627V75.5108V75.0588V74.6068V74.1548V73.7028V73.2508V72.7988V72.3468V71.8949V71.4429V70.9909V70.5389V70.0869V69.6349V69.1829V68.7309V68.279V67.827V67.375V66.923V66.471V66.019V65.567V65.115V64.6631V64.2111V63.7591V63.3071V62.8551V62.4031V61.9511V61.4991V61.0472V60.5952V60.1432V59.6912V59.2392V58.7872V58.3352V57.8832V57.4313V56.9793V56.5273V56.0753V55.6233V55.1713V54.7193V54.2673V53.8154V53.3634V52.9114V52.4594V52.0074V51.5554V51.1034V50.6514V50.1995V49.7475V49.2955V48.8435V48.3915V47.9395V47.4875V47.0355V46.5836V46.1316V45.6796V45.2276V44.7756V44.3236V43.8716V43.4196V42.9677V42.5157V42.0637V41.6117V41.1597V40.7077V40.2557V39.8037V39.3518C562.5 27.6043 558.626 19.1866 551.565 13.5745C544.33 7.82325 533.101 4.5 517.447 4.5H516.532H515.617H514.703H513.788H512.873H511.959H511.044H510.129H509.215H508.3H507.385H506.47H505.556H504.641H503.726H502.812H501.897H500.982H500.068H499.153H498.238H497.324H496.409H495.494H494.58H493.665H492.75H491.836H490.921H490.006H489.092H488.177H487.263H486.348H485.433H484.519H483.604H482.689H481.775H480.86H479.945H479.031H478.116H477.201H476.287H475.372H474.457H473.543H472.628H471.714H470.799H469.884H468.97H468.055H467.14H466.226H465.311H464.397H463.482H462.567H461.653H460.738H459.823H458.909H457.994H457.08H456.165H455.25H454.336H453.421H452.507H451.592H450.677H449.763H448.848H447.934H447.019H446.104H445.19H444.275H443.36H442.446H441.531H440.617H439.702H438.788H437.873H436.958H436.044H435.129H434.215H433.3H432.385H431.471H430.556H429.642H428.727H427.812H426.898H425.983H425.069H424.154H423.24H422.325H421.41H420.496H419.581H418.667H417.752H416.837H415.923H415.008H414.094H413.179H412.265H411.35H410.435H409.521H408.606H407.692H406.777H405.863H404.948H404.034H403.119H402.204H401.29H400.375H399.461H398.546H397.632H396.717H395.802H394.888H393.973H393.059H392.144H391.23H390.315H389.401H388.486H387.571H386.657H385.742H384.828H383.913H382.999H382.084H381.17H380.255H379.341H378.426H377.511H376.597H375.682H374.768H373.853H372.939H372.024H371.11H370.195H369.281H368.366H367.451H366.537H365.622H364.708H363.793H362.879H361.964H361.05H360.135H359.221H358.306H357.392H356.477H355.563H354.648H353.733H352.819H351.904H350.99H350.075H349.161H348.246H347.332H346.417H345.503H344.588H343.674H342.759H341.845H340.93H340.016H339.101H338.186H337.272H336.357H335.443H334.528H333.614H332.699H331.785H330.87H329.956H329.041H328.127H327.212H326.298H325.383H324.469H323.554H322.64H321.725H320.811H319.896H318.981H318.067H317.152H316.238H315.323H314.409H313.494H312.58H311.665H310.751H309.836H308.922H308.007H307.093H306.178H305.264H304.349H303.435H302.52H301.606H300.691H299.777H298.862H297.948H297.033H296.119H295.204H294.29H293.375H292.46H291.546H290.631H289.717H288.802H287.888H286.973H286.059H285.144H284.23H283.315H282.401H281.486H280.572H279.657H278.743H277.828H276.914H275.999H275.085H274.17H273.256H272.341H271.427H270.512H269.598H268.683H267.769H266.854H265.94H265.025H264.11H263.196H262.281H261.367H260.452H259.538H258.623H257.709H256.794H255.88H254.965H254.051H253.136H252.222H251.307H250.393H249.478H248.564H247.649H246.735H245.82H244.906H243.991H243.077H242.162H241.247H240.333H239.418H238.504H237.589H236.675H235.76H234.846H233.931H233.017H232.102H231.188H230.273H229.359H228.444H227.53H226.615H225.701H224.786H223.872H222.957H222.042H221.128H220.213H219.299H218.384H217.47H216.555H215.641H214.726H213.812H212.897H211.983H211.068H210.154H209.239H208.325H207.41H206.495H205.581H204.666H203.752H202.837H201.923H201.008H200.094H199.179H198.265H197.35H196.436H195.521H194.606H193.692H192.777H191.863H190.948H190.034H189.119H188.205H187.29H186.376H185.461H184.546H183.632H182.717H181.803H180.888H179.974H179.059H178.145H177.23H176.315H175.401H174.486H173.572H172.657H171.743H170.828H169.914H168.999H168.085H167.17H166.255H165.341H164.426H163.512H162.597H161.683H160.768H159.853H158.939H158.024H157.11H156.195H155.281H154.366H153.451H152.537H151.622H150.708H149.793H148.879H147.964H147.049H146.135H145.22H144.306H143.391H142.477H141.562H140.647H139.733H138.818H137.904H136.989H136.074H135.16H134.245H133.331H132.416H131.501H130.587H129.672H128.758H127.843H126.929H126.014H125.099H124.185H123.27H122.356H121.441H120.526H119.612H118.697H117.783H116.868H115.953H115.039H114.124H113.209H112.295H111.38H110.466H109.551H108.636H107.722H106.807H105.893H104.978H104.063H103.149H102.234H101.319H100.405H99.4902H98.5756H97.6609H96.7463H95.8317H94.9171H94.0024H93.0878H92.1732H91.2585H90.3439H89.4292H88.5146H87.5999H86.6853H85.7707H84.856H83.9414H83.0267H82.1121H81.1974H80.2828H79.3681H78.4535H77.5388H76.6241H75.7095H74.7948H73.8802H72.9655H72.0509H71.1362H70.2215H69.3069H68.3922H67.4775H66.5629H65.6482H64.7335H63.8188H62.9042H61.9895H61.0748H60.1601H59.2455H58.3308H57.4161H56.5014H55.5867H54.6721H53.7573H52.8427H51.928H51.0132H50.0986H49.1839C33.8275 4.5 22.6741 7.82673 15.4465 13.5345C8.38849 19.1084 4.5 27.4065 4.5 38.814V39.2674V39.7209V40.1743V40.6277V41.0811V41.5346V41.988V42.4414V42.8948V43.3483V43.8017V44.2551V44.7086V45.162V45.6154V46.0689V46.5223V46.9758V47.4292V47.8826V48.3361V48.7895V49.243V49.6964V50.1499V50.6033V51.0568V51.5102V51.9636V52.4171V52.8706V53.324V53.7775V54.2309V54.6844V55.1378V55.5913V56.0447V56.4982V56.9517V57.4051V57.8586V58.312V58.7655V59.219V59.6724V60.1259V60.5794V61.0328V61.4863V61.9398V62.3933V62.8467V63.3002V63.7537V64.2072V64.6606V65.1141V65.5676V66.0211V66.4745V66.928V67.3815V67.835V68.2885V68.742V69.1954V69.6489V70.1024V70.5559V71.0094V71.4629V71.9164V72.3699V72.8233V73.2768V73.7303V74.1838V74.6373V75.0908V75.5443V75.9978V76.4513V76.9048V77.3583V77.8118V78.2653V78.7188V79.1723V79.6258V80.0793V80.5328V80.9863V81.4398V81.8933V82.3468V82.8003V83.2538V83.7074V84.1609V84.6144V85.0679V85.5214V85.9749V86.4284V86.8819V87.3354V87.789V88.2425V88.696V89.1495V89.603V90.0565V90.5101V90.9636V91.4171V91.8706V92.3241V92.7777V93.2312V93.6847V94.1382V94.5918V95.0453V95.4988V95.9523V96.4059V96.8594V97.3129V97.7664V98.22V98.6735V99.127V99.5806V100.034V100.488V100.941V101.395V101.848V102.302V102.755V103.209V103.662V104.116V104.569V105.023V105.476V105.93V106.384V106.837V107.291V107.744V108.198V108.651V109.105V109.558V110.012V110.465V110.919V111.373V111.826V112.28V112.733V113.187V113.64V114.094V114.547V115.001V115.454V115.908V116.362V116.815V117.269V117.722V118.176V118.629V119.083V119.536V119.99V120.443V120.897V121.351V121.804V122.258V122.711V123.165V123.618V124.072V124.525V124.979V125.433V125.886V126.34V126.793V127.247V127.7V128.154V128.607V129.061V129.515V129.968V130.422V130.875V131.329V131.782V132.236V132.689V133.143V133.597V134.05V134.504V134.957V135.411V135.864V136.318V136.771V137.225V137.679V138.132V138.586V139.039V139.493V139.946V140.4V140.853V141.307V141.761V142.214V142.668V143.121V143.575V144.028V144.482V144.936V145.389V145.843V146.296V146.75V147.203V147.657V148.11V148.564V149.018V149.471V149.925V150.378V150.832V151.285V151.739V152.193V152.646V153.1V153.553V154.007V154.46V154.914V155.367V155.821V156.275V156.728V157.182V157.635V158.089V158.542V158.996V159.45V159.903V160.357V160.81V161.264V161.717V162.171V162.624V163.078V163.532V163.985V164.439V164.892V165.346V165.799V166.253V166.707V167.16V167.614V168.067V168.521V168.974V169.428V169.881V170.335V170.789V171.242V171.696V172.149V172.603V173.056V173.51V173.964V174.417V174.871V175.324V175.778V176.231V176.685V177.138V177.592V178.046V178.499V178.953V179.406V179.86V180.313V180.767V181.22V181.674V182.128V182.581V183.035V183.488V183.942V184.395V184.849V185.302V185.756V186.21V186.663V187.117V187.57V188.024V188.477V188.931V189.384V189.838V190.291V190.745V191.199V191.652V192.106V192.559V193.013V193.466V193.92V194.373V194.827V195.28V195.734V196.188V196.641V197.095V197.548V198.002V198.455V198.909V199.362V199.816V200.269V200.723V201.177V201.63V202.084V202.537V202.991V203.444V203.898V204.351V204.805V205.258V205.712V206.165V206.619V207.073V207.526V207.98V208.433V208.887V209.34V209.794V210.247V210.701V211.154V211.608V212.061V212.515V212.968V213.422V213.875V214.329V214.783V215.236V215.69V216.143V216.597V217.05V217.504V217.957V218.411V218.864V219.318V219.771V220.225V220.678V221.132V221.585V222.039V222.492V222.946V223.399V223.853V224.306V224.76V225.213V225.667V226.12V226.574V227.027V227.481V227.934V228.388V228.842V229.295V229.749V230.202V230.656V231.109V231.563V232.016V232.47V232.923V233.377V233.83V234.284V234.737V235.191V235.644V236.097V236.551V237.004V237.458V237.911V238.365V238.818V239.272V239.725V240.179V240.632V241.086V241.539V241.993V242.446V242.9V243.353V243.807V244.26V244.714V245.167V245.621V246.074V246.528V246.981V247.435V247.888V248.342V248.795V249.248V249.702V250.155V250.609V251.062V251.516V251.969V252.423V252.876V253.33V253.783V254.237V254.69V255.143V255.597V256.05V256.504V256.957V257.411V257.864V258.318V258.771V259.225V259.678V260.131V260.585V261.038V261.492V261.945V262.399V262.852V263.306V263.759V264.212V264.666V265.119V265.573V266.026V266.48V266.933V267.386V267.84V268.293V268.747V269.2V269.654V270.107V270.56V271.014C4.5 282.894 8.30408 291.225 15.2971 296.737C22.4866 302.404 33.737 305.646 49.683 305.67M285.634 310.601L49.683 305.67M49.683 305.67C56.5995 305.67 63.5065 305.686 70.4059 305.702C87.6238 305.742 104.795 305.782 121.951 305.573M49.683 305.67L121.951 305.573M121.951 305.573C121.949 305.573 121.947 305.573 121.945 305.573L122.006 310.072L121.951 305.573ZM121.951 305.573C125.591 305.524 129.402 305.874 132.111 308.226M121.951 305.573L132.111 308.226M132.111 308.226C135.054 310.78 135.402 314.486 135.37 317.404L132.111 308.226Z" fill="#D9F8FF" stroke="#BADDE2" stroke-width="9"/>
</g>
<defs>
<clipPath id="clip0_2002_1201">
<rect width="567" height="414" fill="white" transform="matrix(-1 0 0 1 567 0)"/>
</clipPath>
</defs>
</svg>
