<svg width="31" height="31" viewBox="0 0 31 31" fill="none" xmlns="http://www.w3.org/2000/svg">
<g clip-path="url(#clip0_2002_2151)">
<path d="M23.6422 31C21.971 30.4461 20.2017 30.0841 18.6508 29.3035C11.1803 25.6035 5.1344 19.6364 1.4172 12.2945C0.872876 11.1806 0.458768 10.0102 0.182734 8.80543C-0.668473 5.40799 1.56872 1.08596 4.96464 0.0610597C5.92281 -0.231146 7.42913 0.314009 8.33382 0.955118C9.75547 1.96257 10.9186 3.33638 12.1219 4.61859C13.9045 6.50703 13.6238 8.26899 11.4178 9.64715C9.32764 10.9555 8.94437 12.1636 10.0095 14.3966C11.3262 17.1098 13.5447 19.3055 16.3022 20.6245C18.4012 21.6799 19.7026 21.2351 20.9638 19.2638C22.4478 16.9305 24.1859 16.6775 26.1958 18.5616C27.4793 19.7653 28.7182 21.0127 29.9304 22.2905C31.2986 23.7385 31.4011 25.3434 29.9795 26.7521C28.2057 28.5184 26.8465 30.9956 23.6422 31Z" fill="#19427D"/>
</g>
<defs>
<clipPath id="clip0_2002_2151">
<rect width="31" height="31" fill="white"/>
</clipPath>
</defs>
</svg>
