<svg width="118" height="192" viewBox="0 0 118 192" fill="none" xmlns="http://www.w3.org/2000/svg">
<g clip-path="url(#clip0_2002_1229)">
<path d="M117.955 119.507C117.955 139.363 117.964 159.219 117.955 179.074C117.955 187.454 113.526 191.955 105.034 191.964C74.4041 192.018 43.7655 192.018 13.1359 191.964C4.38457 191.947 0.0714175 187.508 0.0624876 178.772C0.0446277 139.212 0.0892774 99.6517 -2.18713e-05 60.0917C-0.00895179 55.6171 1.50914 52.1655 4.65247 49.0608C19.5654 34.3737 34.3891 19.5976 49.2396 4.85712C55.7227 -1.57461 62.2415 -1.61909 68.6622 4.74148C83.6287 19.5798 98.5595 34.4538 113.562 49.2654C116.589 52.2544 118.018 55.6438 118 59.9494C117.893 79.805 117.955 99.6606 117.955 119.516V119.507ZM8.04584 119.632C8.04584 139.043 8.04584 158.445 8.04584 177.856C8.04584 183.264 8.84953 184.145 14.1182 184.154C44.0066 184.18 73.8862 184.18 103.775 184.154C109.15 184.154 109.954 183.318 109.954 177.962C109.954 138.998 109.936 100.034 110.017 61.0703C110.017 58.1702 109.177 56.0708 107.114 54.0425C92.514 39.6756 78.0296 25.202 63.4739 10.7907C59.7858 7.13447 58.2409 7.12558 54.6065 10.7195C40.0596 25.1309 25.5753 39.6134 10.9659 53.9624C8.76023 56.133 7.9744 58.3837 7.99226 61.4083C8.09942 80.8191 8.04584 100.221 8.04584 119.632V119.632Z" fill="#21214B"/>
<path d="M8.04588 119.632C8.04588 100.221 8.09946 80.8192 7.9923 61.4083C7.97444 58.3837 8.76027 56.1242 10.966 53.9625C25.5753 39.6134 40.0597 25.1309 54.6065 10.7195C58.241 7.11671 59.7859 7.12561 63.4739 10.7907C78.0208 25.2021 92.514 39.6757 107.114 54.0425C109.177 56.0708 110.026 58.1702 110.017 61.0703C109.936 100.034 109.963 138.998 109.954 177.962C109.954 183.318 109.159 184.154 103.775 184.154C73.8862 184.172 44.0067 184.18 14.1182 184.154C8.84957 184.154 8.04588 183.264 8.04588 177.856C8.03695 158.445 8.04588 139.043 8.04588 119.632V119.632ZM47.3643 111.457C47.4536 105.39 52.1686 100.443 58.2142 100.079C64.5276 99.6962 69.7963 103.913 70.5643 110.327C70.9215 113.36 71.7341 115.833 75.2168 115.406C79.1281 114.926 79.0209 111.706 78.5208 108.868C77.226 101.458 73.0021 96.2268 65.9922 93.3979C64.2865 92.7041 62.6791 92.4372 62.822 89.973C62.9738 87.5267 61.4468 85.9966 59.0268 85.9788C56.6068 85.961 55.1244 87.4733 55.178 89.9285C55.2227 91.9568 54.2493 92.5528 52.4812 93.2467C43.1405 96.9118 38.0504 105.443 39.4613 114.579C40.9259 124.071 48.6324 130.601 59.0715 131.214C65.8403 131.615 70.6268 136.41 70.6446 142.824C70.6714 148.953 66.0814 153.97 60.0448 154.415C53.4635 154.904 48.2395 150.723 47.4268 144.016C47.0786 141.151 46.257 138.927 42.9887 139.158C39.2828 139.416 39.0238 142.254 39.4167 145.056C40.4883 152.716 44.6496 158.142 51.8382 161.06C53.7582 161.834 55.3209 162.261 55.2137 164.841C55.1244 167.038 56.4996 168.479 58.7857 168.577C61.2861 168.684 62.7863 167.278 62.8131 164.85C62.8399 162.679 63.6972 161.825 65.76 161.211C68.9122 160.268 71.6359 158.382 73.779 155.82C78.8691 149.727 80.2443 142.886 77.1813 135.538C73.9755 127.852 67.8406 123.902 59.5805 123.279C51.8829 122.692 47.2661 118.298 47.3643 111.466V111.457ZM59.4376 37.594C50.5612 37.4339 43.2834 44.2926 43.1583 52.9305C43.0423 61.2304 50.1683 68.5962 58.5803 68.872C67.0995 69.1478 74.6988 61.8976 74.8596 53.3487C75.0203 44.942 67.9835 37.7542 59.4376 37.594V37.594Z" fill="#FFC73B"/>
<path d="M47.3554 111.457C47.2572 118.298 51.865 122.692 59.5715 123.27C67.8317 123.893 73.9666 127.852 77.1724 135.529C80.2354 142.877 78.8512 149.718 73.7701 155.812C71.6269 158.374 68.9122 160.259 65.751 161.202C63.6882 161.816 62.8309 162.67 62.8042 164.841C62.7774 167.269 61.2771 168.684 58.7768 168.568C56.4996 168.47 55.1155 167.029 55.2048 164.832C55.312 162.252 53.7492 161.825 51.8293 161.051C44.6407 158.142 40.4794 152.707 39.4078 145.047C39.0148 142.245 39.2738 139.407 42.9797 139.15C46.2481 138.918 47.0696 141.142 47.4179 144.007C48.2395 150.714 53.4545 154.895 60.0359 154.406C66.0725 153.961 70.6536 148.944 70.6357 142.815C70.6089 136.392 65.8314 131.597 59.0625 131.205C48.6234 130.592 40.9258 124.062 39.4524 114.57C38.0415 105.425 43.1315 96.9029 52.4722 93.2378C54.2404 92.5439 55.2137 91.9479 55.1691 89.9197C55.1155 87.4555 56.5889 85.9521 59.0179 85.9699C61.4379 85.9877 62.9649 87.5178 62.8131 89.9641C62.6613 92.4283 64.2687 92.7041 65.9832 93.3891C72.9932 96.218 77.217 101.449 78.5119 108.859C79.012 111.688 79.1102 114.917 75.2078 115.397C71.7251 115.824 70.9125 113.351 70.5553 110.318C69.7963 103.904 64.5276 99.6873 58.2052 100.07C52.1597 100.435 47.4447 105.381 47.3554 111.448V111.457Z" fill="#21214B"/>
<path d="M59.4376 37.594C67.9835 37.7453 75.0203 44.942 74.8595 53.3486C74.6899 61.8976 67.0905 69.1477 58.5803 68.872C50.1683 68.6051 43.0422 61.2304 43.1583 52.9305C43.2833 44.2926 50.5702 37.4339 59.4376 37.594V37.594ZM66.9298 53.144C66.9566 49.0697 63.0185 45.2267 58.9018 45.289C54.9547 45.3512 51.2042 49.0075 51.0792 52.9039C50.9541 57.0049 54.6958 60.8479 58.8839 60.9191C63.081 60.9813 66.903 57.2895 66.9298 53.144V53.144Z" fill="#21214B"/>
<path d="M66.9298 53.1529C66.903 57.3073 63.0899 60.9991 58.8839 60.9279C54.6958 60.8657 50.9541 57.0227 51.0792 52.9128C51.1952 49.0075 54.9547 45.3601 58.9018 45.2979C63.0274 45.2356 66.9566 49.0786 66.9298 53.1529V53.1529Z" fill="#EBF4FC"/>
</g>
<defs>
<clipPath id="clip0_2002_1229">
<rect width="118" height="192" fill="white"/>
</clipPath>
</defs>
</svg>
