<svg width="272" height="271" viewBox="0 0 272 271" fill="none" xmlns="http://www.w3.org/2000/svg">
<g clip-path="url(#clip0_2002_1808)">
<path d="M135.958 271C60.8113 271 0 210.281 0 135.312C0 60.5101 61.0203 -0.0417709 136.293 1.78021e-05C211.314 0.0418065 272.084 60.8862 272 135.897C271.916 210.406 210.896 271 135.958 271ZM63.8623 100.335C64.8654 104.681 65.2833 109.236 66.9133 113.331C83.464 155.454 113.138 184.832 154.808 202.09C162.372 205.225 170.23 207.23 178.714 205.893C189.79 204.18 197.564 197.535 204.836 189.846C208.472 186.002 208.514 183.327 204.752 179.483C197.187 171.835 189.581 164.23 181.891 156.666C177.544 152.404 175.162 152.404 170.899 156.582C166.761 160.636 162.79 164.815 158.653 168.91C153.178 174.301 147.494 174.969 141.35 170.582C125.886 159.633 112.428 146.595 101.227 131.3C96.8801 125.366 97.2563 119.767 102.397 114.334C106.493 110.03 110.798 105.934 114.977 101.672C119.616 96.9499 119.658 94.568 115.103 89.9294C109.46 84.2043 103.734 78.6046 98.0086 72.9632C90.7642 65.8034 83.5476 65.8869 76.3589 73.2139C68.9195 80.6941 64.2803 89.3861 63.9041 100.335H63.8623Z" fill="#161D26"/>
<path d="M63.8623 100.335C64.2803 89.3861 68.9195 80.7359 76.3172 73.2139C83.5337 65.9426 90.7503 65.8591 97.9668 72.9631C103.693 78.6046 109.419 84.2043 115.061 89.9294C119.658 94.5679 119.616 96.9499 114.935 101.672C110.756 105.934 106.451 109.988 102.355 114.334C97.2145 119.767 96.8384 125.324 101.185 131.3C112.386 146.595 125.844 159.633 141.308 170.582C147.452 174.928 153.136 174.301 158.611 168.91C162.749 164.857 166.719 160.636 170.857 156.582C175.12 152.404 177.544 152.362 181.849 156.666C189.497 164.23 197.146 171.835 204.711 179.483C208.514 183.327 208.472 185.96 204.794 189.846C197.522 197.535 189.748 204.18 178.672 205.893C170.188 207.23 162.289 205.183 154.766 202.09C113.097 184.832 83.4223 155.496 66.8716 113.331C65.2416 109.236 64.8236 104.681 63.8206 100.335H63.8623Z" fill="white"/>
</g>
<defs>
<clipPath id="clip0_2002_1808">
<rect width="272" height="271" fill="white"/>
</clipPath>
</defs>
</svg>
