<svg width="216" height="215" viewBox="0 0 216 215" fill="none" xmlns="http://www.w3.org/2000/svg">
<g clip-path="url(#clip0_2002_1223)">
<path d="M107.988 167.343C91.4388 167.343 74.8777 167.343 58.3289 167.343C40.7041 167.331 29.8076 149.765 37.6986 134.052C54.136 101.293 70.5735 68.5455 87.0481 35.7983C94.1475 21.6915 110.672 17.6645 122.409 27.3614C124.92 29.4367 127.097 32.2654 128.581 35.1807C145.34 68.2491 162 101.379 178.561 134.559C186.131 149.74 175.135 167.294 158.178 167.331C141.456 167.368 124.734 167.331 108 167.331L107.988 167.343ZM107.852 156.003C124.314 156.003 140.788 156.016 157.251 156.003C167.059 156.003 172.303 147.467 167.9 138.672C151.499 105.987 135.062 73.3261 118.674 40.6406C116.435 36.1689 113.009 33.5007 107.901 33.5378C102.904 33.5748 99.5648 36.2183 97.3633 40.5912C80.9629 73.2767 64.5254 105.937 48.1251 138.623C43.6477 147.529 48.9414 155.991 58.9597 156.003C75.2487 156.003 91.5502 156.003 107.839 156.003H107.852Z" fill="#21214B"/>
<path d="M107.864 156.003C91.5749 156.003 75.2735 156.003 58.9844 156.003C48.9661 156.003 43.6725 147.542 48.1498 138.623C64.5502 105.937 80.9876 73.2766 97.388 40.5912C99.5772 36.2183 102.929 33.5748 107.926 33.5378C113.034 33.5007 116.448 36.1689 118.699 40.6406C135.099 73.3261 151.524 105.987 167.924 138.672C172.34 147.467 167.083 155.991 157.275 156.003C140.813 156.016 124.339 156.003 107.876 156.003H107.864ZM102.471 66.5938V111.546H113.541V66.5814H102.471V66.5938ZM107.913 134.386C111.166 134.435 113.714 131.952 113.702 128.765C113.702 125.751 111.142 123.157 108.124 123.095C105.032 123.021 102.323 125.689 102.335 128.815C102.335 131.903 104.784 134.349 107.913 134.398V134.386Z" fill="#FFC73B"/>
<path d="M102.471 66.5815H113.541V111.533H102.471V66.5815Z" fill="#21214B"/>
<path d="M107.901 134.373C104.772 134.324 102.335 131.891 102.323 128.79C102.323 125.677 105.019 122.997 108.111 123.071C111.129 123.145 113.677 125.727 113.689 128.741C113.689 131.94 111.154 134.41 107.901 134.361V134.373Z" fill="#21214B"/>
<path d="M107.938 215C48.1127 214.852 -0.136039 166.676 1.23622e-05 107.21C0.136064 47.8177 48.8177 -0.284027 108.507 8.67535e-05C168.234 0.284201 216.247 48.633 216 108.223C215.753 167.145 167.17 215.148 107.938 215V215ZM167.85 35.9096C142.631 15.861 113.652 8.68409 82.1132 18.1587C44.3404 29.5109 21.6445 55.6493 15.4975 94.6594C11.2057 121.885 19.0472 146.294 36.8575 167.948C80.7527 123.701 124.153 79.9596 167.85 35.9096V35.9096ZM48.4095 178.794C82.6697 208.923 143.435 209.429 179.39 166.59C213.601 125.825 202.865 72.0291 178.536 47.5583C135.21 91.25 91.8841 134.954 48.4095 178.794V178.794Z" fill="#F0484D"/>
</g>
<defs>
<clipPath id="clip0_2002_1223">
<rect width="216" height="215" fill="white"/>
</clipPath>
</defs>
</svg>
