<svg width="79" height="79" viewBox="0 0 79 79" fill="none" xmlns="http://www.w3.org/2000/svg">
<circle cx="39.5" cy="39.5" r="39.5" fill="#2C5EA3"/>
<path d="M57.7246 24.2779C57.4498 24.0032 57.1015 23.8138 56.7215 23.7324C56.3416 23.6511 55.9462 23.6813 55.583 23.8194L21.9867 36.5355H21.98C21.5926 36.6845 21.2607 36.9494 21.0296 37.2941C20.7984 37.6388 20.6793 38.0464 20.6885 38.4614C20.6976 38.8763 20.8347 39.2783 21.0809 39.6124C21.3271 39.9465 21.6704 40.1965 22.064 40.3282L22.0984 40.3391L33.6295 45.2631C33.8544 45.3314 34.0933 45.3395 34.3223 45.2866C34.5513 45.2337 34.7624 45.1216 34.9346 44.9616L53.4414 27.7171C53.4965 27.662 53.562 27.6182 53.6341 27.5884C53.7061 27.5585 53.7833 27.5432 53.8613 27.5432C53.9393 27.5432 54.0165 27.5585 54.0886 27.5884C54.1606 27.6182 54.2261 27.662 54.2812 27.7171C54.3364 27.7723 54.3801 27.8377 54.41 27.9098C54.4398 27.9818 54.4552 28.059 54.4552 28.137C54.4552 28.215 54.4398 28.2922 54.41 28.3643C54.3801 28.4363 54.3364 28.5018 54.2812 28.557L37.0359 47.0554C36.8759 47.2275 36.7638 47.4386 36.7109 47.6677C36.658 47.8967 36.6661 48.1356 36.7344 48.3605L41.6601 59.8982C41.6651 59.915 41.6702 59.9302 41.676 59.9461C41.9448 60.7246 42.6251 61.2739 43.4473 61.3109C43.4834 61.3109 43.496 61.3109 43.5312 61.3109C43.9463 61.3132 44.3525 61.1907 44.697 60.9591C45.0415 60.7275 45.3084 60.3977 45.4629 60.0125L58.1773 26.4254C58.3174 26.062 58.3492 25.6658 58.2688 25.2847C58.1885 24.9036 57.9995 24.5539 57.7246 24.2779V24.2779Z" fill="white"/>
</svg>
