<svg width="79" height="79" viewBox="0 0 79 79" fill="none" xmlns="http://www.w3.org/2000/svg">
<circle cx="39.5" cy="39.5" r="39.5" fill="#2C5EA3"/>
<path d="M56.625 19.7812L53.4375 18.1875L50.25 19.7812L47.0625 18.1875L43.875 19.7812L40.6875 18.1875L37.5 19.7812L34.3125 18.1875L31.125 19.7812L26.3438 18.1875V43.6875V43.6925H48.6562V57.2344C48.6562 60.3153 51.9503 62.8125 55.0312 62.8125H56.2266C59.3075 62.8125 61.4062 60.3153 61.4062 57.2344V18.1875L56.625 19.7812ZM39.1436 38.9062L39.0938 35.7188H54.9814L55.0312 38.9062H39.1436ZM32.7686 30.9375L32.7188 27.75H54.9814L55.0312 30.9375H32.7686Z" fill="white"/>
<path d="M45.4688 57.2344V46.875H13.5938V50.0625C13.5938 55.0978 14.1695 57.1965 15.0341 58.7913C16.5013 61.4977 19.1579 62.8125 23.1562 62.8125H48.6562C48.6562 62.8125 45.4688 60.8203 45.4688 57.2344Z" fill="white"/>
</svg>
