<svg width="79" height="79" viewBox="0 0 79 79" fill="none" xmlns="http://www.w3.org/2000/svg">
<circle cx="39.5" cy="39.5" r="39.5" fill="#2C5EA3"/>
<path d="M56.7162 40.197C56.3878 39.9348 56.0046 39.7498 55.5949 39.656C55.1853 39.5621 54.7598 39.5617 54.35 39.6548C53.7365 39.7933 53.0999 39.7929 52.4866 39.6536C51.8733 39.5143 51.2989 39.2396 50.8055 38.8496C50.3122 38.4597 49.9122 37.9643 49.635 37.3998C49.3578 36.8353 49.2103 36.2159 49.2034 35.5871C49.2 34.848 48.905 34.1403 48.3825 33.6177C47.8599 33.0951 47.1522 32.8 46.4131 32.7965C45.7843 32.7897 45.1649 32.6422 44.6003 32.3651C44.0358 32.0879 43.5404 31.6879 43.1504 31.1945C42.7604 30.7011 42.4857 30.1267 42.3464 29.5134C42.2071 28.9001 42.2068 28.2634 42.3454 27.65C42.4374 27.2392 42.4361 26.813 42.3416 26.4027C42.2471 25.9925 42.0618 25.6087 41.7993 25.2796C41.5369 24.9505 41.2039 24.6844 40.825 24.501C40.4461 24.3176 40.0308 24.2215 39.6099 24.2198C39.5717 24.2196 39.5342 24.2195 39.4961 24.2195C35.8758 24.2201 32.3371 25.2957 29.3288 27.3099C26.3204 29.324 23.9779 32.186 22.598 35.5331C21.2182 38.8802 20.8632 42.5616 21.5781 46.1107C22.293 49.6598 24.0456 52.9167 26.6137 55.4685C29.1818 58.0203 32.4497 59.7522 36.0033 60.4446C39.5568 61.1369 43.2359 60.7586 46.5742 59.3575C49.9124 57.9565 52.7595 55.5958 54.7545 52.5747C56.7495 49.5536 57.8026 46.0082 57.7803 42.3879V42.3878C57.7788 41.9662 57.6823 41.5503 57.4981 41.171C57.3139 40.7918 57.0466 40.4589 56.7162 40.197ZM30.2741 37.4929C30.5691 37.1979 30.9449 36.9969 31.3541 36.9156C31.7633 36.8342 32.1874 36.8759 32.5728 37.0356C32.9583 37.1952 33.2877 37.4656 33.5195 37.8125C33.7513 38.1594 33.875 38.5672 33.875 38.9844C33.875 39.4016 33.7513 39.8094 33.5195 40.1563C33.2877 40.5032 32.9583 40.7736 32.5728 40.9332C32.1874 41.0929 31.7633 41.1347 31.3541 41.0533C30.9449 40.9719 30.5691 40.771 30.2741 40.476C29.8785 40.0804 29.6563 39.5439 29.6563 38.9844C29.6563 38.425 29.8785 37.8885 30.2741 37.4929V37.4929ZM34.6634 50.3197C34.3684 50.6147 33.9926 50.8156 33.5834 50.897C33.1742 50.9784 32.7501 50.9367 32.3646 50.777C31.9792 50.6173 31.6498 50.347 31.418 50.0001C31.1862 49.6532 31.0625 49.2454 31.0625 48.8282C31.0625 48.411 31.1862 48.0031 31.418 47.6563C31.6498 47.3094 31.9792 47.039 32.3646 46.8793C32.7501 46.7197 33.1742 46.6779 33.5834 46.7593C33.9926 46.8407 34.3684 47.0416 34.6634 47.3366C35.059 47.7322 35.2812 48.2687 35.2812 48.8282C35.2812 49.3876 35.059 49.9241 34.6634 50.3197V50.3197ZM39.4147 43.2885C39.1197 42.9935 38.9188 42.6176 38.8374 42.2084C38.756 41.7993 38.7978 41.3751 38.9574 40.9897C39.1171 40.6043 39.3874 40.2748 39.7343 40.043C40.0812 39.8112 40.489 39.6875 40.9062 39.6875C41.3234 39.6875 41.7313 39.8112 42.0782 40.043C42.425 40.2748 42.6954 40.6043 42.8551 40.9897C43.0147 41.3751 43.0565 41.7993 42.9751 42.2084C42.8937 42.6176 42.6928 42.9935 42.3978 43.2885C42.0022 43.6841 41.4657 43.9063 40.9062 43.9063C40.3468 43.9063 39.8103 43.6841 39.4147 43.2885V43.2885ZM45.9134 51.726C45.6184 52.021 45.2426 52.2219 44.8334 52.3033C44.4242 52.3847 44.0001 52.3429 43.6146 52.1832C43.2292 52.0236 42.8998 51.7532 42.668 51.4063C42.4362 51.0594 42.3125 50.6516 42.3125 50.2344C42.3125 49.8172 42.4362 49.4094 42.668 49.0625C42.8998 48.7156 43.2292 48.4452 43.6146 48.2856C44.0001 48.1259 44.4242 48.0842 44.8334 48.1656C45.2426 48.247 45.6184 48.4479 45.9134 48.7429C46.309 49.1385 46.5312 49.675 46.5312 50.2344C46.5312 50.7939 46.309 51.3304 45.9134 51.726V51.726Z" fill="white"/>
<circle cx="49" cy="17" r="3" fill="white"/>
<circle cx="62" cy="33" r="3" fill="white"/>
</svg>
