<svg width="79" height="79" viewBox="0 0 79 79" fill="none" xmlns="http://www.w3.org/2000/svg">
<circle cx="39.5" cy="39.5" r="39.5" fill="#2C5EA3"/>
<path d="M57.6863 19.5927H23.3113C22.4 19.5937 21.5262 19.9562 20.8818 20.6006C20.2374 21.2451 19.8749 22.1188 19.8738 23.0302V35.6344C19.8738 54.8539 36.1646 61.2277 39.4302 62.3103C40.1232 62.5453 40.8744 62.5453 41.5674 62.3103C44.8331 61.2277 61.1238 54.8539 61.1238 35.6344V23.0302C61.1228 22.1188 60.7603 21.2451 60.1159 20.6006C59.4715 19.9562 58.5977 19.5937 57.6863 19.5927V19.5927ZM40.4983 59.043C37.7659 58.1345 24.961 53.1104 23.4573 38.5H40.5V23.0302H57.6863V35.6344C57.6868 36.5915 57.6382 37.5479 57.5405 38.5H40.5V59.0424L40.4983 59.043Z" fill="white"/>
</svg>
