<svg width="164" height="342" viewBox="0 0 164 342" fill="none" xmlns="http://www.w3.org/2000/svg">
<path d="M34.03 177.859C33.8615 221.42 33.8002 264.966 34.03 308.528C34.1066 323.651 43.6218 333.227 57.32 333.135C70.8649 333.028 80.2268 323.007 80.4107 308.16C80.5486 296.699 80.4414 285.238 80.4414 273.777C80.4414 246.273 80.4567 218.754 80.4107 191.251C80.4107 188.002 80.1656 185.382 84.9461 185.397C89.8493 185.428 89.3436 188.309 89.313 191.404C89.267 196.751 89.313 202.099 89.313 207.446C89.313 241.324 89.2057 275.202 89.3896 309.079C89.4662 323.636 99.5023 333.426 113.246 333.12C126.975 332.814 135.663 322.823 135.678 306.888C135.709 262.898 135.724 218.907 135.724 174.917H33.9534C34.0147 175.836 34.03 176.802 34.03 177.859V177.859Z" fill="white" stroke="#161D26" stroke-width="6.12893" stroke-miterlimit="10"/>
<path d="M15.1674 180.677C14.9988 225.694 14.9375 270.726 15.1674 315.743C15.244 331.372 24.7591 341.286 38.4573 341.178C52.0023 341.071 61.3642 330.713 61.5481 315.36C61.686 303.516 61.5787 291.672 61.5787 279.813C61.5787 251.374 61.594 222.936 61.5481 194.498C61.5481 191.142 61.3029 188.43 66.0835 188.461C70.9866 188.491 70.481 191.464 70.4503 194.666C70.4044 200.198 70.4503 205.729 70.4503 211.26C70.4503 246.272 70.3431 281.299 70.527 316.31C70.6036 331.357 80.6397 341.485 94.3838 341.163C108.113 340.841 116.8 330.529 116.816 314.058C116.846 268.581 116.862 223.12 116.862 177.643H15.0754C15.1367 178.593 15.152 179.589 15.152 180.677H15.1674Z" fill="#060606"/>
<path d="M119.147 58.5297C127.589 58.5297 135.955 58.6063 144.321 58.5144C156.012 58.3918 164.623 66.7272 163.965 77.9891C163.52 85.543 159.598 91.2276 152.534 93.7098C148.535 95.1195 148.32 97.1114 148.903 100.436C149.761 105.309 150.971 110.197 149.96 115.207C148.78 121.091 145.823 125.887 140.705 129.12C138.836 130.3 138.238 131.418 138.499 133.716C140.077 147.507 141.425 161.327 142.835 175.148C143.816 184.816 138.009 191.436 128.202 191.497C112.007 191.604 95.7955 191.528 79.5998 191.528C62.8831 191.528 46.1818 191.528 29.4651 191.528C17.7895 191.528 12.1356 185.062 13.8363 173.478C15.2 164.162 16.7629 154.877 18.3258 145.591C18.6629 143.584 18.6322 142.067 16.8242 140.566C8.33562 133.563 8.734 111.484 22.6773 106.657C24.3321 106.075 25.0216 105.002 25.2821 103.332C26.1861 97.4178 26.7684 91.4421 28.6837 85.7269C29.603 82.9842 26.9523 83.689 25.9257 83.3213C13.821 78.9697 5.47034 70.7876 1.82362 58.5297C-2.69647 43.284 1.22605 29.8157 13.1468 19.4118C25.2208 8.88536 39.1642 7.30716 53.797 13.6966C56.4171 14.8457 57.6582 14.8917 59.7267 12.67C70.008 1.68386 82.7256 -2.45317 97.2818 1.42338C112.098 5.36122 121.43 15.2901 124.663 30.306C126.839 40.4187 124.785 50.0412 119.147 58.5297ZM58.2252 62.1765C58.2252 61.6402 58.2711 61.4716 58.2252 61.395C49.568 49.4742 47.3156 36.6801 53.1381 22.89C53.9196 21.036 52.801 20.6836 51.6519 20.132C45.2778 16.9909 38.6432 16.0102 31.6102 17.4199C18.004 20.1626 7.27838 32.6656 7.03322 46.3025C6.75742 61.2571 16.3339 74.0666 30.1853 77.4222C31.7175 77.7899 32.6981 77.7899 33.7554 76.3649C39.869 68.2288 48.1277 63.6474 58.2405 62.1765H58.2252ZM141.655 97.5098C125.107 102.934 108.758 108.113 92.5625 113.69C86.1884 115.881 83.3231 122.93 85.5449 129.058C87.7513 135.172 94.1713 138.252 100.821 136.107C111.7 132.598 122.564 128.997 133.366 125.274C140.215 122.914 143.984 117.107 143.387 109.906C143.05 105.86 142.283 101.861 141.655 97.5098V97.5098ZM119.974 184.801C122.273 184.801 124.571 184.801 126.869 184.801C134.178 184.77 136.844 181.798 136.063 174.627C134.638 161.71 133.197 148.778 131.941 135.846C131.726 133.716 131.159 133.165 129.198 133.839C124.142 135.57 119.101 137.317 114.014 138.941C112.39 139.462 111.93 140.412 111.807 142.006C110.919 153.957 109.861 165.909 109.019 177.86C108.528 184.786 108.682 184.786 115.761 184.786C117.17 184.786 118.565 184.786 119.974 184.786V184.801ZM40.6964 124.875C40.6964 124.37 40.6964 123.849 40.6964 123.343C40.5738 116.801 36.4368 112.189 30.3538 111.806C24.5926 111.453 19.2911 115.881 18.3411 121.903C17.9427 124.431 17.9274 126.99 18.3411 129.518C19.3983 136.214 25.7571 140.167 32.2844 138.252C37.8924 136.612 40.6964 132.138 40.6964 124.875V124.875Z" fill="#080909"/>
<path d="M58.2248 62.1778C48.1121 63.6487 39.8534 68.2148 33.7397 76.3663C32.6825 77.7759 31.7019 77.7912 30.1696 77.4235C16.3182 74.0832 6.74178 61.2584 7.01759 46.3038C7.26274 32.667 17.9884 20.1639 31.5946 17.4212C38.6276 16.0116 45.2621 16.9922 51.6362 20.1333C52.7854 20.7002 53.9039 21.0373 53.1225 22.8913C47.3 36.6967 49.5524 49.4909 58.2095 61.3963C58.2708 61.473 58.2095 61.6415 58.2095 62.1778H58.2248Z" fill="#F4F6F7"/>
<path d="M141.656 97.4944C142.284 101.846 143.051 105.86 143.388 109.89C143.985 117.092 140.216 122.899 133.367 125.258C122.549 128.982 111.701 132.583 100.822 136.091C94.1723 138.236 87.7522 135.157 85.5458 129.043C83.3241 122.914 86.2047 115.866 92.5635 113.675C108.759 108.097 125.108 102.918 141.656 97.4944V97.4944Z" fill="#F2F4F5"/>
<path d="M119.99 184.785C118.58 184.785 117.186 184.785 115.776 184.785C108.682 184.785 108.544 184.785 109.035 177.859C109.877 165.908 110.935 153.956 111.823 142.005C111.946 140.396 112.406 139.462 114.03 138.941C119.117 137.316 124.173 135.57 129.214 133.838C131.175 133.164 131.742 133.7 131.957 135.845C133.229 148.778 134.669 161.71 136.079 174.626C136.86 181.782 134.194 184.77 126.885 184.8C124.587 184.8 122.288 184.8 119.99 184.8V184.785Z" fill="#F1F3F4"/>
<path d="M40.697 124.877C40.697 132.14 37.8777 136.614 32.285 138.253C25.7577 140.169 19.4143 136.215 18.3417 129.519C17.9433 126.991 17.9587 124.432 18.3417 121.904C19.2917 115.883 24.5779 111.454 30.3544 111.807C36.4374 112.175 40.5744 116.802 40.697 123.345C40.697 123.85 40.697 124.371 40.697 124.877V124.877Z" fill="#EFF1F1"/>
</svg>
