<svg width="176" height="173" viewBox="0 0 176 173" fill="none" xmlns="http://www.w3.org/2000/svg">
<path d="M174.52 107.072C174.287 106.888 172.786 107.238 170.585 107.889C170.585 105.521 170.585 103.153 170.535 100.785C170.485 98.3501 169.334 96.6325 166.849 96.0155C165.449 95.6653 164.081 95.2484 162.697 94.8482C157.944 93.5975 155.31 90.4457 153.942 85.7431C152.858 82.0244 150.674 78.7892 148.356 75.6875C147.739 74.8537 147.055 73.7364 146.288 75.6541C143.603 82.3079 138.4 84.7592 131.663 84.2589C124.309 83.7253 118.322 80.707 114.77 73.8698C112.169 68.867 111.869 63.5307 112.653 58.011C112.819 56.8103 114.02 55.1093 111.702 54.4089C109.784 53.8253 108.3 53.7419 106.983 55.8264C105.432 58.2611 103.297 60.1788 100.929 62.0465L94.9259 64.6647L91.6575 68.0666C85.9042 67.0493 80.0676 66.8159 74.1477 67.1994C71.8297 67.3495 69.5451 67.6497 67.2938 68.0499L64.6757 66.1989L60.1565 63.7475C60.1565 63.7475 60.1732 63.7475 60.1899 63.7141C56.9881 61.5463 54.2532 58.8614 51.7518 55.9598C50.7012 56.5101 47.2493 58.4612 46.1987 59.0115C47.0826 61.4129 47.833 60.9793 46.1987 61.9965C35.7262 68.6002 28.839 77.822 26.1876 90.0622C25.0036 95.5152 24.5867 101.035 25.1203 106.588L22.4688 105.337L27.9385 131.652L45.3149 145.577L48.1665 149.645L50.768 153.364L53.5862 168.623L71.6463 167.105L76.3156 153.831L91.0071 156.232L105.465 154.715L108.4 167.105L114.27 170.374L127.544 168.639L131.213 146.01L147.789 133.62L159.095 122.964C159.095 122.964 168.017 120.579 169.101 119.479C170.185 118.395 175.621 107.956 174.537 107.088L174.52 107.072Z" fill="#E4669A"/>
<path d="M79.234 64.8815C96.171 64.8815 109.901 51.1513 109.901 34.2144C109.901 17.2774 96.171 3.54723 79.234 3.54723C62.297 3.54723 48.5669 17.2774 48.5669 34.2144C48.5669 51.1513 62.297 64.8815 79.234 64.8815Z" fill="#F8AE27"/>
<path d="M98.5783 64.8981C99.6289 65.882 100.946 65.882 102.08 66.3323C103.598 66.9326 104.698 67.9165 104.131 69.6174C103.548 71.4018 102.114 71.802 100.363 71.235C95.0096 69.5007 89.5399 68.5168 83.9201 68.1333C75.5321 67.5663 67.3442 68.4668 59.3064 70.8681C57.3553 71.4518 55.1874 72.2689 54.4036 69.5841C53.6699 67.0827 55.8544 66.5324 57.6721 65.9487C58.4225 65.6986 59.1563 65.3984 60.2569 64.9815C54.3036 60.7291 49.7844 55.693 47.0495 49.206C39.8788 32.1965 47.0995 12.719 63.6588 4.48104C80.1847 -3.74021 100.296 2.22979 109.451 18.0886C109.868 18.8057 110.318 19.5228 110.535 20.3065C110.919 21.6406 110.568 22.8079 109.201 23.425C108 23.9586 106.933 23.6251 106.166 22.6078C105.549 21.774 105.082 20.8402 104.532 19.9564C97.1442 8.34987 83.4532 3.28037 70.3459 7.26593C57.9389 11.0514 48.9839 23.1748 49.5009 36.2655C49.9845 48.2722 55.8878 57.0271 66.6438 62.4968C68.4281 63.3973 70.2291 63.3639 72.0968 63.1138C76.8662 62.4801 81.6355 62.4134 86.3881 63.1471C88.8895 63.5307 91.1075 63.0304 93.242 61.8131C102.48 56.5935 107.75 48.7224 108.934 38.1832C109.134 36.3322 109.284 34.4144 111.769 34.6145C114.487 34.8313 114.254 36.9659 114.087 38.8502C113.853 41.5351 113.203 44.1532 112.419 46.7547C112.103 47.8219 110.652 49.3228 111.886 50.0065C113.37 50.8236 115.238 51.6074 117.222 50.7402C121.391 48.9059 125.593 47.1382 129.829 45.4539C133.198 44.1032 136.683 43.0693 140.285 42.4689C146.088 41.5184 148.773 43.5195 149.774 49.3561C150.707 54.7758 150.257 60.1288 149.307 65.4484C148.873 67.8665 149.123 69.6841 150.924 71.5852C154.96 75.8709 157.695 81.0071 159.612 86.5602C160.279 88.4946 161.363 89.5619 163.398 90.2123C175.521 94.0477 175.638 94.6481 175.972 107.238C176.322 120.312 173.52 121.296 163.298 124.198C159.045 125.399 155.877 127.266 153.359 131.185C148.99 138.022 142.653 143.008 135.566 146.927C133.898 147.844 132.964 148.895 132.647 150.913C131.847 156.132 130.73 161.319 129.729 166.505C128.945 170.557 126.761 172.408 122.642 172.458C119.006 172.508 115.371 172.508 111.736 172.458C107.9 172.392 105.816 170.691 104.965 166.905C104.415 164.47 103.981 162.019 103.581 159.568C103.381 158.35 103.014 157.717 101.597 157.883C93.6255 158.801 85.6377 159.084 77.6499 158.25C76.0157 158.084 76.0657 159.301 75.8656 160.218C75.3153 162.636 74.9818 165.121 74.3814 167.522C73.5476 170.841 71.5465 172.408 68.1446 172.475C64.4092 172.558 60.6571 172.525 56.9217 172.475C52.8527 172.425 50.7682 170.774 49.9345 166.822C48.8672 161.752 47.8333 156.666 46.9661 151.563C46.716 150.079 46.1657 149.195 44.8816 148.428C27.4219 138.039 19.234 122.497 19.3674 102.369C19.3674 101.852 19.4007 101.335 19.3674 100.818C19.334 100.235 19.6342 99.4341 18.9338 99.1506C17.9833 98.767 17.7832 99.7509 17.4163 100.301C14.1478 105.004 10.0789 108.489 4.09218 109.089C2.55799 109.24 1.12385 109.039 0.323408 107.539C-0.610447 105.788 0.540196 104.07 2.97489 103.753C6.86039 103.236 10.0288 101.619 12.4135 98.2501C10.2123 97.3663 8.02771 96.7326 6.0933 95.6653C2.02436 93.4474 0.990447 89.9955 3.05827 86.2934C5.34288 82.1911 9.39514 80.8404 13.314 82.9582C17.4496 85.1928 18.9672 89.095 19.5675 93.6809C20.8015 92.08 20.6514 90.2623 21.0517 88.6447C24.3535 75.4707 31.9911 65.5485 43.4475 58.4445C45.1151 57.4106 46.8827 56.3767 48.2168 58.7447C49.4508 60.9292 47.7332 61.9298 46.1657 62.847C18.7504 78.956 20.0511 117.077 34.9761 133.687C38.7782 137.906 43.0306 141.508 47.9667 144.242C50.2346 145.493 51.552 147.061 51.9689 149.712C52.7694 154.832 54.0034 159.868 54.8539 164.987C55.154 166.788 55.8044 167.489 57.6388 167.422C60.7572 167.305 63.8756 167.289 66.994 167.422C68.745 167.505 69.3953 166.738 69.6621 165.171C70.1124 162.503 70.6293 159.851 71.1797 157.216C71.8967 153.798 73.0807 152.714 76.5493 153.047C85.3876 153.864 94.1758 153.714 102.964 152.447C105.899 152.03 107.733 153.297 108.267 156.333C108.767 159.184 109.501 162.002 109.851 164.887C110.101 166.888 111.002 167.505 112.903 167.422C115.905 167.305 118.94 167.272 121.941 167.422C123.859 167.522 124.476 166.638 124.776 164.971C125.777 159.351 126.911 153.764 127.911 148.145C128.278 146.06 129.212 144.576 131.146 143.542C139.635 139.006 146.772 132.969 151.725 124.565C152.892 122.58 154.743 121.48 156.894 120.796C160.246 119.745 163.581 118.561 166.966 117.611C169.568 116.877 170.769 115.176 170.819 112.641C170.902 109.006 170.885 105.371 170.819 101.735C170.769 99.1839 169.601 97.3829 166.966 96.7826C166.466 96.6659 165.999 96.3991 165.499 96.299C159.529 95.1317 155.443 92.1967 153.792 85.8598C152.759 81.9076 150.207 78.4724 147.456 75.3873C147.122 75.5541 146.872 75.6041 146.805 75.7375C141.285 86.6436 127.745 88.5947 118.473 79.6564C112.536 73.9365 111.619 66.6825 112.786 58.9281C113.253 55.8764 112.486 55.0593 109.518 55.0426C108.867 55.0426 108.367 55.0927 107.9 55.6596C106.516 57.3439 105.165 59.0615 103.614 60.5957C102.08 62.1132 100.346 63.4306 98.6617 64.8648L98.5783 64.8981ZM145.071 55.7597C145.004 54.7925 144.971 52.9248 144.754 51.0737C144.337 47.355 143.954 47.0048 140.202 47.7552C134.282 48.9392 128.879 51.624 123.225 53.5918C119.09 55.0259 117.772 57.6608 117.422 61.6463C116.455 72.5024 122.909 80.1733 133.081 80.0399C137.267 79.9899 140.085 78.3056 141.636 74.2533C143.787 68.5668 144.754 62.6969 145.071 55.7764V55.7597ZM13.8143 91.7631C13.8476 90.0288 11.3629 87.1272 9.77869 87.1772C8.32788 87.2273 7.52743 88.2111 7.32732 89.5285C7.14388 90.7125 10.6792 92.6803 12.7804 92.7637C13.6475 92.797 13.9143 92.5636 13.8143 91.7631V91.7631Z" fill="#21214B"/>
<path d="M79.0345 41.9186C79.8182 38.3166 78.6843 36.182 74.9989 34.9313C71.6303 33.7807 70.2295 30.779 70.513 27.177C70.7965 23.575 72.7476 21.3237 76.1495 20.1397C77.3502 19.7228 79.1178 20.0564 79.3346 17.9218C79.4013 17.2048 80.8188 16.8212 81.0522 17.5049C82.0195 20.4399 84.7877 19.3393 86.622 20.2398C87.9561 20.9068 89.4903 21.4238 89.04 23.2915C88.4897 25.5261 87.0723 25.426 85.2046 24.6089C81.8193 23.1247 81.7693 23.2248 81.7693 26.7601C81.7693 27.5939 81.8694 28.4277 81.7526 29.2448C81.4191 31.5795 82.1195 32.9969 84.5042 33.9141C88.5731 35.4816 90.224 38.7835 89.9239 43.0859C89.6404 47.1548 87.6559 50.2399 83.637 50.9069C81.4525 51.2738 82.0194 55.276 79.8849 53.6585C78.5675 52.6746 77.6337 51.4572 75.8327 51.1904C73.9649 50.9069 72.2974 50.0231 70.9132 48.689C69.6292 47.455 69.1789 46.0209 70.3963 44.5534C71.647 43.0359 72.7476 44.1031 73.8482 44.9536C75.2323 46.0209 76.9333 47.7051 78.4841 46.788C79.985 45.8875 78.801 43.5361 79.0511 41.9019L79.0345 41.9186ZM81.5358 37.933C81.5358 40.6679 81.5692 43.0359 81.5358 45.4039C81.5025 47.455 82.453 47.0881 83.6037 46.321C86.572 44.3032 85.8216 40.2009 81.5525 37.933H81.5358ZM79.468 27.8274C78.6175 26.6267 80.552 24.3087 78.1673 24.1086C76.2996 23.9419 74.9488 25.5428 75.0155 27.5939C75.0822 29.5617 76.483 31.2293 78.2173 31.2126C80.3852 31.1792 78.6509 28.928 79.4514 27.844L79.468 27.8274Z" fill="#21214B"/>
<path d="M139.418 102.569C135.099 102.603 131.23 99.1506 130.98 95.0817C130.88 93.4641 131.263 92.1134 133.014 91.7799C134.715 91.463 135.799 92.2801 136.033 94.0311C136.283 96.0489 137.4 97.3663 139.418 97.383C141.336 97.383 142.286 96.0156 142.586 94.1645C142.887 92.3135 143.937 91.3296 145.822 91.8299C147.706 92.3302 147.973 93.8477 147.689 95.532C147.022 99.5008 143.454 102.536 139.418 102.569V102.569Z" fill="#21214B"/>
<path d="M145.071 55.7595C144.754 62.68 143.804 68.55 141.636 74.2365C140.085 78.3054 137.267 79.9897 133.081 80.023C122.909 80.1398 116.472 72.4855 117.422 61.6294C117.773 57.6439 119.09 55.0257 123.226 53.5749C128.879 51.6072 134.282 48.9223 140.202 47.7383C143.954 46.9879 144.337 47.3381 144.754 51.0568C144.954 52.9079 145.004 54.7756 145.071 55.7428V55.7595Z" fill="#E4669A"/>
</svg>
