<svg width="79" height="79" viewBox="0 0 79 79" fill="none" xmlns="http://www.w3.org/2000/svg">
<circle cx="39.5" cy="39.5" r="39.5" fill="#2C5EA3"/>
<path d="M39.2549 51.8214C36.3165 51.8214 33.3781 51.827 30.4398 51.8195C29.1038 51.8158 28.4715 51.2116 28.4677 49.8831C28.4546 45.8508 28.4546 41.8185 28.4677 37.7863C28.4715 36.4484 29.1 35.8499 30.4285 35.833C31.6469 35.818 32.2736 35.2082 32.3086 34.0035C32.4212 30.2152 35.4815 27.213 39.2549 27.1924C43.1014 27.1717 46.2068 30.1364 46.34 33.9566C46.3825 35.1863 47.0255 35.8117 48.2689 35.833C49.5354 35.8555 50.1752 36.4597 50.1809 37.7394C50.1959 41.8035 50.1978 45.8658 50.1809 49.93C50.1752 51.2097 49.5373 51.8158 48.2576 51.8195C45.2573 51.8289 42.2552 51.8233 39.2549 51.8233V51.8214ZM39.3599 35.8349H41.3245C42.6117 35.8349 43.1858 35.1863 43.047 33.8891C42.7974 31.5568 40.5758 30.02 38.3223 30.6223C36.3709 31.1458 34.988 33.6564 35.5885 35.5496C35.7029 35.9099 35.9506 35.8273 36.1776 35.8292C37.2378 35.8386 38.2979 35.833 39.3581 35.833L39.3599 35.8349Z" fill="white"/>
<path d="M57.0822 50.6037C56.2191 50.7237 55.3541 50.8438 54.491 50.962C53.534 51.0915 52.7178 50.538 52.5358 49.6373C52.3594 48.7555 52.9336 47.8717 53.8849 47.7066C55.9132 47.3519 57.9453 47.0179 59.983 46.7365C61.1727 46.5733 61.6811 46.9373 62.0996 48.0893C62.7263 49.8175 63.3436 51.5493 63.9459 53.2868C64.2874 54.2719 63.9553 55.1557 63.156 55.5084C62.2778 55.8969 61.3941 55.546 60.9269 54.5646C60.636 53.9548 60.4259 53.3075 60.1538 52.6114C59.3807 53.6133 58.7071 54.5797 57.9397 55.4653C52.2787 61.995 45.1054 64.7926 36.5549 63.8076C28.5072 62.8806 22.2139 58.9759 17.9321 52.0428C15.6167 48.2939 14.5828 44.1452 14.5509 39.7471C14.5415 38.5612 15.1344 37.8932 16.1608 37.882C17.1797 37.8707 17.7989 38.5181 17.8345 39.7058C18.0165 45.849 20.3113 51.0371 24.8333 55.2176C34.429 64.089 50.1622 62.0382 57.1535 51.009C57.2023 50.932 57.2342 50.842 57.2736 50.7575C57.3167 50.6731 57.3618 50.5774 57.2361 50.5342C57.1967 50.5211 57.1329 50.5774 57.0822 50.6018V50.6037Z" fill="white"/>
<path d="M21.3471 28.4833C22.274 28.3425 23.1878 28.2056 24.1016 28.0667C25.1129 27.9128 25.9535 28.472 26.1187 29.4102C26.2744 30.2939 25.6927 31.1477 24.7301 31.3166C22.7337 31.6656 20.7335 31.9958 18.7277 32.2772C17.4893 32.4517 16.9602 32.0859 16.5324 30.9019C15.9188 29.2038 15.3146 27.5001 14.7254 25.7926C14.3483 24.6987 14.7085 23.783 15.6036 23.4678C16.583 23.1244 17.4086 23.5841 17.8439 24.7212C18.0522 25.2653 18.253 25.8113 18.5063 26.4887C19.6377 24.7981 20.7617 23.3083 22.1014 22.0005C27.7117 16.5328 34.4497 14.2605 42.199 15.2099C50.1998 16.1894 56.4593 20.0753 60.7149 26.9728C63.0096 30.6917 64.0379 34.8103 64.0961 39.171C64.1129 40.4356 63.535 41.1205 62.4843 41.1318C61.4373 41.143 60.8668 40.4863 60.7993 39.2141C60.3227 30.0913 55.9602 23.5184 47.5916 19.8896C38.2755 15.8498 27.3814 19.2422 21.7092 27.6727C21.5572 27.8978 21.3283 28.0911 21.3452 28.4814L21.3471 28.4833Z" fill="white"/>
<path d="M57.0826 50.6036C57.1351 50.5792 57.1989 50.5229 57.2364 50.536C57.3621 50.5792 57.3171 50.6749 57.274 50.7593C57.2102 50.7068 57.1464 50.6561 57.0807 50.6036H57.0826Z" fill="#F6F9FB"/>
</svg>
