<svg width="79" height="79" viewBox="0 0 79 79" fill="none" xmlns="http://www.w3.org/2000/svg">
<circle cx="39.5" cy="39.5" r="39.5" fill="#2C5EA3"/>
<path d="M44 22.5H34C33.337 22.5 32.7011 22.7634 32.2322 23.2322C31.7634 23.7011 31.5 24.337 31.5 25V57.1875C31.5 57.2704 31.5329 57.3499 31.5915 57.4085C31.6501 57.4671 31.7296 57.5 31.8125 57.5H46.1875C46.2704 57.5 46.3499 57.4671 46.4085 57.4085C46.4671 57.3499 46.5 57.2704 46.5 57.1875V25C46.5 24.337 46.2366 23.7011 45.7678 23.2322C45.2989 22.7634 44.663 22.5 44 22.5Z" fill="white"/>
<path d="M55.25 35H49.625C49.4592 35 49.3003 35.0658 49.1831 35.1831C49.0658 35.3003 49 35.4592 49 35.625V56.875C49 57.0408 49.0658 57.1997 49.1831 57.3169C49.3003 57.4342 49.4592 57.5 49.625 57.5H55.875C56.3723 57.5 56.8492 57.3025 57.2008 56.9508C57.5525 56.5992 57.75 56.1223 57.75 55.625V37.5C57.75 36.837 57.4866 36.2011 57.0178 35.7322C56.5489 35.2634 55.913 35 55.25 35Z" fill="white"/>
<path d="M22.75 30C22.087 30 21.4511 30.2634 20.9822 30.7322C20.5134 31.2011 20.25 31.837 20.25 32.5V55.625C20.25 56.1223 20.4475 56.5992 20.7992 56.9508C21.1508 57.3025 21.6277 57.5 22.125 57.5H28.375C28.5408 57.5 28.6997 57.4342 28.8169 57.3169C28.9342 57.1997 29 57.0408 29 56.875V30.625C29 30.4592 28.9342 30.3003 28.8169 30.1831C28.6997 30.0658 28.5408 30 28.375 30H22.75Z" fill="white"/>
</svg>
