<svg width="79" height="79" viewBox="0 0 79 79" fill="none" xmlns="http://www.w3.org/2000/svg">
<circle cx="39.5" cy="39.5" r="39.5" fill="#2C5EA3"/>
<path d="M28.8438 39C32.727 39 35.875 35.852 35.875 31.9688C35.875 28.0855 32.727 24.9375 28.8438 24.9375C24.9605 24.9375 21.8125 28.0855 21.8125 31.9688C21.8125 35.852 24.9605 39 28.8438 39Z" fill="white"/>
<path d="M36.8516 42.9062C34.1016 41.5098 31.0664 40.9531 28.8438 40.9531C24.4902 40.9531 15.5625 43.623 15.5625 48.9609V53.0625H30.2109V51.4932C30.2109 49.6377 30.9922 47.7773 32.3594 46.2266C33.4502 44.9883 34.9775 43.8389 36.8516 42.9062Z" fill="white"/>
<path d="M47.2031 42.125C42.1182 42.125 31.9688 45.2656 31.9688 51.5V56.1875H62.4375V51.5C62.4375 45.2656 52.2881 42.125 47.2031 42.125Z" fill="white"/>
<path d="M47.2031 39C51.9493 39 55.7969 35.1524 55.7969 30.4062C55.7969 25.6601 51.9493 21.8125 47.2031 21.8125C42.4569 21.8125 38.6094 25.6601 38.6094 30.4062C38.6094 35.1524 42.4569 39 47.2031 39Z" fill="white"/>
</svg>
