<svg width="218" height="354" viewBox="0 0 218 354" fill="none" xmlns="http://www.w3.org/2000/svg">
<path d="M155.647 158.867C156.709 162.616 157.808 166.365 156.782 170.441C161.965 165.285 163.962 158.658 165.369 152.004C166.25 147.81 167.857 146.839 172.069 146.694C189.416 146.095 201.081 153.529 207.399 169.751C209.959 176.332 213.245 182.623 216.077 189.095C219.463 196.83 216.931 202.721 208.915 205.462C196.406 209.747 183.861 213.914 171.288 218.008C164.761 220.132 158.734 217.381 156.818 211.681C154.785 205.626 157.899 199.934 164.661 197.628C172.768 194.86 180.883 192.109 189.053 189.567C191.531 188.796 192.194 187.943 190.978 185.519C189.162 181.897 187.655 178.111 185.949 174.435C184.641 171.621 182.753 169.433 179.077 168.816C179.077 173.872 178.968 178.665 179.122 183.458C179.195 185.682 178.323 186.753 176.317 187.362C171.869 188.714 167.43 190.112 163.018 191.592C153.16 194.914 147.922 204.173 150.773 213.124C153.75 222.483 163.182 226.931 173.385 223.781C174.102 223.563 174.847 223.364 175.509 223.028C178.732 221.385 179.131 222.937 179.131 225.814C179.086 251.749 179.14 277.684 179.168 303.619C179.177 315.075 179.195 326.54 179.195 337.996C179.195 347.646 174.774 353.219 167.094 353.274C159.297 353.337 154.73 347.609 154.73 337.742C154.73 307.886 154.749 278.029 154.676 248.173C154.676 246.738 155.747 244.56 153.36 243.997C150.627 243.343 149.42 244.324 149.447 247.51C149.611 264.395 149.52 281.288 149.52 298.172C149.52 311.744 149.52 325.315 149.52 338.886C149.52 347.891 145.09 353.219 137.619 353.283C130.103 353.346 125.273 347.709 125.264 338.65C125.237 300.351 125.255 262.043 125.255 223.745C125.255 206.706 125.292 189.667 125.192 172.629C125.192 171.303 126.481 168.771 123.803 168.743C121.452 168.725 121.461 171.013 121.461 172.883C121.461 196.857 121.434 220.831 121.488 244.814C121.488 248.318 120.825 251.413 117.93 253.637C112.51 257.786 105.521 255.662 102.979 248.89C98.7486 237.634 94.7181 226.296 90.615 214.994C90.2065 213.868 89.8616 212.715 89.4349 211.59C89.1535 210.855 88.6452 210.183 87.7828 210.382C86.4938 210.691 86.9476 211.817 87.0929 212.579C89.8797 226.731 92.721 240.874 95.5442 255.026C96.2795 258.712 97.0602 262.397 97.7047 266.101C98.6851 271.775 96.8695 274.207 91.0417 273.844C86.5028 273.563 85.6223 275.124 85.6677 279.373C85.8946 299.725 85.8039 320.086 85.7494 340.438C85.7312 347.873 81.492 352.883 75.1649 353.274C68.0571 353.719 62.9826 348.39 62.9645 340.193C62.901 320.14 63.0099 300.079 62.8465 280.026C62.8283 277.993 64.8526 274.198 60.6315 274.089C56.129 273.981 58.3077 277.929 58.2895 279.926C58.117 299.979 58.1987 320.04 58.1715 340.093C58.1715 348.163 53.9595 353.156 47.1785 353.274C40.2341 353.401 35.6226 348.199 35.6045 340.057C35.5681 319.696 35.5046 299.343 35.668 278.991C35.6952 275.224 35.0416 273.636 30.8024 273.835C24.094 274.162 22.5326 272.092 23.7854 265.348C26.8808 248.781 30.0762 232.241 33.2624 215.693C33.6528 213.687 34.1248 211.726 33.0173 208.721C31.5377 212.715 30.3485 215.856 29.1956 219.015C25.6554 228.765 22.1605 238.523 18.5748 248.264C16.2872 254.482 11.2945 257.232 6.00224 255.335C0.673663 253.42 -1.35065 248.273 0.918759 241.882C8.26258 221.203 15.6518 200.542 23.0864 179.9C24.4662 176.06 26.4179 172.465 29.123 169.37C32.9719 164.958 37.7377 162.58 43.6926 162.262C47.2965 162.062 49.2663 162.589 50.0561 166.783C50.9911 171.802 56.129 174.78 61.4031 174.453C66.4594 174.135 70.8984 170.731 71.4975 165.73C71.8878 162.516 73.313 162.362 75.8548 162.271C83.4709 162.017 89.2171 165.257 93.6016 171.24C96.0253 174.544 97.7137 178.229 98.8666 182.16C98.6578 183.013 99.0754 183.858 99.7653 183.912C100.855 184.003 100.51 182.886 100.51 182.296C100.51 177.73 100.455 173.164 100.41 168.598C101.98 156.053 111.911 147.066 124.502 146.893C128.696 146.83 133.58 145.668 136.893 147.402C140.152 149.099 139.208 154.673 140.678 158.368C142.339 162.516 143.783 166.773 147.378 170.858C147.378 166.401 147.523 162.634 148.603 159.003C150.945 158.967 153.296 158.93 155.638 158.894L155.647 158.867Z" fill="#161D26"/>
<path d="M151.952 140.685C140.314 140.73 130.882 131.589 130.701 120.079C130.519 108.804 140.169 99.0547 151.57 99.0002C163.181 98.9458 172.63 108.178 172.748 119.688C172.866 131.253 163.571 140.639 151.961 140.685H151.952Z" fill="#161D26"/>
<path d="M79.9939 136.836C79.9485 147.774 71.3429 156.235 60.3771 156.117C49.8289 155.999 41.078 147.257 41.0417 136.79C41.0054 126.197 50.0377 117.192 60.6676 117.219C71.4881 117.246 80.0484 125.933 79.9939 136.836V136.836Z" fill="#161D26"/>
<path d="M148.576 156.733C148.24 155.589 147.777 154.464 147.577 153.302C146.424 146.766 146.46 147.002 153.187 146.738C157.29 146.575 158.416 148.082 157.217 151.713C156.655 153.411 157.036 155.38 155.683 156.824C153.314 156.796 150.945 156.76 148.585 156.733H148.576Z" fill="#161D26"/>
<path d="M103.323 98.6487C76.1748 98.7364 53.8512 76.6071 53.7698 49.5281C53.6883 22.4929 75.7675 0.0753783 102.546 0.000193636C130.32 -0.074991 152.663 21.7536 152.769 49.0644C152.876 76.3001 130.677 98.5547 103.323 98.6425V98.6487ZM113.93 32.4549C113.73 30.782 112.971 28.9839 110.91 28.1631C109.438 27.5804 108.348 27.0792 107.84 25.2497C107.245 23.0819 105.259 21.9228 102.984 22.0857C100.766 22.2423 98.8492 23.4265 98.442 25.7133C98.1287 27.5052 97.1701 27.9814 95.7165 28.5328C90.1529 30.6379 86.8197 35.8132 87.0703 41.6838C87.3084 47.3352 91.0989 52.0781 96.6751 53.87C99.4382 54.7597 102.251 54.3148 105.046 54.4088C107.27 54.484 109.099 55.073 109.043 57.6794C108.987 60.0665 107.295 60.7494 105.158 60.7243C102.659 60.6993 100.152 60.599 97.6588 60.7682C95.0211 60.9499 93.0976 62.2782 92.6966 65.0788C92.3082 67.8168 93.4923 69.8655 96.1113 70.6299C97.546 71.0497 98.0347 71.6825 98.4545 73.0358C99.175 75.3415 100.961 76.5131 103.461 76.4379C105.854 76.3627 107.539 75.0846 108.028 72.898C108.41 71.1813 109.312 70.6237 110.753 70.0786C116.48 67.917 120.139 62.0213 119.418 56.3386C118.591 49.8789 114.049 45.1736 107.715 44.3717C105.76 44.1273 103.768 44.1336 101.794 44.1336C99.5134 44.1336 97.3518 43.7577 97.4395 40.9445C97.5272 38.2065 99.6825 37.8118 101.963 37.8369C104.356 37.8682 106.762 37.9309 109.143 37.7554C111.919 37.5549 113.836 35.4686 113.917 32.4612L113.93 32.4549Z" fill="#161D26"/>
<path d="M113.93 32.4556C113.842 35.4692 111.931 37.5493 109.155 37.7498C106.774 37.919 104.369 37.8564 101.975 37.8313C99.7009 37.8062 97.5393 38.2009 97.4516 40.9389C97.3639 43.7521 99.5254 44.128 101.806 44.128C103.78 44.128 105.772 44.1155 107.727 44.3661C114.061 45.1681 118.604 49.8734 119.431 56.333C120.157 62.0157 116.498 67.9177 110.766 70.073C109.324 70.6181 108.422 71.1757 108.04 72.8924C107.551 75.0853 105.866 76.3572 103.473 76.4323C100.966 76.5138 99.1871 75.3422 98.4666 73.0302C98.0405 71.6769 97.5581 71.0441 96.1233 70.6243C93.5044 69.86 92.314 67.8049 92.7087 65.0732C93.1097 62.2726 95.0331 60.9443 97.6709 60.7626C100.158 60.5934 102.671 60.6937 105.171 60.7188C107.307 60.7376 108.999 60.0609 109.055 57.6738C109.111 55.0736 107.282 54.4784 105.058 54.4032C102.263 54.3093 99.4502 54.7541 96.6872 53.8644C91.111 52.0725 87.3204 47.3296 87.0824 41.6782C86.838 35.8013 90.1649 30.6261 95.7286 28.5272C97.1822 27.9758 98.1408 27.4997 98.454 25.7078C98.855 23.4146 100.778 22.2367 102.996 22.0801C105.271 21.9172 107.257 23.0763 107.852 25.2441C108.36 27.0736 109.45 27.5749 110.922 28.1575C112.977 28.972 113.742 30.7765 113.942 32.4493L113.93 32.4556Z" fill="#F0F2F2"/>
</svg>
