<svg width="368" height="232" viewBox="0 0 368 232" fill="none" xmlns="http://www.w3.org/2000/svg">
<path d="M55.2227 51.9896C69.6432 52.0496 81.587 40.2455 81.5471 26.0048C81.5271 11.7641 69.6033 -0.0199476 55.2427 2.53521e-05C40.9221 0.0199983 28.9982 11.9638 29.1381 26.2045C29.2779 40.3853 40.982 51.9497 55.2227 52.0096V51.9896Z" fill="#161D26"/>
<path d="M167.152 46.1779C180.195 46.2578 190.561 36.1116 190.601 23.229C190.62 10.5262 180.374 0.0803532 167.811 0.000461366C154.889 -0.0794305 144.363 10.2266 144.343 22.9893C144.303 35.7121 154.529 46.098 167.172 46.1779H167.152Z" fill="#161D26"/>
<path d="M26.9812 112.629C24.7642 109.034 22.4673 105.498 20.3302 101.843C19.2317 99.9659 19.1718 97.7888 20.3302 95.9513C22.4473 92.6358 24.7842 89.4801 27.6803 85.3257V58.7217C25.3035 59.6804 23.2463 61.3182 21.5685 63.6151C15.1372 72.5031 8.70595 81.391 2.33458 90.3389C-0.441662 94.2536 -0.801175 98.4479 1.57561 102.702C6.72863 111.91 11.9216 121.097 17.1146 130.285C18.7324 133.141 21.0093 135.618 24.2249 136.097C26.402 136.437 27.3008 137.275 27.6603 138.494V112.309L26.9413 112.589L26.9812 112.629Z" fill="#161D26"/>
<path d="M217.883 118.082C211.752 99.0682 205.64 80.054 199.508 61.0397C197.611 55.1277 194.195 52.671 187.924 52.6511C174.881 52.6511 161.839 52.7509 148.797 52.5912C142.286 52.5113 138.011 55.1876 135.175 61.0996C128.764 74.4216 122.053 87.6037 115.422 100.826C114.783 102.084 114.563 103.722 112.845 104.441C112.326 103.742 111.847 103.103 111.367 102.464C101.92 89.3214 92.4531 76.1992 83.0458 63.017C82.9459 62.8972 82.866 62.7774 82.7662 62.6376V99.7473C82.8461 99.1881 83.0258 98.6089 83.3853 97.9897C89.9964 107.197 96.7473 115.865 102.659 125.073C108.112 133.562 120.655 134.52 125.249 123.255C130.042 111.491 136.234 100.307 141.826 88.862L142.905 89.0618C141.746 98.469 145.381 108.196 137.852 117.164C132.219 123.875 128.764 132.423 124.43 140.193C121.514 145.425 123.191 149.2 128.984 150.738C132.818 151.757 136.653 152.975 140.548 153.594C143.684 154.094 144.403 155.472 144.383 158.488C144.243 179.08 144.303 199.672 144.323 220.264C144.323 226.356 147.758 230.63 153.111 231.389C160.461 232.408 165.714 227.714 165.734 219.905C165.794 201.09 165.734 182.296 165.774 163.481C165.774 161.683 165.075 159.626 168.35 159.626C171.806 159.626 170.747 161.923 170.767 163.561C170.827 182.096 170.767 200.631 170.807 219.166C170.807 226.975 174.722 231.409 181.473 231.449C188.343 231.489 192.238 227.155 192.238 219.385C192.238 202.229 192.198 185.072 192.278 167.915C192.298 163.421 190.4 157.749 193.057 154.753C195.494 151.997 201.106 152.056 205.34 150.918C212.011 149.12 213.549 145.665 210.254 139.713C208.256 136.098 206.219 132.503 203.682 127.969C205.2 128.628 205.66 128.868 206.139 129.028C210.014 130.366 214.028 131.225 217.464 128.329C221.079 125.273 219.002 121.578 217.883 118.082ZM192.637 98.1694C195.314 105.02 197.511 111.471 198.31 117.643C192.298 113.149 190.7 106.498 192.637 98.1694Z" fill="#161D26"/>
<path d="M73.9782 57.6411C60.3966 57.761 46.795 57.6811 33.2134 57.6811C31.1961 57.6811 29.3786 58.0406 27.7009 58.7197V138.512C27.8207 138.931 27.8806 139.39 27.9206 139.89H82.7663C82.7663 127.487 82.7663 115.103 82.7663 102.7C82.7663 102.56 82.7663 102.42 82.7663 102.261C82.7264 101.482 82.6265 100.643 82.7663 99.7441V62.6543C80.5693 59.6983 78.0727 57.6012 73.9782 57.6411Z" fill="#161D26"/>
<path d="M27.96 141.491C27.8801 164.959 27.8402 188.447 27.96 211.915C27.9999 220.064 33.133 225.237 40.523 225.177C47.8331 225.117 52.8663 219.725 52.9661 211.716C53.046 205.544 52.9661 199.352 52.9661 193.181C52.9661 178.361 52.9661 163.521 52.9661 148.701C52.9661 146.943 52.8463 145.545 55.4028 145.545C58.0393 145.545 57.7796 147.103 57.7597 148.781C57.7397 151.657 57.7597 154.553 57.7597 157.429C57.7597 175.684 57.6997 193.94 57.7996 212.195C57.8395 220.044 63.2522 225.317 70.6622 225.157C78.0722 224.998 82.7458 219.605 82.7458 211.017C82.7658 187.309 82.7658 163.601 82.7658 139.893H27.9201C27.96 140.392 27.96 140.912 27.96 141.471V141.491Z" fill="#161D26"/>
<path d="M367.225 187.326C357.458 160.343 347.771 133.3 337.805 106.396C336.447 102.761 335.827 98.7464 332.891 95.6307C323.684 85.8439 314.756 75.8175 305.608 65.9708C304.55 64.8324 303.591 63.7738 302.732 62.8351C295.662 51.9498 286.874 51.3107 286.874 51.3107H246.189C243.073 51.4305 241.036 52.6089 239.658 54.2467V54.2067L239.498 54.4264C239.258 54.726 239.039 55.0456 238.859 55.3852L209.379 98.7464L213.034 114.465V130.124C213.034 130.124 218.367 130.184 222.341 123.113C225.637 117.261 236.702 99.3856 240.417 93.4137V144.684C240.536 145.164 240.596 145.683 240.636 146.242H240.556C240.596 146.741 240.596 147.261 240.596 147.82C240.517 171.288 240.477 194.776 240.596 218.245C240.636 226.394 245.769 231.567 253.159 231.507C260.469 231.447 265.503 226.054 265.603 218.045C265.682 211.873 265.603 205.682 265.603 199.51C265.603 184.69 265.603 169.85 265.603 155.03C265.603 153.273 265.483 151.875 268.039 151.875C270.676 151.875 270.416 153.432 270.396 155.11C270.376 157.986 270.396 160.882 270.396 163.758C270.396 182.014 270.336 200.269 270.436 218.524C270.476 226.374 275.889 231.646 283.299 231.487C290.709 231.327 295.382 225.934 295.382 217.346C295.402 193.638 295.402 169.93 295.402 146.222H295.482C295.482 132.101 295.482 117.98 295.482 103.86C295.482 103.7 295.482 103.52 295.482 103.36C295.442 102.461 295.342 101.523 295.482 100.504V80.3513C301.893 87.242 307.666 93.5135 313.538 99.7051C314.796 101.023 314.097 101.842 313.418 102.941C311.48 106.096 311.101 109.552 311.88 113.127C312.239 114.725 313.038 116.023 314.976 115.624C316.793 115.244 316.893 113.746 316.633 112.348C316.334 110.73 316.094 109.152 316.554 107.515C317.153 105.397 317.872 104.439 320.049 106.276C322.665 108.453 325.981 108.933 328.897 107.275C332.492 105.238 333.231 107.135 334.25 109.971C343.577 135.916 352.984 161.841 362.372 187.766C362.791 188.944 363.25 190.123 363.79 191.261C364.289 192.28 365.188 192.699 366.306 192.4C367.604 192.04 368.104 191.021 367.984 189.803C367.904 188.944 367.525 188.105 367.225 187.287V187.326Z" fill="#161D26"/>
<path d="M277.487 47.3956C289.451 43.401 296.282 29.8593 292.367 17.8556C288.372 5.5722 274.891 -1.2985 262.687 2.71607C250.044 6.87044 243.193 20.492 247.468 32.9751C251.622 45.0987 265.064 51.5499 277.507 47.3956H277.487Z" fill="#161D26"/>
</svg>
