<svg width="509" height="509" viewBox="0 0 509 509" fill="none" xmlns="http://www.w3.org/2000/svg">
<g clip-path="url(#clip0_2001_60)">
<path d="M1.9342 58.3314V437.638C1.9342 437.638 115.645 472.047 267.225 417.176C338.587 391.319 343.27 269.77 274.046 236.583C197.492 199.833 80.6256 180.899 1.9342 11.198V58.3314Z" fill="#00BFBA"/>
<path opacity="0.33" d="M1.9342 227.218V437.536C1.9342 437.536 115.645 471.945 267.225 417.075C276.082 413.919 283.818 409.236 290.639 403.433C149.239 408.014 53.6486 304.993 1.9342 227.218Z" fill="#2555C4"/>
<path d="M334.718 457.795C366.378 456.98 455.046 446.8 471.334 358.743V257.045C471.334 238.925 454.537 224.774 436.824 228.846C425.422 231.493 414.937 241.266 411.985 267.225C398.038 394.17 280.357 415.14 310.185 447.716C316.496 454.537 325.455 458.1 334.718 457.795Z" fill="url(#paint0_linear_2001_60)"/>
<path d="M93.2488 260.303C95.3866 260.303 95.3866 257.045 93.2488 257.045C91.111 256.943 91.111 260.303 93.2488 260.303Z" fill="#D6E3FF"/>
<path d="M297.358 119.717L248.697 178.659" stroke="#BFD3FF" stroke-width="1.0825" stroke-miterlimit="10"/>
<path d="M318.838 118.088L251.242 199.833" stroke="#BFD3FF" stroke-width="1.0825" stroke-miterlimit="10"/>
<path d="M335.126 121.753L257.656 215.612" stroke="#BFD3FF" stroke-width="1.0825" stroke-miterlimit="10"/>
<path d="M376.049 184.665L327.287 243.607" stroke="#BFD3FF" stroke-width="1.0825" stroke-miterlimit="10"/>
<path d="M368.516 215.103L353.144 233.733" stroke="#BFD3FF" stroke-width="1.0825" stroke-miterlimit="10"/>
<path d="M269.668 133.562L254.296 152.089" stroke="#BFD3FF" stroke-width="1.0825" stroke-miterlimit="10"/>
<path d="M373.504 163.287L306.011 245.033" stroke="#BFD3FF" stroke-width="1.0825" stroke-miterlimit="10"/>
<path d="M366.785 148.017L289.417 241.775" stroke="#BFD3FF" stroke-width="1.0825" stroke-miterlimit="10"/>
<path d="M348.97 128.981L267.53 227.625" stroke="#BFD3FF" stroke-width="1.0825" stroke-miterlimit="10"/>
<path d="M358.947 137.226L277.507 235.871" stroke="#BFD3FF" stroke-width="1.0825" stroke-miterlimit="10"/>
<path d="M115.848 306.418L67.188 365.36" stroke="#BFD3FF" stroke-width="1.0825" stroke-miterlimit="10"/>
<path d="M137.328 304.789L69.733 386.535" stroke="#BFD3FF" stroke-width="1.0825" stroke-miterlimit="10"/>
<path d="M153.616 308.454L76.1464 402.212" stroke="#BFD3FF" stroke-width="1.0825" stroke-miterlimit="10"/>
<path d="M194.54 371.366L145.778 430.309" stroke="#BFD3FF" stroke-width="1.0825" stroke-miterlimit="10"/>
<path d="M187.007 401.805L171.635 420.434" stroke="#BFD3FF" stroke-width="1.0825" stroke-miterlimit="10"/>
<path d="M88.1588 320.263L72.787 338.79" stroke="#BFD3FF" stroke-width="1.0825" stroke-miterlimit="10"/>
<path d="M191.995 349.988L124.501 431.734" stroke="#BFD3FF" stroke-width="1.0825" stroke-miterlimit="10"/>
<path d="M185.276 334.718L107.908 428.476" stroke="#BFD3FF" stroke-width="1.0825" stroke-miterlimit="10"/>
<path d="M167.461 315.682L86.021 414.326" stroke="#BFD3FF" stroke-width="1.0825" stroke-miterlimit="10"/>
<path d="M177.437 323.928L95.9974 422.572" stroke="#BFD3FF" stroke-width="1.0825" stroke-miterlimit="10"/>
<path fill-rule="evenodd" clip-rule="evenodd" d="M198.001 108.112C198.001 108.112 221.008 108.621 229.355 120.124C237.703 131.627 232.511 129.082 239.943 156.874C245.847 178.964 215.103 176.521 213.78 176.012C212.457 175.605 198.001 108.112 198.001 108.112Z" fill="#142585"/>
<path fill-rule="evenodd" clip-rule="evenodd" d="M126.334 305.807L120.429 330.85C118.19 340.623 119.717 350.803 124.909 359.456L152.191 404.96L169.09 381.445L143.64 343.779L168.581 311.101L126.334 305.807Z" fill="#F5B8B0"/>
<path d="M447.615 191.18H349.683C345.815 191.18 342.557 188.025 342.557 184.054V129.795C342.557 125.927 345.713 122.669 349.683 122.669H447.615C451.483 122.669 454.741 125.825 454.741 129.795V184.054C454.741 187.923 451.585 191.18 447.615 191.18Z" fill="#E6EDFF"/>
<path d="M430.003 252.668H347.24C344.593 252.668 342.455 250.53 342.455 247.883V219.786C342.455 217.139 344.593 215.002 347.24 215.002H430.003C432.65 215.002 434.788 217.139 434.788 219.786V247.883C434.788 250.53 432.65 252.668 430.003 252.668Z" fill="#E6EDFF"/>
<path d="M418.602 242.386H315.784C312.628 242.386 310.083 239.841 310.083 236.685V205.229C310.083 202.073 312.628 199.528 315.784 199.528H418.602C421.757 199.528 424.302 202.073 424.302 205.229V236.685C424.302 239.841 421.757 242.386 418.602 242.386Z" fill="#A1BFFF"/>
<path d="M434.075 185.072H315.376C310.592 185.072 306.723 181.204 306.723 176.419V110.758C306.723 105.974 310.592 102.105 315.376 102.105H433.973C438.758 102.105 442.626 105.974 442.626 110.758V176.419C442.626 181.204 438.758 185.072 434.075 185.072Z" fill="#A1BFFF"/>
<path d="M358.471 154.915C363.93 143.942 359.46 130.621 348.487 125.161C337.513 119.702 324.192 124.173 318.733 135.146C313.274 146.119 317.744 159.44 328.718 164.899C339.691 170.358 353.012 165.888 358.471 154.915Z" fill="white"/>
<path d="M346.12 207.163C342.964 208.079 340.928 210.421 339.401 212.355C338.994 212.966 338.078 212.966 337.569 212.355C336.042 210.217 333.802 207.672 330.748 207.061C324.946 205.941 320.874 211.133 322.604 216.936C324.437 224.062 338.485 235.158 338.485 235.158H338.79C338.79 235.158 352.635 224.265 354.366 217.139C356.096 211.337 352.432 205.229 346.12 207.163Z" fill="white"/>
<path d="M340.419 226.912C339.91 226.912 339.401 226.607 339.299 226.098L336.754 219.175L335.533 222.433C335.329 222.942 334.922 223.247 334.413 223.247H330.036C329.73 223.247 329.527 223.044 329.527 222.738C329.527 222.026 330.443 221.11 331.155 221.11H333.7L335.635 216.02C335.838 215.511 336.245 215.205 336.754 215.205C337.263 215.205 337.671 215.511 337.874 216.02L340.419 223.044L341.437 220.702C341.641 220.295 342.048 219.99 342.557 219.99H347.24C347.545 219.99 347.749 220.193 347.749 220.499C347.749 221.211 346.833 222.128 346.12 222.128H343.168L341.437 226.2C341.335 226.607 340.928 226.912 340.419 226.912Z" fill="#3071FF"/>
<path d="M294.813 131.933C312.129 131.933 326.167 117.895 326.167 100.578C326.167 83.2618 312.129 69.224 294.813 69.224C277.496 69.224 263.458 83.2618 263.458 100.578C263.458 117.895 277.496 131.933 294.813 131.933Z" fill="#FF65FF"/>
<path d="M294.813 118.495C291.352 118.495 288.399 115.645 288.399 112.082V89.075C288.399 85.6138 291.25 82.6616 294.813 82.6616C298.274 82.6616 301.226 85.512 301.226 89.075V112.184C301.226 115.645 298.376 118.495 294.813 118.495Z" fill="white"/>
<path d="M360.779 221.619C360.779 219.379 362.612 217.445 364.953 217.445H412.494C414.733 217.445 416.667 219.277 416.667 221.619C416.667 223.858 414.835 225.792 412.494 225.792H364.953C362.612 225.792 360.779 223.96 360.779 221.619Z" fill="white"/>
<path d="M366.48 154.532C366.48 152.293 368.312 150.359 370.654 150.359H418.195C420.434 150.359 422.368 152.191 422.368 154.532C422.368 156.772 420.536 158.706 418.195 158.706H370.654C368.312 158.706 366.48 156.772 366.48 154.532Z" fill="white"/>
<path d="M366.48 136.31C366.48 134.071 368.312 132.136 370.654 132.136H430.818C433.057 132.136 434.991 133.969 434.991 136.31C434.991 138.55 433.159 140.484 430.818 140.484H370.552C368.312 140.484 366.48 138.652 366.48 136.31Z" fill="white"/>
<path d="M276.896 100.578C276.896 97.1172 279.746 94.165 283.309 94.165H306.418C309.879 94.165 312.831 97.0154 312.831 100.578C312.831 104.04 309.981 106.992 306.418 106.992H283.309C279.848 106.992 276.896 104.141 276.896 100.578Z" fill="white"/>
<path d="M348.665 152.904C348.36 150.053 346.425 148.017 345 147.305C344.389 146.999 343.779 146.897 343.27 146.592C342.964 146.49 342.659 146.287 342.252 146.185C341.946 146.083 341.743 145.981 341.437 145.879H341.335L340.928 145.778C340.826 145.676 340.623 145.574 340.521 145.472L340.317 145.269C340.317 145.167 340.317 145.167 340.317 145.065C340.317 144.556 340.317 143.945 340.419 143.436C340.725 143.131 341.03 142.825 341.234 142.316C341.335 142.011 341.437 141.706 341.539 141.298C342.455 141.197 342.659 140.179 342.761 139.364C342.862 138.753 343.066 137.226 342.048 137.226C342.048 137.125 342.048 137.023 342.15 137.023C342.252 136.514 342.353 136.005 342.353 135.496C342.353 134.987 342.252 134.478 342.048 134.071C341.946 133.969 341.844 133.765 341.641 133.765C341.743 133.663 341.743 133.46 341.743 133.358C341.743 132.136 340.521 131.424 339.707 131.118C338.994 130.813 338.18 130.711 337.365 130.711C336.551 130.711 335.838 130.915 335.024 131.118C334.209 131.424 332.988 132.035 332.988 133.358C332.988 133.562 332.988 133.663 333.09 133.765C332.886 133.765 332.784 133.969 332.682 134.071C332.479 134.478 332.377 134.987 332.377 135.496C332.377 136.005 332.479 136.514 332.581 137.023C332.581 137.125 332.581 137.226 332.682 137.226C331.766 137.226 331.868 138.753 331.97 139.364C332.072 140.077 332.377 141.197 333.191 141.298C333.293 141.604 333.293 142.011 333.497 142.316C333.7 142.724 334.006 143.131 334.311 143.436C334.311 143.945 334.311 144.556 334.413 145.065C334.413 145.065 334.413 145.167 334.413 145.269C334.413 145.269 334.209 145.37 334.209 145.472C334.108 145.574 333.904 145.676 333.802 145.778L333.395 145.879H333.293C333.09 145.981 332.784 146.083 332.479 146.185C332.173 146.287 331.868 146.49 331.461 146.592C330.85 146.897 330.239 146.999 329.73 147.305C328.305 148.017 326.371 149.951 326.065 152.904C325.964 154.227 326.676 155.143 328 155.143L337.365 155.245L346.731 155.143C348.054 155.143 348.869 154.329 348.665 152.904Z" fill="#3071FF"/>
<path fill-rule="evenodd" clip-rule="evenodd" d="M162.371 357.318C162.371 357.318 135.496 388.163 130.813 428.476C126.13 468.687 134.172 509 134.172 509H244.32L241.266 371.774L162.371 357.318Z" fill="#CFDEFF"/>
<path fill-rule="evenodd" clip-rule="evenodd" d="M233.326 354.977C200.342 392.541 220.499 415.649 217.038 444.561C212.253 483.652 205.738 477.849 212.762 509H244.32L241.266 371.774L233.326 354.977Z" fill="#E6EEFF"/>
<path fill-rule="evenodd" clip-rule="evenodd" d="M147.712 163.593C147.305 163.898 162.88 208.894 188.432 200.342C213.984 191.689 188.33 139.466 188.33 139.466L147.712 163.593Z" fill="#142585"/>
<path fill-rule="evenodd" clip-rule="evenodd" d="M178.761 239.637L172.449 300.921C172.449 300.921 132.035 291.453 131.831 290.13C123.076 215.918 173.264 216.63 173.264 216.63L178.761 239.637Z" fill="#82AAFF"/>
<path fill-rule="evenodd" clip-rule="evenodd" d="M209.708 186.701C209.708 186.701 207.57 207.061 205.84 223.858C205.331 228.337 202.48 232.206 198.408 234.038C194.234 235.871 189.45 235.26 185.887 232.511C184.665 231.595 183.545 230.781 182.527 229.966C177.641 226.2 175.3 219.99 176.521 213.984C179.779 198.51 185.683 170.21 185.683 170.21L209.708 186.701Z" fill="#F5B8B0"/>
<path fill-rule="evenodd" clip-rule="evenodd" d="M208.69 197.187C208.69 197.187 201.971 198.103 195.66 192.911C195.66 192.911 202.277 203.396 207.774 205.432L208.69 197.187Z" fill="#E09F98"/>
<path fill-rule="evenodd" clip-rule="evenodd" d="M167.156 145.981C165.527 137.634 171.024 129.49 179.372 127.861C188.33 126.13 199.63 123.992 208.486 122.262C216.834 120.633 222.738 126.843 226.607 134.478C231.29 143.843 233.936 161.964 234.751 176.419C235.158 184.971 229.966 193.42 221.72 195.863C207.468 200.139 177.539 193.115 175.91 184.767C173.467 172.449 169.497 158.299 167.156 145.981Z" fill="#F5B8B0"/>
<path fill-rule="evenodd" clip-rule="evenodd" d="M142.011 140.688C142.011 140.688 177.946 84.9012 221.924 119.31C221.924 119.31 227.523 172.144 149.544 171.024C127.759 170.719 142.011 140.688 142.011 140.688Z" fill="#142585"/>
<path fill-rule="evenodd" clip-rule="evenodd" d="M211.846 264.782L209.199 236.481L299.292 286.669L367.193 271.704L381.445 283.717C381.445 283.717 339.096 303.568 313.137 313.544C305.095 316.598 296.136 316.293 288.298 312.73C270.584 304.484 239.943 290.232 239.943 290.232L211.846 264.782Z" fill="#F5B8B0"/>
<path fill-rule="evenodd" clip-rule="evenodd" d="M251.344 304.687L254.398 306.52C254.398 306.52 270.381 268.345 269.465 267.327C248.596 243.913 231.9 233.122 218.87 228.948C214.9 227.727 211.031 226.2 207.265 224.469C197.085 219.786 181.917 223.044 176.725 217.954C175.401 216.63 176.419 213.984 176.419 213.984L162.575 218.056C162.575 218.056 152.395 222.433 151.071 232.613C146.897 264.171 148.323 273.944 155.754 305.4C158.401 316.903 160.539 354.875 157.179 364.139C148.017 390.098 238.823 380.63 239.739 368.923C239.739 368.923 246.254 352.432 247.476 337.976C248.494 326.574 250.123 314.664 251.344 304.687Z" fill="#CFDEFF"/>
<path fill-rule="evenodd" clip-rule="evenodd" d="M381.445 283.717C381.445 283.717 390.199 274.86 398.242 266.105C407.098 256.536 405.775 251.141 395.595 246.458C392.744 245.134 384.295 248.29 384.295 248.29L373.199 262.44C373.199 262.44 358.336 276.794 365.258 283.92C372.079 290.944 381.445 283.717 381.445 283.717Z" fill="#F5B8B0"/>
<path fill-rule="evenodd" clip-rule="evenodd" d="M396.409 250.123C396.409 250.123 410.05 240.859 407.505 234.853C405.062 228.948 384.295 248.188 384.295 248.188L390.505 257.758L396.409 250.123Z" fill="#F5B8B0"/>
<path fill-rule="evenodd" clip-rule="evenodd" d="M179.066 201.768C179.066 201.768 211.133 199.426 200.75 149.748C190.366 100.069 166.443 170.311 166.443 170.311L179.066 201.768Z" fill="#142585"/>
<path fill-rule="evenodd" clip-rule="evenodd" d="M212.253 169.904C212.355 176.827 206.756 182.527 199.833 182.629C192.911 182.731 187.21 177.132 187.108 170.21C187.007 163.287 192.606 157.586 199.528 157.485C206.552 157.383 212.253 162.982 212.253 169.904Z" fill="#F5B8B0"/>
<path fill-rule="evenodd" clip-rule="evenodd" d="M251.344 304.687C250.123 314.664 248.494 326.574 247.578 337.772C246.356 352.33 241.266 371.672 241.266 371.672C240.961 375.54 232.817 376.762 218.361 378.085C221.211 364.851 234.853 365.055 229.457 337.569C226.81 324.233 230.679 309.065 230.17 289.825L251.344 304.687Z" fill="#E6EEFF"/>
<path d="M227.014 230.577L215.511 221.517L164.407 213.475C164.407 213.475 170.413 235.871 192.809 231.188C205.738 228.439 227.014 230.577 227.014 230.577Z" fill="#F0F0F0"/>
<path fill-rule="evenodd" clip-rule="evenodd" d="M161.76 158.503C165.934 142.724 149.544 129.184 135.089 136.616C126.334 141.095 118.699 148.933 118.19 162.676C116.968 195.151 74.823 202.277 93.0452 239.943C108.417 271.501 53.1396 277.405 95.0812 321.179C133.358 361.186 175.198 306.927 163.796 284.836C152.395 262.644 141.197 249.105 155.754 234.445C177.946 212.049 171.228 198.205 160.946 183.342C156.161 176.419 159.317 168.072 161.76 158.503Z" fill="#142585"/>
<path fill-rule="evenodd" clip-rule="evenodd" d="M120.328 156.976C120.328 156.976 110.86 176.928 100.884 183.851C90.9074 190.671 96.8118 213.984 96.8118 213.984L98.4406 202.684C98.4406 202.684 96.3028 193.115 101.291 188.432C106.279 183.749 118.088 177.539 121.142 168.988C124.4 160.335 120.328 156.976 120.328 156.976Z" fill="#142585"/>
<path fill-rule="evenodd" clip-rule="evenodd" d="M184.258 135.699C184.258 135.699 191.588 128.981 203.193 159.521C206.349 167.868 193.42 171.228 200.444 176.216C207.468 181.204 213.271 155.143 207.061 146.592C200.851 138.041 195.66 130.915 195.558 123.687C195.456 116.459 184.258 135.699 184.258 135.699Z" fill="#142585"/>
<g opacity="0.32">
<path opacity="0.32" d="M73.296 248.087L55.0738 242.386C53.8522 241.979 53.2414 240.757 53.5468 239.535L59.2476 221.313C59.6548 220.092 60.8764 219.481 62.098 219.786L80.3202 225.487C81.5418 225.894 82.1526 227.116 81.8472 228.337L76.1464 246.56C75.7392 247.883 74.5176 248.494 73.296 248.087ZM58.6368 238.823L72.5834 243.2L76.9608 229.254L63.0142 224.876L58.6368 238.823Z" fill="white"/>
</g>
<g opacity="0.24">
<path opacity="0.24" d="M88.9732 402.212C82.0508 402.212 76.35 396.511 76.35 389.589C76.35 382.666 82.0508 376.965 88.9732 376.965C95.8956 376.965 101.596 382.666 101.596 389.589C101.596 396.613 95.8956 402.212 88.9732 402.212ZM88.9732 382.259C84.9012 382.259 81.5418 385.618 81.5418 389.69C81.5418 393.762 84.9012 397.122 88.9732 397.122C93.0452 397.122 96.4046 393.762 96.4046 389.69C96.3028 385.517 93.0452 382.259 88.9732 382.259Z" fill="white"/>
</g>
<g opacity="0.24">
<path opacity="0.24" d="M412.188 420.129C403.637 420.129 396.613 413.104 396.613 404.553C396.613 396.002 403.637 388.978 412.188 388.978C420.739 388.978 427.764 396.002 427.764 404.553C427.764 413.206 420.841 420.129 412.188 420.129ZM412.188 395.493C407.2 395.493 403.026 399.565 403.026 404.553C403.026 409.541 407.098 413.715 412.188 413.715C417.176 413.715 421.248 409.643 421.248 404.553C421.35 399.565 417.176 395.493 412.188 395.493Z" fill="white"/>
</g>
<path d="M251.039 381.546C254.602 381.546 324.64 381.546 324.64 381.546" stroke="white" stroke-width="0.9459" stroke-miterlimit="10" stroke-linecap="round" stroke-linejoin="round"/>
<path d="M65.2538 440.692C68.8168 440.692 114.118 440.692 114.118 440.692" stroke="white" stroke-width="0.9459" stroke-miterlimit="10" stroke-linecap="round" stroke-linejoin="round"/>
<path d="M370.247 446.597C373.81 446.597 419.111 446.597 419.111 446.597" stroke="white" stroke-width="0.9459" stroke-miterlimit="10" stroke-linecap="round" stroke-linejoin="round"/>
<path d="M56.8044 189.755C60.3674 189.755 105.668 189.755 105.668 189.755" stroke="white" stroke-width="0.9459" stroke-miterlimit="10" stroke-linecap="round" stroke-linejoin="round"/>
<path opacity="0.28" d="M72.9906 354.162C72.9906 356.707 70.9546 358.743 68.4096 358.743C65.8646 358.743 63.8286 356.707 63.8286 354.162C63.8286 351.617 65.8646 349.581 68.4096 349.581C70.9546 349.581 72.9906 351.617 72.9906 354.162Z" fill="white"/>
<path opacity="0.28" d="M265.291 348.767C265.291 351.312 263.255 353.348 260.71 353.348C258.165 353.348 256.129 351.312 256.129 348.767C256.129 346.222 258.165 344.186 260.71 344.186C263.153 344.084 265.291 346.222 265.291 348.767Z" fill="white"/>
<path opacity="0.28" d="M441.812 330.443C441.812 332.988 439.776 335.024 437.231 335.024C434.686 335.024 432.65 332.988 432.65 330.443C432.65 327.898 434.686 325.862 437.231 325.862C439.776 325.862 441.812 327.898 441.812 330.443Z" fill="white"/>
<path opacity="0.28" d="M440.387 432.548C440.387 435.093 438.351 437.129 435.806 437.129C433.261 437.129 431.225 435.093 431.225 432.548C431.225 430.003 433.261 427.967 435.806 427.967C438.351 427.967 440.387 430.003 440.387 432.548Z" fill="white"/>
<path opacity="0.28" d="M63.2178 141.298C63.2178 143.843 61.1818 145.879 58.6368 145.879C56.0918 145.879 54.0558 143.843 54.0558 141.298C54.0558 138.753 56.0918 136.717 58.6368 136.717C61.1818 136.717 63.2178 138.753 63.2178 141.298Z" fill="white"/>
</g>
<defs>
<linearGradient id="paint0_linear_2001_60" x1="305.384" y1="343.035" x2="471.405" y2="343.035" gradientUnits="userSpaceOnUse">
<stop stop-color="#2E6DFF"/>
<stop offset="0.016475" stop-color="#2F6EFF"/>
<stop offset="0.6665" stop-color="#598CFF"/>
<stop offset="1" stop-color="#6997FF"/>
</linearGradient>
<clipPath id="clip0_2001_60">
<rect width="509" height="509" fill="white"/>
</clipPath>
</defs>
</svg>
