<svg width="28" height="35" viewBox="0 0 28 35" fill="none" xmlns="http://www.w3.org/2000/svg">
<path d="M23.8967 4.25196C22.6229 2.90875 21.0889 1.83903 19.3882 1.10802C17.6875 0.376997 15.8558 0 14.0046 0C12.1535 0 10.3217 0.376997 8.62102 1.10802C6.92033 1.83903 5.38637 2.90875 4.11258 4.25196C1.47279 7.01885 0 10.6961 0 14.5203C0 18.3444 1.47279 22.0217 4.11258 24.7886L14.0002 35L23.8879 24.7886C26.5289 22.0228 28.0032 18.3462 28.0049 14.522C28.0065 10.6979 26.5353 7.01997 23.8967 4.25196V4.25196ZM14.0002 18.3747C13.1349 18.3747 12.2891 18.1181 11.5696 17.6374C10.8501 17.1566 10.2894 16.4733 9.95821 15.6739C9.62707 14.8745 9.54042 13.9948 9.70923 13.1461C9.87804 12.2974 10.2947 11.5178 10.9066 10.906C11.5185 10.2941 12.298 9.87743 13.1467 9.70862C13.9954 9.5398 14.8751 9.62645 15.6745 9.95759C16.4739 10.2887 17.1573 10.8495 17.638 11.569C18.1187 12.2885 18.3753 13.1343 18.3753 13.9996C18.3753 15.16 17.9144 16.2728 17.0939 17.0933C16.2734 17.9138 15.1606 18.3747 14.0002 18.3747V18.3747Z" fill="#19427D"/>
</svg>
