<svg width="12" height="28" viewBox="0 0 12 28" fill="none" xmlns="http://www.w3.org/2000/svg">
<path d="M7.98871 26.4122C8.56723 25.2562 9.29634 24.1487 9.69457 22.9377C11.6443 17.1356 11.6767 10.8988 9.78704 5.15971C9.49019 4.29923 9.09641 3.47712 8.6132 2.70899C7.28827 0.505006 3.88143 -0.572755 1.58794 0.661328C0.939247 1.00796 0.441681 2.07371 0.305929 2.87643C0.0926041 4.13785 0.203748 5.45482 0.246484 6.74517C0.304003 8.65101 1.36557 9.41857 3.22579 8.98625C4.98966 8.57799 5.81643 9.00509 6.42507 10.7165C7.15295 12.8078 7.14421 15.0995 6.40027 17.2169C5.86067 18.8554 4.95471 19.3013 3.27598 18.9349C1.29353 18.4967 0.260883 19.2691 0.198294 21.2909C0.158627 22.5822 0.164743 23.873 0.200591 25.1657C0.243994 26.6277 1.02523 27.5131 2.49466 27.5044C4.33254 27.4981 6.32512 28.0758 7.98871 26.4122Z" fill="#19427D"/>
</svg>
