<svg width="16" height="16" viewBox="0 0 16 16" fill="none" xmlns="http://www.w3.org/2000/svg">
<g clip-path="url(#clip0_2001_36)">
<path d="M12.2024 16C11.3399 15.7141 10.4267 15.5273 9.62625 15.1244C5.77051 13.2147 2.65004 10.1349 0.731483 6.34554C0.45054 5.77065 0.236807 5.16657 0.0943381 4.54475C-0.344995 2.79124 0.809687 0.560512 2.56242 0.0315304C3.05696 -0.119286 3.83441 0.162085 4.30135 0.49298C5.0351 1.01296 5.63545 1.72202 6.2565 2.38381C7.17656 3.35848 7.03166 4.26788 5.89307 4.97919C4.81429 5.65449 4.61647 6.27801 5.16622 7.43052C5.8458 8.83089 6.99084 9.96414 8.41406 10.6449C9.49744 11.1897 10.1691 10.9601 10.82 9.94262C11.586 8.73834 12.4831 8.60778 13.5204 9.58021C14.1829 10.2015 14.8223 10.8453 15.448 11.5048C16.1541 12.2521 16.207 13.0805 15.4733 13.8076C14.5578 14.7192 13.8563 15.9978 12.2024 16Z" fill="white"/>
</g>
<defs>
<clipPath id="clip0_2001_36">
<rect width="16" height="16" fill="white"/>
</clipPath>
</defs>
</svg>
