<svg width="15" height="15" viewBox="0 0 15 15" fill="none" xmlns="http://www.w3.org/2000/svg">
<g clip-path="url(#clip0_2321_276)">
<path fill-rule="evenodd" clip-rule="evenodd" d="M10.7809 14.0624C10.9052 14.0624 11.0244 14.013 11.1123 13.9251C11.2002 13.8372 11.2496 13.7179 11.2496 13.5936V2.53767L14.199 5.48799C14.287 5.576 14.4064 5.62545 14.5309 5.62545C14.6553 5.62545 14.7747 5.576 14.8627 5.48799C14.9508 5.39997 15.0002 5.28059 15.0002 5.15611C15.0002 5.03163 14.9508 4.91225 14.8627 4.82424L11.1127 1.07424C11.0692 1.03058 11.0175 0.995949 10.9605 0.972318C10.9036 0.948687 10.8425 0.936523 10.7809 0.936523C10.7192 0.936523 10.6582 0.948687 10.6012 0.972318C10.5443 0.995949 10.4925 1.03058 10.449 1.07424L6.69899 4.82424C6.61097 4.91225 6.56152 5.03163 6.56152 5.15611C6.56152 5.28059 6.61097 5.39997 6.69899 5.48799C6.78701 5.576 6.90639 5.62545 7.03087 5.62545C7.15534 5.62545 7.27472 5.576 7.36274 5.48799L10.3121 2.53767V13.5936C10.3121 13.7179 10.3615 13.8372 10.4494 13.9251C10.5373 14.013 10.6565 14.0624 10.7809 14.0624ZM4.21837 0.937361C4.34269 0.937361 4.46191 0.986747 4.54982 1.07466C4.63773 1.16256 4.68712 1.28179 4.68712 1.40611V12.462L7.63649 9.51174C7.72451 9.42372 7.84389 9.37427 7.96837 9.37427C8.09284 9.37427 8.21222 9.42372 8.30024 9.51174C8.38826 9.59975 8.43771 9.71913 8.43771 9.84361C8.43771 9.96809 8.38826 10.0875 8.30024 10.1755L4.55024 13.9255C4.5067 13.9691 4.45497 14.0038 4.39802 14.0274C4.34107 14.051 4.28002 14.0632 4.21837 14.0632C4.15671 14.0632 4.09566 14.051 4.03871 14.0274C3.98176 14.0038 3.93003 13.9691 3.88649 13.9255L0.136491 10.1755C0.0484718 10.0875 -0.000976565 9.96809 -0.000976562 9.84361C-0.00097656 9.71913 0.0484718 9.59975 0.136491 9.51174C0.224509 9.42372 0.343888 9.37427 0.468366 9.37427C0.592843 9.37427 0.712222 9.42372 0.800241 9.51174L3.74962 12.462V1.40611C3.74962 1.28179 3.799 1.16256 3.88691 1.07466C3.97482 0.986747 4.09405 0.937361 4.21837 0.937361V0.937361Z" fill="white"/>
</g>
<defs>
<clipPath id="clip0_2321_276">
<rect width="15" height="15" fill="white"/>
</clipPath>
</defs>
</svg>
