<svg width="20" height="21" viewBox="0 0 20 21" fill="none" xmlns="http://www.w3.org/2000/svg">
<g clip-path="url(#clip0_2325_840)">
<path d="M18.75 3.54412C17.6438 3.08049 16.0575 2.58052 14.515 2.42514C12.8525 2.25723 11.4425 2.50408 10.625 3.36744V15.5798C11.7938 14.9156 13.275 14.8242 14.6412 14.962C16.1162 15.1124 17.6038 15.5397 18.75 15.9782V3.54412ZM9.375 3.36744C8.5575 2.50408 7.1475 2.25723 5.485 2.42514C3.9425 2.58052 2.35625 3.08049 1.25 3.54412V15.9782C2.3975 15.5397 3.88375 15.1111 5.35875 14.9633C6.72625 14.8242 8.20625 14.9144 9.375 15.5798V3.36744ZM10 2.23467C11.2313 1.17333 13.0162 1.01545 14.6412 1.17834C16.5337 1.37006 18.4437 2.0204 19.6337 2.56297C19.7429 2.61276 19.8355 2.69298 19.9005 2.79408C19.9654 2.89518 20 3.01287 20 3.13312V16.9168C20 17.0216 19.9737 17.1248 19.9236 17.2168C19.8735 17.3088 19.8012 17.3867 19.7132 17.4435C19.6253 17.5002 19.5246 17.5339 19.4203 17.5415C19.316 17.5491 19.2114 17.5303 19.1162 17.4869C18.0137 16.9857 16.2375 16.383 14.5162 16.2088C12.755 16.0309 11.2787 16.3178 10.4875 17.3077C10.4289 17.3809 10.3547 17.44 10.2704 17.4805C10.186 17.5211 10.0936 17.5422 10 17.5422C9.90642 17.5422 9.81403 17.5211 9.72965 17.4805C9.64527 17.44 9.57106 17.3809 9.5125 17.3077C8.72125 16.3178 7.245 16.0309 5.485 16.2088C3.7625 16.383 1.985 16.9857 0.88375 17.4869C0.788559 17.5303 0.684028 17.5491 0.579729 17.5415C0.475431 17.5339 0.3747 17.5002 0.286764 17.4435C0.198828 17.3867 0.126496 17.3088 0.0763965 17.2168C0.0262965 17.1248 2.89525e-05 17.0216 0 16.9168V3.13312C3.32143e-05 3.01287 0.0345838 2.89518 0.0995266 2.79408C0.16447 2.69298 0.257062 2.61276 0.36625 2.56297C1.55625 2.0204 3.46625 1.37006 5.35875 1.17834C6.98375 1.01419 8.76875 1.17333 10 2.23467Z" fill="#1A1363"/>
</g>
<defs>
<clipPath id="clip0_2325_840">
<rect width="20" height="20.049" fill="white" transform="matrix(-1 0 0 1 20 0)"/>
</clipPath>
</defs>
</svg>
