<svg width="20" height="21" viewBox="0 0 20 21" fill="none" xmlns="http://www.w3.org/2000/svg">
<g clip-path="url(#clip0_2321_287)">
<path d="M18.75 3.54363C17.6438 3.08 16.0575 2.58003 14.515 2.42465C12.8525 2.25674 11.4425 2.50359 10.625 3.36695V15.5793C11.7938 14.9152 13.275 14.8237 14.6412 14.9615C16.1162 15.1119 17.6038 15.5392 18.75 15.9777V3.54363ZM9.375 3.36695C8.5575 2.50359 7.1475 2.25674 5.485 2.42465C3.9425 2.58003 2.35625 3.08 1.25 3.54363V15.9777C2.3975 15.5392 3.88375 15.1106 5.35875 14.9628C6.72625 14.8237 8.20625 14.9139 9.375 15.5793V3.36695ZM10 2.23418C11.2313 1.17284 13.0162 1.01496 14.6412 1.17785C16.5337 1.36957 18.4437 2.01991 19.6337 2.56249C19.7429 2.61227 19.8355 2.69249 19.9005 2.79359C19.9654 2.89469 20 3.01238 20 3.13263V16.9163C20 17.0211 19.9737 17.1243 19.9236 17.2163C19.8735 17.3083 19.8012 17.3862 19.7132 17.443C19.6253 17.4997 19.5246 17.5334 19.4203 17.541C19.316 17.5486 19.2114 17.5298 19.1162 17.4864C18.0137 16.9852 16.2375 16.3825 14.5162 16.2083C12.755 16.0304 11.2787 16.3173 10.4875 17.3072C10.4289 17.3804 10.3547 17.4395 10.2704 17.4801C10.186 17.5206 10.0936 17.5417 10 17.5417C9.90642 17.5417 9.81403 17.5206 9.72965 17.4801C9.64527 17.4395 9.57106 17.3804 9.5125 17.3072C8.72125 16.3173 7.245 16.0304 5.485 16.2083C3.7625 16.3825 1.985 16.9852 0.88375 17.4864C0.788559 17.5298 0.684028 17.5486 0.579729 17.541C0.475431 17.5334 0.3747 17.4997 0.286764 17.443C0.198828 17.3862 0.126496 17.3083 0.0763965 17.2163C0.0262965 17.1243 2.89525e-05 17.0211 0 16.9163V3.13263C3.32143e-05 3.01238 0.0345838 2.89469 0.0995266 2.79359C0.16447 2.69249 0.257062 2.61227 0.36625 2.56249C1.55625 2.01991 3.46625 1.36957 5.35875 1.17785C6.98375 1.0137 8.76875 1.17284 10 2.23418Z" fill="white"/>
</g>
<defs>
<clipPath id="clip0_2321_287">
<rect width="20" height="20.049" fill="white" transform="matrix(-1 0 0 1 20 0)"/>
</clipPath>
</defs>
</svg>
