<svg width="20" height="21" viewBox="0 0 20 21" fill="none" xmlns="http://www.w3.org/2000/svg">
<g clip-path="url(#clip0_2321_216)">
<path fill-rule="evenodd" clip-rule="evenodd" d="M12.5 16.5429C12.5 16.709 12.4342 16.8684 12.3169 16.9859C12.1997 17.1034 12.0408 17.1694 11.875 17.1694H1.875C1.70924 17.1694 1.55027 17.1034 1.43306 16.9859C1.31585 16.8684 1.25 16.709 1.25 16.5429V5.26533C1.25 5.09917 1.31585 4.93981 1.43306 4.82231C1.55027 4.70481 1.70924 4.6388 1.875 4.6388H11.875C12.0408 4.6388 12.1997 4.70481 12.3169 4.82231C12.4342 4.93981 12.5 5.09917 12.5 5.26533V7.77145C12.5 7.93762 12.5658 8.09698 12.6831 8.21448C12.8003 8.33197 12.9592 8.39798 13.125 8.39798C13.2908 8.39798 13.4497 8.33197 13.5669 8.21448C13.6842 8.09698 13.75 7.93762 13.75 7.77145V5.26533C13.75 4.76683 13.5525 4.28875 13.2008 3.93626C12.8492 3.58377 12.3723 3.38574 11.875 3.38574H1.875C1.37772 3.38574 0.900805 3.58377 0.549175 3.93626C0.197544 4.28875 0 4.76683 0 5.26533L0 16.5429C0 17.0414 0.197544 17.5195 0.549175 17.8719C0.900805 18.2244 1.37772 18.4225 1.875 18.4225H11.875C12.3723 18.4225 12.8492 18.2244 13.2008 17.8719C13.5525 17.5195 13.75 17.0414 13.75 16.5429V14.0368C13.75 13.8706 13.6842 13.7112 13.5669 13.5937C13.4497 13.4762 13.2908 13.4102 13.125 13.4102C12.9592 13.4102 12.8003 13.4762 12.6831 13.5937C12.5658 13.7112 12.5 13.8706 12.5 14.0368V16.5429Z" fill="white"/>
<path fill-rule="evenodd" clip-rule="evenodd" d="M19.8175 11.3477C19.8757 11.2895 19.9219 11.2203 19.9534 11.1442C19.9849 11.0681 20.0011 10.9865 20.0011 10.9041C20.0011 10.8217 19.9849 10.7401 19.9534 10.664C19.9219 10.5878 19.8757 10.5187 19.8175 10.4605L16.0675 6.70132C15.9501 6.58367 15.791 6.51758 15.625 6.51758C15.459 6.51758 15.2999 6.58367 15.1825 6.70132C15.0651 6.81896 14.9992 6.97852 14.9992 7.1449C14.9992 7.31128 15.0651 7.47084 15.1825 7.58848L17.8663 10.2775H6.875C6.70924 10.2775 6.55027 10.3436 6.43306 10.4611C6.31585 10.5786 6.25 10.7379 6.25 10.9041C6.25 11.0702 6.31585 11.2296 6.43306 11.3471C6.55027 11.4646 6.70924 11.5306 6.875 11.5306H17.8663L15.1825 14.2197C15.0651 14.3373 14.9992 14.4969 14.9992 14.6633C14.9992 14.8296 15.0651 14.9892 15.1825 15.1068C15.2999 15.2245 15.459 15.2906 15.625 15.2906C15.791 15.2906 15.9501 15.2245 16.0675 15.1068L19.8175 11.3477V11.3477Z" fill="white"/>
</g>
<defs>
<clipPath id="clip0_2321_216">
<rect width="20" height="20.049" fill="white" transform="translate(0 0.879883)"/>
</clipPath>
</defs>
</svg>
