<svg width="20" height="21" viewBox="0 0 20 21" fill="none" xmlns="http://www.w3.org/2000/svg">
<g clip-path="url(#clip0_2325_164)">
<path d="M13.75 6.98493C13.75 6.81876 13.8158 6.6594 13.9331 6.5419C14.0503 6.42441 14.2092 6.3584 14.375 6.3584H16.875C17.0408 6.3584 17.1997 6.42441 17.3169 6.5419C17.4342 6.6594 17.5 6.81876 17.5 6.98493V8.23799C17.5 8.40415 17.4342 8.56351 17.3169 8.68101C17.1997 8.79851 17.0408 8.86452 16.875 8.86452H14.375C14.2092 8.86452 14.0503 8.79851 13.9331 8.68101C13.8158 8.56351 13.75 8.40415 13.75 8.23799V6.98493Z" fill="white"/>
<path d="M2.5 2.59863C1.83696 2.59863 1.20107 2.86267 0.732233 3.33266C0.263392 3.80265 0 4.44009 0 5.10475L0 15.1292C0 15.7939 0.263392 16.4313 0.732233 16.9013C1.20107 17.3713 1.83696 17.6354 2.5 17.6354H17.5C18.163 17.6354 18.7989 17.3713 19.2678 16.9013C19.7366 16.4313 20 15.7939 20 15.1292V5.10475C20 4.44009 19.7366 3.80265 19.2678 3.33266C18.7989 2.86267 18.163 2.59863 17.5 2.59863H2.5ZM18.75 5.10475V11.3701H1.25V5.10475C1.25 4.77242 1.3817 4.4537 1.61612 4.21871C1.85054 3.98371 2.16848 3.85169 2.5 3.85169H17.5C17.8315 3.85169 18.1495 3.98371 18.3839 4.21871C18.6183 4.4537 18.75 4.77242 18.75 5.10475ZM17.5 16.3823H2.5C2.16848 16.3823 1.85054 16.2503 1.61612 16.0153C1.3817 15.7803 1.25 15.4616 1.25 15.1292V13.8762H18.75V15.1292C18.75 15.4616 18.6183 15.7803 18.3839 16.0153C18.1495 16.2503 17.8315 16.3823 17.5 16.3823Z" fill="white"/>
</g>
<defs>
<clipPath id="clip0_2325_164">
<rect width="20" height="20.049" fill="white" transform="translate(0 0.0927734)"/>
</clipPath>
</defs>
</svg>
