<svg width="20" height="21" viewBox="0 0 20 21" fill="none" xmlns="http://www.w3.org/2000/svg">
<g clip-path="url(#clip0_2321_219)">
<path d="M13.75 7.73151C13.75 7.56534 13.8158 7.40598 13.9331 7.28849C14.0503 7.17099 14.2092 7.10498 14.375 7.10498H16.875C17.0408 7.10498 17.1997 7.17099 17.3169 7.28849C17.4342 7.40598 17.5 7.56534 17.5 7.73151V8.98457C17.5 9.15074 17.4342 9.3101 17.3169 9.42759C17.1997 9.54509 17.0408 9.6111 16.875 9.6111H14.375C14.2092 9.6111 14.0503 9.54509 13.9331 9.42759C13.8158 9.3101 13.75 9.15074 13.75 8.98457V7.73151Z" fill="white"/>
<path d="M2.5 3.34619C1.83696 3.34619 1.20107 3.61023 0.732233 4.08022C0.263392 4.55021 0 5.18765 0 5.85231L0 15.8768C0 16.5415 0.263392 17.1789 0.732233 17.6489C1.20107 18.1189 1.83696 18.3829 2.5 18.3829H17.5C18.163 18.3829 18.7989 18.1189 19.2678 17.6489C19.7366 17.1789 20 16.5415 20 15.8768V5.85231C20 5.18765 19.7366 4.55021 19.2678 4.08022C18.7989 3.61023 18.163 3.34619 17.5 3.34619H2.5ZM18.75 5.85231V12.1176H1.25V5.85231C1.25 5.51998 1.3817 5.20126 1.61612 4.96626C1.85054 4.73127 2.16848 4.59925 2.5 4.59925H17.5C17.8315 4.59925 18.1495 4.73127 18.3839 4.96626C18.6183 5.20126 18.75 5.51998 18.75 5.85231ZM17.5 17.1299H2.5C2.16848 17.1299 1.85054 16.9978 1.61612 16.7628C1.3817 16.5278 1.25 16.2091 1.25 15.8768V14.6237H18.75V15.8768C18.75 16.2091 18.6183 16.5278 18.3839 16.7628C18.1495 16.9978 17.8315 17.1299 17.5 17.1299Z" fill="white"/>
</g>
<defs>
<clipPath id="clip0_2321_219">
<rect width="20" height="20.049" fill="white" transform="translate(0 0.839844)"/>
</clipPath>
</defs>
</svg>
