<svg width="20" height="21" viewBox="0 0 20 21" fill="none" xmlns="http://www.w3.org/2000/svg">
<g clip-path="url(#clip0_2325_56)">
<path d="M13.75 6.98444C13.75 6.81827 13.8158 6.65891 13.9331 6.54142C14.0503 6.42392 14.2092 6.35791 14.375 6.35791H16.875C17.0408 6.35791 17.1997 6.42392 17.3169 6.54142C17.4342 6.65891 17.5 6.81827 17.5 6.98444V8.2375C17.5 8.40367 17.4342 8.56303 17.3169 8.68052C17.1997 8.79802 17.0408 8.86403 16.875 8.86403H14.375C14.2092 8.86403 14.0503 8.79802 13.9331 8.68052C13.8158 8.56303 13.75 8.40367 13.75 8.2375V6.98444Z" fill="white"/>
<path d="M2.5 2.59912C1.83696 2.59912 1.20107 2.86316 0.732233 3.33315C0.263392 3.80314 0 4.44058 0 5.10524L0 15.1297C0 15.7944 0.263392 16.4318 0.732233 16.9018C1.20107 17.3718 1.83696 17.6358 2.5 17.6358H17.5C18.163 17.6358 18.7989 17.3718 19.2678 16.9018C19.7366 16.4318 20 15.7944 20 15.1297V5.10524C20 4.44058 19.7366 3.80314 19.2678 3.33315C18.7989 2.86316 18.163 2.59912 17.5 2.59912H2.5ZM18.75 5.10524V11.3705H1.25V5.10524C1.25 4.77291 1.3817 4.45419 1.61612 4.21919C1.85054 3.9842 2.16848 3.85218 2.5 3.85218H17.5C17.8315 3.85218 18.1495 3.9842 18.3839 4.21919C18.6183 4.45419 18.75 4.77291 18.75 5.10524ZM17.5 16.3828H2.5C2.16848 16.3828 1.85054 16.2508 1.61612 16.0158C1.3817 15.7808 1.25 15.4621 1.25 15.1297V13.8767H18.75V15.1297C18.75 15.4621 18.6183 15.7808 18.3839 16.0158C18.1495 16.2508 17.8315 16.3828 17.5 16.3828Z" fill="white"/>
</g>
<defs>
<clipPath id="clip0_2325_56">
<rect width="20" height="20.049" fill="white" transform="translate(0 0.0927734)"/>
</clipPath>
</defs>
</svg>
