<svg width="20" height="20" viewBox="0 0 20 20" fill="none" xmlns="http://www.w3.org/2000/svg">
<path fill-rule="evenodd" clip-rule="evenodd" d="M2.00098 17.8248V8.39958H3.3342V17.8248C3.3342 18.0171 3.40443 18.2015 3.52944 18.3375C3.65446 18.4734 3.82401 18.5498 4.00081 18.5498H15.9998C16.1766 18.5498 16.3461 18.4734 16.4712 18.3375C16.5962 18.2015 16.6664 18.0171 16.6664 17.8248V8.39958H17.9996V17.8248C17.9996 18.4017 17.7889 18.9549 17.4139 19.3628C17.0389 19.7707 16.5302 19.9999 15.9998 19.9999H4.00081C3.47042 19.9999 2.96175 19.7707 2.58671 19.3628C2.21167 18.9549 2.00098 18.4017 2.00098 17.8248V17.8248ZM16.6664 1.87443V6.94955L14 4.04948V1.87443C14 1.68214 14.0702 1.49773 14.1952 1.36177C14.3202 1.2258 14.4898 1.14941 14.6666 1.14941H15.9998C16.1766 1.14941 16.3461 1.2258 16.4712 1.36177C16.5962 1.49773 16.6664 1.68214 16.6664 1.87443Z" fill="#1A1363"/>
<path fill-rule="evenodd" clip-rule="evenodd" d="M9.05741 0.42455C9.30743 0.152711 9.64648 0 10 0C10.3535 0 10.6926 0.152711 10.9426 0.42455L19.8045 10.0615C19.9297 10.1976 20 10.3823 20 10.5748C20 10.7673 19.9297 10.952 19.8045 11.0881C19.6793 11.2242 19.5096 11.3007 19.3325 11.3007C19.1555 11.3007 18.9858 11.2242 18.8606 11.0881L10 1.44972L1.13941 11.0881C1.01424 11.2242 0.844472 11.3007 0.667453 11.3007C0.490433 11.3007 0.320664 11.2242 0.195492 11.0881C0.0703207 10.952 0 10.7673 0 10.5748C0 10.3823 0.0703207 10.1976 0.195492 10.0615L9.05741 0.42455Z" fill="#1A1363"/>
</svg>
