<svg width="20" height="21" viewBox="0 0 20 21" fill="none" xmlns="http://www.w3.org/2000/svg">
<path fill-rule="evenodd" clip-rule="evenodd" d="M2.00098 18.4291V8.98081H3.3342V18.4291C3.3342 18.6219 3.40443 18.8067 3.52944 18.943C3.65446 19.0793 3.82401 19.1559 4.00081 19.1559H15.9998C16.1766 19.1559 16.3461 19.0793 16.4712 18.943C16.5962 18.8067 16.6664 18.6219 16.6664 18.4291V8.98081H17.9996V18.4291C17.9996 19.0074 17.7889 19.562 17.4139 19.9709C17.0389 20.3798 16.5302 20.6095 15.9998 20.6095H4.00081C3.47042 20.6095 2.96175 20.3798 2.58671 19.9709C2.21167 19.562 2.00098 19.0074 2.00098 18.4291V18.4291ZM16.6664 2.43968V7.52722L14 4.62006V2.43968C14 2.24693 14.0702 2.06206 14.1952 1.92576C14.3202 1.78946 14.4898 1.71289 14.6666 1.71289H15.9998C16.1766 1.71289 16.3461 1.78946 16.4712 1.92576C16.5962 2.06206 16.6664 2.24693 16.6664 2.43968Z" fill="white"/>
<path fill-rule="evenodd" clip-rule="evenodd" d="M9.05741 0.986136C9.30743 0.713632 9.64648 0.560547 10 0.560547C10.3535 0.560547 10.6926 0.713632 10.9426 0.986136L19.8045 10.6467C19.9297 10.7831 20 10.9682 20 11.1612C20 11.3542 19.9297 11.5393 19.8045 11.6758C19.6793 11.8123 19.5096 11.8889 19.3325 11.8889C19.1555 11.8889 18.9858 11.8123 18.8606 11.6758L10 2.01382L1.13941 11.6758C1.01424 11.8123 0.844472 11.8889 0.667453 11.8889C0.490433 11.8889 0.320664 11.8123 0.195492 11.6758C0.0703207 11.5393 0 11.3542 0 11.1612C0 10.9682 0.0703207 10.7831 0.195492 10.6467L9.05741 0.986136Z" fill="white"/>
</svg>
