<svg width="20" height="21" viewBox="0 0 20 21" fill="none" xmlns="http://www.w3.org/2000/svg">
<g clip-path="url(#clip0_2325_59)">
<path fill-rule="evenodd" clip-rule="evenodd" d="M13.5673 7.70116C13.6255 7.75936 13.6717 7.82849 13.7032 7.90461C13.7347 7.98073 13.7509 8.06233 13.7509 8.14474C13.7509 8.22715 13.7347 8.30875 13.7032 8.38487C13.6717 8.46099 13.6255 8.53012 13.5673 8.58832L9.81731 12.3475C9.75926 12.4058 9.69029 12.4521 9.61436 12.4837C9.53842 12.5153 9.45702 12.5316 9.37481 12.5316C9.2926 12.5316 9.2112 12.5153 9.13527 12.4837C9.05934 12.4521 8.99037 12.4058 8.93231 12.3475L7.05731 10.4679C6.9992 10.4097 6.95311 10.3405 6.92166 10.2644C6.89021 10.1883 6.87402 10.1067 6.87402 10.0243C6.87402 9.94195 6.89021 9.86037 6.92166 9.78426C6.95311 9.70815 6.9992 9.639 7.05731 9.58075C7.11542 9.52249 7.18441 9.47629 7.26033 9.44476C7.33626 9.41323 7.41763 9.39701 7.49981 9.39701C7.58199 9.39701 7.66337 9.41323 7.73929 9.44476C7.81522 9.47629 7.8842 9.52249 7.94231 9.58075L9.37481 11.018L12.6823 7.70116C12.7404 7.64281 12.8093 7.59652 12.8853 7.56493C12.9612 7.53335 13.0426 7.51709 13.1248 7.51709C13.207 7.51709 13.2884 7.53335 13.3644 7.56493C13.4403 7.59652 13.5093 7.64281 13.5673 7.70116V7.70116Z" fill="white"/>
<path d="M3.75 0H16.25C16.913 0 17.5489 0.264037 18.0178 0.734026C18.4866 1.20401 18.75 1.84146 18.75 2.50612V17.5428C18.75 18.2075 18.4866 18.8449 18.0178 19.3149C17.5489 19.7849 16.913 20.049 16.25 20.049H3.75C3.08696 20.049 2.45107 19.7849 1.98223 19.3149C1.51339 18.8449 1.25 18.2075 1.25 17.5428V16.2898H2.5V17.5428C2.5 17.8752 2.6317 18.1939 2.86612 18.4289C3.10054 18.6639 3.41848 18.7959 3.75 18.7959H16.25C16.5815 18.7959 16.8995 18.6639 17.1339 18.4289C17.3683 18.1939 17.5 17.8752 17.5 17.5428V2.50612C17.5 2.17379 17.3683 1.85507 17.1339 1.62007C16.8995 1.38508 16.5815 1.25306 16.25 1.25306H3.75C3.41848 1.25306 3.10054 1.38508 2.86612 1.62007C2.6317 1.85507 2.5 2.17379 2.5 2.50612V3.75918H1.25V2.50612C1.25 1.84146 1.51339 1.20401 1.98223 0.734026C2.45107 0.264037 3.08696 0 3.75 0V0Z" fill="white"/>
<path d="M1.25 6.26527V5.63874C1.25 5.47257 1.31585 5.31321 1.43306 5.19571C1.55027 5.07822 1.70924 5.01221 1.875 5.01221C2.04076 5.01221 2.19973 5.07822 2.31694 5.19571C2.43415 5.31321 2.5 5.47257 2.5 5.63874V6.26527H3.125C3.29076 6.26527 3.44973 6.33128 3.56694 6.44877C3.68415 6.56627 3.75 6.72563 3.75 6.8918C3.75 7.05796 3.68415 7.21732 3.56694 7.33482C3.44973 7.45232 3.29076 7.51833 3.125 7.51833H0.625C0.45924 7.51833 0.300269 7.45232 0.183058 7.33482C0.065848 7.21732 0 7.05796 0 6.8918C0 6.72563 0.065848 6.56627 0.183058 6.44877C0.300269 6.33128 0.45924 6.26527 0.625 6.26527H1.25ZM1.25 10.0244V9.39792C1.25 9.23175 1.31585 9.07239 1.43306 8.95489C1.55027 8.8374 1.70924 8.77139 1.875 8.77139C2.04076 8.77139 2.19973 8.8374 2.31694 8.95489C2.43415 9.07239 2.5 9.23175 2.5 9.39792V10.0244H3.125C3.29076 10.0244 3.44973 10.0905 3.56694 10.208C3.68415 10.3255 3.75 10.4848 3.75 10.651C3.75 10.8171 3.68415 10.9765 3.56694 11.094C3.44973 11.2115 3.29076 11.2775 3.125 11.2775H0.625C0.45924 11.2775 0.300269 11.2115 0.183058 11.094C0.065848 10.9765 0 10.8171 0 10.651C0 10.4848 0.065848 10.3255 0.183058 10.208C0.300269 10.0905 0.45924 10.0244 0.625 10.0244H1.25ZM1.25 13.7836V13.1571C1.25 12.9909 1.31585 12.8316 1.43306 12.7141C1.55027 12.5966 1.70924 12.5306 1.875 12.5306C2.04076 12.5306 2.19973 12.5966 2.31694 12.7141C2.43415 12.8316 2.5 12.9909 2.5 13.1571V13.7836H3.125C3.29076 13.7836 3.44973 13.8496 3.56694 13.9671C3.68415 14.0846 3.75 14.244 3.75 14.4102C3.75 14.5763 3.68415 14.7357 3.56694 14.8532C3.44973 14.9707 3.29076 15.0367 3.125 15.0367H0.625C0.45924 15.0367 0.300269 14.9707 0.183058 14.8532C0.065848 14.7357 0 14.5763 0 14.4102C0 14.244 0.065848 14.0846 0.183058 13.9671C0.300269 13.8496 0.45924 13.7836 0.625 13.7836H1.25Z" fill="white"/>
</g>
<defs>
<clipPath id="clip0_2325_59">
<rect width="20" height="20.049" fill="white"/>
</clipPath>
</defs>
</svg>
