<svg width="20" height="20" viewBox="0 0 20 20" fill="none" xmlns="http://www.w3.org/2000/svg">
<path fill-rule="evenodd" clip-rule="evenodd" d="M13.5673 7.68264C13.6255 7.7407 13.6717 7.80967 13.7032 7.8856C13.7347 7.96153 13.7509 8.04293 13.7509 8.12514C13.7509 8.20735 13.7347 8.28875 13.7032 8.36468C13.6717 8.44061 13.6255 8.50958 13.5673 8.56764L9.81731 12.3176C9.75926 12.3758 9.69029 12.422 9.61436 12.4535C9.53842 12.485 9.45702 12.5013 9.37481 12.5013C9.2926 12.5013 9.2112 12.485 9.13527 12.4535C9.05934 12.422 8.99037 12.3758 8.93231 12.3176L7.05731 10.4426C6.9992 10.3845 6.95311 10.3155 6.92166 10.2396C6.89021 10.1637 6.87402 10.0823 6.87402 10.0001C6.87402 9.91796 6.89021 9.83659 6.92166 9.76066C6.95311 9.68474 6.9992 9.61575 7.05731 9.55764C7.11542 9.49953 7.18441 9.45343 7.26033 9.42199C7.33626 9.39054 7.41763 9.37435 7.49981 9.37435C7.58199 9.37435 7.66337 9.39054 7.73929 9.42199C7.81522 9.45343 7.8842 9.49953 7.94231 9.55764L9.37481 10.9914L12.6823 7.68264C12.7404 7.62444 12.8093 7.57826 12.8853 7.54675C12.9612 7.51524 13.0426 7.49902 13.1248 7.49902C13.207 7.49902 13.2884 7.51524 13.3644 7.54675C13.4403 7.57826 13.5093 7.62444 13.5673 7.68264V7.68264Z" fill="#2B2B2B"/>
<path d="M3.75 0H16.25C16.913 0 17.5489 0.263392 18.0178 0.732233C18.4866 1.20107 18.75 1.83696 18.75 2.5V17.5C18.75 18.163 18.4866 18.7989 18.0178 19.2678C17.5489 19.7366 16.913 20 16.25 20H3.75C3.08696 20 2.45107 19.7366 1.98223 19.2678C1.51339 18.7989 1.25 18.163 1.25 17.5V16.25H2.5V17.5C2.5 17.8315 2.6317 18.1495 2.86612 18.3839C3.10054 18.6183 3.41848 18.75 3.75 18.75H16.25C16.5815 18.75 16.8995 18.6183 17.1339 18.3839C17.3683 18.1495 17.5 17.8315 17.5 17.5V2.5C17.5 2.16848 17.3683 1.85054 17.1339 1.61612C16.8995 1.3817 16.5815 1.25 16.25 1.25H3.75C3.41848 1.25 3.10054 1.3817 2.86612 1.61612C2.6317 1.85054 2.5 2.16848 2.5 2.5V3.75H1.25V2.5C1.25 1.83696 1.51339 1.20107 1.98223 0.732233C2.45107 0.263392 3.08696 0 3.75 0V0Z" fill="#2B2B2B"/>
<path d="M1.25 6.25V5.625C1.25 5.45924 1.31585 5.30027 1.43306 5.18306C1.55027 5.06585 1.70924 5 1.875 5C2.04076 5 2.19973 5.06585 2.31694 5.18306C2.43415 5.30027 2.5 5.45924 2.5 5.625V6.25H3.125C3.29076 6.25 3.44973 6.31585 3.56694 6.43306C3.68415 6.55027 3.75 6.70924 3.75 6.875C3.75 7.04076 3.68415 7.19973 3.56694 7.31694C3.44973 7.43415 3.29076 7.5 3.125 7.5H0.625C0.45924 7.5 0.300269 7.43415 0.183058 7.31694C0.065848 7.19973 0 7.04076 0 6.875C0 6.70924 0.065848 6.55027 0.183058 6.43306C0.300269 6.31585 0.45924 6.25 0.625 6.25H1.25ZM1.25 10V9.375C1.25 9.20924 1.31585 9.05027 1.43306 8.93306C1.55027 8.81585 1.70924 8.75 1.875 8.75C2.04076 8.75 2.19973 8.81585 2.31694 8.93306C2.43415 9.05027 2.5 9.20924 2.5 9.375V10H3.125C3.29076 10 3.44973 10.0658 3.56694 10.1831C3.68415 10.3003 3.75 10.4592 3.75 10.625C3.75 10.7908 3.68415 10.9497 3.56694 11.0669C3.44973 11.1842 3.29076 11.25 3.125 11.25H0.625C0.45924 11.25 0.300269 11.1842 0.183058 11.0669C0.065848 10.9497 0 10.7908 0 10.625C0 10.4592 0.065848 10.3003 0.183058 10.1831C0.300269 10.0658 0.45924 10 0.625 10H1.25ZM1.25 13.75V13.125C1.25 12.9592 1.31585 12.8003 1.43306 12.6831C1.55027 12.5658 1.70924 12.5 1.875 12.5C2.04076 12.5 2.19973 12.5658 2.31694 12.6831C2.43415 12.8003 2.5 12.9592 2.5 13.125V13.75H3.125C3.29076 13.75 3.44973 13.8158 3.56694 13.9331C3.68415 14.0503 3.75 14.2092 3.75 14.375C3.75 14.5408 3.68415 14.6997 3.56694 14.8169C3.44973 14.9342 3.29076 15 3.125 15H0.625C0.45924 15 0.300269 14.9342 0.183058 14.8169C0.065848 14.6997 0 14.5408 0 14.375C0 14.2092 0.065848 14.0503 0.183058 13.9331C0.300269 13.8158 0.45924 13.75 0.625 13.75H1.25Z" fill="#2B2B2B"/>
</svg>
