<svg width="24" height="25" viewBox="0 0 24 25" fill="none" xmlns="http://www.w3.org/2000/svg">
<path d="M6.575 16.215C6.44167 16.215 6.31267 16.19 6.188 16.14C6.06267 16.09 5.95833 16.0234 5.875 15.94L1.275 11.34C1.09167 11.1567 1 10.9234 1 10.64C1 10.3567 1.09167 10.1234 1.275 9.94004C1.45833 9.75671 1.69167 9.66504 1.975 9.66504C2.25833 9.66504 2.49167 9.75671 2.675 9.94004L6.575 13.84L10.475 9.94004C10.6583 9.75671 10.8917 9.66504 11.175 9.66504C11.4583 9.66504 11.6917 9.75671 11.875 9.94004C12.0583 10.1234 12.15 10.3567 12.15 10.64C12.15 10.9234 12.0583 11.1567 11.875 11.34L7.275 15.94C7.175 16.04 7.06667 16.1107 6.95 16.152C6.83333 16.194 6.70833 16.215 6.575 16.215Z" fill="black"/>
</svg>
