<svg width="24" height="24" viewBox="0 0 24 24" fill="none" xmlns="http://www.w3.org/2000/svg">
<path d="M6.575 15.55C6.44167 15.55 6.31267 15.525 6.188 15.475C6.06267 15.425 5.95833 15.3583 5.875 15.275L1.275 10.675C1.09167 10.4917 1 10.2583 1 9.975C1 9.69167 1.09167 9.45833 1.275 9.275C1.45833 9.09167 1.69167 9 1.975 9C2.25833 9 2.49167 9.09167 2.675 9.275L6.575 13.175L10.475 9.275C10.6583 9.09167 10.8917 9 11.175 9C11.4583 9 11.6917 9.09167 11.875 9.275C12.0583 9.45833 12.15 9.69167 12.15 9.975C12.15 10.2583 12.0583 10.4917 11.875 10.675L7.275 15.275C7.175 15.375 7.06667 15.4457 6.95 15.487C6.83333 15.529 6.70833 15.55 6.575 15.55Z" fill="black"/>
</svg>
