<svg width="20" height="21" viewBox="0 0 20 21" fill="none" xmlns="http://www.w3.org/2000/svg">
<path d="M2.50033 16.7076V7.2679C2.26421 7.11475 2.06644 6.91983 1.90699 6.68314C1.74699 6.44645 1.66699 6.16799 1.66699 5.84776V3.34165C1.66699 2.88219 1.83033 2.48873 2.15699 2.16126C2.4831 1.83435 2.87533 1.6709 3.33366 1.6709H16.667C17.1253 1.6709 17.5178 1.83435 17.8445 2.16126C18.1706 2.48873 18.3337 2.88219 18.3337 3.34165V5.84776C18.3337 6.16799 18.2537 6.44645 18.0937 6.68314C17.9342 6.91983 17.7364 7.11475 17.5003 7.2679V16.7076C17.5003 17.1671 17.3373 17.5605 17.0112 17.888C16.6845 18.2149 16.292 18.3784 15.8337 18.3784H4.16699C3.70866 18.3784 3.31616 18.2149 2.98949 17.888C2.66338 17.5605 2.50033 17.1671 2.50033 16.7076ZM4.16699 7.51851V16.7076H15.8337V7.51851H4.16699ZM16.667 5.84776V3.34165H3.33366V5.84776H16.667ZM7.50033 11.6954H12.5003V10.0246H7.50033V11.6954ZM4.16699 16.7076V7.51851V16.7076Z" fill="#1A1363"/>
</svg>
