<svg width="24" height="25" viewBox="0 0 24 25" fill="none" xmlns="http://www.w3.org/2000/svg">
<path d="M6.575 16.05C6.44167 16.05 6.31267 16.025 6.188 15.975C6.06267 15.925 5.95833 15.8583 5.875 15.775L1.275 11.175C1.09167 10.9917 1 10.7583 1 10.475C1 10.1917 1.09167 9.95833 1.275 9.775C1.45833 9.59167 1.69167 9.5 1.975 9.5C2.25833 9.5 2.49167 9.59167 2.675 9.775L6.575 13.675L10.475 9.775C10.6583 9.59167 10.8917 9.5 11.175 9.5C11.4583 9.5 11.6917 9.59167 11.875 9.775C12.0583 9.95833 12.15 10.1917 12.15 10.475C12.15 10.7583 12.0583 10.9917 11.875 11.175L7.275 15.775C7.175 15.875 7.06667 15.9457 6.95 15.987C6.83333 16.029 6.70833 16.05 6.575 16.05Z" fill="black"/>
</svg>
