<svg width="24" height="25" viewBox="0 0 24 25" fill="none" xmlns="http://www.w3.org/2000/svg">
<path d="M6.575 16.2141C6.44167 16.2141 6.31267 16.1891 6.188 16.1391C6.06267 16.0891 5.95833 16.0224 5.875 15.9391L1.275 11.3391C1.09167 11.1557 1 10.9224 1 10.6391C1 10.3557 1.09167 10.1224 1.275 9.93906C1.45833 9.75573 1.69167 9.66406 1.975 9.66406C2.25833 9.66406 2.49167 9.75573 2.675 9.93906L6.575 13.8391L10.475 9.93906C10.6583 9.75573 10.8917 9.66406 11.175 9.66406C11.4583 9.66406 11.6917 9.75573 11.875 9.93906C12.0583 10.1224 12.15 10.3557 12.15 10.6391C12.15 10.9224 12.0583 11.1557 11.875 11.3391L7.275 15.9391C7.175 16.0391 7.06667 16.1097 6.95 16.1511C6.83333 16.1931 6.70833 16.2141 6.575 16.2141Z" fill="black"/>
</svg>
