<svg width="49" height="49" viewBox="0 0 49 49" fill="none" xmlns="http://www.w3.org/2000/svg">
<path d="M38.7913 44.9168H10.208V40.8335H38.7913V44.9168ZM26.5413 4.0835C23.9893 4.0835 21.6005 5.34933 20.1918 7.47266L14.2913 16.3335L18.3747 20.4168L22.5805 17.6197C23.4788 16.9868 24.7855 17.2318 25.4184 18.171C25.4593 18.2322 25.5205 18.2935 25.5205 18.3752C26.133 19.5797 25.9084 21.0293 24.9488 21.9889L15.1488 31.7889C14.0259 32.9322 14.0259 34.7697 15.1693 35.8927C15.7001 36.4235 16.4351 36.7502 17.1905 36.7502H34.708V12.2502C34.708 10.0842 33.8476 8.007 32.316 6.47546C30.7845 4.94391 28.7073 4.0835 26.5413 4.0835Z" fill="white"/>
</svg>
