<svg width="98" height="98" viewBox="0 0 98 98" fill="none" xmlns="http://www.w3.org/2000/svg">
<path d="M77.5837 89.8332H20.417V81.6666H77.5837V89.8332ZM65.3337 73.4999H32.667L41.5687 40.8332H32.667V32.6665H43.7737L44.0595 31.6049C41.2427 30.3806 38.9954 28.1333 37.7712 25.3165C35.0353 19.1099 37.8528 11.8824 44.0595 9.18738C50.2662 6.45154 57.4937 9.26904 60.1887 15.4757C60.8392 16.9471 61.1925 18.5324 61.2283 20.1408C61.2641 21.7491 60.9817 23.3486 60.3974 24.8475C59.813 26.3463 58.9382 27.7149 57.8232 28.8746C56.7082 30.0342 55.3751 30.9621 53.9003 31.6049L54.1862 32.6665H65.3337V40.8332H56.432L65.3337 73.4999Z" fill="#1A1363"/>
</svg>
