<svg width="49" height="49" viewBox="0 0 49 49" fill="none" xmlns="http://www.w3.org/2000/svg">
<path d="M38.7913 44.9168H10.208V40.8335H38.7913V44.9168ZM35.0347 16.8643C37.1972 19.6586 38.5022 23.0204 38.7913 26.5418C38.7913 32.1768 32.4009 36.7502 24.4997 36.7502C16.5984 36.7502 10.208 32.1768 10.208 26.5418C10.208 21.6827 14.9651 13.0464 21.3555 10.7597C20.743 10.0247 20.4163 9.106 20.4163 8.16683C20.4163 7.08386 20.8465 6.04525 21.6123 5.27948C22.3781 4.5137 23.4167 4.0835 24.4997 4.0835C25.5826 4.0835 26.6213 4.5137 27.387 5.27948C28.1528 6.04525 28.583 7.08386 28.583 8.16683C28.583 9.106 28.2563 10.0247 27.6438 10.7597C29.3997 11.4335 30.9922 12.4543 32.3397 13.761L23.0501 23.0506L25.9493 25.9497L35.0347 16.8643V16.8643Z" fill="white"/>
</svg>
