<svg width="49" height="49" viewBox="0 0 49 49" fill="none" xmlns="http://www.w3.org/2000/svg">
<path d="M38.7916 44.9168H10.2083V40.8335H38.7916V44.9168ZM34.7083 20.4168C31.8091 20.4168 29.1141 21.9889 27.6645 24.5002H26.5416V14.2918H32.6666V10.2085H26.5416V4.0835H22.4583V10.2085H16.3333V14.2918H22.4583V24.5002H21.3354C19.0895 20.6006 14.0874 19.2531 10.2083 21.5193C8.32768 22.595 6.94967 24.3718 6.37574 26.4609C5.80181 28.55 6.07869 30.7813 7.14578 32.6668C8.65662 35.1985 11.372 36.7502 14.2916 36.7502H34.7083C36.8742 36.7502 38.9514 35.8897 40.483 34.3582C42.0145 32.8267 42.8749 30.7494 42.8749 28.5835C42.8749 26.4176 42.0145 24.3403 40.483 22.8088C38.9514 21.2772 36.8742 20.4168 34.7083 20.4168V20.4168Z" fill="white"/>
</svg>
