<svg width="47" height="47" viewBox="0 0 47 47" fill="none" xmlns="http://www.w3.org/2000/svg">
<path d="M23.5003 3.9165C12.4553 3.9165 3.91699 12.0044 3.91699 22.9123C3.91699 28.6111 6.24741 33.5657 10.0662 36.9536C10.3795 37.2082 10.5753 37.639 10.5949 38.0698L10.6928 41.5557C10.7712 42.6719 11.8874 43.3965 12.9057 42.9461L16.7832 41.2423C17.1162 41.1248 17.4882 41.0661 17.8212 41.1248C19.5837 41.6536 21.542 41.9082 23.5003 41.9082C34.5453 41.9082 43.0837 33.8203 43.0837 22.9123C43.0837 12.0044 34.5453 3.9165 23.5003 3.9165ZM35.2503 18.5257L29.5124 27.6711C28.592 29.1007 26.6337 29.4728 25.2628 28.3957L20.6803 25.0078C20.4769 24.8552 20.2296 24.7728 19.9753 24.7728C19.7211 24.7728 19.4737 24.8552 19.2703 25.0078L13.082 29.7078C12.2595 30.354 11.1824 29.3748 11.7503 28.474L17.4882 19.3286C18.4087 17.899 20.367 17.5269 21.7378 18.5453L26.3203 21.9919C26.5237 22.1445 26.7711 22.2269 27.0253 22.2269C27.2796 22.2269 27.5269 22.1445 27.7303 21.9919L33.9187 17.2919C34.7412 16.6457 35.8182 17.6248 35.2503 18.5257V18.5257Z" fill="white"/>
</svg>
