<svg width="20" height="21" viewBox="0 0 20 21" fill="none" xmlns="http://www.w3.org/2000/svg">
<path d="M19.3771 3.08224C19.4939 3.19968 19.5595 3.35875 19.5595 3.52457C19.5595 3.6904 19.4939 3.84946 19.3771 3.9669L18.0734 5.2751L15.5734 2.76898L16.8771 1.46078C16.9943 1.34333 17.1533 1.27734 17.319 1.27734C17.4847 1.27734 17.6437 1.34333 17.7609 1.46078L19.3771 3.08099V3.08224ZM17.1896 6.15976L14.6896 3.65364L6.17339 12.192C6.1046 12.2609 6.05281 12.345 6.02214 12.4376L5.01589 15.4625C4.99765 15.5176 4.99505 15.5768 5.00841 15.6333C5.02177 15.6898 5.05055 15.7415 5.09153 15.7826C5.13251 15.8237 5.18409 15.8526 5.24048 15.8659C5.29688 15.8793 5.35588 15.8767 5.41089 15.8584L8.42839 14.8497C8.5206 14.8194 8.60448 14.7679 8.67339 14.6994L17.1896 6.16101V6.15976Z" fill="white"/>
<path fill-rule="evenodd" clip-rule="evenodd" d="M1.25 17.5675C1.25 18.066 1.44754 18.5441 1.79917 18.8966C2.15081 19.2491 2.62772 19.4471 3.125 19.4471H16.875C17.3723 19.4471 17.8492 19.2491 18.2008 18.8966C18.5525 18.5441 18.75 18.066 18.75 17.5675V10.0492C18.75 9.88302 18.6842 9.72366 18.5669 9.60616C18.4497 9.48867 18.2908 9.42266 18.125 9.42266C17.9592 9.42266 17.8003 9.48867 17.6831 9.60616C17.5658 9.72366 17.5 9.88302 17.5 10.0492V17.5675C17.5 17.7337 17.4342 17.8931 17.3169 18.0106C17.1997 18.1281 17.0408 18.1941 16.875 18.1941H3.125C2.95924 18.1941 2.80027 18.1281 2.68306 18.0106C2.56585 17.8931 2.5 17.7337 2.5 17.5675V3.78389C2.5 3.61772 2.56585 3.45836 2.68306 3.34086C2.80027 3.22337 2.95924 3.15736 3.125 3.15736H11.25C11.4158 3.15736 11.5747 3.09135 11.6919 2.97385C11.8092 2.85635 11.875 2.69699 11.875 2.53083C11.875 2.36466 11.8092 2.2053 11.6919 2.0878C11.5747 1.97031 11.4158 1.9043 11.25 1.9043H3.125C2.62772 1.9043 2.15081 2.10232 1.79917 2.45482C1.44754 2.80731 1.25 3.28539 1.25 3.78389V17.5675Z" fill="white"/>
</svg>
