<svg width="20" height="21" viewBox="0 0 20 21" fill="none" xmlns="http://www.w3.org/2000/svg">
<path d="M18.75 17.5431C18.75 17.5431 20 17.5431 20 16.29C20 15.0369 18.75 11.2778 13.75 11.2778C8.75 11.2778 7.5 15.0369 7.5 16.29C7.5 17.5431 8.75 17.5431 8.75 17.5431H18.75ZM8.7775 16.29C8.76827 16.2887 8.75909 16.2871 8.75 16.285C8.75125 15.9542 8.95875 14.9943 9.7 14.1297C10.39 13.319 11.6025 12.5308 13.75 12.5308C15.8963 12.5308 17.1087 13.3203 17.8 14.1297C18.5412 14.9943 18.7475 15.9554 18.75 16.285L18.74 16.2875C18.7342 16.2885 18.7284 16.2893 18.7225 16.29H8.7775V16.29ZM13.75 8.77165C14.413 8.77165 15.0489 8.50761 15.5178 8.03762C15.9866 7.56763 16.25 6.93019 16.25 6.26553C16.25 5.60086 15.9866 4.96342 15.5178 4.49343C15.0489 4.02344 14.413 3.75941 13.75 3.75941C13.087 3.75941 12.4511 4.02344 11.9822 4.49343C11.5134 4.96342 11.25 5.60086 11.25 6.26553C11.25 6.93019 11.5134 7.56763 11.9822 8.03762C12.4511 8.50761 13.087 8.77165 13.75 8.77165ZM17.5 6.26553C17.5 6.75919 17.403 7.24802 17.2145 7.7041C17.0261 8.16019 16.7499 8.5746 16.4017 8.92367C16.0534 9.27274 15.64 9.54964 15.1851 9.73856C14.7301 9.92747 14.2425 10.0247 13.75 10.0247C13.2575 10.0247 12.7699 9.92747 12.3149 9.73856C11.86 9.54964 11.4466 9.27274 11.0983 8.92367C10.7501 8.5746 10.4739 8.16019 10.2855 7.7041C10.097 7.24802 10 6.75919 10 6.26553C10 5.26853 10.3951 4.31237 11.0983 3.60739C11.8016 2.9024 12.7554 2.50635 13.75 2.50635C14.7446 2.50635 15.6984 2.9024 16.4017 3.60739C17.1049 4.31237 17.5 5.26853 17.5 6.26553V6.26553ZM8.67 11.6286C8.16998 11.4708 7.65454 11.367 7.1325 11.3191C6.83916 11.2912 6.54466 11.2774 6.25 11.2778C1.25 11.2778 0 15.0369 0 16.29C0 17.1258 0.41625 17.5431 1.25 17.5431H6.52C6.33469 17.1519 6.24228 16.723 6.25 16.29C6.25 15.0244 6.72125 13.7313 7.6125 12.6511C7.91625 12.2827 8.27 11.9381 8.67 11.6286ZM6.15 12.5308C5.41019 13.6451 5.01055 14.9515 5 16.29H1.25C1.25 15.9642 1.455 14.9994 2.2 14.1297C2.88125 13.3328 4.065 12.5559 6.15 12.5321V12.5308ZM1.875 6.89206C1.875 5.89506 2.27009 4.9389 2.97335 4.23392C3.67661 3.52893 4.63044 3.13288 5.625 3.13288C6.61956 3.13288 7.57339 3.52893 8.27665 4.23392C8.97991 4.9389 9.375 5.89506 9.375 6.89206C9.375 7.88905 8.97991 8.84522 8.27665 9.5502C7.57339 10.2552 6.61956 10.6512 5.625 10.6512C4.63044 10.6512 3.67661 10.2552 2.97335 9.5502C2.27009 8.84522 1.875 7.88905 1.875 6.89206V6.89206ZM5.625 4.38594C4.96196 4.38594 4.32607 4.64997 3.85723 5.11996C3.38839 5.58995 3.125 6.22739 3.125 6.89206C3.125 7.55672 3.38839 8.19416 3.85723 8.66415C4.32607 9.13414 4.96196 9.39818 5.625 9.39818C6.28804 9.39818 6.92393 9.13414 7.39277 8.66415C7.86161 8.19416 8.125 7.55672 8.125 6.89206C8.125 6.22739 7.86161 5.58995 7.39277 5.11996C6.92393 4.64997 6.28804 4.38594 5.625 4.38594Z" fill="white"/>
</svg>
