<svg width="20" height="21" viewBox="0 0 20 21" fill="none" xmlns="http://www.w3.org/2000/svg">
<path d="M18.75 17.5426C18.75 17.5426 20 17.5426 20 16.2895C20 15.0365 18.75 11.2773 13.75 11.2773C8.75 11.2773 7.5 15.0365 7.5 16.2895C7.5 17.5426 8.75 17.5426 8.75 17.5426H18.75ZM8.7775 16.2895C8.76827 16.2882 8.75909 16.2866 8.75 16.2845C8.75125 15.9537 8.95875 14.9939 9.7 14.1292C10.39 13.3185 11.6025 12.5303 13.75 12.5303C15.8963 12.5303 17.1087 13.3198 17.8 14.1292C18.5412 14.9939 18.7475 15.955 18.75 16.2845L18.74 16.287C18.7342 16.288 18.7284 16.2888 18.7225 16.2895H8.7775V16.2895ZM13.75 8.77116C14.413 8.77116 15.0489 8.50712 15.5178 8.03713C15.9866 7.56715 16.25 6.9297 16.25 6.26504C16.25 5.60037 15.9866 4.96293 15.5178 4.49294C15.0489 4.02296 14.413 3.75892 13.75 3.75892C13.087 3.75892 12.4511 4.02296 11.9822 4.49294C11.5134 4.96293 11.25 5.60037 11.25 6.26504C11.25 6.9297 11.5134 7.56715 11.9822 8.03713C12.4511 8.50712 13.087 8.77116 13.75 8.77116ZM17.5 6.26504C17.5 6.7587 17.403 7.24753 17.2145 7.70362C17.0261 8.1597 16.7499 8.57411 16.4017 8.92318C16.0534 9.27225 15.64 9.54915 15.1851 9.73807C14.7301 9.92699 14.2425 10.0242 13.75 10.0242C13.2575 10.0242 12.7699 9.92699 12.3149 9.73807C11.86 9.54915 11.4466 9.27225 11.0983 8.92318C10.7501 8.57411 10.4739 8.1597 10.2855 7.70362C10.097 7.24753 10 6.7587 10 6.26504C10 5.26804 10.3951 4.31188 11.0983 3.6069C11.8016 2.90191 12.7554 2.50586 13.75 2.50586C14.7446 2.50586 15.6984 2.90191 16.4017 3.6069C17.1049 4.31188 17.5 5.26804 17.5 6.26504V6.26504ZM8.67 11.6281C8.16998 11.4703 7.65454 11.3665 7.1325 11.3186C6.83916 11.2907 6.54466 11.2769 6.25 11.2773C1.25 11.2773 0 15.0365 0 16.2895C0 17.1253 0.41625 17.5426 1.25 17.5426H6.52C6.33469 17.1514 6.24228 16.7225 6.25 16.2895C6.25 15.0239 6.72125 13.7308 7.6125 12.6506C7.91625 12.2822 8.27 11.9376 8.67 11.6281ZM6.15 12.5303C5.41019 13.6447 5.01055 14.951 5 16.2895H1.25C1.25 15.9637 1.455 14.9989 2.2 14.1292C2.88125 13.3323 4.065 12.5554 6.15 12.5316V12.5303ZM1.875 6.89157C1.875 5.89457 2.27009 4.93841 2.97335 4.23343C3.67661 3.52844 4.63044 3.13239 5.625 3.13239C6.61956 3.13239 7.57339 3.52844 8.27665 4.23343C8.97991 4.93841 9.375 5.89457 9.375 6.89157C9.375 7.88857 8.97991 8.84473 8.27665 9.54971C7.57339 10.2547 6.61956 10.6507 5.625 10.6507C4.63044 10.6507 3.67661 10.2547 2.97335 9.54971C2.27009 8.84473 1.875 7.88857 1.875 6.89157V6.89157ZM5.625 4.38545C4.96196 4.38545 4.32607 4.64949 3.85723 5.11947C3.38839 5.58946 3.125 6.2269 3.125 6.89157C3.125 7.55623 3.38839 8.19368 3.85723 8.66366C4.32607 9.13365 4.96196 9.39769 5.625 9.39769C6.28804 9.39769 6.92393 9.13365 7.39277 8.66366C7.86161 8.19368 8.125 7.55623 8.125 6.89157C8.125 6.2269 7.86161 5.58946 7.39277 5.11947C6.92393 4.64949 6.28804 4.38545 5.625 4.38545Z" fill="#1A1363"/>
</svg>
