<svg width="69" height="69" viewBox="0 0 69 69" fill="none" xmlns="http://www.w3.org/2000/svg">
<g clip-path="url(#clip0_2325_331)">
<path d="M47.4375 25.875C47.4375 29.3062 46.0744 32.5969 43.6482 35.0232C41.2219 37.4494 37.9312 38.8125 34.5 38.8125C31.0688 38.8125 27.7781 37.4494 25.3518 35.0232C22.9256 32.5969 21.5625 29.3062 21.5625 25.875C21.5625 22.4438 22.9256 19.1531 25.3518 16.7268C27.7781 14.3006 31.0688 12.9375 34.5 12.9375C37.9312 12.9375 41.2219 14.3006 43.6482 16.7268C46.0744 19.1531 47.4375 22.4438 47.4375 25.875V25.875Z" fill="#1A1363"/>
<path fill-rule="evenodd" clip-rule="evenodd" d="M0 34.5C0 25.35 3.63481 16.5748 10.1048 10.1048C16.5748 3.63481 25.35 0 34.5 0C43.65 0 52.4252 3.63481 58.8952 10.1048C65.3652 16.5748 69 25.35 69 34.5C69 43.65 65.3652 52.4252 58.8952 58.8952C52.4252 65.3652 43.65 69 34.5 69C25.35 69 16.5748 65.3652 10.1048 58.8952C3.63481 52.4252 0 43.65 0 34.5V34.5ZM34.5 4.3125C28.8152 4.3128 23.246 5.91831 18.4334 8.94424C13.6208 11.9702 9.76041 16.2935 7.2966 21.4167C4.83278 26.5399 3.86567 32.2546 4.50656 37.9032C5.14744 43.5518 7.37029 48.9047 10.9193 53.3456C13.9811 48.4121 20.7216 43.125 34.5 43.125C48.2784 43.125 55.0146 48.4078 58.0808 53.3456C61.6297 48.9047 63.8526 43.5518 64.4934 37.9032C65.1343 32.2546 64.1672 26.5399 61.7034 21.4167C59.2396 16.2935 55.3792 11.9702 50.5666 8.94424C45.754 5.91831 40.1848 4.3128 34.5 4.3125V4.3125Z" fill="#1A1363"/>
</g>
<defs>
<clipPath id="clip0_2325_331">
<rect width="69" height="69" fill="white"/>
</clipPath>
</defs>
</svg>
