<svg width="51" height="52" viewBox="0 0 51 52" fill="none" xmlns="http://www.w3.org/2000/svg">
<g clip-path="url(#clip0_2321_197)">
<path d="M35.0625 19.2871C35.0625 21.8294 34.055 24.2676 32.2617 26.0653C30.4684 27.863 28.0361 28.873 25.5 28.873C22.9639 28.873 20.5316 27.863 18.7383 26.0653C16.945 24.2676 15.9375 21.8294 15.9375 19.2871C15.9375 16.7447 16.945 14.3065 18.7383 12.5088C20.5316 10.7111 22.9639 9.70117 25.5 9.70117C28.0361 9.70117 30.4684 10.7111 32.2617 12.5088C34.055 14.3065 35.0625 16.7447 35.0625 19.2871V19.2871Z" fill="#FFFBD8"/>
<path fill-rule="evenodd" clip-rule="evenodd" d="M0 25.6777C0 18.8981 2.6866 12.3962 7.46878 7.6023C12.251 2.80841 18.737 0.115234 25.5 0.115234C32.263 0.115234 38.749 2.80841 43.5312 7.6023C48.3134 12.3962 51 18.8981 51 25.6777C51 32.4572 48.3134 38.9591 43.5312 43.753C38.749 48.5469 32.263 51.2401 25.5 51.2401C18.737 51.2401 12.251 48.5469 7.46878 43.753C2.6866 38.9591 0 32.4572 0 25.6777V25.6777ZM25.5 3.31054C21.2982 3.31076 17.1818 4.50035 13.6247 6.74238C10.0675 8.98441 7.21421 12.1878 5.39314 15.9837C3.57206 19.7797 2.85723 24.014 3.33093 28.1993C3.80463 32.3845 5.44761 36.3506 8.07075 39.6411C10.3339 35.9857 15.3159 32.0683 25.5 32.0683C35.6841 32.0683 40.6629 35.9825 42.9293 39.6411C45.5524 36.3506 47.1954 32.3845 47.6691 28.1993C48.1428 24.014 47.4279 19.7797 45.6069 15.9837C43.7858 12.1878 40.9325 8.98441 37.3753 6.74238C33.8182 4.50035 29.7018 3.31076 25.5 3.31054V3.31054Z" fill="#FFFBD8"/>
</g>
<defs>
<clipPath id="clip0_2321_197">
<rect width="51" height="51.1248" fill="white" transform="translate(0 0.115234)"/>
</clipPath>
</defs>
</svg>
