<svg width="47" height="47" viewBox="0 0 47 47" fill="none" xmlns="http://www.w3.org/2000/svg">
<path d="M29.375 23.5C29.375 24.662 29.0304 25.7978 28.3849 26.764C27.7393 27.7301 26.8218 28.4831 25.7483 28.9278C24.6747 29.3725 23.4935 29.4888 22.3538 29.2621C21.2142 29.0354 20.1674 28.4759 19.3457 27.6543C18.5241 26.8326 17.9646 25.7858 17.7379 24.6462C17.5112 23.5065 17.6275 22.3253 18.0722 21.2517C18.5169 20.1782 19.2699 19.2607 20.236 18.6151C21.2022 17.9696 22.338 17.625 23.5 17.625C25.0567 17.6298 26.5482 18.2504 27.6489 19.3511C28.7496 20.4518 29.3702 21.9433 29.375 23.5V23.5ZM41.8594 15.4219V31.5781C41.8594 34.3049 40.7762 36.92 38.8481 38.8481C36.92 40.7762 34.3049 41.8594 31.5781 41.8594H15.4219C12.6951 41.8594 10.08 40.7762 8.15193 38.8481C6.22382 36.92 5.14063 34.3049 5.14062 31.5781V15.4219C5.14063 12.6951 6.22382 10.08 8.15193 8.15193C10.08 6.22382 12.6951 5.14063 15.4219 5.14062H31.5781C34.3049 5.14063 36.92 6.22382 38.8481 8.15193C40.7762 10.08 41.8594 12.6951 41.8594 15.4219V15.4219ZM32.3125 23.5C32.3125 21.7571 31.7957 20.0532 30.8273 18.604C29.859 17.1548 28.4827 16.0253 26.8724 15.3583C25.2621 14.6913 23.4902 14.5168 21.7808 14.8568C20.0713 15.1969 18.5011 16.0362 17.2686 17.2686C16.0362 18.5011 15.1969 20.0713 14.8568 21.7808C14.5168 23.4902 14.6913 25.2621 15.3583 26.8724C16.0253 28.4827 17.1548 29.859 18.604 30.8273C20.0532 31.7957 21.7571 32.3125 23.5 32.3125C25.8372 32.3125 28.0787 31.384 29.7314 29.7314C31.384 28.0787 32.3125 25.8372 32.3125 23.5ZM35.25 13.9531C35.25 13.5174 35.1208 13.0914 34.8787 12.7291C34.6366 12.3668 34.2925 12.0845 33.89 11.9177C33.4874 11.751 33.0444 11.7073 32.6171 11.7923C32.1897 11.8773 31.7971 12.0872 31.489 12.3953C31.1809 12.7034 30.9711 13.096 30.8861 13.5233C30.8011 13.9507 30.8447 14.3937 31.0115 14.7962C31.1782 15.1988 31.4606 15.5429 31.8229 15.785C32.1852 16.027 32.6111 16.1562 33.0469 16.1562C33.6312 16.1562 34.1916 15.9241 34.6047 15.511C35.0179 15.0978 35.25 14.5374 35.25 13.9531Z" fill="white"/>
</svg>
