<svg width="15" height="15" viewBox="0 0 15 15" fill="none" xmlns="http://www.w3.org/2000/svg">
<g clip-path="url(#clip0_2321_274)">
<path d="M11.008 9.69772C11.9158 8.45899 12.3224 6.92318 12.1464 5.39754C11.9704 3.87191 11.2249 2.46897 10.059 1.4694C8.8931 0.46983 7.39275 -0.0526554 5.85815 0.0064757C4.32354 0.0656068 2.86785 0.701993 1.7823 1.78832C0.696757 2.87464 0.0614125 4.33079 0.00337956 5.86544C-0.0546534 7.40008 0.468905 8.90005 1.46931 10.0653C2.46971 11.2305 3.87319 11.975 5.39895 12.1498C6.9247 12.3247 8.46022 11.917 9.6983 11.0083H9.69736C9.72549 11.0458 9.75549 11.0815 9.78924 11.1162L13.3986 14.7255C13.5744 14.9014 13.8129 15.0003 14.0616 15.0004C14.3103 15.0005 14.5488 14.9018 14.7247 14.726C14.9006 14.5502 14.9995 14.3117 14.9996 14.063C14.9997 13.8144 14.901 13.5758 14.7252 13.3999L11.1158 9.79053C11.0823 9.7566 11.0462 9.72526 11.008 9.69678V9.69772ZM11.2499 6.09397C11.2499 6.7711 11.1165 7.44159 10.8574 8.06718C10.5982 8.69276 10.2184 9.26118 9.73963 9.73999C9.26083 10.2188 8.69241 10.5986 8.06683 10.8577C7.44124 11.1168 6.77074 11.2502 6.09362 11.2502C5.41649 11.2502 4.74599 11.1168 4.1204 10.8577C3.49482 10.5986 2.9264 10.2188 2.4476 9.73999C1.96879 9.26118 1.58899 8.69276 1.32986 8.06718C1.07074 7.44159 0.937365 6.7711 0.937365 6.09397C0.937365 4.72644 1.48061 3.41493 2.4476 2.44795C3.41458 1.48096 4.72609 0.937717 6.09362 0.937717C7.46114 0.937717 8.77265 1.48096 9.73963 2.44795C10.7066 3.41493 11.2499 4.72644 11.2499 6.09397V6.09397Z" fill="white"/>
</g>
<defs>
<clipPath id="clip0_2321_274">
<rect width="15" height="15" fill="white"/>
</clipPath>
</defs>
</svg>
