<svg width="11" height="12" viewBox="0 0 11 12" fill="none" xmlns="http://www.w3.org/2000/svg">
<path fill-rule="evenodd" clip-rule="evenodd" d="M7.90606 11.4792C7.99722 11.4792 8.08465 11.4388 8.14911 11.3667C8.21357 11.2947 8.24978 11.1971 8.24978 11.0952V2.03908L10.4125 4.45574C10.477 4.52784 10.5646 4.56835 10.6558 4.56835C10.7471 4.56835 10.8347 4.52784 10.8992 4.45574C10.9637 4.38365 11 4.28586 11 4.1839C11 4.08193 10.9637 3.98415 10.8992 3.91205L8.14942 0.840343C8.11749 0.804586 8.07956 0.776216 8.0378 0.756859C7.99604 0.737503 7.95127 0.727539 7.90606 0.727539C7.86085 0.727539 7.81608 0.737503 7.77432 0.756859C7.73256 0.776216 7.69463 0.804586 7.6627 0.840343L4.91292 3.91205C4.84838 3.98415 4.81212 4.08193 4.81212 4.1839C4.81212 4.28586 4.84838 4.38365 4.91292 4.45574C4.97746 4.52784 5.065 4.56835 5.15628 4.56835C5.24755 4.56835 5.33509 4.52784 5.39963 4.45574L7.56234 2.03908V11.0952C7.56234 11.1971 7.59855 11.2947 7.66301 11.3667C7.72747 11.4388 7.8149 11.4792 7.90606 11.4792ZM3.09394 0.728225C3.1851 0.728225 3.27253 0.768679 3.33699 0.840686C3.40145 0.912693 3.43766 1.01036 3.43766 1.11219V10.1684L5.60037 7.75169C5.66491 7.67959 5.75245 7.63908 5.84372 7.63908C5.935 7.63908 6.02254 7.67959 6.08708 7.75169C6.15162 7.82378 6.18788 7.92157 6.18788 8.02353C6.18788 8.12549 6.15162 8.22328 6.08708 8.29538L3.3373 11.3671C3.30537 11.4028 3.26744 11.4312 3.22568 11.4506C3.18392 11.4699 3.13915 11.4799 3.09394 11.4799C3.04873 11.4799 3.00396 11.4699 2.9622 11.4506C2.92044 11.4312 2.88251 11.4028 2.85058 11.3671L0.100801 8.29538C0.0362593 8.22328 -2.15054e-09 8.12549 0 8.02353C2.15054e-09 7.92157 0.0362593 7.82378 0.100801 7.75169C0.165343 7.67959 0.252881 7.63908 0.344157 7.63908C0.435433 7.63908 0.522971 7.67959 0.587513 7.75169L2.75022 10.1684V1.11219C2.75022 1.01036 2.78643 0.912693 2.85089 0.840686C2.91535 0.768679 3.00278 0.728225 3.09394 0.728225V0.728225Z" fill="white"/>
</svg>
