<svg width="24" height="27" viewBox="0 0 24 27" fill="none" xmlns="http://www.w3.org/2000/svg">
<path d="M17.6137 17.5727C19.0661 15.4414 19.7166 12.799 19.4351 10.174C19.1536 7.5491 17.9608 5.13526 16.0954 3.41545C14.23 1.69563 11.8295 0.796668 9.37425 0.898406C6.91897 1.00014 4.58995 2.09508 2.85314 3.96416C1.11633 5.83324 0.0998188 8.33862 0.00696954 10.9791C-0.0858797 13.6195 0.751782 16.2003 2.35237 18.2051C3.95296 20.2099 6.19843 21.4908 8.63955 21.7917C11.0807 22.0926 13.5374 21.3911 15.5183 19.8277H15.5168C15.5618 19.8922 15.6098 19.9535 15.6638 20.0132L21.4385 26.2233C21.7198 26.526 22.1013 26.6961 22.4992 26.6963C22.8971 26.6964 23.2788 26.5266 23.5602 26.2241C23.8417 25.9217 23.9999 25.5114 24 25.0835C24.0001 24.6556 23.8422 24.2452 23.561 23.9425L17.7862 17.7324C17.7326 17.674 17.6749 17.6201 17.6137 17.5711V17.5727ZM18.0007 11.3723C18.0007 12.5373 17.7873 13.6909 17.3727 14.7673C16.9581 15.8436 16.3504 16.8216 15.5844 17.6454C14.8183 18.4692 13.9089 19.1227 12.908 19.5686C11.9071 20.0144 10.8343 20.2439 9.75098 20.2439C8.66762 20.2439 7.59486 20.0144 6.59396 19.5686C5.59306 19.1227 4.68362 18.4692 3.91757 17.6454C3.15151 16.8216 2.54385 15.8436 2.12926 14.7673C1.71468 13.6909 1.50129 12.5373 1.50129 11.3723C1.50129 9.01937 2.37045 6.76284 3.91757 5.09909C5.46469 3.43534 7.56303 2.50066 9.75098 2.50066C11.9389 2.50066 14.0373 3.43534 15.5844 5.09909C17.1315 6.76284 18.0007 9.01937 18.0007 11.3723V11.3723Z" fill="white"/>
</svg>
