<svg width="20" height="20" viewBox="0 0 20 20" fill="none" xmlns="http://www.w3.org/2000/svg">
<path d="M2.5 0C1.83696 0 1.20107 0.30102 0.732233 0.836838C0.263392 1.37266 0 2.09938 0 2.85714L0 17.1429C0 17.9006 0.263392 18.6273 0.732233 19.1632C1.20107 19.699 1.83696 20 2.5 20H17.5C18.163 20 18.7989 19.699 19.2678 19.1632C19.7366 18.6273 20 17.9006 20 17.1429V2.85714C20 2.09938 19.7366 1.37266 19.2678 0.836838C18.7989 0.30102 18.163 0 17.5 0H2.5ZM17.5 1.42857C17.8315 1.42857 18.1495 1.57908 18.3839 1.84699C18.6183 2.1149 18.75 2.47826 18.75 2.85714V5.71429H1.25V2.85714C1.25 2.47826 1.3817 2.1149 1.61612 1.84699C1.85054 1.57908 2.16848 1.42857 2.5 1.42857H17.5ZM1.25 17.1429V7.14286H6.25V18.5714H2.5C2.16848 18.5714 1.85054 18.4209 1.61612 18.153C1.3817 17.8851 1.25 17.5217 1.25 17.1429ZM7.5 18.5714V7.14286H18.75V17.1429C18.75 17.5217 18.6183 17.8851 18.3839 18.153C18.1495 18.4209 17.8315 18.5714 17.5 18.5714H7.5Z" fill="white"/>
</svg>
