<svg width="24" height="24" viewBox="0 0 24 24" fill="none" xmlns="http://www.w3.org/2000/svg">
<path d="M17.6137 15.5148C19.0661 13.5326 19.7166 11.0751 19.4351 8.63383C19.1536 6.19257 17.9608 3.94764 16.0954 2.34816C14.23 0.74868 11.8295 -0.0873826 9.37425 0.00723687C6.91897 0.101856 4.58995 1.12018 2.85314 2.85848C1.11633 4.59677 0.0998188 6.92685 0.00696954 9.38254C-0.0858797 11.8382 0.751782 14.2384 2.35237 16.1029C3.95296 17.9675 6.19843 19.1588 8.63955 19.4386C11.0807 19.7184 13.5374 19.066 15.5183 17.612H15.5168C15.5618 17.672 15.6098 17.729 15.6638 17.7846L21.4385 23.5602C21.7198 23.8416 22.1013 23.9999 22.4992 24C22.8971 24.0001 23.2788 23.8422 23.5602 23.5609C23.8417 23.2796 23.9999 22.898 24 22.5001C24.0001 22.1021 23.8422 21.7204 23.561 21.4389L17.7862 15.6633C17.7326 15.609 17.6749 15.5589 17.6137 15.5133V15.5148ZM18.0007 9.74823C18.0007 10.8317 17.7873 11.9047 17.3727 12.9057C16.9581 13.9067 16.3504 14.8163 15.5844 15.5825C14.8183 16.3486 13.9089 16.9564 12.908 17.371C11.9071 17.7857 10.8343 17.9991 9.75098 17.9991C8.66762 17.9991 7.59486 17.7857 6.59396 17.371C5.59306 16.9564 4.68362 16.3486 3.91757 15.5825C3.15151 14.8163 2.54385 13.9067 2.12926 12.9057C1.71468 11.9047 1.50129 10.8317 1.50129 9.74823C1.50129 7.55997 2.37045 5.46133 3.91757 3.91399C5.46469 2.36666 7.56303 1.49738 9.75098 1.49738C11.9389 1.49738 14.0373 2.36666 15.5844 3.91399C17.1315 5.46133 18.0007 7.55997 18.0007 9.74823V9.74823Z" fill="white"/>
</svg>
