<svg width="11" height="12" viewBox="0 0 11 12" fill="none" xmlns="http://www.w3.org/2000/svg">
<path fill-rule="evenodd" clip-rule="evenodd" d="M7.90606 11.404C7.99722 11.404 8.08465 11.3636 8.14911 11.2915C8.21357 11.2195 8.24978 11.1219 8.24978 11.02V1.96388L10.4125 4.38055C10.477 4.45265 10.5646 4.49315 10.6558 4.49315C10.7471 4.49315 10.8347 4.45265 10.8992 4.38055C10.9637 4.30845 11 4.21066 11 4.1087C11 4.00674 10.9637 3.90895 10.8992 3.83686L8.14942 0.765147C8.11749 0.72939 8.07956 0.701021 8.0378 0.681664C7.99604 0.662307 7.95127 0.652344 7.90606 0.652344C7.86085 0.652344 7.81608 0.662307 7.77432 0.681664C7.73256 0.701021 7.69463 0.72939 7.6627 0.765147L4.91292 3.83686C4.84838 3.90895 4.81212 4.00674 4.81212 4.1087C4.81212 4.21066 4.84838 4.30845 4.91292 4.38055C4.97746 4.45265 5.065 4.49315 5.15628 4.49315C5.24755 4.49315 5.33509 4.45265 5.39963 4.38055L7.56234 1.96388V11.02C7.56234 11.1219 7.59855 11.2195 7.66301 11.2915C7.72747 11.3636 7.8149 11.404 7.90606 11.404ZM3.09394 0.65303C3.1851 0.65303 3.27253 0.693483 3.33699 0.76549C3.40145 0.837498 3.43766 0.93516 3.43766 1.03699V10.0932L5.60037 7.67649C5.66491 7.60439 5.75245 7.56389 5.84372 7.56389C5.935 7.56389 6.02254 7.60439 6.08708 7.67649C6.15162 7.74859 6.18788 7.84637 6.18788 7.94834C6.18788 8.0503 6.15162 8.14809 6.08708 8.22018L3.3373 11.2919C3.30537 11.3276 3.26744 11.356 3.22568 11.3754C3.18392 11.3947 3.13915 11.4047 3.09394 11.4047C3.04873 11.4047 3.00396 11.3947 2.9622 11.3754C2.92044 11.356 2.88251 11.3276 2.85058 11.2919L0.100801 8.22018C0.0362593 8.14809 -2.15054e-09 8.0503 0 7.94834C2.15054e-09 7.84637 0.0362593 7.74859 0.100801 7.67649C0.165343 7.60439 0.252881 7.56389 0.344157 7.56389C0.435433 7.56389 0.522971 7.60439 0.587513 7.67649L2.75022 10.0932V1.03699C2.75022 0.93516 2.78643 0.837498 2.85089 0.76549C2.91535 0.693483 3.00278 0.65303 3.09394 0.65303V0.65303Z" fill="white"/>
</svg>
