<svg width="11" height="10" viewBox="0 0 11 10" fill="none" xmlns="http://www.w3.org/2000/svg">
<path fill-rule="evenodd" clip-rule="evenodd" d="M7.90606 9.99936C7.99722 9.99936 8.08465 9.96174 8.14911 9.89477C8.21357 9.8278 8.24978 9.73697 8.24978 9.64226V1.21977L10.4125 3.46734C10.477 3.53439 10.5646 3.57206 10.6558 3.57206C10.7471 3.57206 10.8347 3.53439 10.8992 3.46734C10.9637 3.40029 11 3.30934 11 3.21451C11 3.11969 10.9637 3.02874 10.8992 2.96169L8.14942 0.104911C8.11749 0.0716555 8.07956 0.0452711 8.0378 0.0272688C7.99604 0.00926653 7.95127 0 7.90606 0C7.86085 0 7.81608 0.00926653 7.77432 0.0272688C7.73256 0.0452711 7.69463 0.0716555 7.6627 0.104911L4.91292 2.96169C4.84838 3.02874 4.81212 3.11969 4.81212 3.21451C4.81212 3.30934 4.84838 3.40029 4.91292 3.46734C4.97746 3.53439 5.065 3.57206 5.15628 3.57206C5.24755 3.57206 5.33509 3.53439 5.39963 3.46734L7.56234 1.21977V9.64226C7.56234 9.73697 7.59855 9.8278 7.66301 9.89477C7.72747 9.96174 7.8149 9.99936 7.90606 9.99936ZM3.09394 0.000638327C3.1851 0.000638327 3.27253 0.038261 3.33699 0.10523C3.40145 0.172198 3.43766 0.263028 3.43766 0.357736V8.78023L5.60037 6.53266C5.66491 6.46561 5.75245 6.42794 5.84372 6.42794C5.935 6.42794 6.02254 6.46561 6.08708 6.53266C6.15162 6.59971 6.18788 6.69066 6.18788 6.78549C6.18788 6.88031 6.15162 6.97126 6.08708 7.03831L3.3373 9.89509C3.30537 9.92834 3.26744 9.95473 3.22568 9.97273C3.18392 9.99073 3.13915 10 3.09394 10C3.04873 10 3.00396 9.99073 2.9622 9.97273C2.92044 9.95473 2.88251 9.92834 2.85058 9.89509L0.100801 7.03831C0.0362593 6.97126 -2.15054e-09 6.88031 0 6.78549C2.15054e-09 6.69066 0.0362593 6.59971 0.100801 6.53266C0.165343 6.46561 0.252881 6.42794 0.344157 6.42794C0.435433 6.42794 0.522971 6.46561 0.587513 6.53266L2.75022 8.78023V0.357736C2.75022 0.263028 2.78643 0.172198 2.85089 0.10523C2.91535 0.038261 3.00278 0.000638327 3.09394 0.000638327V0.000638327Z" fill="white"/>
</svg>
