<svg width="20" height="21" viewBox="0 0 20 21" fill="none" xmlns="http://www.w3.org/2000/svg">
<path d="M2.5 0.475098C1.83696 0.475098 1.20107 0.776854 0.732233 1.31398C0.263392 1.85111 0 2.57962 0 3.33923L0 17.6599C0 18.4195 0.263392 19.148 0.732233 19.6852C1.20107 20.2223 1.83696 20.5241 2.5 20.5241H17.5C18.163 20.5241 18.7989 20.2223 19.2678 19.6852C19.7366 19.148 20 18.4195 20 17.6599V3.33923C20 2.57962 19.7366 1.85111 19.2678 1.31398C18.7989 0.776854 18.163 0.475098 17.5 0.475098H2.5ZM17.5 1.90717C17.8315 1.90717 18.1495 2.05804 18.3839 2.32661C18.6183 2.59517 18.75 2.95943 18.75 3.33923V6.20337H1.25V3.33923C1.25 2.95943 1.3817 2.59517 1.61612 2.32661C1.85054 2.05804 2.16848 1.90717 2.5 1.90717H17.5ZM1.25 17.6599V7.63544H6.25V19.092H2.5C2.16848 19.092 1.85054 18.9411 1.61612 18.6725C1.3817 18.404 1.25 18.0397 1.25 17.6599ZM7.5 19.092V7.63544H18.75V17.6599C18.75 18.0397 18.6183 18.404 18.3839 18.6725C18.1495 18.9411 17.8315 19.092 17.5 19.092H7.5Z" fill="#1A1363"/>
</svg>
